<svg version="1.1" xmlns="http://www.w3.org/2000/svg" viewBox="0 0 187.0091060302783 244.7957486397338" width="374.0182120605566" height="489.5914972794676">
  <!-- svg-source:excalidraw -->
  
  <defs>
    <style class="style-fonts">
      @font-face {
        font-family: "Virgil";
        src: url("https://excalidraw.com/Virgil.woff2");
      }
      @font-face {
        font-family: "Cascadia";
        src: url("https://excalidraw.com/Cascadia.woff2");
      }
    </style>
  </defs>
  <g stroke-linecap="round" transform="translate(10 94.57925136026608) rotate(0 32.477234924304355 48.646632107919174)"><path d="M0 0 C0 0, 0 0, 0 0 M0 0 C0 0, 0 0, 0 0 M-0.39 6.79 C1.02 3.36, 4.21 2.7, 5.33 -0.35 M0.02 6.78 C1.44 4.52, 2.9 3.32, 4.87 0.13 M1.27 10.76 C2.12 9.51, 6.42 3.54, 10.78 -1.07 M0.35 12.41 C2.87 9.81, 4.05 6.21, 10.73 -0.64 M1.57 20.22 C4.56 12.77, 9.68 4.5, 17.3 2.23 M0.49 19.18 C2.36 15.49, 6.54 10.04, 15.17 0.26 M-1.59 24.98 C9.19 15.25, 13.82 6.41, 22.8 -0.56 M-0.15 24.07 C8.17 14.76, 17.22 4.82, 22.18 -0.39 M0.65 29.45 C8.88 19.62, 19.02 9.32, 24.59 1.8 M0.12 30.19 C8.44 20.13, 17.86 11.36, 25.86 -0.66 M-2.25 37.93 C6.89 26.94, 18.13 15, 33.74 -1.63 M-0.88 36.96 C9.1 24.05, 20.73 11.49, 31.56 -0.74 M-1.19 42.77 C15.75 26.56, 29.64 9.11, 36.46 2.14 M1.07 42.8 C11.22 29.04, 22.62 16.59, 37.8 0.28 M1.25 47.01 C12.46 36.19, 21.65 20.47, 44.12 -1.68 M-0.24 48.72 C13.21 33.56, 28.24 16.15, 41.69 0.74 M0.14 53.4 C12.19 39.88, 23.79 25.99, 46.62 -1.36 M-0.69 55.42 C17.68 35.28, 36.33 14.91, 46.8 -0.23 M1.59 62.72 C12.03 46.43, 25.27 32.9, 54.38 1.68 M0.1 60.63 C18.77 39.62, 37.04 17.49, 52.62 -0.37 M0.07 66.86 C11.44 52.38, 24.79 33.85, 59.76 -0.81 M-0.55 68.21 C15.73 47.17, 34.07 28.21, 58.42 1.03 M-0.92 71.35 C16.07 50.48, 37.28 31.78, 62.96 0.37 M0.9 73.71 C18.76 51.49, 37.33 29.7, 64.69 -0.49 M-2.06 79.95 C17.89 55.81, 37.48 33.34, 68.21 -0.26 M0.31 79.03 C25.4 51.97, 49 23.81, 67.69 2.25 M-1 85.7 C22.65 57.86, 42.89 33.69, 69 6.15 M-0.32 84.44 C22.98 59.35, 43.76 34.48, 66.26 7.22 M-0.89 91.24 C16.18 72.52, 30.45 54.26, 68.06 13.07 M0.01 91 C17.27 70.06, 35.99 48.4, 66.18 14.41 M1.58 95.11 C26.65 68, 50.67 37.22, 68.8 19.47 M-0.27 97.82 C22.75 72.21, 46.55 45.99, 67.15 20.77 M4.81 98.05 C20.09 79.9, 34.53 64.11, 67.39 24.6 M4.85 98.43 C19.22 80.45, 32.83 64.25, 67.26 26.07 M10.53 95.39 C30.11 76.15, 50.67 52.57, 65.97 33.07 M11.61 96.22 C27.93 78.97, 43.3 59.56, 67.74 31.92 M14.98 99.28 C37.39 72.5, 55.49 52.43, 66.12 37.12 M15.14 96.66 C26.16 84.97, 38.51 72.57, 66.89 39.15 M22.89 99.76 C37.39 80.37, 55.65 60.33, 66.13 45.74 M21.98 97.44 C33.36 84.53, 45.36 69.47, 66.78 44.91 M26.28 97.37 C40.13 83.63, 52.89 68.92, 65.75 51.19 M26.21 97.04 C38.81 82.67, 50.29 70.64, 66.48 50.26 M33.12 97.67 C41.56 84.32, 51.4 74.03, 68.86 57.57 M30.73 98.39 C39.8 88.55, 48.56 78.14, 66.23 56.74 M36.62 96.29 C48.97 87, 58.18 71.28, 66.79 63.89 M37.91 97.88 C49.63 84.6, 59.46 71.07, 67.19 62.49 M40.68 97.31 C46.94 88.99, 55.79 81.32, 65.74 68.4 M41.56 96.75 C48.47 90.1, 56.56 81.09, 66.36 68.62 M49.82 97.51 C55.31 89.38, 60.6 82.46, 66.04 75.61 M48.33 97.45 C52.64 91.39, 57.06 87.51, 66.3 75.21 M54.65 96.71 C54.44 93.56, 59.73 88.86, 68.94 80.88 M53.59 96.93 C57.78 91.01, 63.48 86.36, 67.35 82.01 M58.02 97.78 C62.16 93.5, 64.31 89.83, 65.89 88.46 M58.75 97.11 C61.05 95.36, 63.65 92.56, 66.9 87.8 M63.4 97.85 C64.52 96.75, 66.56 94.3, 67.83 92.53 M63.58 97.68 C64.94 95.86, 66.18 94.41, 67.53 92.88 M0.13 97.4 C0.13 97.4, 0.13 97.4, 0.13 97.4 M0.13 97.4 C0.13 97.4, 0.13 97.4, 0.13 97.4 M6.12 97.72 C3.63 95.56, 3.27 94.17, -0.51 92.51 M5.52 97.07 C4.68 95.92, 3.45 94.86, -0.51 92.15 M12.94 98.56 C10.27 95.72, 7.33 90.73, -0.88 85.78 M12.37 96.48 C8.54 94.4, 5.38 91.85, 0.35 86.05 M20.24 97.29 C14.54 95.93, 10.31 90.82, 0.05 81.54 M18.29 97.6 C15.4 93.13, 10.95 89.57, -0.67 81.59 M23.16 96.67 C15.5 90.36, 3.99 79.14, -1.91 75.74 M24.58 96.25 C14.99 90.31, 6.79 81.83, -0.19 76.66 M29.54 96.18 C20.26 88.15, 7.58 77.31, -0.21 68.96 M30 97.64 C21.95 90.15, 11.63 82.31, -0.21 69.64 M34.87 97.16 C24.15 84.45, 10.83 74.34, 0.01 66.3 M36.99 97.16 C24.55 86.83, 13.51 78.8, 0.39 65.39 M43.22 96.77 C29.5 85.8, 21.16 77.22, 0.37 58.2 M42.97 96.78 C26.27 83.27, 11.38 69.53, 0.03 60.26 M50.67 97.66 C30.01 80.61, 9.13 65.4, 1.92 54.02 M49.13 96.84 C29.97 80.17, 9.78 64.51, -0.34 54.57 M54.19 98.26 C34.08 79.01, 13.92 63.42, 0.57 51.74 M53.91 97.32 C36.1 81.33, 16.61 63.44, -0.41 50.46 M62.68 97.06 C48.59 85.57, 35.25 74.83, 0.05 44.24 M61.43 98.17 C43.78 80.96, 25.13 64.42, 0.93 45.17 M65.56 95.7 C52.15 82.46, 37.12 72.67, -1.14 39.62 M66.55 95.4 C43.88 77.25, 22.56 58.44, 0.01 39.3 M63.73 91.2 C44.95 73.26, 21.99 54.75, -0.37 32.84 M65.35 91.4 C40.57 69.62, 13.66 45.59, 0.24 33.65 M67.59 86.16 C38.96 62.5, 13.87 41.17, -0.07 29.38 M65.57 86.11 C50.79 71.65, 35.39 58.46, 0.34 28.75 M64.39 79.96 C42.75 59.43, 21.01 38.65, 0.83 24.22 M65.41 80.3 C49.57 66.46, 33.15 51.36, -0.58 22.97 M67.43 74.26 C39.75 52.64, 14.14 31.34, 1.7 17.45 M65.28 76.07 C42.47 54.1, 18.88 34.4, 1.18 18.13 M66.74 70.07 C51.37 57.66, 36.57 45.59, 0.81 13.32 M65.89 69.94 C45.18 50.61, 24.22 34.09, -0.96 11.57 M65.83 65.3 C39.7 43.07, 15.91 21.16, 2.06 7.79 M65.46 63.5 C52.25 51.87, 39.24 39.75, 0.35 7.74 M65.05 60.51 C42.47 39.79, 21.62 21.34, -0.33 3.6 M66.58 59.09 C48.42 41.95, 29.36 26.12, -0.53 2.35 M66.55 53.14 C38.53 32.74, 14.09 9.1, 2.37 -0.83 M65.65 53.15 C46.7 38.83, 29.64 23.34, 1.48 -2.81 M65.27 49.84 C43.9 28.85, 20.25 8.21, 6.82 0.28 M65.27 48.53 C50.01 34.09, 30.7 18.34, 8.11 -1.05 M66.3 42.15 C48.16 27.08, 30.41 10.93, 15.5 -3.5 M66.16 43.23 C48.89 28.53, 34.96 15.14, 13.01 -2.39 M67.62 38.09 C56.76 31.23, 47.61 23.25, 21.77 -2.04 M65.28 38.01 C51.23 24.57, 33.93 10.3, 19.32 -1.7 M64.75 33.23 C56.49 25.81, 46.17 16.53, 24.69 -2.87 M65.04 32.44 C51.77 21.29, 39.39 9.98, 25.99 -2.93 M65.5 26.19 C56.62 17.98, 47.55 11.87, 33.79 -1.59 M65.43 26.58 C56.94 20.4, 48.48 11.85, 32.98 -2.49 M66.57 21.81 C58.77 14.01, 49.61 6.97, 40.44 -0.2 M65.15 20.97 C57.18 14.72, 49.8 7.45, 38.1 -1.52 M64.31 18.59 C57.24 11.52, 50.77 4.38, 42.85 -0.78 M65.82 16.3 C58.05 9.99, 53 4.28, 44.5 -2.57 M67.36 11.86 C62.91 8.03, 57.2 1.72, 48.98 -1.21 M65.08 11.48 C61.95 8.23, 56.84 3.58, 51 -1.27 M66.92 5.64 C63.19 2.45, 58.46 1.14, 57.35 -3.03 M66.54 6.9 C63.91 3.73, 60.11 2.12, 56.12 -1.82 M65.28 0.92 C64.97 -0.02, 63.93 -1.18, 62.67 -1.98 M65.77 0.56 C64.91 0.11, 64.46 -0.41, 62.49 -2.02" stroke="#ced4da" stroke-width="0.5" fill="none"></path><path d="M-1.09 0.73 C24.24 1.64, 48.93 0.6, 63.63 -0.32 M-0.5 0.21 C21.76 -0.51, 44.84 -0.21, 64.4 -0.91 M64.76 1.36 C64.93 24.33, 63.96 48.24, 65.56 97.27 M65.12 -0.88 C65.01 21.97, 63.8 41.97, 65.29 98.06 M65.71 95.5 C43.05 98.38, 23.03 98.23, 0.32 99.12 M65 97.71 C43.59 97.62, 22.7 97.34, -0.48 97.87 M0.46 97.68 C0.47 64.04, -0.54 26.75, -1.89 -1.82 M-0.04 98.19 C-0.66 76.44, -0.31 56.54, 0.81 0.8" stroke="#495057" stroke-width="1" fill="none"></path></g><g transform="translate(43.35767246483044 193.01429336641195) rotate(0 37.51754954751772 -1.942290885512108)" stroke="none"><path fill="#495057" d="M 2.62,0 Q 2.62,0 2.65,1.06 2.67,2.13 2.75,3.54 2.82,4.96 2.90,6.04 2.97,7.13 3.44,8.14 3.90,9.15 4.74,10.60 5.59,12.06 6.08,13.02 6.57,13.98 7.24,15.06 7.90,16.13 8.75,17.22 9.60,18.30 10.60,19.33 11.59,20.37 12.56,21.33 13.53,22.29 14.38,23.09 15.24,23.89 15.95,24.68 16.66,25.47 17.71,26.31 18.75,27.16 20.21,28.07 21.67,28.98 22.94,29.96 24.22,30.95 25.51,31.83 26.80,32.71 28.54,33.81 30.29,34.90 31.63,35.46 32.98,36.03 34.19,36.47 35.40,36.90 36.47,37.16 37.53,37.42 38.71,37.57 39.89,37.71 41.40,37.99 42.91,38.27 44.08,38.12 45.25,37.98 46.51,37.12 47.77,36.27 48.72,35.63 49.68,34.99 50.66,34.37 51.64,33.74 52.63,32.74 53.62,31.75 54.76,30.64 55.90,29.54 56.89,28.56 57.89,27.59 58.73,26.64 59.56,25.69 60.52,24.49 61.47,23.30 62.63,21.69 63.78,20.09 64.58,18.97 65.37,17.86 66.04,16.65 66.71,15.44 67.27,14.30 67.83,13.15 68.23,11.77 68.63,10.38 69.00,9.35 69.36,8.31 69.72,6.82 70.08,5.32 70.37,3.96 70.67,2.61 70.79,1.14 70.91,-0.32 71.17,-1.65 71.42,-2.99 71.43,-4.06 71.43,-5.14 71.48,-7.10 71.52,-9.05 71.55,-10.74 71.58,-12.42 71.33,-13.77 71.08,-15.12 70.64,-16.20 70.21,-17.28 69.83,-18.36 69.46,-19.43 68.80,-20.89 68.14,-22.35 67.78,-23.38 67.42,-24.42 67.12,-25.44 66.83,-26.47 66.52,-27.65 66.22,-28.84 65.76,-29.97 65.30,-31.11 65.04,-32.16 64.79,-33.21 64.34,-34.38 63.90,-35.55 63.52,-36.75 63.13,-37.95 62.39,-39.06 61.65,-40.17 61.26,-42.89 60.86,-45.60 60.96,-46.22 61.06,-46.84 61.35,-47.39 61.64,-47.94 62.10,-48.37 62.55,-48.80 63.12,-49.06 63.68,-49.32 64.30,-49.39 64.92,-49.46 65.53,-49.32 66.14,-49.19 66.68,-48.87 67.21,-48.55 67.62,-48.07 68.02,-47.60 68.25,-47.02 68.48,-46.44 68.52,-45.82 68.55,-45.19 68.38,-44.59 68.22,-43.99 67.87,-43.47 67.52,-42.96 67.02,-42.58 66.52,-42.20 65.93,-42.00 65.34,-41.80 64.72,-41.80 64.09,-41.80 63.50,-42.00 62.91,-42.20 62.41,-42.58 61.92,-42.95 61.57,-43.47 61.22,-43.99 61.05,-44.59 60.88,-45.19 60.92,-45.81 60.95,-46.43 61.18,-47.01 61.41,-47.59 61.81,-48.07 62.22,-48.55 62.75,-48.87 63.29,-49.19 63.90,-49.32 64.51,-49.46 65.13,-49.39 65.75,-49.32 66.31,-49.06 66.88,-48.80 67.33,-48.37 67.79,-47.94 68.08,-47.39 68.37,-46.84 68.47,-46.22 68.57,-45.61 68.57,-45.61 68.57,-45.61 68.61,-44.46 68.65,-43.31 69.26,-42.23 69.87,-41.15 70.33,-39.84 70.80,-38.53 71.20,-37.40 71.61,-36.28 71.73,-35.05 71.86,-33.83 72.38,-32.79 72.91,-31.75 73.31,-30.53 73.72,-29.30 73.92,-28.23 74.11,-27.16 74.44,-26.08 74.76,-25.01 75.22,-23.90 75.69,-22.79 76.14,-21.50 76.58,-20.21 76.95,-19.19 77.32,-18.18 77.72,-16.83 78.11,-15.49 78.30,-13.96 78.48,-12.43 78.51,-10.74 78.54,-9.05 78.58,-7.53 78.63,-6.00 78.60,-4.67 78.57,-3.34 78.38,-2.07 78.19,-0.81 77.95,0.30 77.71,1.42 77.59,2.84 77.46,4.25 77.22,5.36 76.97,6.47 76.57,8.49 76.17,10.51 75.79,11.87 75.41,13.23 75.03,14.29 74.65,15.35 73.97,16.77 73.28,18.18 72.72,19.13 72.16,20.08 71.57,21.03 70.98,21.97 70.31,22.90 69.63,23.83 68.61,25.39 67.58,26.95 66.85,27.85 66.12,28.74 65.48,29.63 64.85,30.52 63.92,31.60 62.99,32.67 62.00,33.68 61.02,34.68 60.12,35.55 59.22,36.42 58.17,37.37 57.12,38.33 55.66,39.49 54.21,40.65 52.86,41.55 51.51,42.46 50.12,43.34 48.73,44.22 47.42,44.68 46.10,45.15 44.55,45.20 43.00,45.24 41.90,45.05 40.80,44.86 39.65,44.63 38.50,44.40 37.17,44.13 35.83,43.86 34.33,43.42 32.83,42.98 31.64,42.51 30.46,42.04 28.75,41.28 27.04,40.53 25.90,39.92 24.76,39.31 23.13,38.29 21.51,37.28 20.62,36.65 19.74,36.02 18.77,35.30 17.80,34.57 16.63,33.80 15.45,33.04 14.43,32.23 13.42,31.43 12.51,30.69 11.61,29.95 10.73,29.05 9.85,28.15 8.85,27.14 7.86,26.13 6.61,24.89 5.36,23.64 4.45,22.58 3.55,21.53 2.82,20.42 2.09,19.31 1.38,18.09 0.67,16.88 0.09,15.49 -0.47,14.10 -1.04,13.10 -1.62,12.10 -2.07,11.11 -2.51,10.11 -2.74,8.63 -2.97,7.14 -2.90,6.05 -2.82,4.96 -2.75,3.54 -2.67,2.13 -2.65,1.06 -2.62,0 -2.58,-0.31 -2.54,-0.62 -2.43,-0.92 -2.32,-1.21 -2.14,-1.47 -1.96,-1.73 -1.72,-1.94 -1.48,-2.15 -1.21,-2.30 -0.93,-2.45 -0.62,-2.52 -0.31,-2.60 0.00,-2.60 0.31,-2.60 0.62,-2.52 0.93,-2.45 1.21,-2.30 1.49,-2.15 1.72,-1.94 1.96,-1.73 2.14,-1.47 2.32,-1.21 2.43,-0.92 2.54,-0.62 2.58,-0.31 2.62,0.00 2.62,0.00 L 2.62,0 Z"></path></g><g stroke-linecap="round" transform="translate(22.99089396972181 133.5519332694313) rotate(0 19.4863409545826 19.4863409545826)"><path d="M20 0 L38.97 20 L20 38.97 L0 20" stroke="none" stroke-width="0" fill="#868e96" fill-rule="evenodd"></path><path d="M20 0 C25.33 5.62, 30.67 11.25, 38.97 20 M20 0 C27.31 7.71, 34.62 15.41, 38.97 20 M38.97 20 C35.11 23.86, 31.26 27.72, 20 38.97 M38.97 20 C32.43 26.54, 25.89 33.08, 20 38.97 M20 38.97 C12.66 32.01, 5.32 25.04, 0 20 M20 38.97 C13.67 32.96, 7.33 26.96, 0 20 M0 20 C4.89 15.11, 9.78 10.22, 20 0 M0 20 C7.01 12.99, 14.02 5.98, 20 0" stroke="#495057" stroke-width="1" fill="none"></path></g><g stroke-linecap="round" transform="translate(100.93625778805222 42.61567548137907) rotate(0 6.495446984860848 45.46812889402611)"><path d="M2.16 0.73 L11.27 1.73 L13.66 3.72 L11.67 87.37 L13.05 90.93 L11.45 89.94 L2.25 89.61 L0.09 88.1 L0.69 2.14 L-1.01 -0.32 L4.77 -1.93" stroke="none" stroke-width="0" fill="#868e96"></path><path d="M3.25 0 M3.25 0 C5.35 -0.54, 7.31 0.22, 9.74 0 M3.25 0 C5.34 0.1, 6.85 0.29, 9.74 0 M9.74 0 C13.72 -0.95, 12.67 1.76, 12.99 3.25 M9.74 0 C13.68 0.62, 15.1 2.63, 12.99 3.25 M12.99 3.25 C12.89 32.31, 12.74 60.57, 12.99 87.69 M12.99 3.25 C13.4 36.34, 13.64 69.27, 12.99 87.69 M12.99 87.69 C13.43 90.59, 11.78 89.97, 9.74 90.94 M12.99 87.69 C14.32 91.07, 12.73 89.66, 9.74 90.94 M9.74 90.94 C7.99 90.9, 4.93 90.35, 3.25 90.94 M9.74 90.94 C8.55 90.91, 7.32 90.64, 3.25 90.94 M3.25 90.94 C-0.53 89.89, -1.31 91.47, 0 87.69 M3.25 90.94 C2.92 92.12, 0.14 91.15, 0 87.69 M0 87.69 C-1.21 68.16, -1.2 49.54, 0 3.25 M0 87.69 C0.1 68.64, 1.55 46.74, 0 3.25 M0 3.25 C-0.68 0.76, -0.09 1.49, 3.25 0 M0 3.25 C-1.35 2.75, 2.75 -0.28, 3.25 0" stroke="#495057" stroke-width="2" fill="none"></path></g><g stroke-linecap="round" transform="translate(100.93625778805222 133.5519332694313) rotate(0 6.495446984860848 6.495446984860877)"><path d="M3.98 0.11 L13.7 1.48 L12.65 10.86 L0.49 13.05 L1.01 3.53 L2.25 0.42" stroke="none" stroke-width="0" fill="#ced4da"></path><path d="M3.25 0 M3.25 0 C5.06 -0.37, 5.82 -0.38, 9.74 0 M3.25 0 C5.91 -0.12, 8.24 -0.28, 9.74 0 M9.74 0 C12.83 0.61, 12.97 -0.59, 12.99 3.25 M9.74 0 C10.29 1.03, 13.36 -0.95, 12.99 3.25 M12.99 3.25 C12.94 5.89, 13.55 8.28, 12.99 9.74 M12.99 3.25 C12.74 5.68, 13.14 8.43, 12.99 9.74 M12.99 9.74 C13.49 12.23, 13.73 13.55, 9.74 12.99 M12.99 9.74 C14.02 12.29, 12.02 13.94, 9.74 12.99 M9.74 12.99 C7.79 12.7, 6.29 13.36, 3.25 12.99 M9.74 12.99 C7.62 13.14, 5.55 12.97, 3.25 12.99 M3.25 12.99 C-0.83 11.1, -1.82 10.03, 0 9.74 M3.25 12.99 C0.59 14.15, -0.09 13.97, 0 9.74 M0 9.74 C-0.37 8.88, 0.57 7.31, 0 3.25 M0 9.74 C-0.22 7.58, -0.31 5.63, 0 3.25 M0 3.25 C-1.66 0.38, -0.17 -1.38, 3.25 0 M0 3.25 C0.2 -0.03, 3.38 2.23, 3.25 0" stroke="#495057" stroke-width="2" fill="none"></path></g><g transform="translate(114.93699078120164 26.08130585548747) rotate(0 8.61788503284373 19.727382932536443)" stroke="none"><path fill="#495057" d="M 0.40,-2.42 Q 0.40,-2.42 0.91,-2.38 1.42,-2.35 2.62,-2.21 3.83,-2.07 4.90,-1.66 5.97,-1.25 7.19,-0.69 8.41,-0.13 9.52,0.74 10.62,1.61 11.70,2.67 12.77,3.73 13.57,4.77 14.36,5.81 14.97,6.88 15.58,7.95 16.18,8.96 16.78,9.98 17.30,11.07 17.81,12.17 18.47,13.45 19.13,14.74 19.47,15.94 19.81,17.15 20.09,18.31 20.37,19.47 20.50,20.75 20.62,22.02 20.72,23.28 20.82,24.55 20.91,25.63 21.00,26.72 21.00,28.03 21.01,29.34 21.02,30.51 21.03,31.67 21.04,32.90 21.05,34.13 20.91,35.42 20.77,36.71 19.90,39.09 19.04,41.46 18.61,41.91 18.19,42.36 17.64,42.66 17.09,42.95 16.48,43.06 15.87,43.16 15.25,43.06 14.64,42.96 14.09,42.68 13.54,42.39 13.11,41.94 12.68,41.49 12.42,40.93 12.16,40.37 12.08,39.75 12.01,39.13 12.14,38.53 12.28,37.92 12.59,37.39 12.91,36.85 13.38,36.45 13.85,36.04 14.43,35.81 15.00,35.58 15.62,35.54 16.24,35.50 16.84,35.67 17.44,35.83 17.96,36.18 18.47,36.52 18.85,37.01 19.23,37.51 19.43,38.09 19.63,38.68 19.63,39.30 19.64,39.92 19.44,40.51 19.25,41.10 18.87,41.60 18.50,42.09 17.99,42.45 17.48,42.80 16.88,42.97 16.28,43.13 15.66,43.10 15.04,43.07 14.46,42.85 13.89,42.62 13.41,42.22 12.94,41.82 12.61,41.29 12.29,40.76 12.15,40.15 12.02,39.55 12.08,38.93 12.14,38.31 12.40,37.75 12.66,37.18 12.66,37.18 12.66,37.19 13.04,35.66 13.41,34.13 13.43,32.90 13.44,31.67 13.44,30.51 13.45,29.34 13.46,28.07 13.46,26.79 13.40,25.73 13.33,24.67 13.32,23.59 13.31,22.51 13.13,21.32 12.95,20.14 12.77,19.09 12.58,18.04 12.17,17.03 11.76,16.01 11.16,14.65 10.55,13.28 10.03,12.29 9.50,11.30 8.83,10.09 8.16,8.88 7.40,7.84 6.64,6.80 5.87,5.86 5.11,4.91 4.09,4.36 3.08,3.81 1.82,3.24 0.57,2.68 0.08,2.55 -0.40,2.42 -0.69,2.34 -0.97,2.25 -1.23,2.10 -1.49,1.95 -1.70,1.75 -1.91,1.54 -2.07,1.29 -2.23,1.04 -2.32,0.76 -2.41,0.47 -2.43,0.18 -2.45,-0.11 -2.41,-0.40 -2.36,-0.69 -2.24,-0.97 -2.12,-1.24 -1.94,-1.47 -1.76,-1.71 -1.53,-1.90 -1.30,-2.08 -1.03,-2.21 -0.76,-2.33 -0.47,-2.39 -0.18,-2.45 0.11,-2.44 0.40,-2.42 0.40,-2.42 L 0.40,-2.42 Z"></path></g><g transform="translate(132.53559245580902 17.908714160863724) rotate(0 9.026387753376014 27.299906966254127)" stroke="none"><path fill="#495057" d="M 1.04,-2.35 Q 1.04,-2.35 2.01,-1.96 2.98,-1.56 4.34,-0.60 5.71,0.36 6.75,1.04 7.78,1.72 8.70,2.75 9.62,3.78 10.43,4.53 11.24,5.28 11.99,6.16 12.73,7.03 13.70,7.83 14.67,8.62 15.31,9.48 15.94,10.34 16.84,11.47 17.74,12.60 18.27,13.53 18.81,14.46 19.47,15.64 20.13,16.82 20.63,18.29 21.14,19.76 21.41,20.83 21.68,21.90 21.74,23.07 21.79,24.25 21.80,25.48 21.82,26.71 21.82,27.99 21.82,29.27 21.83,30.36 21.84,31.45 21.73,33.09 21.61,34.74 21.46,36.30 21.32,37.87 21.19,38.99 21.07,40.11 20.86,41.83 20.65,43.56 20.33,44.86 20.02,46.17 19.74,47.36 19.45,48.55 18.92,49.98 18.39,51.41 17.63,52.52 16.87,53.64 16.03,55.16 15.19,56.67 14.77,57.14 14.34,57.60 13.79,57.91 13.23,58.21 12.61,58.32 11.99,58.43 11.37,58.34 10.74,58.25 10.18,57.96 9.62,57.68 9.18,57.23 8.74,56.77 8.46,56.21 8.19,55.64 8.11,55.01 8.03,54.39 8.16,53.77 8.28,53.15 8.60,52.60 8.92,52.06 9.39,51.64 9.87,51.22 10.45,50.98 11.03,50.74 11.66,50.70 12.29,50.65 12.90,50.81 13.51,50.97 14.04,51.32 14.57,51.66 14.96,52.16 15.35,52.65 15.56,53.25 15.77,53.84 15.78,54.47 15.79,55.10 15.60,55.71 15.40,56.31 15.03,56.81 14.66,57.32 14.14,57.69 13.62,58.05 13.02,58.23 12.41,58.40 11.78,58.38 11.15,58.36 10.56,58.13 9.97,57.91 9.48,57.51 9.00,57.11 8.66,56.57 8.33,56.03 8.18,55.42 8.04,54.81 8.10,54.18 8.16,53.55 8.41,52.97 8.67,52.40 8.67,52.40 8.67,52.40 9.95,50.35 11.24,48.31 11.79,47.21 12.34,46.12 12.49,45.02 12.64,43.92 12.92,42.89 13.20,41.87 13.28,40.68 13.37,39.49 13.42,38.36 13.47,37.22 13.77,35.97 14.08,34.71 14.16,33.62 14.25,32.53 14.26,31.42 14.27,30.32 14.27,29.18 14.28,28.04 14.28,26.71 14.29,25.38 14.34,24.26 14.39,23.15 14.08,21.78 13.77,20.41 13.23,19.31 12.70,18.21 11.97,17.01 11.24,15.82 10.60,14.87 9.95,13.93 9.19,13.05 8.42,12.17 7.74,11.27 7.05,10.36 6.30,9.51 5.56,8.67 4.85,7.62 4.14,6.58 3.27,5.76 2.41,4.95 1.62,4.10 0.83,3.25 -0.10,2.80 -1.04,2.35 -1.31,2.19 -1.57,2.03 -1.79,1.81 -2.01,1.60 -2.18,1.33 -2.34,1.07 -2.43,0.77 -2.53,0.47 -2.55,0.16 -2.57,-0.14 -2.51,-0.44 -2.46,-0.75 -2.33,-1.03 -2.21,-1.32 -2.02,-1.56 -1.83,-1.81 -1.58,-2.00 -1.34,-2.19 -1.06,-2.32 -0.77,-2.45 -0.47,-2.51 -0.16,-2.57 0.14,-2.55 0.45,-2.53 0.74,-2.44 1.04,-2.35 1.04,-2.35 L 1.04,-2.35 Z"></path></g><g transform="translate(156.2186011107666 10) rotate(0 10.395252459755852 36.520396943982405)" stroke="none"><path fill="#495057" d="M 2.29,-1.17 Q 2.29,-1.17 2.60,-0.64 2.92,-0.12 3.95,0.71 4.98,1.55 5.99,2.31 7.00,3.07 7.90,3.67 8.80,4.27 9.67,5.01 10.53,5.76 11.38,6.52 12.24,7.28 13.09,8.40 13.95,9.51 14.50,10.91 15.05,12.31 15.48,13.54 15.90,14.76 16.42,15.71 16.94,16.65 17.44,17.62 17.95,18.59 18.68,20.24 19.42,21.88 19.91,22.89 20.40,23.90 20.80,24.95 21.20,25.99 21.57,27.13 21.94,28.26 22.32,29.52 22.71,30.79 23.02,31.84 23.33,32.90 23.68,34.17 24.03,35.44 24.21,36.70 24.39,37.97 24.47,39.19 24.55,40.41 24.56,41.55 24.57,42.69 24.47,44.36 24.37,46.04 23.84,47.49 23.32,48.93 22.92,50.10 22.52,51.28 22.06,52.25 21.60,53.23 21.15,54.24 20.71,55.24 20.19,56.26 19.67,57.28 19.09,58.27 18.51,59.25 17.88,60.45 17.25,61.66 16.35,62.97 15.45,64.28 14.97,65.47 14.48,66.66 14.01,67.84 13.53,69.02 13.08,70.21 12.64,71.39 11.99,72.44 11.35,73.49 10.08,74.43 8.81,75.36 8.35,75.80 7.88,76.23 7.31,76.50 6.73,76.76 6.10,76.83 5.46,76.90 4.84,76.76 4.22,76.62 3.68,76.29 3.13,75.96 2.72,75.48 2.31,74.99 2.08,74.40 1.85,73.81 1.81,73.18 1.78,72.54 1.95,71.93 2.12,71.32 2.48,70.79 2.84,70.27 3.34,69.88 3.85,69.50 4.45,69.30 5.06,69.09 5.69,69.10 6.33,69.10 6.93,69.30 7.53,69.51 8.04,69.89 8.54,70.28 8.90,70.81 9.26,71.33 9.42,71.95 9.59,72.56 9.56,73.19 9.52,73.83 9.28,74.42 9.05,75.01 8.63,75.49 8.22,75.98 7.68,76.30 7.13,76.63 6.51,76.76 5.89,76.90 5.26,76.83 4.62,76.76 4.05,76.49 3.47,76.22 3.01,75.78 2.55,75.34 2.25,74.78 1.96,74.22 1.86,73.59 1.76,72.96 1.86,72.34 1.96,71.71 2.26,71.15 2.56,70.59 2.56,70.59 2.56,70.59 4.28,68.93 5.99,67.28 6.42,66.23 6.85,65.19 7.35,64.12 7.85,63.06 8.37,61.81 8.89,60.57 9.68,59.29 10.47,58.02 11.09,57.08 11.71,56.14 12.41,54.74 13.12,53.33 13.87,52.14 14.61,50.94 15.06,49.56 15.51,48.17 15.93,47.03 16.35,45.90 16.67,44.71 16.99,43.52 17.00,42.29 17.01,41.05 16.94,39.77 16.87,38.49 16.68,37.35 16.48,36.22 16.18,35.15 15.87,34.08 15.64,32.88 15.40,31.68 14.87,30.27 14.33,28.87 13.94,27.59 13.55,26.32 12.86,24.66 12.17,23.00 11.65,22.07 11.13,21.13 10.58,19.94 10.03,18.75 9.35,17.15 8.67,15.54 8.39,14.28 8.10,13.02 7.21,11.93 6.32,10.83 5.43,9.94 4.53,9.05 3.46,8.19 2.39,7.32 1.26,6.13 0.12,4.94 -0.84,3.62 -1.81,2.30 -2.05,1.73 -2.29,1.17 -2.39,0.88 -2.50,0.58 -2.53,0.28 -2.57,-0.02 -2.53,-0.33 -2.49,-0.64 -2.37,-0.93 -2.26,-1.22 -2.08,-1.47 -1.90,-1.72 -1.67,-1.93 -1.43,-2.13 -1.16,-2.27 -0.88,-2.41 -0.58,-2.48 -0.28,-2.55 0.02,-2.55 0.33,-2.55 0.63,-2.47 0.93,-2.39 1.21,-2.24 1.48,-2.10 1.71,-1.89 1.94,-1.68 2.11,-1.42 2.29,-1.17 2.29,-1.17 L 2.29,-1.17 Z"></path></g></svg>