<svg version="1.1" xmlns="http://www.w3.org/2000/svg" viewBox="0 0 140.0000000000001 323.27207256275716" width="280.0000000000002" height="646.5441451255143">
  <!-- svg-source:excalidraw -->
  
  <defs>
    <style class="style-fonts">
      @font-face {
        font-family: "Virgil";
        src: url("https://excalidraw.com/Virgil.woff2");
      }
      @font-face {
        font-family: "Cascadia";
        src: url("https://excalidraw.com/Cascadia.woff2");
      }
    </style>
  </defs>
  <g stroke-linecap="round" transform="translate(-50 69.9999999999999) rotate(270 119.99999999999994 60)"><path d="M0 0 C0 0, 0 0, 0 0 M0 0 C0 0, 0 0, 0 0 M-0.21 5.83 C1.21 5.11, 2.29 2.68, 4.4 0.75 M-0.59 6.31 C0.95 4.78, 2.39 3.65, 5.23 0.28 M-0.43 10.78 C2.69 10.23, 4.86 8.14, 11.21 -1.62 M0.54 11.73 C2.87 8.32, 4.91 6.33, 10.29 -0.61 M0.62 20.34 C6.63 13.99, 8.91 8.44, 15.79 -0.4 M-0.54 19.33 C6.4 11.16, 11.58 4.68, 16.14 -0.43 M0.21 22.82 C4.7 17.43, 11.62 9.91, 19.69 1.42 M0.5 24.15 C5.8 18.63, 10.63 13.23, 21.42 -0.61 M0.97 32.35 C6.23 22.59, 13.53 14.4, 24.66 1.01 M-0.98 30.17 C6.05 22.81, 11.46 17.5, 25.29 0.53 M0.55 36.94 C8.63 27.93, 14.51 20.65, 30.69 -0.98 M0.34 37.46 C10.67 23.54, 20.03 11.76, 31.82 -0.54 M-0.21 43.2 C9.49 34.68, 18.4 20.68, 35.14 1.85 M0.2 43.51 C9.06 32.02, 18.6 21.32, 35.96 -0.54 M1.13 47.23 C9.84 35.83, 18.52 27.66, 44.36 -1.68 M0.18 49.65 C11.89 33.91, 24.1 20.12, 43.17 -0.16 M-0.55 56.04 C16.59 36.32, 31.76 18.98, 48.75 -1.61 M0.58 54.94 C10.13 43.17, 20.64 31.05, 47.52 0.01 M1.2 62.31 C18.37 41.05, 38.27 15.8, 54.27 1.8 M0.56 60.33 C15.39 44.01, 29.67 27.67, 53.23 0.7 M-0.77 65.75 C21.91 42.64, 45.84 14.26, 57.55 0.84 M-0.94 66.57 C21.34 43.53, 41.56 18.77, 58.84 0.09 M-0.8 72.06 C25.07 44.97, 48.74 18.83, 65.47 0.94 M0.17 72.6 C21.29 47.01, 45.94 20.27, 64.74 -1.03 M-0.11 77.9 C22.86 52.6, 48.27 22.75, 70.15 -0.58 M-0.48 79 C21.67 54.21, 44.22 29.28, 69.29 0.89 M2.1 86.29 C27.39 54.59, 50 27.86, 72.58 -1.85 M0.18 84.83 C17.4 64.18, 36.05 43.28, 74.42 -0.66 M1.74 91.31 C19.93 67.76, 39.63 48.96, 77.65 -1.72 M-0.18 90.86 C16.11 73.17, 32.74 53.61, 79.71 -0.13 M-1.27 97.54 C23.66 70.07, 47.98 41.87, 85.73 0.84 M0.59 98.42 C33.01 61.69, 64.53 23.6, 85.98 -0.72 M1.32 104.99 C35.12 60.19, 72.39 20.8, 91.72 1.55 M-0.5 102.82 C26.72 70.73, 55.1 39.25, 89.41 -0.25 M0.45 108.06 C36.35 68.17, 70.47 29.14, 96.61 -0.61 M-0.16 109.77 C20.82 86.52, 40.65 64.93, 95.11 0 M0.66 116.95 C23.47 87.26, 46.53 61.15, 102.55 -0.65 M0.05 115.27 C38.17 71.6, 77.82 26.28, 101.21 -0.5 M-0.2 119.59 C32.75 81.99, 68.81 45, 104.41 1.11 M0.55 121.04 C33.8 80.66, 69.73 41.56, 106.48 -0.49 M7.24 119.35 C38.48 85.39, 68 45.3, 112.84 1.74 M5.88 120.61 C45.71 74.77, 85.88 30.1, 110.4 -0.63 M11.07 119.26 C51.37 76.34, 88.22 35.28, 117.2 1.09 M11.02 121.11 C49.83 78.73, 86 36.33, 116.11 0.31 M18.86 119.63 C39.61 96.11, 59.2 72.47, 123.85 0.77 M16.13 121.29 C46.48 86.05, 77.42 51.98, 121.76 -0.11 M20.05 122.04 C60.58 79.89, 97.58 32.83, 128.56 1.08 M22 121 C45.09 93.1, 68.31 68.11, 126.94 -0.58 M29.57 121.98 C58.08 86.13, 90.18 51.59, 133.36 0.43 M27.68 120.3 C61.02 81.79, 95.45 43.14, 132.56 0.83 M30.88 119.57 C59.36 90.75, 81.53 61.91, 135.64 0.07 M32.56 121.68 C63.41 85.51, 95.68 48.34, 137.96 -0.12 M39.53 120.26 C75.32 75.86, 113.24 34.16, 141.68 -1.28 M37.97 121.13 C73.44 79.2, 109.31 38.28, 143.53 0.24 M42.25 121.47 C80.9 81.18, 115.97 37.52, 147.75 1.29 M43.26 120.38 C73.79 87.73, 104.27 53.04, 147.77 0.74 M48.46 121.31 C87.4 77.77, 125.87 34.81, 153.65 1.58 M49.42 120 C88.87 73.33, 130.41 28.1, 153.91 -0.57 M53.38 121.29 C86.56 87.54, 114.29 52.52, 159.76 -1.08 M53.15 121.6 C85.73 84.9, 116.08 49.62, 158.98 0.82 M57.57 118.94 C90.44 87.33, 117.74 54.31, 164.64 0.91 M60.45 120.93 C99.45 72.91, 138.68 27.4, 164.42 -0.02 M66.01 122.58 C99.14 82.28, 133.18 44.59, 170.06 0.1 M64.75 120.11 C102.26 76.44, 143.39 30.11, 169.17 -0.28 M71.64 119.93 C94.39 90.15, 122.87 58.67, 174.57 0.62 M70.45 120.69 C95.71 90.66, 120.53 63.26, 174.26 0.73 M74.44 120.85 C113.98 78.1, 149.19 33.05, 178.57 -1.05 M75.07 119.93 C95.43 97.34, 116.84 72.73, 179.91 0.77 M80.97 122.01 C113.11 85.29, 142.32 46.61, 185.86 -1.45 M80.8 119.83 C111.7 82.7, 144.35 46.17, 186.11 -1.22 M87.46 121.58 C120.92 80.03, 160.2 38.76, 188.73 -1.44 M86.62 121.37 C126.14 76.08, 163.62 30.78, 189.73 0.1 M91.37 119.9 C128.41 79.83, 162.69 40.14, 197.48 0.51 M91.87 119.63 C127.38 77.4, 165.56 35.62, 197.13 0.52 M94.42 122.21 C129.88 84.83, 161.53 47.43, 201.53 0.99 M96.37 119.98 C129.49 81.65, 162.5 43.27, 201.2 -0.42 M102.2 119.28 C140.63 77.91, 181.19 33.45, 206.94 -1.68 M102 121.18 C145.21 72.82, 185.58 24.9, 205.99 0.59 M107.2 122.16 C134.87 90, 159.39 58.69, 213.49 1.26 M106.79 121.59 C147.5 74.3, 186.92 28.11, 211.81 -0.13 M111.71 119.56 C147.29 84.61, 181.99 44.68, 216.25 -0.29 M111.87 121.06 C138.6 91.48, 163.98 62.06, 217.81 -1.12 M118.19 120.81 C150.83 80.58, 182.29 44.81, 222.65 1.37 M116.83 121.3 C154.16 78.36, 192.56 34.01, 223.08 -0.62 M121.62 120.84 C163.5 72.16, 203.36 26.77, 229.99 -1.58 M122.1 121.36 C161.46 73.3, 201.99 26.8, 227.23 -0.43 M126.34 119.52 C152.35 94.64, 175.21 68.6, 234.58 0.27 M128.92 120.46 C162.94 79.88, 197.42 39.45, 233.5 -0.72 M135.22 122.46 C162.35 87.68, 193.39 50.81, 236.59 0.91 M132.36 121.21 C161.23 89.45, 189.34 57.18, 238.69 0.85 M139.11 119.61 C179.62 77.98, 216.33 34.1, 242.43 2.16 M137.98 121.7 C164.04 89.25, 191.94 58.34, 241.57 2.8 M142 121.99 C165.29 96.77, 185.83 70.11, 242.42 8.87 M142.91 120.73 C164.87 97.72, 185.3 72.24, 241.53 8.47 M150.51 120.37 C171.3 97.97, 192.38 72.58, 242.28 13.5 M150.42 119.91 C185.84 79.85, 222.77 36.84, 242.19 15.17 M154.98 121.95 C181.5 89.83, 207.44 58.37, 241.6 19.67 M155.03 120.83 C185.85 83.66, 217.42 48.6, 242.8 19.12 M159.05 121.05 C182.9 93.97, 201.75 71.11, 242.82 26.33 M161.12 121.24 C177.78 100.13, 194.54 81.69, 241.33 26.08 M164.7 119.82 C192.31 93.14, 218.46 60.86, 240.11 31.15 M165.98 120.17 C184.7 97.08, 206.33 72.18, 242.34 32.26 M169.8 118.89 C184.86 102.68, 199.93 84.09, 243.76 39.49 M170.45 120.11 C194.22 93.04, 216.56 67.44, 241.41 37.75 M177.23 122.08 C192.01 103.37, 205.91 84.62, 242.48 43.36 M175.99 120.18 C196.18 95.73, 218.18 71.16, 242.49 44.89 M180.36 119.08 C200.36 100.37, 216.46 77.8, 242.33 50.8 M181.28 120.22 C205.03 92.89, 227.07 67.41, 242.85 50.2 M188.19 122.15 C205.55 97.74, 225.83 74.78, 241.78 56.61 M187.29 120.04 C205.13 98.05, 224.49 75.98, 241.15 56.53 M190.85 120.79 C209.48 103.84, 223.25 85.98, 242.63 63.78 M191.93 121.51 C208.23 99.84, 226.36 80.11, 242.39 62.95 M196.71 122.44 C209.77 107.06, 219.01 93.33, 240.31 70.4 M197.09 121.73 C213.49 102.59, 229.28 83.47, 241.3 69.2 M201.91 119.16 C218.53 102.96, 233.88 85.02, 240.28 74.66 M203.25 121.2 C210.91 110.77, 219.61 102.49, 242.71 75.04 M207.46 120.31 C218.79 110.3, 227.95 98.53, 242.88 82.21 M208.57 120.97 C216.34 111.01, 225.31 100.78, 241.47 81.2 M212.75 119.27 C220.5 113.3, 226.66 105.45, 240.44 86.91 M213.52 120.78 C220.22 111.76, 229.46 101.92, 241.54 86.52 M216.65 122.1 C227.24 108.69, 235.81 98.82, 242.17 94.23 M217.92 120.25 C225.49 112.22, 233.92 104.41, 241.96 92.85 M222.41 122.98 C226.85 114.04, 230.73 109.22, 242.48 98.21 M222.9 121.74 C228.79 114.56, 235.14 107.87, 243.2 98.46 M230 121.12 C231.65 115.04, 236.68 112.89, 243.37 104.39 M229.29 119.82 C231.81 116.96, 236.2 112.71, 242.55 106.47 M234.26 120.27 C236.21 118.94, 238.72 116.01, 241.68 111.26 M233.29 121.45 C237.12 117.74, 240.73 113.7, 242.82 110.92 M0.21 120.18 C0.21 120.18, 0.21 120.18, 0.21 120.18 M0.21 120.18 C0.21 120.18, 0.21 120.18, 0.21 120.18 M5.26 119.93 C3.28 118.87, 1.88 116.3, -0.7 114.6 M5.58 119.89 C3.76 117.96, 0.83 115.68, -0.25 114.31 M13.57 118.59 C7.55 115.95, 1.56 113.13, -0.32 108.8 M12.67 120.83 C9.3 117.8, 6.15 114.54, -0.55 110.12 M16.93 120.24 C13.81 115.9, 5.97 109.47, -0.52 102.26 M19.27 120.88 C12.4 115.39, 5.63 108.51, 0.61 103.7 M24.89 120.34 C17.4 114.47, 13.83 111.02, -1.11 98.92 M23.44 119.58 C18.09 115.28, 13.77 110.15, 0.69 97.99 M32.4 118.49 C20.17 109.39, 5.09 99.55, -0.95 93.29 M30.38 119.34 C20.56 112.23, 10.96 104.45, -0.34 93.83 M38.28 118.61 C26.63 112.39, 18.33 103.53, 0.28 89.46 M36.62 119.13 C25.39 111.59, 16.39 102.86, 0.26 88.4 M43.91 118.46 C33.97 110.52, 25.71 104.99, -1.75 82.31 M43.48 120.16 C31.17 110.79, 19.58 100.04, 0.06 83.24 M50.23 119.81 C31.26 105, 12.73 89.31, -1.73 79.49 M48.15 120.39 C37.57 109.97, 27.25 101.26, 0.87 77.66 M56.36 119.03 C34.77 105.22, 20.12 88.71, -0.38 70.82 M55.27 120.69 C42.52 111.09, 32.89 101.29, -0.94 72.62 M60.15 119.77 C39.02 102.91, 19.94 83.34, 1.9 66.24 M61.58 119.91 C41.24 102.98, 22.23 85.41, 0.91 66.18 M65.2 121.05 C50.38 105.52, 35.02 94.23, 1.25 61.27 M65.94 120.53 C48.51 103.89, 31.67 88.88, -1.09 61.38 M73.24 121.22 C49.95 101.88, 27.68 78.17, 0.77 54.9 M73.74 120.97 C51.57 102.57, 30.51 82.56, -0.79 55.65 M79.14 122.01 C53.25 97.83, 29.87 75.7, -0.5 51.75 M78.92 121.22 C62.1 106.25, 45.52 91.48, 0.59 51.37 M83.49 121.22 C67.46 104.82, 49.91 89.29, -0.99 44.65 M84.64 119.95 C59.45 98.36, 34.42 77.3, 0.13 46.02 M91.17 119.38 C57.77 91.74, 24.85 62.55, -0.01 39.35 M90.83 120.59 C62.92 95.21, 32.81 69.65, -0.22 41.25 M96.41 117.8 C62.3 87.76, 27.02 58.63, 1.26 34.61 M97.31 119.98 C71.18 97.86, 46.3 75.9, 0.48 34.51 M105.08 120.57 C75.09 92, 43.67 68.19, 0.15 30.1 M103.09 119.7 C72.19 92.52, 41.6 65.73, 0.45 29.4 M111.8 120.6 C78.14 92.31, 46.57 61.16, -1.27 25.89 M109.51 120.65 C67.4 81.55, 23.87 45.23, 0.58 24.6 M114.43 118.32 C70.98 80, 30.84 44.17, 0.18 18.33 M115.8 119.21 C71.19 78.77, 23.63 39.71, 0.76 20.3 M122.72 118.28 C81.21 87.26, 40.93 52.23, -0.89 15.56 M121.71 120.32 C88.21 91.93, 53.36 61.51, -0.78 13.05 M129.31 121.32 C101.95 97.66, 76.06 73.15, 1.83 9.35 M127.57 119.07 C94.17 91.16, 59.79 61.27, 0.88 8.22 M134.05 120.43 C108.03 96.19, 78.3 69.86, 0.67 2.65 M134.66 119.09 C80.34 74.35, 27.68 29.73, 0.68 2.87 M139.09 120.89 C91.38 74.52, 39.28 30.44, -0.91 -1.9 M141.26 120.13 C98.03 83.49, 54.94 48.15, 0.7 -1.17 M145.42 120.93 C112.3 90.02, 80.83 62.89, 5.72 0.75 M145.3 119.17 C94.26 73.22, 43.08 29.37, 7.26 -1.1 M151.43 118.36 C104.13 75.87, 51.95 32.41, 13.34 -1.02 M151.92 120.55 C108.32 79.99, 63.08 40.61, 13.92 -1.89 M158 120.67 C106.48 74.22, 57.65 31.49, 20.57 0.21 M158.57 120.53 C111.58 77.34, 64.65 37.14, 20.2 -0.94 M162.77 118.98 C129.2 89.67, 96.33 57.82, 23.58 0.39 M164.37 120.71 C126.79 88.05, 89.95 55.35, 25.34 -2.23 M169.24 122.13 C130.39 84.61, 92.59 50.81, 30.52 -1.98 M171.17 120.58 C119.69 74.22, 66.19 28.38, 31.7 -0.78 M177.31 119.32 C143.82 88.67, 110.79 61.53, 38.43 0.16 M177.16 119.63 C133.33 80.36, 89.78 43.41, 37.81 -0.21 M183.87 120.81 C133.65 81.99, 89.79 37.03, 43.94 -2.88 M183.48 120.5 C146.78 87.22, 108.44 55.18, 43.98 -0.53 M189.82 117.94 C146.71 84.07, 105.81 49.88, 51.76 -0.88 M188.3 120.55 C140.52 76.23, 89.46 32.47, 48.9 -1.07 M196.42 119.14 C163.64 90.5, 132.22 64.97, 53.75 0.38 M195.17 120.24 C145.82 75.49, 96.18 32.31, 55.73 -0.86 M200.32 121.98 C159.11 85.7, 115.83 45.35, 61.25 -0.95 M201.08 120.68 C156.94 81.54, 113.02 43.44, 62.44 -0.29 M206.16 121.86 C168.7 86.3, 128.73 48.19, 68.14 -2.68 M207.1 120.82 C169.6 89.74, 131.99 57.8, 67.89 -1.49 M213.12 118.62 C168.35 78.72, 117.19 35.17, 75.36 -1.96 M213.97 119.49 C179.09 89.5, 145.92 61.2, 74.46 -1.25 M219.94 118.69 C191.33 95.18, 159.62 69.33, 81.55 -0.57 M219.14 120.04 C165.28 72.08, 110.38 23.86, 79.63 -0.87 M227.31 120.96 C173.65 71.79, 118.68 26.81, 84.05 -2.86 M226.21 119.7 C197.06 94.1, 167.15 69.03, 85.02 -1.59 M230.86 118.96 C185.47 77.21, 137.77 40.22, 93.25 -1.82 M231.91 120.15 C201.59 92.11, 168.88 65.83, 91.84 -1.2 M235.77 119.42 C206.25 91.79, 176.58 63.75, 97.61 -0.96 M237.77 119.64 C205.95 91.66, 175.9 65.29, 97.89 -1.48 M243.04 117.04 C193.77 78.67, 147.6 35.7, 106.26 0.32 M242.44 118.18 C213.95 94.72, 187.29 70.54, 105.18 -2.07 M239.6 113.16 C201.2 77.37, 158.65 39.36, 109.57 -0.59 M240.79 111.69 C199.45 74.12, 156.98 38.18, 110.55 -1.34 M243.11 107.66 C194.19 64.67, 147.19 25.78, 118.15 -1.43 M240.78 108.34 C206.83 77.95, 175.04 47.87, 115.75 -0.82 M243.26 102.48 C201.6 67.95, 160.31 35.14, 123.26 0.87 M241.75 101.63 C212.15 76.33, 183.42 50.85, 123.76 -0.82 M241.83 96.91 C203 62.07, 166.87 30.56, 127.77 -1.71 M242.53 96.02 C205.18 65.01, 170.3 34.12, 128.92 -0.85 M243 90.97 C214.12 68.01, 186.47 43.54, 134.78 0.36 M240.82 91.88 C199.12 54.69, 158.49 19.05, 135.49 -0.49 M241.68 85.36 C210.6 59.48, 177.87 28.41, 142.21 0.84 M241.48 85.86 C207.52 54.64, 172.51 25.29, 141.28 -1.27 M242.57 81.58 C218.64 61.71, 194.81 40.76, 147.79 -0.22 M242.67 80.48 C217.72 61.02, 191.83 39.75, 146.7 -2.12 M240.68 74.54 C218.85 56.4, 199.42 39.22, 151.41 -2.5 M242.4 75.25 C213.81 53.11, 187.01 28.08, 154.15 -1.95 M243.98 71.26 C212.13 45.82, 184.35 19.58, 160.19 0.64 M242.18 70.77 C210.3 42.34, 177.17 15.27, 159.07 -1.1 M242.37 64.94 C210.32 36.87, 182.2 9.48, 167.03 -3.13 M242.04 65.35 C224.08 49.75, 205.7 32.81, 165.58 -1.17 M242.06 60.89 C223.28 41.23, 203.18 24.33, 171.19 -0.52 M241.97 60.34 C226.48 46.41, 208.1 31.16, 171.04 0.02 M241.83 54.01 C221.54 39.06, 204.41 22.08, 177.31 -0.46 M242.15 54.09 C219.45 34.39, 196.58 15.5, 178.14 -1.92 M243.4 50.68 C218.79 30.3, 196.42 9.09, 183.77 -2.24 M242.4 49.36 C224.3 32.54, 206.26 18.26, 183.26 -1.61 M239.67 42.2 C227.55 32.12, 216.52 23.76, 189.74 0.68 M242.44 43.18 C222.93 28.32, 205.79 14.02, 190.59 -0.29 M241.11 38.77 C231.12 30.95, 220.28 19.79, 195.7 -2.75 M241.3 38.29 C222.25 23.13, 204.66 7.31, 196.64 -0.72 M240.02 34.9 C229.49 21.84, 215.46 12.92, 202.09 -2.48 M241.62 33.06 C230.28 24.75, 219.87 14.8, 201.94 -1.05 M240.87 27.32 C233.67 22.71, 227.28 12.07, 206.27 -1.3 M241.02 28.85 C230.15 17.1, 218.38 6.53, 208.04 -2.26 M240.56 24.47 C234.56 17.51, 228.93 12.37, 212.93 -0.84 M242.39 21.96 C233.45 14.93, 226.06 9.55, 214.94 -0.75 M242.84 16.42 C233.56 13.77, 230.35 6.21, 219.07 0.47 M241.34 17.02 C234.72 11.54, 227.35 3.25, 220.09 -1.77 M242.49 12.27 C235.35 9.35, 231.17 3.87, 224.6 -1.93 M242.43 10.88 C237.89 7.95, 233.63 4.05, 226.07 -1.33 M242.97 6.44 C237.7 3.62, 235.77 -0.04, 232.85 -1.63 M242.26 6.39 C238.48 3.08, 234.87 0.97, 232.98 -1 M241.23 1.51 C240.53 1.01, 240.37 0.44, 238.3 -1.77 M241.4 1.11 C240.48 0.65, 239.61 -0.16, 238.56 -1.2" stroke="#868e96" stroke-width="0.5" fill="none"></path><path d="M-0.94 1.56 C66.87 0.88, 136.64 0.61, 240.35 -0.09 M0.16 0.69 C93.86 0.83, 187 0.25, 239.98 -0.19 M239.9 -1.93 C238.14 32.55, 237.77 60.76, 239.76 120.5 M239.91 -0.84 C240.61 35.9, 241.78 72.33, 239.38 120.42 M239.84 120.82 C169.89 120.94, 97.61 120.92, 0.76 118.6 M240.41 120.75 C154.92 118.15, 69.76 119.48, 0.66 119.94 M1.77 120.73 C-2.19 86.01, -1.29 51.8, -0.95 -0.5 M-0.85 119.3 C1.39 79.98, 0.22 41.49, -0.14 -0.18" stroke="#495057" stroke-width="1" fill="none"></path></g><g stroke-linecap="round"><g transform="translate(114.25313162589634 283.06902991076487) rotate(270 -31.372134365607053 -0.34887069277465343)"><path d="M-1.03 -0.99 C-11.72 -0.98, -26.06 0.07, -61.92 0.29 M-0.82 -0.89 C-12.18 -0.85, -25.43 -0.23, -60.98 -0.81" stroke="#c92a2a" stroke-width="2" fill="none"></path></g></g><mask></mask><g stroke-linecap="round"><g transform="translate(93.72258920794104 282.55039672447316) rotate(270 -30.847546563483775 -0.3548253086059674)"><path d="M-0.99 1.25 C-21.94 -0.42, -41.43 -2.23, -59.71 -1.92 M-0.89 0.05 C-13.83 -1.46, -26.43 -1.47, -60.81 0.11" stroke="#000000" stroke-width="2" fill="none"></path></g></g><mask></mask></svg>