<svg version="1.1" xmlns="http://www.w3.org/2000/svg" viewBox="0 0 421.3922732217097 180.62365977740092" width="842.7845464434193" height="361.24731955480183">
  <!-- svg-source:excalidraw -->
  
  <defs>
    <style class="style-fonts">
      @font-face {
        font-family: "Virgil";
        src: url("https://excalidraw.com/Virgil.woff2");
      }
      @font-face {
        font-family: "Cascadia";
        src: url("https://excalidraw.com/Cascadia.woff2");
      }
    </style>
  </defs>
  <g stroke-linecap="round"><g transform="translate(11.038535257042952 114.96821159683168) rotate(0 200.15831381326078 -29.683853903750787)" fill-rule="evenodd"><path d="M0 0 C0 0, 0 0, 0 0 M0 0 C0 0, 0 0, 0 0 M4.01 2.02 C11.67 -10.49, 20.25 -18.7, 38.58 -39.33 M4.56 1.36 C13.31 -7.5, 18.95 -17.38, 40.53 -40.68 M10.87 0.96 C19.3 -12.46, 33.07 -26.36, 62.26 -58.92 M10.92 -0.09 C24.12 -16.08, 38.97 -33.79, 60.92 -58.97 M14.77 0.07 C29.01 -15.05, 44.64 -34.24, 68.52 -56.82 M15.81 1.14 C29.49 -15.89, 44.89 -31.95, 66.58 -57.99 M23.13 0.41 C35.53 -17.33, 52.38 -35.82, 73.63 -60.6 M20.29 -0.82 C32.05 -13.09, 41.97 -24.09, 72.77 -59.25 M26.74 -1.13 C40.93 -14.78, 54.95 -31.08, 78.95 -58.33 M26.2 0.62 C42.42 -18.32, 58.2 -35.68, 77.56 -58.94 M32.98 1.27 C47.84 -15.14, 62.11 -33.63, 81.83 -57.58 M31.9 0.44 C47.73 -17.93, 61.97 -36.13, 82.35 -59.15 M38.46 1.37 C54.01 -23.14, 74.1 -44.67, 86.32 -60.43 M36.6 1.01 C49.59 -14.62, 63.06 -29.33, 87.13 -57.87 M42.26 -2.04 C62.32 -21.2, 80.96 -45.08, 94.36 -60.36 M42.1 0.02 C61.75 -23.15, 82.76 -46.36, 93.31 -58.01 M46.56 1.93 C57.62 -10.08, 70.33 -24.96, 100.45 -57.2 M47.09 -0.48 C66.47 -20.87, 85.39 -43.6, 98.92 -59.45 M53.89 1.3 C69.89 -20.34, 84.71 -37.49, 102.18 -57.3 M52.94 -0.19 C70.49 -19.76, 85.99 -38.23, 102.83 -57.34 M59.76 0.32 C71.58 -13.19, 82.7 -27.84, 110.21 -60.27 M57.96 0.46 C75.71 -18.91, 91.35 -37.35, 109.25 -57.83 M61.89 0.51 C78.43 -13.32, 89.28 -28.63, 116.27 -59.59 M63.19 0.24 C81.3 -20.32, 100.57 -41.81, 115.29 -58.88 M68.87 -0.28 C87.35 -19.45, 103.85 -40.39, 121.61 -56.89 M68.69 0.14 C84.3 -16.47, 96.75 -32.57, 120.14 -59.57 M73.37 1.22 C88.58 -14.25, 99.51 -29.09, 125.77 -58.79 M75.31 -0.72 C92 -19.88, 111.15 -42.15, 125.28 -59.08 M80.81 0.72 C99.78 -24.33, 121.29 -45.5, 131.72 -59.9 M78.97 -0.06 C90.89 -12.48, 102.57 -24.43, 130.32 -58.73 M86.54 -0.54 C105.72 -23.2, 123.26 -45.84, 134.56 -59.76 M84.46 -0.54 C103.48 -22.75, 122.98 -44.36, 135.24 -59.06 M88.57 -0.71 C105.38 -18.19, 124.74 -38.02, 142.71 -57.75 M89.7 -0.71 C100.01 -13.34, 112.52 -25.25, 140.22 -57.79 M96.71 -0.32 C110.23 -20.3, 128.17 -35.05, 146.61 -58.01 M95.52 -1.14 C110.08 -18.27, 126.91 -35.6, 145.85 -58.91 M101.26 0.84 C113.08 -14.52, 130.12 -31.01, 151.86 -60.44 M99.97 0.66 C119.24 -20.37, 137.11 -42.04, 150.98 -58.69 M106.25 0.73 C117.83 -12.16, 129.53 -24.44, 155.98 -57.59 M106.06 0.09 C125.84 -21.34, 144.95 -44.75, 156.96 -58.69 M110.07 -1.83 C130.19 -22.73, 152.28 -46.55, 161.53 -57.61 M112.08 0.56 C123.35 -13.01, 134.2 -24.26, 163.43 -59.84 M118.02 -1.39 C130.44 -16.15, 142 -33.03, 168.84 -57.17 M116.69 0.08 C131.58 -18.17, 148.04 -36.02, 166.63 -59.4 M122.28 1.48 C133.16 -13.29, 144 -27.74, 173.17 -60.46 M122.53 0.56 C132.39 -11.8, 141.58 -23.37, 173.12 -59.07 M127.89 1.48 C138.56 -13.67, 154.1 -30.2, 177.43 -60.03 M126.72 0.01 C144.53 -20.77, 162.42 -42.49, 178.14 -57.97 M131.26 0.39 C141.73 -13.63, 154.91 -26.85, 185.34 -59.81 M133.03 0.27 C142.66 -12.3, 153.47 -24.16, 183.3 -58.7 M138.89 0.15 C148.37 -15.09, 159.74 -26.55, 190.12 -60 M137.16 0.92 C148.75 -13.13, 159.61 -25.51, 188.95 -58.33 M142.5 -2.09 C161.86 -21.06, 175.83 -37.74, 195.68 -60.06 M143.49 0.34 C161.5 -19.91, 177.11 -40.83, 193.9 -58.48 M149.79 -0.89 C165.4 -21.97, 182.14 -41.93, 201.32 -59.55 M148.4 -0.39 C168 -22.16, 188.66 -45.01, 199.74 -58.32 M155.56 0.48 C167.74 -14.25, 177.99 -29.23, 206.92 -57.19 M153.01 -0.51 C172.39 -22.79, 194.22 -46.46, 204.59 -58.62 M160.44 -0.78 C168.74 -11.58, 182.48 -24.63, 209.59 -59.71 M158.52 0.43 C177.57 -21.6, 195.31 -41.64, 209.39 -58.76 M166.09 -0.07 C184.93 -22.98, 204.09 -43.32, 216.25 -60.06 M164.92 -0.53 C183.49 -20.69, 202.99 -42.95, 215.05 -58.02 M169.82 -0.22 C185.72 -15.98, 201.21 -35.07, 219.55 -58.12 M170.32 0.27 C181 -12.77, 191.39 -25.71, 219.97 -58.4 M175.85 -0.51 C189.85 -14.11, 202.02 -30.32, 223.89 -59.35 M175.73 0.06 C185.45 -12.89, 197.53 -26.63, 224.65 -58.32 M181.96 0.48 C201.35 -20.11, 218.6 -43.48, 231.92 -59.01 M180.3 -0.4 C195.92 -16.52, 211.41 -33.6, 231.78 -58.98 M186.69 -0.18 C202.05 -19.54, 216.37 -38.44, 235.22 -57.08 M186.16 0.13 C198.22 -13.98, 210.4 -27.23, 235.51 -58.32 M192.02 -0.59 C203.95 -13.57, 212.35 -26.97, 241.52 -59.2 M191.65 -0.61 C205.28 -16.68, 219.62 -34.16, 242.29 -58.15 M194.55 0.96 C212.31 -18.62, 231.26 -38.19, 245.35 -59.62 M196.13 0.55 C209.5 -15.33, 220.66 -30.26, 246.08 -58.05 M200.22 -0.92 C220.76 -22.32, 236.92 -42.42, 251.25 -58.12 M201.27 0.2 C217.9 -18.25, 232.95 -37.71, 253.2 -58.54 M207.46 0.36 C226.32 -23.44, 245.41 -47.29, 256.47 -58.94 M207.78 -0.72 C222.15 -16.91, 236.33 -35.22, 257.53 -58.99 M213.9 0.41 C227.94 -19.06, 246.5 -40.79, 262.13 -59.76 M212.76 -0.9 C226.01 -16.85, 240.67 -32.21, 263.39 -58.73 M219.55 -1.1 C230.71 -18.64, 246.86 -33.87, 267.9 -58.59 M218.43 0.29 C233.56 -17.37, 248.71 -34.28, 268.73 -59.05 M221.49 0.7 C243.81 -24.86, 263.39 -44.77, 275.24 -58.75 M223.44 0.74 C240.31 -20.52, 257.05 -40.56, 273.97 -58.24 M229.05 -1.16 C247.46 -22.16, 264.78 -41.5, 278.03 -59.74 M227.62 0.62 C239.02 -13.39, 248.68 -25.38, 279.26 -57.62 M234.51 -0.32 C255.49 -24.89, 276.19 -47.85, 285.78 -58.26 M233.3 0.3 C252.8 -21.88, 272.62 -45.27, 285.24 -58.57 M239.61 -1.38 C250.29 -13.71, 264.4 -30.3, 290.34 -59.11 M237.42 0.1 C251.57 -15, 265.95 -31.23, 288.38 -58.54 M245.56 1.48 C263.96 -20.35, 282.54 -43.59, 293.04 -60.11 M244.08 0.5 C263.84 -22.2, 282.55 -44.25, 295.69 -58.14 M248.96 -0.2 C266.07 -20.66, 283.56 -41.33, 299.41 -59.06 M248.1 -0.65 C263.9 -17.67, 280.95 -35.96, 300.07 -59.09 M254.36 0.64 C267.87 -19.05, 283.81 -34.38, 306.38 -58.67 M254.17 0.61 C267.67 -14.1, 281.07 -29.58, 305.04 -59.34 M258.94 1.64 C274.58 -18.84, 289.46 -35.01, 308.93 -57.51 M259.12 -0.69 C275.68 -17.45, 292.25 -36.31, 310.03 -59.02 M265.7 0.09 C284.47 -21.87, 299.11 -39.76, 315.3 -58.93 M265.7 -0.53 C283.32 -20.43, 300.01 -41.83, 317.18 -59.52 M268.15 0.02 C289.84 -22.22, 305.48 -40.23, 321.66 -57.99 M270.85 1.18 C281.42 -11.97, 292.91 -26.26, 320.62 -59.51 M275.48 1.19 C286.36 -12.75, 300.43 -28.96, 327.34 -58.45 M275.5 0.44 C287.63 -12.22, 297.2 -25.5, 327.24 -59.98 M281.28 -1.76 C290.28 -14.38, 301.3 -25.29, 333.46 -59.63 M280.83 0.24 C295.77 -18, 311.19 -34.33, 331.95 -58.22 M284.69 1.69 C300.5 -16.03, 313.65 -31.06, 337.51 -56.66 M286.09 0.43 C306.7 -22.79, 324.96 -46.66, 337.86 -58.19 M291.11 1.03 C308.5 -19.06, 328.93 -40.72, 342.63 -58.38 M290.82 0.8 C300.78 -11.85, 311.67 -22.91, 342.14 -57.49 M297.4 1.75 C315.12 -21.6, 330.98 -38.82, 346.26 -56.79 M296.69 -1.08 C308.49 -14.4, 319.5 -26.79, 344.26 -54.87 M300.53 0.48 C315.5 -16.17, 331.5 -34.63, 345.95 -50.77 M301.76 -0.78 C315.94 -16.23, 330.77 -34.45, 348.42 -53.09 M306.8 -2.06 C320.65 -15.14, 333.12 -26.63, 351.43 -50.22 M308.24 -1.1 C323.59 -18.44, 338.24 -34.6, 351.16 -49.15 M312.51 2.11 C323.86 -11.95, 330.86 -19.5, 353.83 -46.49 M312.82 0.91 C320.92 -10.8, 331.48 -21.11, 353.25 -45.81 M317.15 1.23 C330.62 -14.19, 341.04 -24.97, 358.27 -42.39 M318.38 -0.07 C327.82 -12.1, 337.8 -23.1, 355.8 -43.66 M324.1 -1.13 C333.17 -11.13, 340.95 -19.33, 359.84 -40.54 M322.35 -0.67 C337.49 -16.97, 352.56 -32.59, 358.86 -40.62 M329.81 -1 C340.42 -14.59, 352.47 -27.36, 363.49 -36.6 M328.44 -0.88 C339.29 -12.9, 351.65 -25.75, 360.94 -37.22 M332.48 1.07 C345.68 -14.52, 355.85 -25.98, 365.98 -34.49 M332.93 0.97 C342.72 -11.25, 352.52 -21.89, 365.52 -34.92 M341.25 1.03 C347.44 -8.88, 355.96 -16.26, 365.85 -32.75 M340.47 0.12 C349.43 -12.47, 360.02 -23.66, 368.6 -32.59 M344.9 -1.55 C355.84 -10.7, 365.11 -22.07, 369.99 -28.54 M344.32 0.39 C353.98 -10.9, 364.19 -24, 369.87 -29.58 M348.36 2.28 C356.07 -6.97, 364.04 -14.86, 374.27 -27.05 M349.54 0.88 C357.59 -7.86, 364.98 -18.84, 372.97 -27.23 M356.69 -1.83 C362.21 -6.91, 365.51 -12.98, 378.09 -25.46 M354.49 -0.82 C362.74 -10.25, 370.79 -18.1, 376.6 -23.92 M361.08 1.83 C365.54 -6.89, 372.53 -17.03, 378.38 -23.34 M359.43 -0.37 C364.75 -4.66, 368.9 -10.42, 380.12 -21.57 M365.31 -1.23 C370.32 -6.79, 378.98 -11.38, 379.53 -17.87 M366.62 -1.02 C369.33 -5.23, 372.45 -7.96, 382.07 -17.95 M372.51 1.44 C375.27 -4.18, 378.61 -11.35, 385.27 -17.03 M371.62 0.42 C374.87 -3.27, 376.92 -6.7, 383.67 -15.97 M376.31 0.17 C379.94 -2.72, 382.43 -5.59, 386.82 -12.14 M376.12 0.4 C378.85 -3.73, 381.74 -6.13, 387.4 -13.13 M380.04 0.44 C383.3 -0.96, 384.99 -4.2, 390.71 -10.88 M381.1 0.84 C385.03 -3.21, 387.19 -6.07, 390.92 -9.93 M386.22 0.76 C388.17 -1.09, 389.6 -2.86, 392.08 -7.13 M387.21 0.12 C389.58 -2.93, 390.92 -4.8, 393.09 -7.06 M391.97 -0.17 C392.72 -0.84, 393.9 -1.48, 396 -4.28 M392.02 0.47 C393.11 -1.41, 394.9 -2.63, 395.77 -4.28 M397.47 -0.1 C397.97 -0.38, 398.39 -0.84, 398.84 -1.52 M397.63 -0.09 C398.02 -0.52, 398.3 -1.02, 398.86 -1.73 M0 0 C0 0, 0 0, 0 0 M0 0 C0 0, 0 0, 0 0 M6.86 0.37 C4.9 -0.5, 3.89 -1.67, 2.21 -2.89 M6.4 0.51 C5.25 -0.46, 4.2 -1.46, 2.7 -3.08 M12.46 -0.69 C9.69 -1.23, 8.18 -4.11, 6.29 -4.93 M12.37 -0.23 C10.12 -1.38, 8.52 -3.49, 6.12 -5.01 M17.69 -0.54 C14.98 -2.74, 12.01 -5.91, 9.03 -7.88 M19.08 0.24 C16.02 -2.7, 13.09 -4.5, 8.28 -8.21 M23.83 -0.4 C19.51 -2.59, 15.28 -9.14, 11.98 -13 M23.9 -0.02 C20.41 -2.5, 17.34 -5.16, 12.05 -10.59 M31.77 1.21 C25.95 -3.7, 18.69 -11.41, 12.78 -15.54 M30.73 -0.8 C24.67 -4.58, 19.18 -9.49, 13.27 -14.47 M35.35 -0.05 C31.08 -5.88, 20.73 -10.62, 18.13 -15.77 M36.61 -0.67 C30.1 -4.99, 22.31 -13.19, 17.81 -15.85 M43.78 1.45 C37.13 -5.56, 34.16 -8.63, 21.33 -18.04 M41.9 -0.08 C37.94 -4.24, 31.66 -9.56, 19.64 -19.46 M47.65 -1.87 C38.96 -6.7, 34.13 -13.89, 24.33 -24.12 M49.64 0.38 C41.49 -5.07, 36.69 -11.89, 22 -22.54 M55.52 1.61 C47.99 -8.94, 39.54 -12.24, 27.51 -24.37 M53.72 0.47 C45.03 -9.1, 34.21 -18.72, 25.78 -24.64 M59.93 -0.97 C46.82 -9.18, 35.13 -20.5, 29.38 -26.67 M61.49 -0.52 C50.76 -9.21, 39.78 -19.33, 28.82 -28.69 M66.03 1.54 C51.67 -11.95, 41.54 -25.62, 31.02 -29.4 M67.96 0.59 C58.89 -7.58, 49.21 -14.97, 30.97 -31.01 M73.77 1.31 C65.98 -6.34, 56.7 -14.89, 35.02 -35.01 M72.65 0.84 C62.86 -7.81, 53.8 -17.03, 34.55 -35.06 M78.16 -1.44 C62.61 -15.38, 48.85 -28.58, 38.92 -37.63 M79.32 0.06 C66.2 -12.4, 53.41 -23.76, 36.46 -36.07 M83.86 0.04 C67.98 -15.29, 53.85 -25.69, 38.11 -40.67 M85.29 0.23 C75.28 -8.87, 64.16 -18.01, 40.66 -38.75 M93.16 1.34 C74.96 -14.73, 60.21 -26.47, 42.34 -41.77 M90.95 -0.29 C81.03 -9.95, 68.05 -19.4, 43.2 -43.38 M96.7 1.35 C79.21 -16.33, 61.17 -30.66, 46.59 -46.42 M97.05 0.6 C80.52 -14.94, 65.78 -28.98, 44.81 -45.43 M101.59 1.3 C84.11 -16.75, 68.92 -32.08, 48.54 -47.51 M104.47 -0.27 C83.63 -17.98, 63.16 -36.2, 48.85 -48.33 M109.66 1.8 C94.01 -14.11, 80.83 -24.01, 51.49 -50.98 M109.02 0.51 C88.91 -17.24, 68.4 -36.59, 51.89 -51.09 M114.1 -0.72 C100.64 -13.75, 86.84 -27.74, 52.82 -52.75 M115.7 -0.62 C99.42 -14.94, 82.49 -28.75, 52.74 -54.41 M121.44 -1.67 C106.57 -11.36, 94.77 -23.45, 55.68 -55.65 M121.24 -1 C108.64 -12.2, 96.18 -23.79, 57.73 -55.66 M128.21 0.17 C113.53 -14.99, 94.57 -30.46, 58.64 -60.35 M128.39 0.62 C114.63 -12.19, 100.12 -23.29, 58.95 -58.91 M135.1 -0.35 C116.82 -18.07, 99.14 -31.94, 62.15 -64.32 M134.7 0.02 C111.79 -20.96, 88.52 -40.39, 62.35 -62.01 M139.25 0.31 C120.48 -16.09, 104.43 -32.46, 69.26 -62.14 M140.28 0.47 C121.56 -13.88, 103.91 -29.21, 69 -61.94 M144.79 0.84 C116.93 -27.74, 88.08 -52.28, 76.24 -62.25 M145.1 0.07 C120.68 -21.51, 96.83 -43.63, 75.3 -61.74 M150.91 1.4 C132.65 -17.4, 110.51 -35.78, 78.81 -63.47 M152.53 -0.02 C127.57 -22.7, 100.41 -44.65, 79.85 -62.02 M158.48 2.07 C143.97 -15.2, 129.14 -26.22, 85.08 -61.76 M158.6 -0.16 C131.49 -22.64, 104.12 -46.38, 85.96 -61.89 M166.24 -2.1 C147.39 -14.89, 127.49 -29.83, 93.48 -61.94 M163.78 0.61 C140.5 -22.46, 116.28 -42.04, 92.15 -61.75 M169.01 -0.07 C149.42 -17.76, 126.28 -36.73, 97.42 -61.2 M171.79 0.6 C152.86 -15.92, 135.44 -30.37, 98.48 -62.88 M178.36 -0.33 C160.49 -13.72, 145.26 -25.9, 103.55 -64.1 M175.84 -0.18 C157.58 -16.35, 139.88 -33.15, 105.28 -63.55 M184.56 1.4 C158.91 -19.83, 132.66 -40.88, 111.86 -63.5 M183.23 -0.84 C164.49 -16.56, 144.12 -32.25, 110.96 -62.05 M189.25 -1.36 C161.36 -22.53, 135.82 -46.64, 118.43 -62.11 M189.52 0.81 C172.8 -13.72, 159.32 -27.83, 117.29 -63.31 M195.64 -0.8 C176.36 -19.52, 153.64 -35.64, 123.34 -62.19 M195.43 0.18 C176.33 -17.46, 156.25 -35.13, 122.94 -62.72 M200.71 0.18 C175.05 -23.69, 146.88 -47.46, 129.35 -63.05 M200.54 0.85 C174.69 -25.29, 145.88 -48.79, 128.73 -62.7 M205.87 -1.54 C180.65 -21.72, 155.37 -45.82, 134.13 -62.06 M206.61 -0.09 C193.44 -13.52, 178.39 -25.29, 135.42 -61.83 M212.91 1.02 C188.71 -19.44, 165.06 -41.15, 140.4 -61.58 M213.09 0.22 C184.5 -25.09, 156.8 -49.24, 142.55 -62.83 M218.7 -0.62 C201.46 -13.79, 185.22 -27.75, 148.63 -64.51 M220.43 -0.24 C198.45 -19.07, 176.49 -36.21, 146.62 -62.27 M227.36 0.65 C204.84 -16.12, 185.41 -37.02, 155 -61.98 M225.82 0.59 C201.08 -21.32, 176.85 -41, 153.71 -63.28 M232.44 0.57 C210.58 -16.01, 190.69 -35.99, 160.06 -60.86 M232.01 0.76 C212.28 -16.82, 192.25 -34.53, 159.7 -63.22 M237.64 -0.03 C213.18 -21.46, 189.03 -45.17, 166.92 -62.77 M237.57 0.69 C215.54 -19.79, 194.09 -39.41, 165.08 -61.74 M242.72 1.06 C220.79 -20.83, 193.8 -42.99, 173.47 -61 M243.43 0.42 C228.05 -12.32, 212.36 -26.46, 172.75 -61.8 M252.21 -0.07 C231.63 -16.77, 209.63 -33.9, 179.02 -62.07 M251.14 -0.07 C227.25 -20.32, 204.91 -39.59, 177.25 -62.36 M257.54 -0.42 C234.23 -17.78, 211.02 -38.22, 184.28 -63.42 M255.7 -0.85 C237.42 -15.3, 220.48 -30.54, 184.35 -62.1 M261.33 0.93 C234.67 -25.75, 206.45 -49.75, 190.01 -62.94 M261.29 0.83 C247.51 -13.98, 232.12 -26.41, 190.27 -62.08 M267.98 1.31 C243.01 -22.52, 217.81 -44.14, 197.24 -63.91 M268.56 -0.07 C249.63 -16.17, 232.72 -30.4, 195.51 -62.81 M275.66 0.74 C254.09 -17.75, 236.1 -33.46, 201.44 -62 M274.21 -0.11 C253.18 -18.12, 233.94 -35.22, 201.62 -62.27 M278.96 0.46 C255.38 -22.03, 230.55 -42.35, 209.2 -60.8 M280.19 -0.08 C255.71 -21.73, 229.96 -43.64, 207.46 -63.59 M285.14 -2.12 C263.93 -18.22, 240.05 -38.22, 216.2 -63.5 M285.56 0.02 C266.99 -17.14, 247.61 -33.99, 213.75 -61.78 M292.26 -0.31 C268.45 -21.3, 244.71 -42.26, 219.86 -60.4 M293.23 0.87 C273.62 -15.52, 254.5 -33.47, 221.37 -61.39 M297.86 -1.73 C274.73 -20.1, 251.02 -40.84, 225.53 -63.93 M298.22 0.19 C282.26 -13.55, 268.37 -27.49, 226.07 -62.56 M304.97 0.05 C279.89 -21.95, 253.52 -47.31, 234.74 -61.56 M304.26 0.02 C282.13 -19.99, 258.43 -39.63, 232.36 -62.09 M310.72 1.91 C287.96 -20.94, 261.23 -42.6, 239.77 -61.38 M312 1.04 C287.62 -22.25, 263.36 -43.36, 238.68 -62.04 M316.57 0.31 C299.91 -14.79, 281.64 -31.03, 243.72 -61.76 M317.82 0.54 C301.79 -14.54, 286.41 -27.24, 245.02 -61.54 M324.48 -1.78 C295.04 -24.07, 265.78 -51.02, 251.09 -60.88 M323.65 -0.68 C295.84 -23.55, 267.89 -48.4, 252.14 -61.41 M327.6 -0.33 C302.01 -21.93, 276.47 -43.89, 256.02 -61.72 M328.16 -0.89 C305.26 -20.28, 283.55 -39.61, 257.39 -63.21 M334.22 0 C308.49 -23.46, 280.86 -48.32, 264.5 -63.02 M334.4 0.77 C312.83 -18.54, 291.66 -37.75, 263.46 -63.31 M342.46 0.38 C324.59 -13.74, 307.01 -29.19, 270.97 -62.78 M340.98 -0.35 C317.17 -20.54, 292.43 -41.8, 268.68 -62.52 M348.4 -1.2 C321.96 -22.86, 294.38 -47.41, 276.37 -62 M347.93 0.54 C323.73 -20.24, 300.33 -40.13, 275.59 -62.86 M352.37 -0.86 C327.58 -23.37, 299.56 -46.77, 280.72 -64.19 M353.43 -0.38 C337.24 -13.75, 320.94 -28.45, 281.11 -63.19 M359.55 -0.41 C337.17 -20.36, 319.58 -38.51, 289.4 -62.31 M360.11 -1.19 C335.35 -22.76, 310.79 -42.41, 287.45 -63.28 M365.93 1.01 C344.31 -19.6, 323.93 -36.93, 293.28 -63.78 M365.6 -0.98 C342.42 -19.78, 318.82 -40.56, 293.81 -62.86 M371.04 -0.63 C350.55 -15.61, 333.79 -35.36, 299.4 -63.99 M372.78 0.49 C352.61 -18.33, 331.84 -35.78, 299.67 -62.25 M376.07 -1.2 C360.93 -14.74, 344.89 -28.81, 306.98 -63.99 M378.56 0.74 C349.37 -23.53, 323.05 -46.82, 306.37 -62.14 M384.1 -1.39 C366.89 -16.76, 348.99 -30.21, 314.02 -64.04 M383.71 -0.47 C361.4 -20.37, 336.89 -40.14, 312.33 -62.24 M390.79 -0.25 C376.06 -11.46, 361.33 -27.84, 317.53 -64.53 M390.07 0.21 C364.33 -20.96, 340.41 -42.32, 318.85 -62.28 M396.29 -0.85 C379 -14.35, 363.93 -28.14, 323.73 -61.02 M396.14 -0.07 C371.65 -21.09, 348.83 -42.39, 324.93 -62.15 M402.45 -1.17 C385.94 -16.36, 368.68 -27.29, 328.71 -63.69 M400.83 -0.25 C373.68 -24.66, 345.31 -49.9, 329.49 -63.45 M360.98 -41.78 C353.08 -50.07, 341.63 -57.27, 336.37 -61.1 M361.23 -41.27 C352.08 -50.23, 343.04 -56.78, 335.96 -62.36" stroke="#228be6" stroke-width="0.5" fill="none"></path><path d="M1.98 -0.64 C21.87 -20.25, 40.57 -39.06, 60.28 -60.97 M0.8 -0.38 C16.02 -16.48, 32.08 -34.11, 60.56 -60.89 M60.78 -60.71 C167.63 -59.03, 273.08 -59.15, 339.7 -58.92 M60.38 -59.43 C121.21 -59.51, 181.18 -59.62, 339.63 -59.3 M338.74 -59.1 C362.95 -34.04, 389.61 -10.36, 398.41 1.24 M340.25 -60.02 C354.8 -44.25, 369.22 -30.49, 399.66 -0.6 M399.95 -0.74 C276.2 2.45, 149.88 2.35, -0.04 -0.85 M400.35 -0.19 C273.55 1.13, 146.11 1.27, 0.2 0.06 M0 0 C0 0, 0 0, 0 0 M0 0 C0 0, 0 0, 0 0" stroke="#868e96" stroke-width="1" fill="none"></path></g></g><mask></mask><g stroke-linecap="round"><g transform="translate(11.038535257042952 110.96821159683168) rotate(0 199.36050398856705 -30.170598275406633)" fill-rule="evenodd"><path d="M0 0 C0 0, 0 0, 0 0 M0 0 C0 0, 0 0, 0 0 M6.86 0.84 C14.56 -11.51, 26.79 -24.69, 41.61 -42.06 M4.02 -0.39 C12.4 -8.83, 19.06 -16.08, 40.75 -40.71 M11.13 -1.45 C25.32 -15.11, 39.33 -31.4, 63.33 -58.65 M10.58 0.3 C26.8 -18.65, 42.58 -36, 61.94 -59.26 M16.71 1.7 C31.57 -14.71, 45.84 -33.2, 65.55 -57.15 M15.63 0.87 C31.45 -17.5, 45.7 -35.7, 66.07 -58.72 M22.85 1.04 C38.39 -23.46, 58.49 -45, 70.71 -60.76 M20.98 0.68 C33.97 -14.95, 47.44 -29.66, 71.52 -58.19 M25.99 -1.61 C46.05 -20.77, 64.69 -44.65, 78.09 -59.93 M25.82 0.45 C45.48 -22.72, 66.49 -45.94, 77.03 -57.58 M30.94 1.6 C42 -10.41, 54.71 -25.29, 84.83 -57.52 M31.47 -0.8 C50.85 -21.2, 69.77 -43.93, 83.31 -59.78 M37.62 1.73 C53.83 -20.15, 68.86 -37.54, 86.56 -57.62 M36.66 0.24 C54.44 -19.58, 70.15 -38.3, 87.22 -57.66 M44.14 0 C55.96 -13.52, 67.08 -28.16, 94.6 -60.59 M42.34 0.13 C60.09 -19.23, 75.73 -37.68, 93.63 -58.15 M45.61 0.94 C62.33 -13.08, 73.34 -28.58, 100.65 -59.92 M46.91 0.67 C65.26 -20.16, 84.77 -41.93, 99.68 -59.21 M53.25 -0.6 C71.52 -19.52, 87.8 -40.2, 105.34 -56.46 M53.07 -0.19 C68.5 -16.58, 80.76 -32.47, 103.86 -59.15 M57.1 1.65 C72.47 -14.01, 83.55 -29.03, 110.15 -59.11 M59.03 -0.29 C75.96 -19.72, 95.35 -42.26, 109.66 -59.4 M65.19 0.39 C83.9 -24.37, 105.15 -45.24, 115.45 -59.48 M63.35 -0.39 C75.13 -12.64, 86.66 -24.43, 114.04 -58.3 M70.27 -0.11 C89.7 -23.07, 107.5 -46.01, 118.94 -60.09 M68.19 -0.11 C87.46 -22.62, 107.2 -44.51, 119.63 -59.38 M72.96 -1.03 C89.54 -18.26, 108.68 -37.84, 126.44 -57.32 M74.08 -1.04 C84.26 -13.5, 96.62 -25.25, 123.94 -57.36 M80.43 0.11 C94.16 -20.11, 112.3 -35.09, 130.99 -58.33 M79.25 -0.71 C94 -18.07, 111.03 -35.64, 130.23 -59.24 M85.65 0.51 C97.28 -14.64, 114.14 -30.93, 135.59 -60.01 M84.35 0.33 C103.4 -20.43, 121.04 -41.83, 134.7 -58.26 M89.98 1.16 C101.69 -11.9, 113.53 -24.34, 140.36 -57.91 M89.79 0.52 C109.82 -21.19, 129.18 -44.89, 141.34 -59.02 M94.45 -2.16 C114.32 -22.76, 136.15 -46.29, 145.26 -57.18 M96.46 0.23 C107.58 -13.18, 118.29 -24.26, 147.16 -59.41 M102.4 -1.72 C114.82 -16.48, 126.38 -33.36, 153.22 -57.5 M101.08 -0.25 C115.97 -18.49, 132.42 -36.35, 151.01 -59.72 M106.66 1.15 C117.39 -13.44, 128.08 -27.72, 156.9 -60.03 M106.91 0.23 C116.64 -11.97, 125.7 -23.39, 156.85 -58.64 M112.27 1.15 C122.95 -14, 138.48 -30.52, 161.82 -60.35 M111.1 -0.31 C128.92 -21.1, 146.81 -42.81, 162.52 -58.3 M114.99 0.81 C125.46 -13.2, 138.64 -26.42, 169.07 -59.38 M116.76 0.69 C126.39 -11.87, 137.2 -23.74, 167.03 -58.27 M123.27 -0.17 C132.75 -15.42, 144.12 -26.88, 174.5 -60.33 M121.54 0.6 C133.13 -13.46, 143.99 -25.83, 173.33 -58.65 M126.23 -1.66 C145.58 -20.63, 159.56 -37.31, 179.4 -59.63 M127.21 0.77 C145.23 -19.48, 160.83 -40.41, 177.63 -58.05 M134.17 -1.22 C149.78 -22.3, 166.53 -42.26, 185.71 -59.88 M132.78 -0.72 C152.38 -22.48, 173.05 -45.34, 184.12 -58.64 M139.28 0.91 C151.47 -13.82, 161.71 -28.81, 190.65 -56.77 M136.74 -0.08 C156.12 -22.36, 177.95 -46.03, 188.31 -58.19 M144.83 -1.11 C153.12 -11.9, 166.87 -24.96, 193.98 -60.04 M142.9 0.1 C161.96 -21.93, 179.69 -41.97, 193.77 -59.08 M149.81 0.36 C168.92 -22.84, 188.33 -43.48, 200.63 -60.39 M148.65 -0.11 C167.46 -20.54, 187.21 -43.09, 199.43 -58.35 M154.2 -0.55 C170.11 -16.3, 185.59 -35.39, 203.93 -58.45 M154.71 -0.05 C165.38 -13.1, 175.78 -26.03, 204.36 -58.73 M159.58 -0.08 C173.75 -13.88, 186.09 -30.27, 208.28 -59.67 M159.46 0.49 C169.32 -12.63, 181.55 -26.54, 209.04 -58.65 M166.34 0.15 C185.49 -20.15, 202.49 -43.23, 215.65 -58.58 M164.68 -0.73 C180.11 -16.63, 195.4 -33.48, 215.5 -58.55 M170.42 0.25 C185.99 -19.35, 200.53 -38.5, 219.61 -57.4 M169.89 0.56 C182.1 -13.73, 194.44 -27.16, 219.89 -58.65 M176.4 -0.92 C188.18 -13.73, 196.44 -26.95, 225.25 -58.77 M176.03 -0.93 C189.48 -16.79, 203.64 -34.06, 226.02 -57.72 M178.28 1.38 C196.25 -18.44, 215.42 -38.26, 229.73 -59.95 M179.86 0.98 C193.39 -15.09, 204.71 -30.21, 230.47 -58.38 M184.6 -1.24 C204.91 -22.36, 220.82 -42.19, 234.98 -57.69 M185.65 -0.13 C202.07 -18.34, 216.92 -37.56, 236.92 -58.11 M191.19 0.79 C210.31 -23.3, 229.66 -47.45, 240.86 -59.27 M191.51 -0.29 C206.07 -16.7, 220.45 -35.24, 241.92 -59.31 M198.29 0.08 C212.09 -19.12, 230.44 -40.6, 245.86 -59.33 M197.14 -1.22 C210.2 -16.96, 224.68 -32.11, 247.12 -58.3 M203.28 -0.67 C214.63 -18.43, 230.96 -33.87, 252.29 -58.92 M202.16 0.72 C217.49 -17.17, 232.84 -34.31, 253.12 -59.37 M205.88 0.37 C227.94 -24.89, 247.26 -44.51, 258.97 -58.32 M207.82 0.42 C224.47 -20.59, 241 -40.37, 257.7 -57.81 M212.78 -0.73 C231.42 -22.01, 248.98 -41.62, 262.41 -60.06 M211.35 1.05 C222.88 -13.12, 232.68 -25.27, 263.64 -57.95 M218.89 -0.65 C239.61 -24.91, 260.04 -47.57, 269.51 -57.84 M217.69 -0.03 C236.93 -21.92, 256.5 -45.01, 268.97 -58.14 M224 -1.71 C234.68 -14.03, 248.78 -30.62, 274.72 -59.44 M221.81 -0.23 C235.95 -15.33, 250.34 -31.56, 272.76 -58.87 M229.94 1.15 C248.1 -20.4, 266.44 -43.36, 276.76 -59.68 M228.46 0.17 C247.98 -22.24, 266.44 -44, 279.42 -57.71 M233.34 -0.52 C250.45 -20.99, 267.94 -41.65, 283.8 -59.38 M232.48 -0.97 C248.29 -18, 265.33 -36.28, 284.45 -59.42 M238.08 1.06 C251.59 -18.62, 267.54 -33.95, 290.11 -58.24 M237.9 1.04 C251.39 -13.67, 264.8 -29.15, 288.76 -58.91 M243.32 1.31 C258.96 -19.16, 273.84 -35.34, 293.31 -57.83 M243.51 -1.02 C260.06 -17.78, 276.63 -36.63, 294.41 -59.35 M249.43 0.52 C268.2 -21.44, 282.83 -39.33, 299.02 -58.5 M249.43 -0.1 C267.05 -20, 283.74 -41.4, 300.91 -59.09 M252.53 -0.31 C274.22 -22.55, 289.87 -40.56, 306.04 -58.32 M255.24 0.85 C265.8 -12.3, 277.29 -26.58, 305.01 -59.84 M259.21 1.62 C270.08 -12.32, 284.16 -28.53, 311.06 -58.02 M259.23 0.87 C271.36 -11.79, 280.93 -25.07, 310.96 -59.55 M265.66 -2.08 C274.66 -14.71, 285.68 -25.62, 317.84 -59.96 M265.22 -0.09 C280.15 -18.32, 295.58 -34.65, 316.33 -58.55 M268.41 2.12 C284.41 -15.82, 297.74 -31.06, 321.89 -56.98 M269.81 0.86 C290.68 -22.65, 309.2 -46.82, 322.25 -58.52 M275.49 0.7 C293.12 -19.65, 313.79 -41.58, 327.67 -59.46 M275.2 0.47 C285.29 -12.33, 296.32 -23.55, 327.18 -58.57 M281.13 2.18 C300.03 -22.51, 317.05 -41.06, 333.27 -60.14 M280.42 -0.65 C293 -14.91, 304.81 -28.22, 331.27 -58.21 M284.91 0.15 C301.4 -18.25, 318.89 -38.43, 334.92 -56.38 M286.14 -1.11 C301.77 -18.25, 318.08 -38.16, 337.39 -58.7 M290.53 -1.63 C306.43 -17.09, 320.94 -30.92, 342.37 -58.09 M291.97 -0.67 C309.87 -20.89, 327.02 -39.94, 342.11 -57.02 M296.89 1.79 C309.96 -14.15, 318.61 -23.58, 345.43 -55.12 M297.2 0.59 C306.86 -13.04, 319.04 -25.22, 344.85 -54.44 M300.88 1.66 C316.74 -16.45, 329.56 -29.97, 349.87 -51.02 M302.11 0.36 C313.56 -13.97, 325.49 -27.2, 347.4 -52.29 M308.49 -1.46 C319.42 -13.54, 329.03 -23.85, 351.44 -49.17 M306.74 -1 C324.69 -20.56, 342.62 -39.47, 350.46 -49.25 M313.54 -0.57 C327 -17.48, 341.99 -33.62, 355.09 -45.23 M312.17 -0.45 C325.65 -15.6, 340.67 -31.49, 352.54 -45.85 M316.87 0.74 C332.69 -17.84, 345.46 -32.29, 357.58 -43.12 M317.32 0.65 C329.35 -14.16, 341.45 -27.44, 357.12 -43.55 M324.98 1.46 C333.3 -10.93, 343.95 -20.76, 357.45 -41.38 M324.19 0.55 C336.02 -15.38, 349.51 -29.9, 360.2 -41.22 M329.28 -1.87 C342.66 -13.85, 354.36 -28.03, 360.93 -36.42 M328.7 0.06 C340.85 -14.15, 353.59 -30.15, 360.81 -37.45 M332.74 1.95 C342.61 -9.72, 352.69 -20.04, 365.87 -35.68 M333.92 0.55 C344.45 -10.99, 354.33 -24.84, 364.57 -35.86 M341.08 -2.15 C348.71 -9.53, 354.06 -17.97, 369.68 -34.09 M338.88 -1.15 C349.96 -13.88, 360.83 -24.96, 368.2 -32.55 M345.46 1.5 C352.55 -10.22, 362.15 -23.37, 369.98 -31.97 M343.81 -0.7 C350.85 -6.96, 356.66 -14.62, 371.72 -30.2 M349.04 -0.8 C356.9 -9.62, 368.44 -17.52, 371.13 -26.5 M350.35 -0.59 C354.91 -6.95, 359.88 -11.8, 373.67 -26.58 M356.89 1.11 C361.87 -7.15, 367.48 -16.93, 376.87 -25.66 M356.01 0.09 C361.03 -5.49, 364.78 -10.88, 375.27 -24.6 M360.02 0.64 C365.8 -4.52, 370.23 -9.6, 378.29 -20.63 M359.81 0.91 C364.38 -5.5, 369.09 -9.83, 378.97 -21.8 M363.86 0.19 C369.04 -2.45, 372 -7.72, 381.71 -19.01 M365.36 0.76 C371.84 -6.03, 375.79 -11.11, 382.02 -17.65 M368.98 2.28 C373.46 -2.02, 376.81 -6.15, 382.65 -16.01 M371.18 0.86 C376.69 -6.2, 379.9 -10.64, 384.9 -15.86 M376.3 -1.24 C378.43 -3.12, 381.75 -4.94, 387.72 -12.88 M376.43 0.57 C379.52 -4.74, 384.6 -8.2, 387.05 -12.88 M380.17 0.71 C383.65 -1.29, 386.62 -4.45, 389.76 -9.26 M381.28 0.79 C383.98 -2.21, 385.97 -5.72, 389.88 -10.73 M387.09 -0.77 C388.98 -3.39, 392.37 -4.78, 393.57 -6.71 M386.77 -0.16 C388.29 -1.96, 389.98 -3.97, 392.66 -7.18 M392.56 0.36 C393.33 -0.98, 395.26 -2.61, 395.44 -4.14 M392 0.53 C392.9 -0.72, 393.92 -2.08, 396.03 -4.37 M397.75 -0.3 C398.09 -0.53, 398.74 -1.32, 399.03 -1.56 M397.73 -0.19 C398.01 -0.53, 398.45 -1.11, 398.99 -1.58 M0 0 C0 0, 0 0, 0 0 M0 0 C0 0, 0 0, 0 0 M6.32 0.22 C5.05 -0.42, 3.81 -2.35, 2.84 -3.48 M6.35 0.33 C5.32 -0.39, 4.41 -1.18, 2.86 -2.77 M12.56 0.35 C10.46 -1.41, 7.79 -4.3, 5.56 -5.82 M12.14 -0.45 C9.91 -1.79, 7.91 -3.59, 5.76 -5.39 M17.45 -0.07 C15.74 -2.96, 10.07 -5.11, 9.19 -7.73 M18.26 -0.47 C15.1 -2.35, 11.13 -6.73, 8.99 -7.78 M25.15 1.09 C20.84 -3.73, 19.69 -5.13, 12.49 -9.91 M23.55 -0.22 C21.73 -2.47, 17.9 -5.68, 11.05 -11.12 M29.21 -2 C23.59 -4.19, 21.81 -8.74, 15.7 -15.71 M31.2 0.25 C25.52 -3.05, 23.15 -7.76, 13.37 -14.14 M37.84 2.13 C32.83 -6.24, 26.93 -7.33, 18.88 -15.97 M36.04 1 C30.65 -5.68, 23.1 -12.46, 17.15 -16.24 M41.49 -1.1 C32.21 -5.96, 24.36 -13.95, 20.75 -18.27 M43.05 -0.65 C35.58 -6.44, 27.89 -13.7, 20.2 -20.29 M47.59 1.41 C37.03 -8.77, 30.61 -19.21, 22.39 -21 M49.53 0.46 C42.81 -5.78, 35.47 -11.14, 22.34 -22.61 M55.34 1.18 C49.97 -4.44, 43.03 -10.95, 27.15 -25.95 M54.21 0.71 C46.91 -5.8, 40.39 -12.81, 26.68 -26 M59.73 -1.57 C47.91 -12.37, 37.87 -22.33, 30.29 -29.23 M60.88 -0.07 C50.81 -9.76, 41.1 -18.45, 27.84 -27.67 M66.17 0.57 C53.44 -12.05, 42.46 -19.71, 29.49 -32.27 M67.6 0.76 C59.68 -6.58, 50.6 -13.94, 32.03 -30.35 M74.72 1.21 C59.57 -12.18, 47.96 -21.2, 33.72 -33.37 M72.51 -0.42 C64.85 -8.05, 54.21 -15.47, 34.58 -34.98 M78.26 1.22 C64.26 -13.4, 49.71 -24.69, 38.72 -37.36 M78.61 0.48 C65.42 -12.18, 53.92 -23.4, 36.93 -36.37 M83.15 1.17 C68.8 -14.17, 56.68 -26.82, 39.91 -39.11 M86.03 -0.4 C68.83 -14.95, 52.01 -30.01, 40.22 -39.93 M91.22 1.67 C77.98 -12.08, 67.29 -19.81, 42.86 -42.58 M90.58 0.38 C74.03 -14.42, 57.02 -30.73, 43.26 -42.69 M96.42 -0.19 C85.14 -11.37, 73.51 -23.46, 44.2 -44.35 M98.01 -0.09 C84.13 -12.24, 69.67 -23.91, 44.11 -46.01 M103 -1.79 C90.22 -9.66, 80.57 -19.88, 47.06 -47.25 M102.8 -1.13 C92.1 -10.54, 81.6 -20.43, 49.1 -47.26 M109.77 0.04 C97.49 -12.95, 80.99 -26.28, 50.01 -51.95 M109.96 0.49 C98.15 -10.64, 85.65 -20, 50.32 -50.51 M116.67 -0.48 C100.83 -16, 85.63 -27.71, 53.52 -55.92 M116.26 -0.11 C96.47 -18.34, 76.33 -35.06, 53.73 -53.61 M120.81 0.18 C103.8 -14.61, 89.57 -29.4, 57.62 -56.36 M121.84 0.34 C104.83 -12.59, 88.84 -26.48, 57.35 -56.17 M127.1 1.37 C100.46 -26.14, 72.82 -49.63, 61.58 -59.1 M127.42 0.59 C104.04 -20.08, 81.24 -41.28, 60.63 -58.59 M132.47 1.27 C114.21 -17.52, 92.07 -35.91, 60.38 -63.6 M134.09 -0.14 C109.13 -22.82, 81.97 -44.78, 61.41 -62.15 M140.04 1.94 C125.69 -15.18, 111.03 -26.05, 67.4 -61.23 M140.16 -0.29 C113.33 -22.52, 86.25 -46.02, 68.27 -61.37 M147.8 -2.23 C128.95 -15.02, 109.05 -29.96, 75.04 -62.06 M145.34 0.48 C122.06 -22.58, 97.84 -42.17, 73.72 -61.88 M150.58 -0.2 C130.98 -17.89, 107.84 -36.86, 78.99 -61.33 M153.35 0.47 C134.42 -16.05, 117.01 -30.5, 80.04 -63.01 M160.68 0.2 C142.64 -13.34, 127.25 -25.66, 85.11 -64.23 M158.16 0.35 C139.7 -15.99, 121.8 -32.96, 86.84 -63.68 M166.12 1.27 C140.47 -19.96, 114.22 -41.01, 93.42 -63.62 M164.79 -0.97 C146.06 -16.69, 125.68 -32.38, 92.52 -62.18 M170.81 -1.49 C143.21 -22.42, 117.94 -46.29, 100.74 -61.58 M171.09 0.68 C154.53 -13.7, 141.21 -27.68, 99.61 -62.78 M177.2 -0.93 C157.92 -19.65, 135.21 -35.76, 104.9 -62.31 M176.99 0.06 C157.89 -17.59, 137.81 -35.26, 104.5 -62.85 M182.27 0.05 C156.61 -23.82, 128.44 -47.59, 110.92 -63.18 M182.1 0.72 C156.25 -25.42, 127.44 -48.92, 110.29 -62.83 M188.18 -1.01 C162.7 -21.43, 137.16 -45.75, 115.69 -62.19 M188.92 0.44 C175.61 -13.13, 160.41 -25.03, 116.99 -61.96 M194.47 0.89 C170.27 -19.57, 146.63 -41.28, 121.96 -61.71 M194.65 0.09 C166.06 -25.22, 138.36 -49.37, 124.11 -62.96 M200.27 -0.75 C183.19 -13.77, 167.12 -27.59, 130.95 -63.99 M201.99 -0.36 C180.23 -19, 158.49 -35.95, 128.94 -61.74 M208.92 0.52 C186.4 -16.24, 166.97 -37.15, 136.56 -62.11 M207.38 0.46 C182.64 -21.44, 158.41 -41.12, 135.27 -63.41 M214 0.45 C192.14 -16.14, 172.25 -36.11, 141.62 -60.99 M213.57 0.63 C193.84 -16.95, 173.82 -34.66, 141.26 -63.35 M219.96 0.5 C195.23 -21.16, 170.81 -45.1, 148.48 -62.9 M219.88 1.22 C197.63 -19.47, 175.96 -39.29, 146.64 -61.87 M224.29 0.93 C202.35 -20.96, 175.36 -43.12, 155.03 -61.13 M224.99 0.29 C209.61 -12.44, 193.92 -26.58, 154.31 -61.93 M233.77 -0.2 C213.4 -16.72, 191.61 -33.67, 161.33 -61.54 M232.7 -0.19 C209.05 -20.23, 186.95 -39.29, 159.57 -61.83 M239.1 -0.55 C215.79 -17.91, 192.59 -38.35, 165.84 -63.55 M237.26 -0.98 C218.98 -15.43, 202.04 -30.67, 165.91 -62.22 M242.9 0.8 C216.23 -25.88, 188.01 -49.87, 171.57 -63.07 M242.85 0.7 C229.07 -14.11, 213.68 -26.54, 171.83 -62.21 M250.3 1.83 C225.06 -22.22, 199.59 -44.08, 178.8 -64.04 M250.88 0.46 C231.76 -15.81, 214.66 -30.2, 177.07 -62.93 M257.22 0.61 C235.65 -17.88, 217.66 -33.59, 183 -62.13 M255.77 -0.24 C234.74 -18.25, 215.5 -35.35, 183.18 -62.4 M260.53 0.33 C237.19 -21.95, 212.61 -42.05, 191.52 -60.28 M261.76 -0.2 C237.54 -21.62, 212.05 -43.31, 189.77 -63.06 M266.7 -2.25 C245.49 -18.34, 221.61 -38.35, 197.76 -63.63 M267.13 -0.1 C248.55 -17.27, 229.17 -34.12, 195.32 -61.9 M273.82 -0.44 C250.01 -21.42, 226.27 -42.39, 201.42 -60.53 M274.79 0.74 C255.18 -15.65, 236.06 -33.6, 202.93 -61.52 M280.18 -1.2 C256.79 -19.79, 232.84 -40.75, 207.1 -64.06 M280.54 0.72 C264.41 -13.17, 250.36 -27.25, 207.64 -62.69 M286.53 -0.08 C261.45 -22.08, 235.08 -47.44, 216.3 -61.69 M285.82 -0.11 C263.69 -20.11, 239.99 -39.76, 213.92 -62.21 M292.29 1.78 C269.77 -20.84, 243.29 -42.28, 222.09 -60.85 M293.56 0.91 C269.43 -22.15, 245.43 -43.04, 221 -61.51 M298.13 0.18 C281.47 -14.92, 263.2 -31.16, 225.28 -61.89 M299.38 0.41 C283.35 -14.67, 267.97 -27.37, 226.59 -61.67 M306.04 -1.91 C276.6 -24.2, 247.34 -51.15, 232.65 -61.01 M305.21 -0.81 C277.41 -23.68, 249.45 -48.52, 233.71 -61.54 M309.91 0.2 C284.05 -21.64, 258.24 -43.83, 237.58 -61.85 M310.48 -0.36 C287.33 -19.96, 265.38 -39.5, 238.95 -63.34 M315.78 -0.13 C290.05 -23.59, 262.42 -48.45, 246.06 -63.14 M315.96 0.64 C294.39 -18.67, 273.22 -37.88, 245.02 -63.44 M324.02 0.25 C306.33 -13.71, 288.93 -29, 253.29 -62.25 M322.54 -0.48 C298.99 -20.46, 274.49 -41.5, 251 -61.99 M329.96 -1.32 C303.52 -22.98, 275.94 -47.54, 257.93 -62.13 M329.49 0.41 C305.3 -20.36, 281.9 -40.26, 257.15 -62.99 M333.93 -0.99 C309.15 -23.5, 281.12 -46.9, 262.29 -64.32 M334.99 -0.51 C318.8 -13.88, 302.5 -28.58, 262.68 -63.32 M341.86 0.12 C319.27 -20.03, 301.47 -38.37, 270.96 -62.44 M342.42 -0.66 C317.4 -22.47, 292.59 -42.34, 269.01 -63.41 M347.49 0.88 C325.87 -19.72, 305.49 -37.05, 274.84 -63.91 M347.16 -1.11 C323.98 -19.91, 300.38 -40.69, 275.37 -62.98 M352.6 -0.76 C332.32 -15.56, 315.76 -35.13, 281.72 -63.46 M354.34 0.36 C334.38 -18.28, 313.82 -35.54, 281.99 -61.72 M357.63 -1.32 C342.49 -14.87, 326.46 -28.93, 288.54 -64.12 M360.12 0.61 C330.93 -23.65, 304.61 -46.95, 287.93 -62.27 M365.66 -1.52 C348.45 -16.89, 330.55 -30.34, 295.58 -64.17 M365.27 -0.59 C342.96 -20.5, 318.45 -40.26, 293.89 -62.36 M373.1 0.28 C358.22 -11.07, 343.33 -27.58, 299.09 -64.66 M372.39 0.74 C346.38 -20.65, 322.2 -42.24, 300.41 -62.41 M377.85 -0.98 C360.57 -14.47, 345.5 -28.27, 305.29 -61.14 M377.71 -0.19 C353.21 -21.22, 330.39 -42.52, 306.49 -62.27 M385.52 0.01 C368.85 -15.33, 351.42 -26.4, 311.02 -63.16 M383.9 0.93 C356.46 -23.73, 327.79 -49.23, 311.8 -62.93 M390.09 -0.58 C365.23 -24.31, 336.5 -46.55, 317.94 -61.23 M390.33 -0.06 C363.03 -24.42, 335.93 -46.68, 317.52 -62.48 M395.86 0.56 C380.01 -17.24, 362.4 -32.45, 324.7 -63.82 M395.6 -0.63 C377.56 -15.68, 358.2 -33.63, 324.07 -63.28 M400.62 -2.97 C377.98 -20.43, 357.63 -40.6, 329.68 -62.86 M400.29 -0.43 C383.06 -15.41, 364.99 -31.36, 330.41 -62.49 M361.85 -40.97 C349.33 -48.38, 339.97 -58.24, 334.86 -63.46 M359.8 -42.19 C352.56 -48.08, 342.99 -56.85, 335.61 -61.9" stroke="#228be6" stroke-width="0.5" fill="none"></path><path d="M-0.09 -1.31 C19.86 -17.9, 35.46 -36.77, 59.93 -61.51 M0.62 -0.34 C20.17 -19.1, 38.17 -37.89, 60.35 -59.9 M61.28 -60.95 C126.39 -57.27, 190.07 -58.75, 340.95 -60.65 M59.55 -59.42 C157.46 -59.75, 256.05 -59.84, 339.93 -60.09 M341.47 -61.06 C352.75 -45.95, 369.76 -30.1, 399.14 0.27 M340.14 -59.18 C354.96 -45.01, 369.7 -28.66, 399.2 -0.07 M399.45 0.94 C314.06 1.15, 229.01 1.44, -1.04 0.6 M399.76 0.57 C316.17 1.02, 230.82 0.29, 0.07 -0.16 M0 0 C0 0, 0 0, 0 0 M0 0 C0 0, 0 0, 0 0" stroke="#868e96" stroke-width="1" fill="none"></path></g></g><mask></mask><g stroke-linecap="round"><g transform="translate(174.82864378641096 30.4150121739101) rotate(0 0.44820595932174 24.635080987990364)"><path d="M1.32 1.87 C1.33 11.86, -0.07 22.84, 0.53 47.84 M-0.42 0.44 C-0.08 18.17, -0.46 36.73, 0.21 48.83" stroke="#495057" stroke-width="4" fill="none"></path></g></g><mask></mask><g stroke-linecap="round" transform="translate(91.22169410936209 60.80574417148591) rotate(0 42.179553141334225 17.061663224312838)"><path d="M53.53 1.37 C61.17 1.96, 70.61 3.52, 75.59 6.05 C80.58 8.57, 83.25 13.12, 83.46 16.53 C83.68 19.95, 81.49 23.83, 76.87 26.53 C72.24 29.22, 63.51 31.7, 55.72 32.72 C47.93 33.73, 37.83 33.58, 30.12 32.64 C22.41 31.7, 14.53 29.44, 9.45 27.06 C4.38 24.69, -0.13 21.7, -0.33 18.39 C-0.53 15.08, 3.53 10.07, 8.26 7.22 C12.98 4.38, 19.4 2.13, 28.02 1.32 C36.65 0.51, 53.98 2, 59.99 2.37 C66.01 2.74, 64.37 3.25, 64.13 3.54 M37.09 0.85 C44.93 0.36, 57.51 1.06, 64.65 2.64 C71.79 4.22, 76.72 7.44, 79.95 10.31 C83.19 13.19, 85.51 16.85, 84.07 19.88 C82.63 22.91, 77.79 26.28, 71.32 28.48 C64.84 30.68, 53.48 32.76, 45.22 33.08 C36.96 33.39, 28.88 31.95, 21.77 30.39 C14.65 28.83, 6.15 26.75, 2.53 23.72 C-1.09 20.69, -2.02 15.35, 0.03 12.21 C2.09 9.07, 8.64 6.97, 14.85 4.89 C21.06 2.82, 33.68 0.28, 37.28 -0.24 C40.89 -0.76, 36.26 1.61, 36.48 1.77" stroke="none" stroke-width="0" fill="#c8c8c8"></path><path d="M52.63 1.08 C60.2 1.84, 68.87 4.74, 74.06 7.11 C79.25 9.48, 83.28 12.02, 83.78 15.31 C84.28 18.6, 81.43 23.96, 77.05 26.84 C72.67 29.72, 65.14 31.55, 57.51 32.58 C49.87 33.62, 39.17 34.02, 31.25 33.05 C23.32 32.08, 15.13 29.15, 9.95 26.76 C4.78 24.37, 0.8 22.02, 0.19 18.72 C-0.42 15.42, 1.98 9.82, 6.32 6.97 C10.65 4.11, 16.77 2.34, 26.23 1.57 C35.68 0.8, 55.52 1.55, 63.05 2.36 C70.57 3.17, 71.42 6.25, 71.35 6.43 M59.51 0.49 C66.76 1.92, 73.36 6.23, 77.24 9.27 C81.13 12.31, 83.35 15.65, 82.81 18.74 C82.27 21.82, 79.04 25.08, 74.01 27.79 C68.98 30.5, 60.55 34.44, 52.62 35.01 C44.69 35.57, 34.35 32.73, 26.42 31.2 C18.48 29.67, 9.47 28.7, 5.03 25.83 C0.59 22.96, -1.2 17.12, -0.22 13.99 C0.76 10.85, 5.3 9.16, 10.91 7.02 C16.51 4.87, 25.62 2.02, 33.42 1.14 C41.22 0.25, 53.33 1.75, 57.7 1.7 C62.08 1.65, 59.64 0.61, 59.66 0.83" stroke="#495057" stroke-width="4" fill="none"></path></g><g stroke-linecap="round" transform="translate(93.36916041608782 30.860909885276897) rotate(0 40.03133171421473 24.085424505963942)"><path d="M-1.06 1.02 L81.02 1.99 L79.64 49.27 L-0.13 47.29" stroke="none" stroke-width="0" fill="#c8c8c8"></path><path d="M1.06 -0.18 C21.63 -1.98, 44.7 -2.73, 81.53 -1.06 M0.35 -0.43 C16.8 -0.83, 33.98 -1.34, 80.2 0.82 M80.98 -1.59 C79.57 9.97, 81.41 25.29, 79.09 49.83 M79.43 -0.92 C80.16 12.23, 79.61 26.48, 79.64 49.17 M79.12 48.41 C48.68 45.57, 18.72 49.14, 0.24 49.17 M79.44 48.4 C63.89 48.4, 48.06 49.18, 0.29 48.11 M-1.23 46.41 C-0.45 36.35, -0.69 23.75, -0.85 -0.25 M-0.34 49.03 C0.52 37.31, -0.38 27.16, 0.2 0.81" stroke="#00000000" stroke-width="1" fill="none"></path></g><g stroke-linecap="round" transform="translate(91.63382216874408 9.999999999999773) rotate(0 42.179553141334225 17.061663224312838)"><path d="M40.88 -0.61 C48.67 -1.05, 58.23 0.94, 65.05 2.9 C71.87 4.85, 78.95 8.03, 81.79 11.12 C84.62 14.21, 84.41 18.31, 82.09 21.42 C79.77 24.53, 74.19 27.72, 67.87 29.77 C61.55 31.82, 52.46 33.34, 44.16 33.72 C35.87 34.09, 24.89 33.87, 18.09 32.02 C11.28 30.18, 6.08 25.87, 3.34 22.63 C0.6 19.4, -0.55 15.66, 1.65 12.62 C3.86 9.57, 8.79 6.36, 16.56 4.38 C24.34 2.4, 41.61 1.06, 48.3 0.72 C54.99 0.38, 56.76 2.04, 56.7 2.33 M42.18 0.37 C49.99 -0.06, 58.36 1.44, 65.07 3.13 C71.79 4.83, 79.38 7.63, 82.47 10.53 C85.56 13.44, 86.23 17.37, 83.6 20.54 C80.97 23.71, 73.26 27.55, 66.7 29.57 C60.14 31.59, 52.46 32.44, 44.24 32.67 C36.03 32.89, 24.51 32.75, 17.41 30.9 C10.31 29.05, 4.11 24.57, 1.64 21.56 C-0.84 18.55, 0.2 15.88, 2.56 12.83 C4.92 9.79, 9.66 5.18, 15.8 3.27 C21.94 1.35, 35.19 2.01, 39.42 1.35 C43.65 0.68, 40.94 -0.99, 41.18 -0.71" stroke="none" stroke-width="0" fill="#efefef"></path><path d="M38.8 0.76 C46.62 0.12, 57.43 0.04, 64.47 1.8 C71.52 3.55, 77.93 8.12, 81.07 11.32 C84.21 14.51, 85.33 17.9, 83.32 20.98 C81.31 24.06, 75.35 27.78, 68.99 29.8 C62.64 31.82, 53.46 32.7, 45.21 33.11 C36.96 33.51, 26.65 34, 19.5 32.23 C12.34 30.46, 5.47 25.67, 2.29 22.49 C-0.89 19.31, -1.66 16.29, 0.41 13.17 C2.48 10.06, 7.3 5.83, 14.7 3.78 C22.11 1.74, 38.57 1.5, 44.84 0.91 C51.11 0.33, 52.08 0.17, 52.3 0.27 M22.54 2.48 C29.09 1.05, 39.99 -0.12, 48.41 0.24 C56.83 0.6, 66.88 2.01, 73.06 4.65 C79.24 7.28, 84.23 12.88, 85.48 16.06 C86.73 19.23, 84.83 20.92, 80.54 23.68 C76.25 26.44, 67.47 31.15, 59.74 32.62 C52.01 34.08, 42.16 32.9, 34.18 32.49 C26.2 32.08, 17.46 32.22, 11.86 30.16 C6.25 28.09, 1.94 23.58, 0.56 20.09 C-0.82 16.6, -0.45 12.44, 3.58 9.22 C7.61 6, 21.23 1.96, 24.73 0.75 C28.24 -0.45, 24.51 1.48, 24.62 1.98" stroke="#495057" stroke-width="4" fill="none"></path></g><g stroke-linecap="round"><g transform="translate(92.72775926993705 30.4150121739101) rotate(0 -0.807522942112513 23.918869389158203)"><path d="M-0.23 -1.23 C1.06 17.62, 1.39 38.15, -2.28 48.98 M0.13 -0.48 C0.67 16.13, 0.01 35.07, -1.02 49.07" stroke="#495057" stroke-width="4" fill="none"></path></g></g><mask></mask><g stroke-linecap="round"><g transform="translate(334.82864378641096 30.4150121739101) rotate(0 -0.15060232492271552 24.9981989426841)"><path d="M-0.06 -1.13 C-0.11 13.38, 0.98 25.79, -1.21 51.12 M0.91 0.09 C0.91 12.15, -0.9 26.25, -0.81 50.33" stroke="#495057" stroke-width="4" fill="none"></path></g></g><mask></mask><g stroke-linecap="round" transform="translate(251.2216941093621 60.80574417148591) rotate(0 42.179553141334225 17.061663224312838)"><path d="M34.35 -0.32 C41.91 -1.14, 52.86 0.1, 60.26 1.63 C67.67 3.16, 74.82 5.84, 78.78 8.85 C82.74 11.85, 85.12 16.43, 84.01 19.65 C82.9 22.88, 77.88 25.96, 72.12 28.2 C66.35 30.44, 57.58 32.32, 49.41 33.11 C41.25 33.89, 30.46 34.11, 23.13 32.92 C15.81 31.72, 9.28 29.07, 5.47 25.93 C1.66 22.8, -0.76 17.58, 0.25 14.1 C1.26 10.62, 4.52 7.34, 11.54 5.06 C18.56 2.77, 36.14 1.3, 42.37 0.41 C48.6 -0.48, 48.93 -0.46, 48.92 -0.27 M51.87 1.27 C59.62 1.69, 70.19 3.85, 75.34 6.13 C80.49 8.42, 82.36 11.57, 82.77 14.97 C83.18 18.37, 82.05 23.78, 77.8 26.52 C73.55 29.26, 64.74 30.45, 57.24 31.4 C49.74 32.36, 40.62 32.69, 32.81 32.26 C25.01 31.83, 15.89 31.09, 10.43 28.83 C4.96 26.58, 0.69 22.25, 0.03 18.74 C-0.62 15.22, 2.04 10.87, 6.5 7.74 C10.96 4.62, 19.38 1.02, 26.78 0 C34.19 -1.01, 46.55 1.6, 50.92 1.64 C55.3 1.68, 53.13 0.03, 53.04 0.24" stroke="none" stroke-width="0" fill="#c8c8c8"></path><path d="M54.14 0.43 C61.83 0.97, 70.45 3.51, 75.51 5.99 C80.57 8.48, 84.18 12.09, 84.51 15.36 C84.84 18.63, 82.17 22.69, 77.5 25.61 C72.82 28.54, 64.14 31.66, 56.45 32.91 C48.76 34.15, 39.16 33.79, 31.36 33.09 C23.57 32.39, 14.92 31.18, 9.68 28.71 C4.44 26.24, 0.38 21.81, -0.08 18.24 C-0.54 14.68, 2.27 10.29, 6.92 7.31 C11.57 4.32, 19.08 1.21, 27.82 0.33 C36.56 -0.56, 53.33 1.42, 59.38 1.98 C65.42 2.54, 64.54 3.68, 64.09 3.7 M43.51 1.21 C51.32 0.85, 60.73 1.31, 67.33 2.92 C73.92 4.52, 80.77 7.62, 83.1 10.84 C85.44 14.07, 84.06 19.07, 81.33 22.29 C78.59 25.51, 73.32 28.19, 66.7 30.17 C60.08 32.16, 50.06 34.37, 41.62 34.2 C33.17 34.04, 22.57 31.38, 16.04 29.19 C9.5 27, 4.54 24.18, 2.43 21.07 C0.31 17.96, 0.43 13.32, 3.35 10.52 C6.27 7.72, 13.3 5.91, 19.94 4.28 C26.58 2.66, 39.45 1.28, 43.19 0.74 C46.92 0.21, 42.34 0.95, 42.34 1.08" stroke="#495057" stroke-width="4" fill="none"></path></g><g stroke-linecap="round" transform="translate(253.36916041608782 30.860909885276897) rotate(0 40.03133171421473 24.085424505963942)"><path d="M-1.23 -0.39 L80.44 -0.58 L79.83 46.94 L0.91 46.8" stroke="none" stroke-width="0" fill="#c8c8c8"></path><path d="M-0.54 1.6 C31.04 0.5, 62.41 -1.01, 79.81 0.2 M0.28 0.85 C25.04 0.44, 50.88 0.89, 80.8 0.86 M79.26 0.99 C78.34 17.24, 78.33 35.64, 82.02 47.16 M80.15 0.72 C78.93 16.26, 80.48 33.21, 80.06 48.83 M80.54 49.33 C57.18 48.8, 35.36 48.11, -1.29 49.97 M80.98 47.48 C63.81 48.45, 47.98 48.68, 0.59 48.97 M1.41 47.13 C0.85 35.47, -0.75 23.45, -0.98 -1.85 M-0.66 47.24 C0.41 35.67, 0.66 24.42, 0.12 -0.86" stroke="#00000000" stroke-width="1" fill="none"></path></g><g stroke-linecap="round" transform="translate(251.63382216874408 9.999999999999773) rotate(0 42.179553141334225 17.061663224312838)"><path d="M51.14 0.06 C58.93 0.29, 68.4 2.84, 73.98 5.3 C79.55 7.77, 83.81 11.52, 84.6 14.85 C85.39 18.18, 82.85 22.3, 78.74 25.28 C74.62 28.26, 67.23 31.3, 59.91 32.75 C52.58 34.19, 42.85 34.47, 34.78 33.93 C26.71 33.39, 17.29 31.87, 11.46 29.48 C5.64 27.1, 0.86 22.9, -0.17 19.61 C-1.2 16.31, 1.05 12.58, 5.29 9.71 C9.53 6.85, 16.62 3.85, 25.29 2.42 C33.96 1, 51.22 1.24, 57.31 1.17 C63.39 1.1, 62.1 1.89, 61.83 1.98 M36.42 -0.51 C44.41 -1.36, 54.28 -0.54, 61.5 1.08 C68.72 2.7, 75.82 6.38, 79.74 9.22 C83.66 12.05, 86.38 14.65, 85.02 18.09 C83.66 21.54, 77.63 27.25, 71.57 29.88 C65.51 32.51, 56.49 33.52, 48.66 33.87 C40.83 34.23, 31.8 33.28, 24.6 32.02 C17.39 30.75, 9.39 29.02, 5.42 26.27 C1.45 23.52, -0.2 19.04, 0.78 15.52 C1.76 12, 5.67 7.79, 11.3 5.16 C16.93 2.53, 30.74 0.25, 34.54 -0.28 C38.35 -0.82, 34.18 1.58, 34.12 1.94" stroke="none" stroke-width="0" fill="#efefef"></path><path d="M56.59 1.4 C64.42 2.14, 73.8 4.65, 78.38 7.37 C82.96 10.09, 84.46 14.3, 84.05 17.72 C83.64 21.13, 81.21 25.14, 75.92 27.86 C70.63 30.59, 60.58 33.33, 52.32 34.07 C44.07 34.8, 33.79 33.39, 26.37 32.26 C18.96 31.13, 12.33 29.96, 7.85 27.29 C3.38 24.63, -0.71 19.82, -0.48 16.26 C-0.24 12.71, 3.99 8.54, 9.25 5.97 C14.51 3.39, 21.49 1.19, 31.09 0.83 C40.7 0.46, 59.77 3, 66.86 3.78 C73.95 4.56, 74.08 5.28, 73.63 5.5 M51.51 0.5 C59.31 0.81, 69.84 2.66, 75.29 5.42 C80.75 8.18, 84.03 13.72, 84.22 17.06 C84.4 20.4, 80.74 22.81, 76.41 25.47 C72.08 28.12, 65.9 31.66, 58.23 32.97 C50.57 34.27, 38.5 34.17, 30.44 33.28 C22.37 32.4, 14.8 30.27, 9.82 27.66 C4.83 25.04, 1.08 21, 0.54 17.57 C-0.01 14.14, 2.25 10.01, 6.54 7.07 C10.82 4.14, 18.3 0.91, 26.24 -0.02 C34.17 -0.94, 49.9 1.25, 54.14 1.53 C58.38 1.81, 52.2 1.41, 51.67 1.67" stroke="#495057" stroke-width="4" fill="none"></path></g><g stroke-linecap="round"><g transform="translate(252.72775926993705 30.4150121739101) rotate(0 -0.6111552322979605 25.304830161791756)"><path d="M-0.25 -0.08 C-1.22 15.07, -0.33 31.2, -1.69 48.58 M0.47 0.38 C0.27 12.83, -1.31 25.83, -0.69 50.69" stroke="#495057" stroke-width="4" fill="none"></path></g></g><mask></mask><g stroke-linecap="round" transform="translate(192.1594383440284 56.059166357363665) rotate(0 20 10)"><path d="M0.66 0.4 L39.62 0.21 L41.43 20.28 L-0.73 19.6" stroke="none" stroke-width="0" fill="#efefef"></path><path d="M-1.97 -0.94 C16.23 -0.91, 30.18 -0.07, 41.76 0.24 M0.55 -0.62 C14.23 -0.08, 27.79 0.27, 40.57 0.29 M39.96 -1.23 C38.13 5.75, 39.69 11.39, 38.83 19.15 M39.6 -0.34 C40.71 6.61, 39.65 11.46, 40.34 20.2 M40.96 21.99 C24.34 21.31, 9.38 19.33, 1 21.87 M40.42 19.52 C27.65 19.22, 13.17 19.42, 0.44 19.03 M-1.75 21.21 C0.71 14.88, -0.4 9.19, 1.78 0.5 M-0.14 20.91 C0.77 15.54, 0.11 10.66, 0.33 -0.05" stroke="#868e96" stroke-width="4" fill="none"></path></g><g stroke-linecap="round" transform="translate(169.4461112120258 118.57813353272331) rotate(0 40.00000000000003 10)"><path d="M0 0 C0 0, 0 0, 0 0 M0 0 C0 0, 0 0, 0 0 M-0.99 6.99 C2.14 4.79, 3.28 2.2, 4.23 0.67 M-0.13 6.13 C1.96 4.06, 3.72 1.9, 5.05 0.1 M-0.48 13.64 C1.5 7.79, 4.84 4.54, 12 -0.63 M0.84 12.62 C4.49 7.34, 7.5 2.8, 10.07 -0.1 M0.36 16.82 C5.51 10.7, 9.67 7.17, 17.09 0.46 M-0.87 18.93 C3.49 14.48, 7.04 10.76, 15.6 1.07 M0.57 23.71 C5.87 14.6, 14.06 11.97, 21.39 1.15 M2.69 21.02 C8.7 13.69, 14.25 7.13, 21.53 0.57 M7.1 23.88 C11 15.59, 17.77 9.4, 26.96 1.95 M8.21 21.54 C15.16 13.05, 22.47 4.59, 26.69 -0.6 M14.86 20.66 C21.03 15.06, 29.74 4.56, 31.46 1.85 M13.7 22.7 C18.88 13.96, 25.9 7.12, 31.87 0.8 M18.24 20.42 C22.8 15.6, 30.36 7.6, 38.34 2.1 M18.27 21.93 C24.55 15.68, 29.07 9, 36.4 -0.19 M24.19 20.31 C32.84 12.73, 38.22 5.72, 43.12 0.13 M24.07 21.17 C26.75 15.98, 31.18 11.47, 42.34 -0.29 M27.97 22.14 C35.8 17.34, 40.12 10.77, 47.24 1.51 M27.98 21.42 C35.24 15.76, 40.89 8.07, 47.25 -0.35 M33.5 20.38 C40.53 14.42, 45.52 7.15, 52.36 -2.13 M34.88 22.23 C40.28 13.99, 48.46 5.07, 52.36 -0.88 M37.14 24.06 C43.56 15.59, 49.19 12.77, 58.13 -1.13 M39.32 22.28 C42.99 17.81, 47.81 12.7, 57.31 -0.51 M44.08 20.7 C50.06 14.21, 55.25 8.39, 64.57 -1.92 M44.77 20.87 C51.97 14.08, 58.37 5.18, 64.39 0.55 M48.03 22.29 C54.32 15.46, 64.32 7.39, 69.84 0.97 M49.32 22.48 C57.23 13.23, 62.85 5.87, 69.2 0.06 M55.66 21.17 C64.52 13.46, 69.58 3.65, 72.56 -1.18 M54.92 22.27 C60.14 14.48, 65.72 9.39, 74.95 0.23 M62.31 20.03 C64.29 17.86, 68.84 13.21, 77.63 0.68 M61.07 22.66 C65.82 15.91, 70.17 10.73, 79.1 -0.68 M64.38 19.8 C68.63 17.13, 74.9 12.82, 83.91 2.3 M66.06 20.82 C70.46 16.36, 76.72 10.17, 82.99 3.11 M71.06 21.64 C74.22 17.3, 77.61 13.56, 83.83 7.4 M70.71 21.3 C75.08 17.68, 79.12 13.41, 82.52 7.8 M76.7 22.07 C77.88 19.05, 81.28 16.55, 82.75 13.9 M77.01 21.38 C77.83 19.63, 79.61 18.16, 82.69 14.37 M-0.09 19.92 C-0.09 19.92, -0.09 19.92, -0.09 19.92 M-0.09 19.92 C-0.09 19.92, -0.09 19.92, -0.09 19.92 M6.5 20.37 C4.88 19.06, 2.31 16.92, -0.53 15.68 M6.57 19.96 C5.18 19.01, 3.89 18.07, 0.44 15.32 M11.23 20.55 C8.97 17.72, 5.75 14.2, -1.06 9.04 M12.74 19.41 C9.68 16.7, 5.25 14.69, -0.66 9.16 M19.15 20.6 C12.23 16.64, 10.06 13.08, 0.84 5.79 M19.32 20.95 C12.98 15.19, 4.98 8.31, -0.15 3.34 M23.95 21.05 C16.26 14.71, 9.27 9.92, -0.42 -2.12 M24.56 19.77 C16.75 13.11, 8.1 5.43, 0.78 -0.16 M29.23 19.67 C26.64 14.1, 18.16 11.98, 7.08 0.04 M31.03 19.02 C24.64 14.61, 16.35 9.27, 6.61 -0.36 M36.97 20.67 C27.42 13.37, 17 4.29, 12.21 0.03 M36.26 20.45 C26.46 12.59, 16.94 4.76, 12.71 -0.09 M41.18 20.31 C36 13.78, 29.6 10.64, 18.72 0.88 M41.58 19.26 C33.74 13.24, 27.09 6.76, 19.29 -1.09 M46.96 20.01 C42.38 13.14, 32.85 8.01, 24.98 1.03 M49.17 19.89 C39.19 11.77, 28.78 3.65, 24.1 -0.34 M56.32 19.75 C47.22 14.07, 37.42 7.04, 31.12 -0.54 M54.73 20.94 C48.34 14.28, 43.03 9.47, 31.43 -0.28 M59.46 19.94 C51.77 12.97, 45.03 8.37, 36.75 1.08 M60.7 19.68 C54.5 15.04, 49.09 9.74, 36.73 0.14 M68.13 21.35 C60.04 13.97, 51.66 4.73, 44.33 -1.39 M66.52 19.55 C58.24 13.38, 50.42 5.51, 43.93 -0.07 M71.38 20.42 C68.53 15.89, 62.61 8.25, 48.5 0.49 M72.29 20.1 C66.67 13.44, 60.93 8.53, 49.61 -0.39 M80.72 20.5 C72.95 11.1, 61.82 5.94, 55.81 -1.76 M78.81 19.77 C73.03 13.77, 67.02 9.57, 54.73 -0.91 M82.05 15.87 C75.43 9.12, 68.97 6.07, 61.89 -2.36 M81.44 16.54 C74.48 9.68, 68.1 5.11, 60.59 -1.49 M82.81 12.17 C77.86 7.38, 75.81 6.82, 67.22 -1.88 M82.19 11.96 C78.98 8.76, 75.67 7.1, 68.54 0.09 M83.41 6.32 C80.6 4.17, 77.15 1.12, 73.99 -0.12 M83.1 7.07 C80.87 5.52, 78.92 4.21, 74.02 -0.43" stroke="black" stroke-width="0.5" fill="none"></path><path d="M-1.76 -0.13 C29.18 0.13, 57.58 -0.36, 79.75 -1.57 M0.86 0.86 C29.48 0.24, 59.67 0.47, 80.81 -0.53 M79.58 1.1 C79.96 6.14, 81.1 15.9, 80.48 19 M80.6 -0.83 C79.16 5.63, 80.52 11.57, 79.25 19.81 M80.67 19.38 C60.27 18.67, 43.21 20.98, -1.42 19.93 M80.76 20.13 C49.12 20.55, 18.37 20.68, 0.33 20.2 M0.28 19.27 C-0.43 12.81, 1.38 9.85, 1.37 1.17 M-0.62 20.69 C-0.09 13.17, 0.84 4.42, 0.54 0.94" stroke="#343a40" stroke-width="1" fill="none"></path></g><g stroke-linecap="round"><g transform="translate(180.19675224228524 129.41198672069413) rotate(0 -0.9338181648427906 21.04624659381807)"><path d="M-1.27 0.88 C-2.27 12.89, -0.72 27.6, -1.75 41.21 M-0.91 0.89 C0.12 12.63, -0.16 27.55, -0.14 40.91" stroke="#343a40" stroke-width="4" fill="none"></path></g></g><mask></mask><g stroke-linecap="round"><g transform="translate(200.1967522422853 129.41198672069413) rotate(0 -0.30833119039269263 19.857540211174637)"><path d="M-1.5 -0.39 C-1 7.71, 1.39 19.59, -0.62 39.56 M-0.71 -0.04 C1.23 8.24, 1.26 17.52, 0.13 40.1" stroke="#343a40" stroke-width="4" fill="none"></path></g></g><mask></mask><g stroke-linecap="round"><g transform="translate(220.1967522422853 129.41198672069413) rotate(0 0.017005110159516335 20.70074521144852)"><path d="M-1.75 1.21 C0.59 8.37, -0.52 16.18, 1.78 40.5 M-0.14 0.91 C0.75 9.29, 0.09 18.15, 0.33 39.95" stroke="#343a40" stroke-width="4" fill="none"></path></g></g><mask></mask><g stroke-linecap="round"><g transform="translate(240.1967522422853 129.41198672069413) rotate(0 -0.0214736415103971 19.486487579531968)"><path d="M-0.42 1.1 C0.06 13.16, 1.19 29.93, 0.48 39 M0.6 -0.83 C-0.76 11.9, 0.61 24.1, -0.75 39.81" stroke="#343a40" stroke-width="4" fill="none"></path></g></g><mask></mask><g stroke-linecap="round" transform="translate(100.24320652167074 15.564033786475648) rotate(0 34.210398443623035 11.402130221662105)"><path d="M4.89 4.25 C4.89 4.25, 4.89 4.25, 4.89 4.25 M4.89 4.25 C4.89 4.25, 4.89 4.25, 4.89 4.25 M0.96 15.15 C4.36 11.26, 7.81 6.94, 11.31 3.14 M0.67 14.85 C4.52 10.93, 7.52 7.61, 10.44 3.01 M4.19 15.27 C11.27 9, 15.23 4.18, 16.15 -0.78 M4.53 16.43 C7.43 13.45, 11.71 10.5, 18.21 0.62 M7.4 19.59 C14.14 12.07, 15.84 7.22, 23.78 2.51 M8.62 17.33 C13.47 12.76, 15.9 8.96, 23.98 0.96 M13.98 21.56 C14.44 17.4, 20.49 10.48, 29.81 0.26 M12.97 20.77 C17.62 15.16, 22.82 8.61, 28.91 0.05 M18.33 21.21 C23.8 14.11, 26.7 6.28, 34.17 -0.52 M15.85 20.27 C22.77 14, 28.86 7.08, 34.76 1.48 M23.49 21.81 C30.43 14.3, 36.22 5.11, 39.56 2 M21.7 20.92 C28.13 14.39, 34.66 6.95, 40.33 0.21 M27.67 21.5 C32.08 17.42, 33.79 13.39, 44.61 1.65 M25.86 21.66 C33 14.66, 39.28 6.3, 44.96 2.35 M31.28 23.61 C37.58 17.65, 45.16 6.46, 47 3.11 M32 22.32 C37.31 15.52, 44.94 8.65, 47.93 2.75 M34.16 26.39 C38.25 18.54, 41.36 14.99, 52.56 2.55 M35.61 24.01 C39.95 19.02, 45.02 13.45, 53.9 4.28 M39.88 23.25 C43.7 16.39, 49.87 11.74, 56.41 4.72 M40.63 24.05 C46.6 17.67, 50.41 12.14, 58.36 5.69 M45.76 24.75 C49.71 19.26, 53.2 16.26, 62.76 5.14 M45.79 22.71 C52.41 16.76, 57.26 11.16, 61.71 6.38 M55 22.24 C57.69 16.94, 62.78 11.04, 67.83 8.71 M55.05 21.5 C56.66 17.26, 60.48 12.94, 66.67 7.88 M63.14 17.05 C64.66 14.72, 64.77 14.54, 68.3 11.69 M62.87 16.25 C63.81 15.44, 64.8 14.54, 67.63 11.1 M0.07 13.64 C0.07 13.64, 0.07 13.64, 0.07 13.64 M0.07 13.64 C0.07 13.64, 0.07 13.64, 0.07 13.64 M12.1 17.77 C8.71 16.47, 6.3 13.99, 1.37 10.81 M11.36 18.63 C8.41 15.91, 4.71 11.87, 2.15 10.23 M21.62 21.5 C15.29 17.17, 10.95 12.08, 5.18 7.36 M18.87 20.18 C15.26 16.67, 11.38 13.61, 2.97 6.42 M25.68 20.6 C22.84 14.48, 17.12 9.77, 6.75 1.03 M26.94 21.86 C20.54 15.99, 13.41 9.9, 5.04 1.66 M31.25 19.99 C25.36 14.75, 14.18 5.27, 12.09 2 M33.56 22.2 C27.47 15.89, 20.17 11.07, 10.66 2.53 M39.08 20.8 C32.22 14.5, 24.85 7.34, 15.54 0.48 M38.38 20.75 C31.35 14.99, 23.43 6.77, 16.4 1.4 M42.99 18.91 C38.9 15.41, 33.79 10.14, 19.66 -2.06 M44.02 19.72 C37.75 14.82, 32.75 9.99, 19.71 -0.04 M50.55 21.11 C41.72 15.14, 38.69 7.48, 23.37 -0.72 M48.94 18.87 C45.21 14.49, 39.3 9.83, 25.34 -1.77 M54.37 20.69 C47.09 11.77, 43.31 7.91, 30.53 -2.89 M55.18 19.78 C47.94 12.73, 38.78 3.69, 32.29 -0.63 M60 17.01 C52.15 14.48, 49.3 9.29, 36.57 -1.36 M58.46 16.07 C51.96 10.95, 44.54 4.57, 38.74 -0.66 M63.89 16.24 C56.67 12.08, 51.42 4.25, 44.14 0.47 M62.51 14.87 C59.51 12.62, 55.76 8.92, 43.97 -1.6 M67.38 14.37 C60.06 7.51, 54.94 0.4, 51.22 -3.1 M67.37 12.51 C62.62 8.26, 55.86 3.6, 48.81 -1.99 M71.36 11.27 C67.73 9.14, 62.94 5.46, 58.41 1.65 M70.52 11.27 C66.76 8.85, 64.77 7.37, 57.5 -0.19" stroke="#868e96" stroke-width="0.5" fill="none"></path><path d="M23.63 0.16 C29.92 -0.56, 40.12 0.06, 46.91 0.95 C53.7 1.83, 60.9 3.34, 64.37 5.47 C67.84 7.61, 69.52 11.36, 67.75 13.74 C65.97 16.12, 59.64 18.28, 53.72 19.76 C47.8 21.23, 39.29 22.7, 32.22 22.57 C25.14 22.44, 16.67 20.52, 11.27 18.99 C5.87 17.47, 0.92 15.84, -0.17 13.42 C-1.27 11, 0.31 6.61, 4.7 4.46 C9.1 2.31, 22.12 1.28, 26.18 0.53 C30.23 -0.23, 28.9 -0.17, 29.03 -0.09 M17.94 0.34 C23.66 -0.96, 34.01 -0.65, 41.14 0.29 C48.27 1.24, 56.37 4.25, 60.71 6.01 C65.04 7.78, 67.22 8.78, 67.15 10.87 C67.08 12.96, 65.19 16.49, 60.28 18.56 C55.38 20.63, 45.13 23.07, 37.7 23.29 C30.27 23.51, 21.53 21.09, 15.68 19.88 C9.83 18.66, 4.9 18.08, 2.61 16.01 C0.31 13.94, -0.99 10.1, 1.93 7.45 C4.84 4.8, 17.27 1.35, 20.08 0.13 C22.9 -1.08, 18.66 -0.01, 18.83 0.15" stroke="#868e96" stroke-width="1" fill="none"></path></g><g stroke-linecap="round" transform="translate(260.7387098104861 15.564033786475648) rotate(0 34.210398443623035 11.402130221662105)"><path d="M-0.58 10.1 C-0.58 10.1, -0.58 10.1, -0.58 10.1 M-0.58 10.1 C-0.58 10.1, -0.58 10.1, -0.58 10.1 M0.91 12.64 C5.46 8.69, 8.24 6.42, 11.68 1.14 M2.02 12.77 C4.34 10.55, 8.13 6.84, 11.67 2.17 M5.84 15.2 C10.71 12.54, 13.09 4.4, 17.08 0.2 M5.08 16.11 C9.99 11.2, 12.84 5.58, 17.23 2.16 M7.75 19.34 C13.25 11.7, 17.55 5.56, 22.42 0.14 M7.94 19.3 C13.58 11.41, 20.39 5.62, 21.97 0.5 M12.66 22.03 C15.99 12.7, 20.72 8.81, 26.81 0.04 M11.23 20.81 C17.17 14.4, 23.83 6.81, 29.51 1.6 M17.2 20.69 C20.77 14.54, 26.17 8.49, 36.18 -0.02 M16.09 22.11 C22.4 14.16, 28.97 6.11, 33.45 1.48 M21.76 24.51 C27.02 16.9, 28.3 12.64, 37.74 0.74 M20.14 23.44 C24.72 17.31, 29.29 13.66, 38.26 0.03 M23.68 23.55 C32.43 17.1, 37.04 11.75, 44.44 1.07 M25.03 23.65 C30.87 16.23, 37.59 8.3, 43.96 3.01 M29.71 22.07 C35.15 17.2, 42.56 7.48, 46.77 3.8 M31.12 24.25 C35.45 18.23, 39.42 12.46, 48.29 2.93 M34.5 22.72 C41.53 16.37, 50.39 9.17, 52.56 2.52 M34.35 24.24 C42.06 16.93, 47.8 9.05, 52.79 2.33 M42.34 21.87 C42.97 20.57, 47.94 14.8, 55.46 2.94 M40.27 24.14 C46.88 17.71, 51.96 9.97, 57.59 3.89 M45.64 21.72 C48.69 18.64, 52.84 13.19, 61.31 5.97 M46.84 22.85 C49.27 18.74, 53.46 15.04, 60.14 6.15 M53.54 19.87 C55.9 17.53, 61.61 11.72, 63.58 7.37 M53.37 19.82 C57.86 16.39, 60.11 13.43, 64.65 7.82 M62 18.63 C63.32 14.77, 65.67 12.62, 67.42 10.08 M61.37 17.83 C64.12 15.65, 65.72 12.91, 68.6 10.65 M5.05 17.05 C5.05 17.05, 5.05 17.05, 5.05 17.05 M5.05 17.05 C5.05 17.05, 5.05 17.05, 5.05 17.05 M14.69 19.15 C9.9 14.65, 6.58 9.93, 0.68 9.47 M13.28 19.78 C9.97 16.63, 7.3 13.06, 0.05 7.49 M23.41 21.32 C17 17.62, 10.69 9.69, 3.11 5.14 M23.85 22.94 C14.95 15.13, 7.37 9.01, 5.12 5.42 M27.13 23.5 C19.55 13.71, 13.56 8.92, 7.96 1.54 M29.54 21.04 C23.36 17.06, 15.71 11.32, 7.57 3.32 M36.66 22.79 C28.41 16.08, 18.42 6.58, 11.06 2.08 M35.21 22.7 C29.13 16.49, 22.68 12.05, 11.13 1.97 M39.08 22.45 C31.4 15.42, 22.36 7.26, 18.86 3.2 M40.97 22.58 C32.46 14.64, 23.21 6.82, 17.86 1.65 M45.3 21.93 C40.58 18.44, 33.99 13.77, 20.49 -1.21 M45.9 22.23 C38.13 14.12, 30.38 7.41, 22.39 1.04 M49.42 20.47 C43.04 11.7, 33.92 6.64, 29.69 1.02 M51.67 20.33 C44.76 14.4, 35.24 6.2, 28.21 0.62 M54.17 17.96 C48.11 13.48, 42.09 3.86, 33.89 -2.07 M56.26 18.3 C46.34 10.54, 38.64 3.78, 33.01 -1.02 M58.69 18.44 C54.66 15.47, 49.55 11.28, 41.88 0.27 M60.15 16.45 C52.19 10.68, 45.36 4.19, 40.69 0.39 M65.21 17.06 C58.88 10.48, 54.29 9.11, 49.62 -0.23 M65.23 15.63 C58.66 10.57, 53.3 6.09, 47.5 1.69 M66.23 13.87 C62.02 9.76, 58.31 5.39, 56.45 4.17 M67.79 12.24 C64.4 9.57, 60.75 7.63, 56.5 2.59" stroke="#868e96" stroke-width="0.5" fill="none"></path><path d="M33.52 -0.11 C40.45 -0.34, 49.29 1.18, 55.18 2.85 C61.07 4.52, 67.27 7.66, 68.84 9.92 C70.4 12.17, 68.32 14.37, 64.57 16.38 C60.82 18.39, 53.29 21.06, 46.33 21.98 C39.36 22.89, 29.65 22.69, 22.78 21.88 C15.92 21.07, 8.98 19.11, 5.12 17.11 C1.26 15.11, -1.43 12.43, -0.4 9.89 C0.63 7.34, 4.06 3.5, 11.31 1.84 C18.56 0.19, 36.6 -0.02, 43.1 -0.03 C49.6 -0.04, 50.68 1.64, 50.3 1.77 M41.03 0.6 C47.71 1.03, 55.42 2.97, 59.91 4.94 C64.4 6.91, 68.1 9.9, 67.98 12.45 C67.86 14.99, 63.7 18.53, 59.19 20.2 C54.69 21.88, 48.09 22.37, 40.93 22.5 C33.76 22.62, 22.66 22.05, 16.21 20.96 C9.76 19.86, 4.39 17.97, 2.24 15.93 C0.09 13.89, 0.61 10.91, 3.33 8.73 C6.05 6.54, 12.32 4.5, 18.56 2.83 C24.8 1.17, 36.95 -0.87, 40.75 -1.26 C44.55 -1.65, 41.72 -0.08, 41.34 0.49" stroke="#868e96" stroke-width="1" fill="none"></path></g></svg>