ISO-10303-21;
HEADER;
/* Generated by software containing ST-Developer
 * from STEP Tools, Inc. (www.steptools.com) 
 */
/* OPTION: using custom renumber hook */

FILE_DESCRIPTION(
/* description */ ('STEP AP214',
'CAx-IF Rec.Pracs.---User Defined Attributes---1.5---2016-08-15'),
/* implementation_level */ '2;1');

FILE_NAME(
/* name */ '6aa2fca358529bb3dbfab12a',
/* time_stamp */ '2026-09-10T18:53:24Z',
/* author */ (''),
/* organization */ (''),
/* preprocessor_version */ 'ST-DEVELOPER v20',
/* originating_system */ 'ONSHAPE BY PTC INC, 1.220',
/* authorisation */ '  ');

FILE_SCHEMA (('AUTOMOTIVE_DESIGN {1 0 10303 214 3 1 1}'));
ENDSEC;

DATA;
#10=PROPERTY_DEFINITION_REPRESENTATION(#14,#12);
#11=PROPERTY_DEFINITION_REPRESENTATION(#15,#13);
#12=REPRESENTATION('',(#16),#244);
#13=REPRESENTATION('',(#17),#244);
#14=PROPERTY_DEFINITION('pmi validation property','',#254);
#15=PROPERTY_DEFINITION('pmi validation property','',#254);
#16=VALUE_REPRESENTATION_ITEM('number of annotations',COUNT_MEASURE(0.));
#17=VALUE_REPRESENTATION_ITEM('number of views',COUNT_MEASURE(0.));
#18=OVER_RIDING_STYLED_ITEM('',(#122),#110,#119);
#19=OVER_RIDING_STYLED_ITEM('',(#123),#112,#119);
#20=SHAPE_REPRESENTATION_RELATIONSHIP('','',#151,#22);
#21=SHAPE_REPRESENTATION_RELATIONSHIP('','',#152,#23);
#22=ADVANCED_BREP_SHAPE_REPRESENTATION('',(#147),#243);
#23=ADVANCED_BREP_SHAPE_REPRESENTATION('',(#148),#244);
#24=TOROIDAL_SURFACE('',#160,0.002,0.0005);
#25=TOROIDAL_SURFACE('',#167,0.008,0.001);
#26=TOROIDAL_SURFACE('',#169,0.008,0.001);
#27=PLANE('',#157);
#28=PLANE('',#159);
#29=PLANE('',#165);
#30=PLANE('',#172);
#31=ORIENTED_EDGE('',*,*,#47,.T.);
#32=ORIENTED_EDGE('',*,*,#48,.T.);
#33=ORIENTED_EDGE('',*,*,#49,.T.);
#34=ORIENTED_EDGE('',*,*,#48,.F.);
#35=ORIENTED_EDGE('',*,*,#47,.F.);
#36=ORIENTED_EDGE('',*,*,#49,.F.);
#37=ORIENTED_EDGE('',*,*,#50,.T.);
#38=ORIENTED_EDGE('',*,*,#51,.T.);
#39=ORIENTED_EDGE('',*,*,#52,.T.);
#40=ORIENTED_EDGE('',*,*,#53,.F.);
#41=ORIENTED_EDGE('',*,*,#50,.F.);
#42=ORIENTED_EDGE('',*,*,#51,.F.);
#43=ORIENTED_EDGE('',*,*,#52,.F.);
#44=ORIENTED_EDGE('',*,*,#53,.T.);
#45=ORIENTED_EDGE('',*,*,#54,.F.);
#46=ORIENTED_EDGE('',*,*,#54,.T.);
#47=EDGE_CURVE('',#55,#55,#63,.F.);
#48=EDGE_CURVE('',#56,#56,#64,.T.);
#49=EDGE_CURVE('',#57,#57,#65,.T.);
#50=EDGE_CURVE('',#58,#58,#66,.T.);
#51=EDGE_CURVE('',#59,#59,#67,.F.);
#52=EDGE_CURVE('',#60,#60,#68,.T.);
#53=EDGE_CURVE('',#61,#61,#69,.F.);
#54=EDGE_CURVE('',#62,#62,#70,.F.);
#55=VERTEX_POINT('',#216);
#56=VERTEX_POINT('',#218);
#57=VERTEX_POINT('',#221);
#58=VERTEX_POINT('',#227);
#59=VERTEX_POINT('',#229);
#60=VERTEX_POINT('',#232);
#61=VERTEX_POINT('',#235);
#62=VERTEX_POINT('',#239);
#63=CIRCLE('',#155,0.0025);
#64=CIRCLE('',#156,0.0025);
#65=CIRCLE('',#158,0.002);
#66=CIRCLE('',#163,0.009);
#67=CIRCLE('',#164,0.009);
#68=CIRCLE('',#166,0.008);
#69=CIRCLE('',#168,0.008);
#70=CIRCLE('',#171,0.008);
#71=EDGE_LOOP('',(#31));
#72=EDGE_LOOP('',(#32));
#73=EDGE_LOOP('',(#33));
#74=EDGE_LOOP('',(#34));
#75=EDGE_LOOP('',(#35));
#76=EDGE_LOOP('',(#36));
#77=EDGE_LOOP('',(#37));
#78=EDGE_LOOP('',(#38));
#79=EDGE_LOOP('',(#39));
#80=EDGE_LOOP('',(#40));
#81=EDGE_LOOP('',(#41));
#82=EDGE_LOOP('',(#42));
#83=EDGE_LOOP('',(#43));
#84=EDGE_LOOP('',(#44));
#85=EDGE_LOOP('',(#45));
#86=EDGE_LOOP('',(#46));
#87=FACE_BOUND('',#71,.T.);
#88=FACE_BOUND('',#72,.T.);
#89=FACE_BOUND('',#73,.T.);
#90=FACE_BOUND('',#74,.T.);
#91=FACE_BOUND('',#75,.T.);
#92=FACE_BOUND('',#76,.T.);
#93=FACE_BOUND('',#77,.T.);
#94=FACE_BOUND('',#78,.T.);
#95=FACE_BOUND('',#79,.T.);
#96=FACE_BOUND('',#80,.T.);
#97=FACE_BOUND('',#81,.T.);
#98=FACE_BOUND('',#82,.T.);
#99=FACE_BOUND('',#83,.T.);
#100=FACE_BOUND('',#84,.T.);
#101=FACE_BOUND('',#85,.T.);
#102=FACE_BOUND('',#86,.T.);
#103=CYLINDRICAL_SURFACE('',#154,0.0025);
#104=CYLINDRICAL_SURFACE('',#162,0.009);
#105=CYLINDRICAL_SURFACE('',#170,0.008);
#106=ADVANCED_FACE('',(#87,#88),#103,.T.);
#107=ADVANCED_FACE('',(#89),#27,.T.);
#108=ADVANCED_FACE('',(#90),#28,.F.);
#109=ADVANCED_FACE('',(#91,#92),#24,.T.);
#110=ADVANCED_FACE('Face appearance 1',(#93,#94),#104,.T.);
#111=ADVANCED_FACE('',(#95),#29,.T.);
#112=ADVANCED_FACE('Face appearance 1',(#96,#97),#25,.T.);
#113=ADVANCED_FACE('',(#98,#99),#26,.T.);
#114=ADVANCED_FACE('',(#100,#101),#105,.F.);
#115=ADVANCED_FACE('',(#102),#30,.F.);
#116=CLOSED_SHELL('',(#106,#107,#108,#109));
#117=CLOSED_SHELL('',(#110,#111,#112,#113,#114,#115));
#118=STYLED_ITEM('',(#120),#147);
#119=STYLED_ITEM('',(#121),#148);
#120=PRESENTATION_STYLE_ASSIGNMENT((#124));
#121=PRESENTATION_STYLE_ASSIGNMENT((#125));
#122=PRESENTATION_STYLE_ASSIGNMENT((#126));
#123=PRESENTATION_STYLE_ASSIGNMENT((#127));
#124=SURFACE_STYLE_USAGE(.BOTH.,#128);
#125=SURFACE_STYLE_USAGE(.BOTH.,#129);
#126=SURFACE_STYLE_USAGE(.BOTH.,#130);
#127=SURFACE_STYLE_USAGE(.BOTH.,#131);
#128=SURFACE_SIDE_STYLE('',(#132));
#129=SURFACE_SIDE_STYLE('',(#133));
#130=SURFACE_SIDE_STYLE('',(#134));
#131=SURFACE_SIDE_STYLE('',(#135));
#132=SURFACE_STYLE_FILL_AREA(#136);
#133=SURFACE_STYLE_FILL_AREA(#137);
#134=SURFACE_STYLE_FILL_AREA(#138);
#135=SURFACE_STYLE_FILL_AREA(#139);
#136=FILL_AREA_STYLE('',(#140));
#137=FILL_AREA_STYLE('',(#141));
#138=FILL_AREA_STYLE('',(#142));
#139=FILL_AREA_STYLE('',(#143));
#140=FILL_AREA_STYLE_COLOUR('',#144);
#141=FILL_AREA_STYLE_COLOUR('',#145);
#142=FILL_AREA_STYLE_COLOUR('',#146);
#143=FILL_AREA_STYLE_COLOUR('',#146);
#144=COLOUR_RGB('',0.647058823529412,0.647058823529412,0.647058823529412);
#145=COLOUR_RGB('',0.615686274509804,0.811764705882353,0.929411764705882);
#146=COLOUR_RGB('',0.0941176470588235,0.580392156862745,0.545098039215686);
#147=MANIFOLD_SOLID_BREP('Part 2',#116);
#148=MANIFOLD_SOLID_BREP('Part 1',#117);
#149=SHAPE_DEFINITION_REPRESENTATION(#253,#151);
#150=SHAPE_DEFINITION_REPRESENTATION(#254,#152);
#151=SHAPE_REPRESENTATION('Part 2',(#153),#243);
#152=SHAPE_REPRESENTATION('Part 1',(#161),#244);
#153=AXIS2_PLACEMENT_3D('',#213,#173,#174);
#154=AXIS2_PLACEMENT_3D('',#214,#175,#176);
#155=AXIS2_PLACEMENT_3D('',#215,#177,#178);
#156=AXIS2_PLACEMENT_3D('',#217,#179,#180);
#157=AXIS2_PLACEMENT_3D('',#219,#181,#182);
#158=AXIS2_PLACEMENT_3D('',#220,#183,#184);
#159=AXIS2_PLACEMENT_3D('',#222,#185,#186);
#160=AXIS2_PLACEMENT_3D('',#223,#187,#188);
#161=AXIS2_PLACEMENT_3D('',#224,#189,#190);
#162=AXIS2_PLACEMENT_3D('',#225,#191,#192);
#163=AXIS2_PLACEMENT_3D('',#226,#193,#194);
#164=AXIS2_PLACEMENT_3D('',#228,#195,#196);
#165=AXIS2_PLACEMENT_3D('',#230,#197,#198);
#166=AXIS2_PLACEMENT_3D('',#231,#199,#200);
#167=AXIS2_PLACEMENT_3D('',#233,#201,#202);
#168=AXIS2_PLACEMENT_3D('',#234,#203,#204);
#169=AXIS2_PLACEMENT_3D('',#236,#205,#206);
#170=AXIS2_PLACEMENT_3D('',#237,#207,#208);
#171=AXIS2_PLACEMENT_3D('',#238,#209,#210);
#172=AXIS2_PLACEMENT_3D('',#240,#211,#212);
#173=DIRECTION('',(0.,0.,1.));
#174=DIRECTION('',(1.,0.,0.));
#175=DIRECTION('',(0.,0.,1.));
#176=DIRECTION('',(1.,0.,0.));
#177=DIRECTION('',(0.,0.,1.));
#178=DIRECTION('',(1.,0.,0.));
#179=DIRECTION('',(0.,0.,1.));
#180=DIRECTION('',(1.,0.,0.));
#181=DIRECTION('',(0.,0.,1.));
#182=DIRECTION('',(1.,0.,0.));
#183=DIRECTION('',(0.,0.,1.));
#184=DIRECTION('',(1.,0.,0.));
#185=DIRECTION('',(0.,0.,1.));
#186=DIRECTION('',(1.,0.,0.));
#187=DIRECTION('',(0.,0.,1.));
#188=DIRECTION('',(1.,0.,0.));
#189=DIRECTION('',(0.,0.,1.));
#190=DIRECTION('',(1.,0.,0.));
#191=DIRECTION('',(0.,0.,1.));
#192=DIRECTION('',(1.,0.,0.));
#193=DIRECTION('',(0.,0.,1.));
#194=DIRECTION('',(1.,0.,0.));
#195=DIRECTION('',(0.,0.,1.));
#196=DIRECTION('',(1.,0.,0.));
#197=DIRECTION('',(0.,0.,1.));
#198=DIRECTION('',(1.,0.,0.));
#199=DIRECTION('',(0.,0.,1.));
#200=DIRECTION('',(1.,0.,0.));
#201=DIRECTION('',(0.,0.,1.));
#202=DIRECTION('',(1.,0.,0.));
#203=DIRECTION('',(0.,0.,1.));
#204=DIRECTION('',(1.,0.,0.));
#205=DIRECTION('',(0.,0.,1.));
#206=DIRECTION('',(1.,0.,0.));
#207=DIRECTION('',(0.,0.,1.));
#208=DIRECTION('',(1.,0.,0.));
#209=DIRECTION('',(0.,0.,1.));
#210=DIRECTION('',(1.,0.,0.));
#211=DIRECTION('',(0.,0.,1.));
#212=DIRECTION('',(1.,0.,0.));
#213=CARTESIAN_POINT('',(0.,0.,0.));
#214=CARTESIAN_POINT('',(0.,7.04171909509728E-19,0.065));
#215=CARTESIAN_POINT('',(0.,7.04171909509728E-19,0.0655));
#216=CARTESIAN_POINT('',(0.0025,7.04171909509728E-19,0.0655));
#217=CARTESIAN_POINT('',(0.,7.04171909509728E-19,0.065));
#218=CARTESIAN_POINT('',(0.0025,7.04171909509728E-19,0.065));
#219=CARTESIAN_POINT('',(0.,0.,0.066));
#220=CARTESIAN_POINT('',(0.,7.04171909509728E-19,0.066));
#221=CARTESIAN_POINT('',(0.002,7.04171909509728E-19,0.066));
#222=CARTESIAN_POINT('',(0.,0.,0.065));
#223=CARTESIAN_POINT('',(0.,7.04171909509728E-19,0.0655));
#224=CARTESIAN_POINT('',(0.,0.,0.));
#225=CARTESIAN_POINT('',(0.,5.51091059616309E-19,0.));
#226=CARTESIAN_POINT('',(0.,5.51091059616309E-19,0.001));
#227=CARTESIAN_POINT('',(0.009,5.51091059616309E-19,0.001));
#228=CARTESIAN_POINT('',(0.,5.51091059616309E-19,0.064));
#229=CARTESIAN_POINT('',(0.009,5.51091059616309E-19,0.064));
#230=CARTESIAN_POINT('',(0.,0.,0.065));
#231=CARTESIAN_POINT('',(0.,5.51091059616309E-19,0.065));
#232=CARTESIAN_POINT('',(0.008,5.51091059616309E-19,0.065));
#233=CARTESIAN_POINT('',(0.,5.51091059616309E-19,0.001));
#234=CARTESIAN_POINT('',(0.,5.51091059616309E-19,0.));
#235=CARTESIAN_POINT('',(0.008,5.51091059616309E-19,0.));
#236=CARTESIAN_POINT('',(0.,5.51091059616309E-19,0.064));
#237=CARTESIAN_POINT('',(0.,5.51091059616309E-19,0.));
#238=CARTESIAN_POINT('',(0.,5.51091059616309E-19,0.0003));
#239=CARTESIAN_POINT('',(0.008,5.51091059616309E-19,0.0003));
#240=CARTESIAN_POINT('',(0.,0.,0.0003));
#241=MECHANICAL_DESIGN_GEOMETRIC_PRESENTATION_REPRESENTATION('',(#118),
#243);
#242=MECHANICAL_DESIGN_GEOMETRIC_PRESENTATION_REPRESENTATION('',(#119,#18,
#19),#244);
#243=(
GEOMETRIC_REPRESENTATION_CONTEXT(3)
GLOBAL_UNCERTAINTY_ASSIGNED_CONTEXT((#245))
GLOBAL_UNIT_ASSIGNED_CONTEXT((#251,#249,#247))
REPRESENTATION_CONTEXT('Part 2','TOP_LEVEL_ASSEMBLY_PART')
);
#244=(
GEOMETRIC_REPRESENTATION_CONTEXT(3)
GLOBAL_UNCERTAINTY_ASSIGNED_CONTEXT((#246))
GLOBAL_UNIT_ASSIGNED_CONTEXT((#252,#250,#248))
REPRESENTATION_CONTEXT('Part 1','TOP_LEVEL_ASSEMBLY_PART')
);
#245=UNCERTAINTY_MEASURE_WITH_UNIT(LENGTH_MEASURE(1.E-8),#251,
'DISTANCE_ACCURACY_VALUE','Maximum Tolerance applied to model');
#246=UNCERTAINTY_MEASURE_WITH_UNIT(LENGTH_MEASURE(1.E-8),#252,
'DISTANCE_ACCURACY_VALUE','Maximum Tolerance applied to model');
#247=(
NAMED_UNIT(*)
SI_UNIT($,.STERADIAN.)
SOLID_ANGLE_UNIT()
);
#248=(
NAMED_UNIT(*)
SI_UNIT($,.STERADIAN.)
SOLID_ANGLE_UNIT()
);
#249=(
NAMED_UNIT(*)
PLANE_ANGLE_UNIT()
SI_UNIT($,.RADIAN.)
);
#250=(
NAMED_UNIT(*)
PLANE_ANGLE_UNIT()
SI_UNIT($,.RADIAN.)
);
#251=(
LENGTH_UNIT()
NAMED_UNIT(*)
SI_UNIT($,.METRE.)
);
#252=(
LENGTH_UNIT()
NAMED_UNIT(*)
SI_UNIT($,.METRE.)
);
#253=PRODUCT_DEFINITION_SHAPE('','',#255);
#254=PRODUCT_DEFINITION_SHAPE('','',#256);
#255=PRODUCT_DEFINITION('','',#259,#257);
#256=PRODUCT_DEFINITION('','',#260,#258);
#257=PRODUCT_DEFINITION_CONTEXT('',#271,'design');
#258=PRODUCT_DEFINITION_CONTEXT('',#272,'design');
#259=PRODUCT_DEFINITION_FORMATION_WITH_SPECIFIED_SOURCE('','',#263,
 .NOT_KNOWN.);
#260=PRODUCT_DEFINITION_FORMATION_WITH_SPECIFIED_SOURCE('','',#264,
 .NOT_KNOWN.);
#261=PRODUCT_RELATED_PRODUCT_CATEGORY('','',(#263));
#262=PRODUCT_RELATED_PRODUCT_CATEGORY('','',(#264));
#263=PRODUCT('Part 2','Part 2','Part 2',(#267));
#264=PRODUCT('Part 1','Part 1','Part 1',(#268));
#265=PRODUCT_CATEGORY('','');
#266=PRODUCT_CATEGORY('','');
#267=PRODUCT_CONTEXT('',#271,'mechanical');
#268=PRODUCT_CONTEXT('',#272,'mechanical');
#269=APPLICATION_PROTOCOL_DEFINITION('international standard',
'automotive_design',2010,#271);
#270=APPLICATION_PROTOCOL_DEFINITION('international standard',
'automotive_design',2010,#272);
#271=APPLICATION_CONTEXT(
'core data for automotive mechanical design processes');
#272=APPLICATION_CONTEXT(
'core data for automotive mechanical design processes');
ENDSEC;
END-ISO-10303-21;
