ISO-10303-21;
HEADER;
/* Generated by software containing ST-Developer
 * from STEP Tools, Inc. (www.steptools.com) 
 */
/* OPTION: using custom renumber hook */

FILE_DESCRIPTION(
/* description */ ('STEP AP214',
'CAx-IF Rec.Pracs.---User Defined Attributes---1.5---2016-08-15'),
/* implementation_level */ '2;1');

FILE_NAME(
/* name */ '6aa2fca458529bb3dbfab139',
/* time_stamp */ '2026-09-10T18:53:25Z',
/* author */ (''),
/* organization */ (''),
/* preprocessor_version */ 'ST-DEVELOPER v20',
/* originating_system */ 'ONSHAPE BY PTC INC, 1.220',
/* authorisation */ '  ');

FILE_SCHEMA (('AUTOMOTIVE_DESIGN {1 0 10303 214 3 1 1}'));
ENDSEC;

DATA;
#10=PROPERTY_DEFINITION_REPRESENTATION(#14,#12);
#11=PROPERTY_DEFINITION_REPRESENTATION(#15,#13);
#12=REPRESENTATION('',(#16),#327);
#13=REPRESENTATION('',(#17),#327);
#14=PROPERTY_DEFINITION('pmi validation property','',#332);
#15=PROPERTY_DEFINITION('pmi validation property','',#332);
#16=VALUE_REPRESENTATION_ITEM('number of annotations',COUNT_MEASURE(0.));
#17=VALUE_REPRESENTATION_ITEM('number of views',COUNT_MEASURE(0.));
#18=SHAPE_REPRESENTATION_RELATIONSHIP('','',#213,#19);
#19=ADVANCED_BREP_SHAPE_REPRESENTATION('',(#211),#327);
#20=ORIENTED_EDGE('',*,*,#68,.F.);
#21=ORIENTED_EDGE('',*,*,#69,.T.);
#22=ORIENTED_EDGE('',*,*,#70,.T.);
#23=ORIENTED_EDGE('',*,*,#71,.F.);
#24=ORIENTED_EDGE('',*,*,#72,.F.);
#25=ORIENTED_EDGE('',*,*,#73,.T.);
#26=ORIENTED_EDGE('',*,*,#74,.T.);
#27=ORIENTED_EDGE('',*,*,#75,.F.);
#28=ORIENTED_EDGE('',*,*,#76,.F.);
#29=ORIENTED_EDGE('',*,*,#77,.T.);
#30=ORIENTED_EDGE('',*,*,#78,.T.);
#31=ORIENTED_EDGE('',*,*,#70,.F.);
#32=ORIENTED_EDGE('',*,*,#78,.F.);
#33=ORIENTED_EDGE('',*,*,#79,.F.);
#34=ORIENTED_EDGE('',*,*,#80,.T.);
#35=ORIENTED_EDGE('',*,*,#71,.T.);
#36=ORIENTED_EDGE('',*,*,#80,.F.);
#37=ORIENTED_EDGE('',*,*,#81,.F.);
#38=ORIENTED_EDGE('',*,*,#82,.T.);
#39=ORIENTED_EDGE('',*,*,#68,.T.);
#40=ORIENTED_EDGE('',*,*,#83,.T.);
#41=ORIENTED_EDGE('',*,*,#76,.T.);
#42=ORIENTED_EDGE('',*,*,#69,.F.);
#43=ORIENTED_EDGE('',*,*,#82,.F.);
#44=ORIENTED_EDGE('',*,*,#81,.T.);
#45=ORIENTED_EDGE('',*,*,#79,.T.);
#46=ORIENTED_EDGE('',*,*,#77,.F.);
#47=ORIENTED_EDGE('',*,*,#83,.F.);
#48=ORIENTED_EDGE('',*,*,#84,.T.);
#49=ORIENTED_EDGE('',*,*,#75,.T.);
#50=ORIENTED_EDGE('',*,*,#85,.F.);
#51=ORIENTED_EDGE('',*,*,#86,.F.);
#52=ORIENTED_EDGE('',*,*,#85,.T.);
#53=ORIENTED_EDGE('',*,*,#74,.F.);
#54=ORIENTED_EDGE('',*,*,#87,.F.);
#55=ORIENTED_EDGE('',*,*,#88,.T.);
#56=ORIENTED_EDGE('',*,*,#87,.T.);
#57=ORIENTED_EDGE('',*,*,#73,.F.);
#58=ORIENTED_EDGE('',*,*,#89,.F.);
#59=ORIENTED_EDGE('',*,*,#90,.T.);
#60=ORIENTED_EDGE('',*,*,#91,.F.);
#61=ORIENTED_EDGE('',*,*,#89,.T.);
#62=ORIENTED_EDGE('',*,*,#72,.T.);
#63=ORIENTED_EDGE('',*,*,#84,.F.);
#64=ORIENTED_EDGE('',*,*,#90,.F.);
#65=ORIENTED_EDGE('',*,*,#91,.T.);
#66=ORIENTED_EDGE('',*,*,#86,.T.);
#67=ORIENTED_EDGE('',*,*,#88,.F.);
#68=EDGE_CURVE('',#92,#93,#108,.F.);
#69=EDGE_CURVE('',#92,#94,#109,.T.);
#70=EDGE_CURVE('',#94,#95,#110,.F.);
#71=EDGE_CURVE('',#93,#95,#111,.T.);
#72=EDGE_CURVE('',#96,#97,#112,.T.);
#73=EDGE_CURVE('',#96,#98,#113,.F.);
#74=EDGE_CURVE('',#98,#99,#114,.F.);
#75=EDGE_CURVE('',#97,#99,#115,.T.);
#76=EDGE_CURVE('',#100,#94,#116,.T.);
#77=EDGE_CURVE('',#100,#101,#117,.T.);
#78=EDGE_CURVE('',#101,#95,#118,.T.);
#79=EDGE_CURVE('',#102,#101,#119,.T.);
#80=EDGE_CURVE('',#102,#93,#120,.T.);
#81=EDGE_CURVE('',#103,#102,#121,.T.);
#82=EDGE_CURVE('',#103,#92,#122,.T.);
#83=EDGE_CURVE('',#103,#100,#123,.T.);
#84=EDGE_CURVE('',#104,#97,#124,.T.);
#85=EDGE_CURVE('',#105,#99,#125,.F.);
#86=EDGE_CURVE('',#104,#105,#126,.T.);
#87=EDGE_CURVE('',#106,#98,#127,.T.);
#88=EDGE_CURVE('',#106,#105,#128,.F.);
#89=EDGE_CURVE('',#107,#96,#129,.F.);
#90=EDGE_CURVE('',#107,#106,#130,.F.);
#91=EDGE_CURVE('',#107,#104,#131,.T.);
#92=VERTEX_POINT('',#277);
#93=VERTEX_POINT('',#278);
#94=VERTEX_POINT('',#280);
#95=VERTEX_POINT('',#282);
#96=VERTEX_POINT('',#285);
#97=VERTEX_POINT('',#286);
#98=VERTEX_POINT('',#288);
#99=VERTEX_POINT('',#290);
#100=VERTEX_POINT('',#294);
#101=VERTEX_POINT('',#296);
#102=VERTEX_POINT('',#300);
#103=VERTEX_POINT('',#304);
#104=VERTEX_POINT('',#311);
#105=VERTEX_POINT('',#313);
#106=VERTEX_POINT('',#317);
#107=VERTEX_POINT('',#321);
#108=LINE('',#276,#132);
#109=LINE('',#279,#133);
#110=LINE('',#281,#134);
#111=LINE('',#283,#135);
#112=LINE('',#284,#136);
#113=LINE('',#287,#137);
#114=LINE('',#289,#138);
#115=LINE('',#291,#139);
#116=LINE('',#293,#140);
#117=LINE('',#295,#141);
#118=LINE('',#297,#142);
#119=LINE('',#299,#143);
#120=LINE('',#301,#144);
#121=LINE('',#303,#145);
#122=LINE('',#305,#146);
#123=LINE('',#307,#147);
#124=LINE('',#310,#148);
#125=LINE('',#312,#149);
#126=LINE('',#314,#150);
#127=LINE('',#316,#151);
#128=LINE('',#318,#152);
#129=LINE('',#320,#153);
#130=LINE('',#322,#154);
#131=LINE('',#324,#155);
#132=VECTOR('',#230,1.);
#133=VECTOR('',#231,1.);
#134=VECTOR('',#232,1.);
#135=VECTOR('',#233,1.);
#136=VECTOR('',#234,1.);
#137=VECTOR('',#235,1.);
#138=VECTOR('',#236,1.);
#139=VECTOR('',#237,1.);
#140=VECTOR('',#240,1.);
#141=VECTOR('',#241,1.);
#142=VECTOR('',#242,1.);
#143=VECTOR('',#245,1.);
#144=VECTOR('',#246,1.);
#145=VECTOR('',#249,1.);
#146=VECTOR('',#250,1.);
#147=VECTOR('',#253,1.);
#148=VECTOR('',#258,1.);
#149=VECTOR('',#259,1.);
#150=VECTOR('',#260,1.);
#151=VECTOR('',#263,1.);
#152=VECTOR('',#264,1.);
#153=VECTOR('',#267,1.);
#154=VECTOR('',#268,1.);
#155=VECTOR('',#271,1.);
#156=EDGE_LOOP('',(#20,#21,#22,#23));
#157=EDGE_LOOP('',(#24,#25,#26,#27));
#158=EDGE_LOOP('',(#28,#29,#30,#31));
#159=EDGE_LOOP('',(#32,#33,#34,#35));
#160=EDGE_LOOP('',(#36,#37,#38,#39));
#161=EDGE_LOOP('',(#40,#41,#42,#43));
#162=EDGE_LOOP('',(#44,#45,#46,#47));
#163=EDGE_LOOP('',(#48,#49,#50,#51));
#164=EDGE_LOOP('',(#52,#53,#54,#55));
#165=EDGE_LOOP('',(#56,#57,#58,#59));
#166=EDGE_LOOP('',(#60,#61,#62,#63));
#167=EDGE_LOOP('',(#64,#65,#66,#67));
#168=FACE_BOUND('',#156,.T.);
#169=FACE_BOUND('',#157,.T.);
#170=FACE_BOUND('',#158,.T.);
#171=FACE_BOUND('',#159,.T.);
#172=FACE_BOUND('',#160,.T.);
#173=FACE_BOUND('',#161,.T.);
#174=FACE_BOUND('',#162,.T.);
#175=FACE_BOUND('',#163,.T.);
#176=FACE_BOUND('',#164,.T.);
#177=FACE_BOUND('',#165,.T.);
#178=FACE_BOUND('',#166,.T.);
#179=FACE_BOUND('',#167,.T.);
#180=PLANE('',#215);
#181=PLANE('',#216);
#182=PLANE('',#217);
#183=PLANE('',#218);
#184=PLANE('',#219);
#185=PLANE('',#220);
#186=PLANE('',#221);
#187=PLANE('',#222);
#188=PLANE('',#223);
#189=PLANE('',#224);
#190=PLANE('',#225);
#191=ADVANCED_FACE('',(#168,#169),#180,.T.);
#192=ADVANCED_FACE('',(#170),#181,.T.);
#193=ADVANCED_FACE('',(#171),#182,.F.);
#194=ADVANCED_FACE('',(#172),#183,.F.);
#195=ADVANCED_FACE('',(#173),#184,.T.);
#196=ADVANCED_FACE('',(#174),#185,.F.);
#197=ADVANCED_FACE('',(#175),#186,.F.);
#198=ADVANCED_FACE('',(#176),#187,.T.);
#199=ADVANCED_FACE('',(#177),#188,.T.);
#200=ADVANCED_FACE('',(#178),#189,.F.);
#201=ADVANCED_FACE('',(#179),#190,.T.);
#202=CLOSED_SHELL('',(#191,#192,#193,#194,#195,#196,#197,#198,#199,#200,
#201));
#203=STYLED_ITEM('',(#204),#211);
#204=PRESENTATION_STYLE_ASSIGNMENT((#205));
#205=SURFACE_STYLE_USAGE(.BOTH.,#206);
#206=SURFACE_SIDE_STYLE('',(#207));
#207=SURFACE_STYLE_FILL_AREA(#208);
#208=FILL_AREA_STYLE('',(#209));
#209=FILL_AREA_STYLE_COLOUR('',#210);
#210=COLOUR_RGB('',0.615686274509804,0.811764705882353,0.929411764705882);
#211=MANIFOLD_SOLID_BREP('Part 1',#202);
#212=SHAPE_DEFINITION_REPRESENTATION(#332,#213);
#213=SHAPE_REPRESENTATION('Part 1',(#214),#327);
#214=AXIS2_PLACEMENT_3D('',#274,#226,#227);
#215=AXIS2_PLACEMENT_3D('',#275,#228,#229);
#216=AXIS2_PLACEMENT_3D('',#292,#238,#239);
#217=AXIS2_PLACEMENT_3D('',#298,#243,#244);
#218=AXIS2_PLACEMENT_3D('',#302,#247,#248);
#219=AXIS2_PLACEMENT_3D('',#306,#251,#252);
#220=AXIS2_PLACEMENT_3D('',#308,#254,#255);
#221=AXIS2_PLACEMENT_3D('',#309,#256,#257);
#222=AXIS2_PLACEMENT_3D('',#315,#261,#262);
#223=AXIS2_PLACEMENT_3D('',#319,#265,#266);
#224=AXIS2_PLACEMENT_3D('',#323,#269,#270);
#225=AXIS2_PLACEMENT_3D('',#325,#272,#273);
#226=DIRECTION('',(0.,0.,1.));
#227=DIRECTION('',(1.,0.,0.));
#228=DIRECTION('',(0.,0.,1.));
#229=DIRECTION('',(1.,0.,0.));
#230=DIRECTION('',(1.,0.,0.));
#231=DIRECTION('',(0.,1.,0.));
#232=DIRECTION('',(1.,0.,0.));
#233=DIRECTION('',(0.,1.,0.));
#234=DIRECTION('',(9.25185853854297E-17,1.,0.));
#235=DIRECTION('',(1.,0.,0.));
#236=DIRECTION('',(-9.25185853854297E-17,-1.,0.));
#237=DIRECTION('',(-1.,0.,0.));
#238=DIRECTION('',(0.,1.,0.));
#239=DIRECTION('',(-1.,0.,0.));
#240=DIRECTION('',(0.,0.,1.));
#241=DIRECTION('',(-1.,0.,0.));
#242=DIRECTION('',(0.,0.,1.));
#243=DIRECTION('',(1.,-9.25185853854297E-17,0.));
#244=DIRECTION('',(9.25185853854297E-17,1.,0.));
#245=DIRECTION('',(9.25185853854297E-17,1.,0.));
#246=DIRECTION('',(0.,0.,1.));
#247=DIRECTION('',(0.,1.,0.));
#248=DIRECTION('',(-1.,0.,0.));
#249=DIRECTION('',(-1.,0.,0.));
#250=DIRECTION('',(0.,0.,1.));
#251=DIRECTION('',(1.,-9.25185853854297E-17,0.));
#252=DIRECTION('',(9.25185853854297E-17,1.,0.));
#253=DIRECTION('',(9.25185853854297E-17,1.,0.));
#254=DIRECTION('',(0.,0.,1.));
#255=DIRECTION('',(1.,0.,0.));
#256=DIRECTION('',(0.,1.,0.));
#257=DIRECTION('',(-1.,0.,0.));
#258=DIRECTION('',(0.,0.,1.));
#259=DIRECTION('',(0.,0.,-1.));
#260=DIRECTION('',(-1.,0.,0.));
#261=DIRECTION('',(1.,-9.25185853854297E-17,0.));
#262=DIRECTION('',(9.25185853854297E-17,1.,0.));
#263=DIRECTION('',(0.,0.,1.));
#264=DIRECTION('',(-9.25185853854297E-17,-1.,0.));
#265=DIRECTION('',(0.,1.,0.));
#266=DIRECTION('',(-1.,0.,0.));
#267=DIRECTION('',(0.,0.,-1.));
#268=DIRECTION('',(1.,0.,0.));
#269=DIRECTION('',(1.,-9.25185853854297E-17,0.));
#270=DIRECTION('',(9.25185853854297E-17,1.,0.));
#271=DIRECTION('',(9.25185853854297E-17,1.,0.));
#272=DIRECTION('',(0.,0.,1.));
#273=DIRECTION('',(1.,0.,0.));
#274=CARTESIAN_POINT('',(0.,0.,0.));
#275=CARTESIAN_POINT('',(0.,0.,0.02));
#276=CARTESIAN_POINT('',(0.,-0.0375,0.02));
#277=CARTESIAN_POINT('',(0.021,-0.0375,0.02));
#278=CARTESIAN_POINT('',(-0.021,-0.0375,0.02));
#279=CARTESIAN_POINT('',(0.021,0.,0.02));
#280=CARTESIAN_POINT('',(0.021,0.0375,0.02));
#281=CARTESIAN_POINT('',(0.,0.0375,0.02));
#282=CARTESIAN_POINT('',(-0.021,0.0375,0.02));
#283=CARTESIAN_POINT('',(-0.021,0.,0.02));
#284=CARTESIAN_POINT('',(0.019,-1.75785312232316E-18,0.02));
#285=CARTESIAN_POINT('',(0.019,-0.0355,0.02));
#286=CARTESIAN_POINT('',(0.019,0.0355,0.02));
#287=CARTESIAN_POINT('',(-3.46944695195361E-18,-0.0355,0.02));
#288=CARTESIAN_POINT('',(-0.019,-0.0355,0.02));
#289=CARTESIAN_POINT('',(-0.019,-1.8503717077086E-19,0.02));
#290=CARTESIAN_POINT('',(-0.019,0.0355,0.02));
#291=CARTESIAN_POINT('',(0.,0.0355,0.02));
#292=CARTESIAN_POINT('',(3.46944695195361E-18,0.0375,0.));
#293=CARTESIAN_POINT('',(0.021,0.0375,0.));
#294=CARTESIAN_POINT('',(0.021,0.0375,0.));
#295=CARTESIAN_POINT('',(3.46944695195361E-18,0.0375,0.));
#296=CARTESIAN_POINT('',(-0.021,0.0375,0.));
#297=CARTESIAN_POINT('',(-0.021,0.0375,0.));
#298=CARTESIAN_POINT('',(-0.021,0.,0.));
#299=CARTESIAN_POINT('',(-0.021,0.,0.));
#300=CARTESIAN_POINT('',(-0.021,-0.0375,0.));
#301=CARTESIAN_POINT('',(-0.021,-0.0375,0.));
#302=CARTESIAN_POINT('',(-3.46944695195361E-18,-0.0375,0.));
#303=CARTESIAN_POINT('',(-3.46944695195361E-18,-0.0375,0.));
#304=CARTESIAN_POINT('',(0.021,-0.0375,0.));
#305=CARTESIAN_POINT('',(0.021,-0.0375,0.));
#306=CARTESIAN_POINT('',(0.021,0.,0.));
#307=CARTESIAN_POINT('',(0.021,0.,0.));
#308=CARTESIAN_POINT('',(0.,0.,0.));
#309=CARTESIAN_POINT('',(3.46944695195361E-18,0.0355,0.));
#310=CARTESIAN_POINT('',(0.019,0.0355,0.));
#311=CARTESIAN_POINT('',(0.019,0.0355,0.002));
#312=CARTESIAN_POINT('',(-0.019,0.0355,0.));
#313=CARTESIAN_POINT('',(-0.019,0.0355,0.002));
#314=CARTESIAN_POINT('',(0.,0.0355,0.002));
#315=CARTESIAN_POINT('',(-0.019,-1.8503717077086E-19,0.));
#316=CARTESIAN_POINT('',(-0.019,-0.0355,0.));
#317=CARTESIAN_POINT('',(-0.019,-0.0355,0.002));
#318=CARTESIAN_POINT('',(-0.019,-1.8503717077086E-19,0.002));
#319=CARTESIAN_POINT('',(-3.46944695195361E-18,-0.0355,0.));
#320=CARTESIAN_POINT('',(0.019,-0.0355,0.));
#321=CARTESIAN_POINT('',(0.019,-0.0355,0.002));
#322=CARTESIAN_POINT('',(-3.46944695195361E-18,-0.0355,0.002));
#323=CARTESIAN_POINT('',(0.019,1.8503717077086E-19,0.));
#324=CARTESIAN_POINT('',(0.019,-1.75785312232316E-18,0.002));
#325=CARTESIAN_POINT('',(0.,0.,0.002));
#326=MECHANICAL_DESIGN_GEOMETRIC_PRESENTATION_REPRESENTATION('',(#203),
#327);
#327=(
GEOMETRIC_REPRESENTATION_CONTEXT(3)
GLOBAL_UNCERTAINTY_ASSIGNED_CONTEXT((#328))
GLOBAL_UNIT_ASSIGNED_CONTEXT((#331,#330,#329))
REPRESENTATION_CONTEXT('Part 1','TOP_LEVEL_ASSEMBLY_PART')
);
#328=UNCERTAINTY_MEASURE_WITH_UNIT(LENGTH_MEASURE(1.E-8),#331,
'DISTANCE_ACCURACY_VALUE','Maximum Tolerance applied to model');
#329=(
NAMED_UNIT(*)
SI_UNIT($,.STERADIAN.)
SOLID_ANGLE_UNIT()
);
#330=(
NAMED_UNIT(*)
PLANE_ANGLE_UNIT()
SI_UNIT($,.RADIAN.)
);
#331=(
LENGTH_UNIT()
NAMED_UNIT(*)
SI_UNIT($,.METRE.)
);
#332=PRODUCT_DEFINITION_SHAPE('','',#333);
#333=PRODUCT_DEFINITION('','',#335,#334);
#334=PRODUCT_DEFINITION_CONTEXT('',#341,'design');
#335=PRODUCT_DEFINITION_FORMATION_WITH_SPECIFIED_SOURCE('','',#337,
 .NOT_KNOWN.);
#336=PRODUCT_RELATED_PRODUCT_CATEGORY('','',(#337));
#337=PRODUCT('Part 1','Part 1','Part 1',(#339));
#338=PRODUCT_CATEGORY('','');
#339=PRODUCT_CONTEXT('',#341,'mechanical');
#340=APPLICATION_PROTOCOL_DEFINITION('international standard',
'automotive_design',2010,#341);
#341=APPLICATION_CONTEXT(
'core data for automotive mechanical design processes');
ENDSEC;
END-ISO-10303-21;
