<svg version="1.1" xmlns="http://www.w3.org/2000/svg" viewBox="0 0 494.91134733799856 253.2539062500001" width="989.8226946759971" height="506.5078125000002">
  <!-- svg-source:excalidraw -->
  
  <defs>
    <style class="style-fonts">
      @font-face {
        font-family: "Virgil";
        src: url("https://excalidraw.com/Virgil.woff2");
      }
      @font-face {
        font-family: "Cascadia";
        src: url("https://excalidraw.com/Cascadia.woff2");
      }
    </style>
  </defs>
  <g transform="translate(196.38841767191616 131.0742187500001) rotate(0 73.0625 47.271484375)" stroke="none"><path d="M0.46 -0.93 C0.46 -0.93, 0.46 -0.93, 0.46 -0.93 M0.46 -0.93 C0.46 -0.93, 0.46 -0.93, 0.46 -0.93 M2.9 2.42 C4.62 0.43, 7.37 -3.73, 11.02 -5.76 M3.36 2.4 C5.75 -0.77, 7.28 -3.2, 10.6 -6.76 M5.77 4.44 C9.96 3.03, 12.44 -2.89, 18.72 -7.11 M5.15 5.46 C9.25 1.6, 13.1 -3.36, 16.53 -7.14 M8.09 8.05 C10.57 6.84, 14.93 0.35, 24.63 -6.86 M7.73 10.04 C10.78 4.19, 16.44 -0.31, 22.5 -7.25 M8.36 15.44 C14.97 9.14, 16.07 4.81, 27.01 -9.22 M8.27 13.56 C15.07 6.32, 23.27 -2, 28.58 -8.88 M12.84 17.6 C20.14 6.83, 29.42 -3.26, 34.93 -8.93 M10.84 16.78 C20.75 7.48, 28.18 -4.22, 35.16 -10.63 M13.19 20.37 C21.93 11.56, 27.87 3.99, 38.13 -10.3 M12.4 21.07 C19.41 14.89, 23.42 8.2, 40.4 -8.74 M17.68 23.86 C23.93 12.62, 32.7 1.78, 44.89 -10.81 M16.68 24.72 C26.37 12.44, 36.85 -0.39, 45.68 -8.98 M17.05 27.78 C22.42 20.39, 31.05 12.75, 40.89 1.78 M17.74 28.03 C22.33 22.24, 28.48 14.5, 39.07 3.11 M49.57 -8.69 C49.7 -8.83, 49.92 -8.96, 50.11 -9.36 M49.58 -8.66 C49.77 -8.88, 49.94 -9.05, 50.2 -9.34 M18.48 34.06 C27.81 25.34, 35.77 16.51, 38.32 10.3 M18.22 33 C25.34 25.68, 32.28 16.73, 39.53 9.01 M55.84 -9.76 C55.84 -9.76, 55.84 -9.76, 55.84 -9.76 M55.84 -9.76 C55.84 -9.76, 55.84 -9.76, 55.84 -9.76 M17.62 36.85 C28.34 28.51, 36.52 20.68, 44.31 9.17 M20.3 37.66 C25.43 32.55, 30.37 24.3, 44.01 10.23 M22.06 41.97 C30.83 32.23, 37.37 22.2, 59.25 -0.43 M19.59 42.94 C31.3 29.77, 42.33 17.83, 57.97 -0.23 M23.53 48.59 C39.06 29.27, 53.89 13.46, 63.13 -0.47 M21.28 47.28 C32.87 34.65, 43.43 23.75, 64.55 -1.4 M23.98 50.99 C38.68 32.93, 55.35 14.61, 70 -3.34 M23.89 50.39 C34.73 37.6, 47.85 22.94, 69.71 -2.4 M26.04 56.74 C39.81 39.38, 57.87 21.32, 76.69 -6.26 M24.17 56 C35.93 42.34, 47.45 29.57, 77.26 -4.47 M27.44 63.08 C47.4 35.57, 69.71 10.85, 83.3 -4.92 M26.38 60.93 C40.99 43.71, 57.75 25.02, 83.09 -4.84 M26.29 66.92 C40.71 47.22, 59.01 30.97, 75.66 6.75 M27.18 66.95 C42.58 49.18, 57.21 30.04, 78.39 8.31 M86.56 -2.89 C88 -3.71, 88.63 -4.97, 89.19 -6.03 M86.82 -2.76 C87.94 -3.89, 88.88 -5.03, 89.58 -5.83 M29.87 69.64 C44.43 50.02, 63.21 30.98, 81.04 8.44 M27.92 69.97 C41.42 55.84, 54.72 39.84, 80.99 9.51 M28.31 77.86 C42.23 61.55, 57.81 41.36, 94.41 3.29 M28.44 78.21 C54.08 48.35, 78.98 18.26, 93.4 1.26 M30.46 80.86 C49.21 55.73, 70.71 34.79, 101.76 -0.03 M29.99 81.18 C53.86 52.56, 79.7 24.58, 101.45 -1.7 M29.36 86.06 C47.14 64.75, 64.67 45.38, 109.07 -5.5 M29.24 87.02 C53.11 60.18, 77.71 31.33, 107.84 -4.52 M30.11 93.91 C61.37 56.33, 92.84 19.36, 115.25 -4.16 M28.29 93.9 C51.7 67.22, 76.11 40.16, 115.06 -4.49 M27.81 100.05 C52.26 73.82, 78.89 45.72, 109.34 7.95 M29.33 100.8 C57.22 68.53, 84.44 35.59, 108.29 8.89 M116.26 0.51 C117.17 -1.25, 118.14 -2.17, 118.54 -2.97 M116.01 0.15 C116.62 -0.56, 117.57 -1.25, 118.86 -2.81 M32.57 104.8 C57.56 75.61, 80.85 49.54, 110.75 13.27 M31.96 104.12 C63 67.25, 94.31 31.35, 110.94 11.81 M36.17 101.79 C60.56 76.72, 82.69 50.68, 115.7 9.27 M37.19 103.25 C58.76 79.2, 79.87 55.31, 118.52 10.91 M40.21 102.72 C73.82 66.85, 105.21 30.99, 131.04 4.83 M42.5 103.31 C63.59 79.11, 85.56 54.66, 128.08 4.18 M48.89 103.83 C74.22 75.32, 100.23 43.8, 137.04 1.65 M47.41 103.2 C67.99 79.75, 87.64 56.22, 135.59 3.22 M54.88 99.9 C73.14 77.13, 94.44 56.43, 139.53 3.62 M55.3 101.74 C73.87 79.9, 92.21 59.64, 140.48 2.32 M61.87 101.33 C85.47 74.48, 105.6 47.96, 144.08 4.61 M61.68 100.54 C84.56 70.15, 109.09 42.48, 142.48 4.86 M65.67 98.87 C94.45 69.9, 124.56 37.44, 141.82 13.16 M66.06 99.52 C92.58 70.08, 116.68 40.77, 141.18 13.95 M72.06 100.96 C85.21 82.65, 99.34 68.59, 139.78 19.8 M71.43 100.04 C91.69 76.62, 113.85 52.25, 141.11 20.43 M76.76 101.61 C93.23 82.44, 111.59 60.26, 137.01 34.2 M77.02 99.55 C96.68 76.71, 116.62 54.45, 135.58 33.85 M81.18 102.86 C100.12 76.67, 120.61 54.62, 134.83 43.34 M81.75 101.82 C97.08 82.06, 112.72 64.67, 133.59 41.38 M85.62 100.67 C104.48 81.48, 120.83 63.87, 130.28 51.73 M86.12 101.63 C98.38 87.84, 110.69 74.83, 131.1 49.85 M93.17 100.45 C101.47 90.99, 109.21 79.92, 126.53 60.64 M91.88 102.07 C99.84 91.82, 108.92 81.38, 126.04 61.74 M96.22 105.38 C100.99 99.15, 108 91.91, 121.33 74.4 M95.21 103.65 C101.48 95.44, 108.6 87.74, 120.6 75.27 M100.24 102.95 C102.94 98.2, 111.24 92.28, 116.89 85.46 M100.26 104.63 C104.4 97.94, 108.81 92.19, 115.73 86.25 M105.02 104.08 C108.96 100.68, 111.21 98.1, 112.6 96.52 M105.05 104.56 C107.29 102.24, 108.63 100.07, 113.2 94.97 M110.51 103.89 C110.83 103.75, 111.34 103.16, 112.69 101.91 M110.6 103.98 C110.86 103.7, 111.4 102.98, 112.6 101.82 M29.28 103.5 C29.28 103.5, 29.28 103.5, 29.28 103.5 M29.28 103.5 C29.28 103.5, 29.28 103.5, 29.28 103.5 M35.73 104.5 C33.88 101.32, 31.76 99.55, 30.22 98.08 M35.6 103.54 C34.21 102.31, 33.23 101.67, 29.53 98.69 M40.54 102.83 C39.29 100.51, 35.57 98.9, 29.2 93.58 M41.53 103.4 C37.79 100.89, 35.86 98.82, 29.46 93.62 M48.74 104.56 C41.69 98.83, 36.42 93.81, 29.77 88.52 M46.82 103.37 C41.14 97.69, 34.36 92.59, 29.81 87.67 M50.05 103.64 C43.76 96.98, 38.2 89.54, 27.23 82.57 M51.14 102.17 C42.94 94.12, 35.19 86.96, 29.91 82.84 M57.23 100.29 C50.76 96.67, 42.32 91.63, 28.24 75.82 M55 100.46 C43.87 90.51, 33.55 81.78, 27.82 76.37 M62.31 99.38 C49.12 89.49, 40.85 83.21, 26.52 69.57 M61.29 99.85 C53.62 94.03, 47 85.93, 28.41 70.16 M66.09 100.75 C56.15 91.05, 47.5 81.81, 28.5 65.74 M68.69 99.16 C55.33 88.93, 41.61 77.41, 27.76 65.04 M72.78 98.33 C61.5 89.29, 49.19 78, 26.69 56.69 M73.11 100.37 C62.07 89.31, 50.68 79.49, 26.33 58.33 M81.8 99.95 C65.67 86.71, 46.79 73.63, 24.76 50.3 M81.12 100.08 C65.41 87.78, 52.9 76.29, 22.63 51.67 M89.33 102.52 C74.13 89.32, 59.05 75.14, 18.56 40.52 M88.31 101.63 C65.67 81.75, 41.72 59.73, 20.11 43.42 M98.35 101.8 C78.86 87.29, 59.93 70.42, 17.73 36.43 M96.96 104.53 C78.35 88.4, 58.19 70.92, 19.35 36.43 M103.5 102.96 C72.4 75.05, 36.37 45.25, 16.73 27.5 M103.7 103.86 C69.9 74.28, 37.08 46.29, 16.9 29.17 M109.63 106.26 C76.58 78.35, 45.08 47.1, 13.1 21.35 M109.7 103.71 C74.03 74.47, 41.21 45.07, 14.22 20.15 M113.58 103 C75.24 71.01, 40.34 38.66, 6.9 8.22 M113.24 101.93 C79.88 71.97, 46.57 43.92, 6.86 10.28 M111 97.92 C70.98 60.06, 32.97 28.33, -1.05 -1.33 M112.22 96.28 C71.45 60.53, 31.54 25.52, 1.38 -0.67 M113.28 90.26 C72.71 55.05, 33.61 22.67, 4.69 -5.16 M113.78 92.3 C71.13 55.55, 29.49 18.08, 4.98 -3.09 M113.89 86.44 C74.98 53, 39.6 23.25, 9.31 -3.54 M114.4 87.78 C88.94 65, 63.71 42.55, 7.31 -4.69 M114.66 85.73 C94.73 64.08, 70.06 44.51, 13.55 -7.62 M116.89 83.17 C94.15 67.62, 73.07 48.73, 12.03 -7.18 M117.17 80.83 C82.85 51.98, 50.04 18.74, 15.89 -8.27 M117.47 79.96 C87.54 53.65, 57.42 27.97, 15.63 -8.34 M121.42 76.91 C96.81 56.42, 76.99 38.13, 41.28 7.59 M119.22 76.53 C101.48 61.54, 84.57 46.88, 42.01 9.4 M40.74 6.94 C32.98 -0.98, 23.52 -7.45, 21.1 -7.45 M38.63 5.22 C35.35 2.87, 30.83 -1.17, 21.05 -8.65 M121.61 73.84 C104.65 54.74, 82.46 39.39, 46.08 6.42 M122.2 71.27 C100.96 54.83, 79.02 35.61, 47.31 8.03 M39.78 1.74 C34.88 -1.21, 31.37 -5.79, 27.9 -10.79 M40.21 1.88 C35.25 -1.85, 32.25 -6.05, 26.44 -11.05 M122.72 68.21 C106.03 54.53, 89.22 38.26, 49.87 5.04 M124.12 69.25 C104.7 53.04, 86.67 37.59, 48.88 4.16 M40.85 -2.36 C37.67 -4.22, 35.43 -7.82, 32.31 -9.61 M40.97 -2.37 C39.28 -4.66, 36.37 -7.16, 31.8 -11.29 M126.37 64.3 C105.45 50.53, 88.06 32.95, 54.49 2.9 M125.82 65.25 C97.96 41.88, 71.82 17.55, 53.56 3.33 M43.33 -6.21 C41.64 -6.97, 41.18 -8.65, 39.21 -9.79 M43.66 -5.67 C42.42 -7.25, 41.06 -7.74, 39.17 -10.04 M127.38 60.7 C104.76 42.49, 77.96 19.84, 56.73 2.11 M126.75 61.67 C98.94 37.15, 73.28 13.84, 56.09 -0.42 M47.66 -7.9 C46.79 -8.5, 46.23 -9.16, 45.56 -9.92 M47.69 -7.69 C47.07 -8.3, 46.47 -8.83, 45.35 -9.64 M127.04 55.6 C111 41.85, 97.22 28.32, 60.16 -1.99 M127.28 56.86 C107.27 38.77, 85.65 19.67, 61.82 -1 M51.91 -9.39 C51.7 -9.56, 51.55 -9.72, 51.2 -9.97 M51.83 -9.41 C51.68 -9.5, 51.57 -9.64, 51.13 -10.04 M130.12 51.45 C110.69 40.52, 96.83 24.72, 76.82 8.44 M130.65 52.75 C112.68 38.59, 95.52 25.21, 79.59 8.01 M76.02 5.61 C74.28 5.39, 72.16 3.06, 66.46 -2.47 M76.93 6.14 C73.22 4.74, 70.34 2.56, 66.35 -1.35 M129.6 48.34 C116.99 38.18, 102.12 24.26, 83.03 6.98 M130.75 49.25 C118.08 38.51, 103.79 26.11, 84.39 7.62 M78.15 2.52 C74.29 1.04, 73.01 -2.29, 70.62 -3.25 M77.73 2.72 C75.26 1, 73.68 -0.74, 70.42 -3.25 M134.69 43.3 C124.61 38.72, 116.27 30.85, 88.55 7.39 M133.1 44.51 C117.95 32.71, 102.4 19.28, 87.56 6.8 M81.4 -0.66 C79.73 -1.61, 78.72 -2.51, 74.91 -5.15 M80.71 -0.09 C78.77 -1.77, 77.12 -3.21, 75.41 -4.75 M134.04 38.33 C122.97 28.29, 109.48 17.62, 91.53 4.15 M133.13 40 C123.92 32.81, 113.94 23.24, 90.8 4.12 M84.35 -2 C83.25 -3.05, 82.47 -4.06, 80.49 -5.86 M84.06 -2.4 C83.2 -3.63, 81.58 -4.38, 80.63 -5.87 M134.05 37.66 C122.34 24.58, 106.4 10.63, 92.6 1.01 M135.4 36.75 C121.99 25.04, 111.13 15.71, 95.17 1.22 M89 -3.5 C88.5 -3.96, 88.17 -4.67, 86.65 -5.68 M89.16 -3.4 C88.66 -3.76, 88.36 -4.38, 87.03 -5.44 M137.33 31.18 C126.75 25.3, 121.17 17.89, 113.95 12.84 M135.11 31.76 C129.35 24.83, 121.08 19.75, 111.23 11.68 M108.89 7.36 C104.17 4.38, 101.95 2.07, 97.38 -0.54 M108.98 7.98 C106.19 6.1, 103.01 3.03, 97.51 -1.44 M137.2 28.36 C129.27 21.02, 120.72 12.77, 117.2 10.36 M137.61 26.96 C132.9 23.54, 128.64 20.62, 117.89 10.77 M109.09 3.52 C107.2 1.08, 104.32 -0.13, 102.65 -1.89 M108.42 2.61 C106.56 1.15, 104.9 -0.72, 103.05 -2.69 M140.71 25.65 C131.63 17.13, 127.04 13.08, 120.72 7.02 M138.36 23.58 C132.41 17.71, 123.46 10.93, 120.73 7.35 M111.65 0.32 C110.26 -0.86, 109.07 -2.45, 107.17 -3.75 M111.14 -0.07 C109.97 -1.13, 108.75 -2.4, 107.62 -3.32 M140.12 21.79 C134.54 14.85, 130.25 8.64, 126 7.71 M139.49 20.45 C136.03 15.49, 132.77 13.01, 125.38 5.47 M116.83 0.1 C115.23 -2.2, 113.31 -2.67, 112.61 -3.97 M116.9 -0.45 C115.64 -1.26, 114.56 -2.25, 112.5 -4.49 M139.82 16.2 C135.08 10.98, 133.64 7.97, 128.85 3.34 M141.4 15.56 C137.15 11.71, 134.34 10.58, 127.87 4.01 M141.75 11.69 C139.8 9.79, 136.19 5.72, 133.4 3.11 M141.91 11.02 C138.19 8.07, 135.62 5.33, 132.99 2.84 M143.1 5.72 C141.45 4.38, 140.19 3.05, 138.72 2.44 M142.75 6.15 C141.74 5.33, 140.85 3.97, 138.54 2.21 M144.1 1.9 C144.1 1.9, 144.1 1.9, 144.1 1.9 M144.1 1.9 C144.1 1.9, 144.1 1.9, 144.1 1.9" stroke="#4c6ef5" stroke-width="0.5" fill="none"></path><path fill="#364fc7" d="M -1.91,-1.68 Q -1.91,-1.68 -1.42,-2.30 -0.93,-2.93 0.14,-3.92 1.22,-4.91 2.42,-5.63 3.62,-6.35 4.90,-7.10 6.18,-7.85 7.27,-8.49 8.36,-9.13 9.80,-9.72 11.25,-10.32 12.67,-10.66 14.10,-11.00 15.36,-11.27 16.62,-11.55 18.08,-11.84 19.53,-12.13 20.81,-12.21 22.09,-12.29 24.10,-12.47 26.12,-12.65 27.32,-12.65 28.52,-12.65 30.50,-12.64 32.48,-12.64 34.04,-12.66 35.60,-12.67 37.53,-12.67 39.45,-12.66 41.13,-12.66 42.81,-12.67 43.92,-12.70 45.03,-12.73 46.09,-12.77 47.16,-12.80 48.40,-12.98 49.63,-13.15 51.04,-13.19 52.44,-13.22 53.63,-13.26 54.81,-13.29 55.29,-13.31 55.77,-13.32 56.20,-13.27 56.63,-13.22 57.03,-13.07 57.43,-12.91 57.79,-12.67 58.14,-12.42 58.43,-12.10 58.72,-11.78 58.92,-11.40 59.12,-11.01 59.22,-10.60 59.32,-10.18 59.32,-9.74 59.32,-9.31 59.22,-8.89 59.12,-8.48 58.92,-8.09 58.72,-7.71 58.43,-7.39 58.14,-7.07 57.79,-6.82 57.43,-6.58 57.03,-6.42 56.63,-6.27 56.20,-6.22 55.77,-6.17 54.63,-5.98 53.49,-5.79 52.36,-5.61 51.23,-5.42 50.19,-5.06 49.16,-4.70 47.90,-3.98 46.65,-3.26 45.47,-2.48 44.29,-1.71 43.62,-0.88 42.95,-0.05 42.81,1.11 42.68,2.28 42.69,3.39 42.70,4.51 43.22,5.83 43.74,7.16 42.82,6.57 41.90,5.98 43.02,5.56 44.14,5.13 44.75,4.21 45.37,3.28 46.21,2.33 47.06,1.37 48.29,0.67 49.53,-0.03 50.79,-0.72 52.05,-1.41 53.27,-2.09 54.49,-2.76 55.68,-3.21 56.87,-3.66 58.18,-3.94 59.50,-4.22 61.01,-4.59 62.53,-4.97 63.95,-5.34 65.37,-5.72 66.99,-5.95 68.61,-6.18 69.79,-6.47 70.96,-6.76 72.02,-7.03 73.08,-7.30 74.35,-7.57 75.61,-7.84 77.11,-8.15 78.60,-8.46 80.32,-8.53 82.03,-8.61 83.31,-8.62 84.59,-8.63 85.83,-8.79 87.08,-8.96 88.23,-9.00 89.38,-9.04 90.55,-9.06 91.71,-9.08 93.46,-7.65 95.20,-6.23 95.41,-5.15 95.62,-4.06 94.55,-2.72 93.49,-1.38 91.95,-0.81 90.42,-0.23 89.12,0.43 87.82,1.10 86.74,1.37 85.66,1.65 84.58,2.14 83.50,2.63 82.05,3.40 80.61,4.17 80.37,5.27 80.14,6.36 79.48,5.38 78.82,4.39 79.99,4.63 81.16,4.87 82.33,4.88 83.49,4.90 84.43,4.37 85.37,3.85 86.30,2.93 87.23,2.02 88.08,1.27 88.93,0.52 90.02,-0.35 91.11,-1.23 92.07,-1.74 93.02,-2.25 94.54,-2.86 96.05,-3.46 97.49,-3.89 98.93,-4.32 100.51,-4.73 102.08,-5.13 103.12,-5.53 104.15,-5.94 105.18,-6.26 106.21,-6.58 107.60,-6.99 108.99,-7.40 110.55,-7.66 112.11,-7.91 113.29,-7.92 114.47,-7.94 115.66,-7.80 116.85,-7.66 118.00,-7.19 119.16,-6.72 120.14,-5.95 121.12,-5.18 121.99,-4.39 122.86,-3.60 123.15,-3.24 123.43,-2.87 123.62,-2.45 123.81,-2.03 123.90,-1.57 123.98,-1.12 123.95,-0.65 123.92,-0.19 123.79,0.24 123.65,0.68 123.41,1.08 123.17,1.48 122.84,1.80 122.52,2.13 122.12,2.37 121.72,2.61 121.28,2.75 120.84,2.89 120.38,2.91 119.91,2.94 119.46,2.86 119.00,2.78 118.58,2.59 118.16,2.39 117.79,2.11 117.43,1.82 119.94,1.88 122.46,1.93 121.43,2.50 120.39,3.07 119.29,3.11 118.19,3.16 117.04,3.28 115.89,3.41 114.63,3.53 113.37,3.65 112.80,4.93 112.22,6.20 112.28,7.39 112.34,8.58 113.30,8.07 114.26,7.57 115.31,7.27 116.36,6.97 117.47,5.97 118.57,4.97 119.76,4.33 120.94,3.69 121.87,3.12 122.79,2.55 123.97,1.84 125.14,1.13 126.22,0.54 127.29,-0.04 128.54,-0.35 129.79,-0.67 130.93,-0.82 132.07,-0.97 133.26,-1.18 134.46,-1.40 135.75,-1.44 137.04,-1.47 138.15,-1.48 139.27,-1.48 140.42,-1.59 141.57,-1.69 142.18,-1.76 142.78,-1.84 143.08,-2.20 143.38,-2.56 143.75,-2.84 144.13,-3.12 144.56,-3.30 144.99,-3.48 145.46,-3.55 145.92,-3.62 146.39,-3.58 146.85,-3.54 147.29,-3.39 147.74,-3.23 148.13,-2.98 148.52,-2.73 148.85,-2.39 149.17,-2.05 149.40,-1.64 149.63,-1.23 149.76,-0.78 149.88,-0.33 149.90,0.12 149.91,0.59 149.82,1.05 149.72,1.51 149.52,1.93 149.31,2.35 147.43,3.22 145.54,4.10 146.59,3.54 147.65,2.98 147.45,4.12 147.25,5.26 146.96,7.04 146.66,8.81 146.22,9.84 145.79,10.86 145.65,11.96 145.52,13.06 145.25,14.20 144.99,15.34 144.96,16.44 144.94,17.54 144.64,18.76 144.35,19.98 143.96,21.51 143.57,23.05 143.26,24.34 142.95,25.63 142.37,26.88 141.79,28.13 141.14,29.19 140.49,30.24 140.05,31.24 139.61,32.24 139.19,33.44 138.77,34.64 138.16,36.26 137.55,37.88 137.30,39.27 137.05,40.65 136.93,41.73 136.82,42.80 136.52,43.99 136.22,45.18 135.87,46.74 135.53,48.31 135.14,49.60 134.75,50.89 134.38,51.89 134.02,52.89 133.32,54.04 132.62,55.20 132.32,56.39 132.01,57.58 131.53,58.76 131.05,59.93 130.64,61.20 130.23,62.47 129.75,63.67 129.28,64.87 128.79,65.88 128.31,66.90 127.96,68.17 127.62,69.44 126.88,70.88 126.13,72.32 125.48,73.24 124.84,74.16 124.27,75.27 123.70,76.38 123.29,77.57 122.87,78.76 122.20,80.32 121.53,81.88 120.98,82.87 120.42,83.86 119.93,84.93 119.43,86.00 119.06,87.09 118.69,88.17 118.11,89.41 117.54,90.66 117.33,91.92 117.11,93.18 116.98,94.29 116.84,95.40 116.74,96.65 116.64,97.91 116.64,99.06 116.64,100.21 116.64,101.29 116.64,102.37 116.18,104.23 115.73,106.10 114.33,106.99 112.93,107.88 111.76,107.93 110.60,107.98 109.46,107.98 108.32,107.98 106.98,108.08 105.64,108.19 104.55,108.20 103.45,108.21 102.35,108.21 101.26,108.22 100.11,108.21 98.95,108.21 97.35,107.93 95.74,107.65 94.40,107.15 93.05,106.66 91.51,105.92 89.97,105.17 88.66,105.31 87.36,105.44 86.18,105.43 85.00,105.42 83.54,105.17 82.08,104.93 80.43,104.68 78.78,104.43 77.37,104.10 75.95,103.77 74.89,103.74 73.82,103.71 72.67,103.73 71.51,103.74 70.32,103.74 69.13,103.73 67.84,103.72 66.54,103.72 65.47,103.72 64.40,103.72 63.28,103.72 62.17,103.73 60.99,103.73 59.80,103.74 58.63,103.74 57.45,103.75 56.27,104.33 55.09,104.91 54.08,105.38 53.07,105.85 52.03,106.26 51.00,106.67 49.92,106.90 48.85,107.14 47.77,107.27 46.69,107.40 45.16,107.39 43.64,107.38 42.56,107.37 41.48,107.37 40.31,107.36 39.13,107.36 38.04,107.36 36.94,107.35 35.81,107.35 34.69,107.35 33.43,107.35 32.18,107.36 31.04,107.36 29.89,107.37 28.00,106.40 26.11,105.43 25.75,104.22 25.39,103.01 25.38,101.87 25.37,100.73 25.37,99.44 25.37,98.15 25.37,96.97 25.37,95.79 25.37,94.64 25.36,93.49 25.36,92.42 25.36,91.34 25.36,90.20 25.36,89.05 25.25,87.77 25.14,86.49 25.14,85.23 25.14,83.97 25.14,82.83 25.15,81.69 25.04,80.54 24.93,79.39 24.59,78.23 24.25,77.07 24.24,75.90 24.22,74.73 24.23,73.65 24.24,72.56 23.90,71.38 23.55,70.20 23.46,69.08 23.37,67.95 23.26,66.81 23.15,65.68 22.82,64.11 22.48,62.54 22.25,61.44 22.02,60.34 21.80,59.07 21.58,57.80 21.41,56.73 21.24,55.65 20.98,54.53 20.72,53.40 20.33,52.40 19.95,51.41 19.34,50.33 18.74,49.26 18.27,48.06 17.81,46.86 17.44,45.76 17.07,44.66 16.51,43.36 15.95,42.07 15.67,40.68 15.39,39.30 15.16,38.26 14.93,37.21 14.82,36.11 14.71,35.00 14.41,33.62 14.10,32.24 13.71,31.08 13.31,29.92 12.94,28.67 12.58,27.42 11.97,26.52 11.35,25.63 10.60,24.24 9.85,22.85 9.18,21.75 8.52,20.66 7.67,19.49 6.83,18.33 6.15,17.42 5.46,16.51 4.76,15.41 4.07,14.31 3.56,13.05 3.05,11.80 2.63,10.66 2.21,9.52 1.75,7.96 1.29,6.41 0.84,5.18 0.40,3.95 0.04,4.05 -0.32,4.16 -0.78,3.77 -1.24,3.38 -1.56,2.86 -1.87,2.34 -2.00,1.75 -2.14,1.16 -2.07,0.56 -2.01,-0.03 -1.76,-0.58 -1.51,-1.13 -1.09,-1.57 -0.68,-2.01 -0.15,-2.30 0.38,-2.58 0.97,-2.69 1.57,-2.79 2.17,-2.69 2.77,-2.60 3.30,-2.31 3.84,-2.03 4.26,-1.60 4.67,-1.16 4.93,-0.61 5.19,-0.06 5.25,0.53 5.32,1.13 5.19,1.72 5.07,2.31 4.76,2.83 4.45,3.35 3.99,3.75 3.53,4.14 2.97,4.37 2.41,4.59 1.80,4.63 1.20,4.66 0.62,4.50 0.03,4.34 -0.46,4.01 -0.96,3.67 -1.33,3.19 -1.70,2.71 -1.89,2.14 -2.09,1.56 -2.09,0.96 -2.10,0.35 -1.90,-0.21 -1.71,-0.78 -1.35,-1.27 -0.99,-1.75 -0.49,-2.09 0.00,-2.43 0.59,-2.60 1.17,-2.76 1.77,-2.73 2.38,-2.70 2.94,-2.48 3.50,-2.26 3.50,-2.26 3.50,-2.26 5.68,0.05 7.86,2.36 8.27,3.67 8.69,4.98 9.20,6.29 9.70,7.59 10.08,8.68 10.46,9.78 10.97,10.71 11.49,11.64 12.25,12.67 13.02,13.71 13.76,14.79 14.50,15.88 15.30,17.03 16.09,18.18 16.64,19.18 17.18,20.18 17.66,21.13 18.14,22.08 18.87,23.16 19.60,24.24 19.96,25.26 20.32,26.29 20.77,27.83 21.22,29.37 21.69,30.54 22.15,31.71 22.21,32.90 22.26,34.08 22.57,35.84 22.88,37.60 23.01,39.02 23.14,40.45 23.76,41.34 24.38,42.24 24.71,43.45 25.04,44.67 25.59,45.65 26.15,46.64 26.53,47.70 26.92,48.77 27.43,49.71 27.95,50.65 28.35,51.95 28.75,53.25 28.97,54.78 29.19,56.30 29.46,57.52 29.73,58.73 29.90,59.81 30.07,60.90 30.37,62.45 30.67,64.00 30.89,65.10 31.10,66.19 30.99,67.36 30.89,68.53 31.21,69.55 31.54,70.56 31.77,71.84 32.00,73.11 32.00,74.26 31.99,75.40 32.18,76.55 32.36,77.69 32.53,78.80 32.70,79.91 32.81,81.01 32.92,82.11 32.92,83.31 32.92,84.52 32.82,85.67 32.71,86.82 32.94,87.93 33.16,89.05 33.16,90.20 33.16,91.34 33.16,92.42 33.16,93.49 33.15,94.64 33.15,95.79 33.15,96.97 33.15,98.15 33.15,99.25 33.15,100.35 33.15,101.44 33.15,102.53 32.42,101.06 31.70,99.60 32.88,99.60 34.07,99.61 35.15,99.61 36.24,99.61 37.35,99.61 38.46,99.60 39.67,99.60 40.87,99.59 41.96,99.59 43.05,99.58 44.35,99.76 45.65,99.95 47.31,99.65 48.97,99.35 50.07,98.81 51.16,98.27 52.15,97.79 53.14,97.30 54.17,96.86 55.21,96.42 57.14,96.19 59.07,95.95 60.22,95.96 61.38,95.96 62.48,95.97 63.59,95.97 64.79,95.97 65.98,95.98 67.12,95.97 68.25,95.97 69.66,95.96 71.07,95.95 72.30,95.96 73.53,95.96 74.95,96.07 76.36,96.19 77.57,96.34 78.77,96.50 80.11,96.72 81.45,96.95 82.62,97.18 83.78,97.42 84.88,97.52 85.99,97.62 87.20,97.65 88.41,97.67 89.71,97.82 91.00,97.97 92.28,98.28 93.56,98.59 94.76,99.03 95.97,99.47 96.97,99.94 97.98,100.42 99.08,100.39 100.17,100.37 101.40,100.36 102.62,100.36 103.71,100.42 104.80,100.49 106.56,100.31 108.32,100.14 109.49,100.32 110.66,100.49 109.74,101.72 108.81,102.96 108.81,101.77 108.81,100.59 108.81,99.51 108.82,98.44 108.83,97.12 108.84,95.81 109.07,94.74 109.30,93.67 109.51,92.20 109.72,90.73 110.12,89.45 110.52,88.18 111.01,86.91 111.49,85.63 111.88,84.52 112.28,83.41 112.78,82.12 113.28,80.83 113.93,79.63 114.58,78.42 115.00,77.29 115.43,76.17 116.01,75.27 116.60,74.37 117.05,73.13 117.51,71.88 118.14,70.53 118.78,69.17 119.44,68.07 120.10,66.96 120.70,65.75 121.29,64.55 121.74,63.18 122.18,61.81 122.70,60.69 123.22,59.58 123.58,58.32 123.95,57.06 124.43,55.84 124.91,54.63 125.32,53.41 125.73,52.20 126.44,50.98 127.14,49.76 127.52,48.33 127.90,46.90 128.23,45.80 128.56,44.70 128.79,43.51 129.03,42.32 129.18,40.88 129.33,39.44 129.57,38.18 129.80,36.92 130.22,35.75 130.65,34.57 131.05,33.27 131.45,31.97 132.03,30.36 132.61,28.76 133.22,27.50 133.82,26.25 134.46,25.35 135.11,24.46 135.41,23.35 135.72,22.25 136.08,20.97 136.43,19.70 136.79,18.48 137.16,17.26 137.16,16.18 137.16,15.10 137.51,13.62 137.86,12.13 138.11,10.94 138.37,9.75 138.72,8.61 139.07,7.46 139.27,6.35 139.46,5.23 139.52,4.15 139.59,3.07 139.86,2.04 140.13,1.00 141.04,-0.48 141.96,-1.97 143.01,-2.61 144.07,-3.26 145.22,-3.43 146.37,-3.61 144.58,-2.72 142.78,-1.84 143.08,-2.20 143.38,-2.56 143.75,-2.84 144.13,-3.12 144.56,-3.30 144.99,-3.48 145.46,-3.55 145.92,-3.62 146.39,-3.58 146.85,-3.54 147.29,-3.39 147.74,-3.23 148.13,-2.98 148.52,-2.73 148.85,-2.39 149.17,-2.05 149.40,-1.64 149.63,-1.24 149.76,-0.78 149.88,-0.33 149.90,0.12 149.91,0.59 149.82,1.05 149.72,1.51 149.52,1.93 149.31,2.35 148.37,3.31 147.42,4.27 146.32,4.83 145.21,5.39 143.89,5.67 142.56,5.94 141.26,6.09 139.96,6.24 138.70,6.24 137.44,6.23 136.25,6.24 135.05,6.25 133.58,6.41 132.12,6.57 131.06,6.83 130.01,7.08 128.58,7.85 127.15,8.63 125.92,9.45 124.69,10.28 123.63,10.75 122.58,11.22 121.59,12.02 120.61,12.83 119.39,13.55 118.17,14.28 116.76,14.74 115.35,15.20 114.21,15.31 113.06,15.42 111.92,15.43 110.78,15.44 109.63,15.29 108.48,15.13 107.31,14.30 106.14,13.48 105.53,12.39 104.92,11.30 104.76,10.17 104.61,9.03 104.61,7.83 104.62,6.62 104.74,5.53 104.87,4.43 105.01,3.35 105.15,2.27 105.91,0.72 106.67,-0.82 107.50,-1.58 108.34,-2.33 109.48,-2.90 110.62,-3.46 111.90,-3.73 113.18,-3.99 114.38,-4.11 115.59,-4.23 116.62,-3.85 117.65,-3.47 120.26,-3.53 122.86,-3.60 123.15,-3.24 123.43,-2.87 123.62,-2.45 123.81,-2.03 123.90,-1.57 123.98,-1.12 123.95,-0.65 123.92,-0.19 123.79,0.24 123.65,0.68 123.41,1.08 123.17,1.48 122.84,1.80 122.52,2.13 122.12,2.37 121.72,2.61 121.28,2.75 120.84,2.89 120.38,2.91 119.91,2.94 119.46,2.86 119.00,2.78 118.58,2.59 118.16,2.40 117.79,2.11 117.43,1.82 116.93,1.39 116.43,0.96 115.46,0.30 114.48,-0.34 113.38,-0.39 112.27,-0.44 110.96,-0.26 109.65,-0.08 108.49,0.35 107.33,0.79 106.11,1.32 104.90,1.84 103.82,2.10 102.75,2.36 101.24,2.70 99.72,3.05 98.57,3.55 97.41,4.05 96.35,4.45 95.30,4.86 94.17,5.88 93.04,6.91 92.18,7.77 91.32,8.63 90.53,9.36 89.74,10.09 88.37,10.84 87.01,11.58 85.26,12.07 83.51,12.56 82.13,12.57 80.76,12.58 79.48,12.52 78.19,12.45 76.96,11.94 75.72,11.44 74.79,10.75 73.86,10.07 73.16,8.03 72.47,6.00 72.51,4.93 72.54,3.87 72.83,2.84 73.11,1.81 73.71,0.85 74.30,-0.10 75.32,-1.07 76.34,-2.04 77.39,-2.66 78.44,-3.29 79.53,-3.78 80.61,-4.28 82.18,-4.97 83.74,-5.65 85.11,-5.98 86.49,-6.31 87.72,-6.56 88.96,-6.82 89.03,-5.59 89.10,-4.36 90.20,-3.08 91.30,-1.79 90.23,-1.81 89.15,-1.83 88.03,-1.85 86.90,-1.87 85.78,-1.76 84.65,-1.64 83.42,-1.63 82.18,-1.61 80.60,-1.51 79.01,-1.41 77.33,-0.97 75.64,-0.54 74.20,-0.12 72.75,0.28 71.37,0.65 69.99,1.01 68.26,1.35 66.53,1.69 64.95,2.08 63.37,2.47 62.26,2.80 61.15,3.13 60.04,3.40 58.94,3.68 57.78,4.13 56.63,4.58 55.42,5.31 54.22,6.05 53.07,6.65 51.92,7.25 51.18,8.28 50.44,9.31 49.59,10.35 48.73,11.39 47.71,12.13 46.70,12.86 45.37,13.25 44.04,13.64 42.70,13.64 41.37,13.64 40.26,13.34 39.15,13.05 38.24,12.16 37.32,11.27 36.62,10.19 35.92,9.10 35.49,7.57 35.07,6.04 35.08,4.93 35.08,3.83 35.10,2.73 35.11,1.64 35.18,0.32 35.24,-0.98 35.70,-2.15 36.16,-3.32 36.84,-4.36 37.53,-5.40 38.49,-6.41 39.45,-7.41 40.40,-8.09 41.35,-8.77 42.69,-9.47 44.03,-10.18 45.21,-10.76 46.40,-11.34 47.43,-11.71 48.47,-12.07 49.59,-12.37 50.71,-12.67 51.97,-12.92 53.24,-13.17 54.50,-13.25 55.77,-13.32 56.20,-13.27 56.63,-13.22 57.03,-13.07 57.43,-12.91 57.79,-12.67 58.14,-12.42 58.43,-12.10 58.72,-11.78 58.92,-11.40 59.12,-11.01 59.22,-10.60 59.32,-10.18 59.32,-9.75 59.32,-9.31 59.22,-8.89 59.12,-8.48 58.92,-8.09 58.72,-7.71 58.43,-7.39 58.14,-7.07 57.79,-6.82 57.43,-6.58 57.03,-6.42 56.63,-6.27 56.20,-6.22 55.77,-6.17 54.95,-6.19 54.12,-6.22 52.95,-6.25 51.77,-6.28 50.58,-6.29 49.39,-6.29 48.28,-6.20 47.16,-6.10 46.09,-6.14 45.03,-6.17 43.92,-6.20 42.81,-6.23 41.13,-6.24 39.45,-6.25 37.53,-6.24 35.61,-6.23 34.06,-6.24 32.51,-6.25 30.59,-6.21 28.68,-6.17 26.69,-6.05 24.71,-5.93 23.64,-5.75 22.57,-5.57 20.85,-5.31 19.13,-5.04 18.04,-4.88 16.96,-4.71 15.75,-4.38 14.53,-4.06 13.44,-3.71 12.36,-3.37 11.08,-2.91 9.80,-2.45 8.72,-2.04 7.65,-1.62 6.26,-1.10 4.87,-0.57 3.95,-0.01 3.03,0.54 2.47,1.11 1.91,1.68 1.68,1.88 1.45,2.09 1.18,2.23 0.91,2.37 0.61,2.45 0.31,2.52 0.00,2.52 -0.29,2.53 -0.59,2.45 -0.89,2.38 -1.16,2.24 -1.43,2.10 -1.67,1.89 -1.90,1.69 -2.07,1.44 -2.25,1.19 -2.36,0.90 -2.47,0.61 -2.50,0.31 -2.54,0.00 -2.51,-0.29 -2.47,-0.60 -2.36,-0.88 -2.26,-1.17 -2.08,-1.42 -1.91,-1.68 -1.91,-1.68 L -1.91,-1.68 Z"></path></g><g transform="translate(220.69259733799845 235.984375) rotate(0 -31.474609375 -101.685546875)" stroke="none"><path fill="#343a40" d="M -2.55,-0.73 Q -2.55,-0.73 -2.30,-1.71 -2.05,-2.69 -1.89,-4.01 -1.73,-5.33 -1.50,-7.12 -1.28,-8.90 -1.11,-10.16 -0.94,-11.41 -0.91,-13.13 -0.88,-14.85 -0.90,-16.45 -0.91,-18.04 -0.93,-19.67 -0.94,-21.29 -0.96,-22.70 -0.98,-24.11 -1.00,-25.61 -1.01,-27.10 -1.31,-28.97 -1.61,-30.85 -2.42,-32.66 -3.22,-34.47 -3.81,-36.15 -4.40,-37.83 -4.81,-39.44 -5.22,-41.04 -5.85,-42.69 -6.48,-44.34 -6.97,-45.60 -7.46,-46.86 -7.90,-48.19 -8.33,-49.51 -8.62,-50.56 -8.91,-51.60 -9.24,-53.05 -9.56,-54.50 -9.83,-55.55 -10.11,-56.60 -10.58,-58.16 -11.06,-59.73 -11.55,-61.35 -12.04,-62.97 -12.44,-64.11 -12.85,-65.24 -13.21,-66.36 -13.58,-67.49 -14.69,-70.16 -15.79,-72.83 -16.32,-73.97 -16.85,-75.12 -17.57,-76.49 -18.28,-77.86 -19.07,-79.59 -19.87,-81.33 -20.48,-82.67 -21.08,-84.01 -21.69,-85.84 -22.29,-87.67 -22.67,-88.86 -23.04,-90.04 -23.56,-91.65 -24.08,-93.26 -24.72,-95.21 -25.36,-97.16 -25.69,-98.43 -26.01,-99.71 -26.36,-100.78 -26.70,-101.85 -27.11,-103.00 -27.52,-104.15 -28.03,-105.20 -28.54,-106.26 -29.10,-107.80 -29.66,-109.35 -30.25,-111.13 -30.84,-112.92 -31.57,-115.34 -32.31,-117.75 -32.85,-118.93 -33.40,-120.10 -33.94,-121.32 -34.48,-122.54 -35.65,-125.11 -36.82,-127.67 -37.53,-129.30 -38.23,-130.93 -38.84,-132.29 -39.44,-133.64 -40.11,-135.07 -40.79,-136.51 -41.47,-137.57 -42.16,-138.62 -42.76,-139.60 -43.36,-140.58 -43.94,-141.73 -44.51,-142.89 -45.58,-144.80 -46.64,-146.70 -47.15,-148.04 -47.65,-149.38 -48.32,-151.12 -49.00,-152.85 -49.70,-154.98 -50.41,-157.10 -50.91,-158.21 -51.42,-159.31 -52.07,-161.03 -52.73,-162.76 -53.40,-164.09 -54.06,-165.42 -55.27,-167.85 -56.48,-170.29 -57.23,-171.63 -57.97,-172.97 -58.68,-174.60 -59.38,-176.22 -60.26,-178.57 -61.13,-180.92 -61.46,-181.95 -61.78,-182.99 -62.38,-184.52 -62.98,-186.06 -63.64,-187.72 -64.30,-189.37 -64.72,-190.42 -65.13,-191.47 -65.57,-193.04 -66.00,-194.60 -66.40,-195.78 -66.81,-196.95 -67.09,-198.22 -67.37,-199.48 -67.87,-201.08 -68.37,-202.68 -68.42,-203.21 -68.47,-203.74 -68.35,-204.26 -68.23,-204.78 -67.94,-205.24 -67.66,-205.69 -67.25,-206.03 -66.84,-206.37 -66.34,-206.56 -65.84,-206.75 -65.31,-206.78 -64.78,-206.80 -64.26,-206.65 -63.75,-206.50 -63.31,-206.19 -62.87,-205.89 -62.56,-205.46 -62.24,-205.03 -62.07,-204.52 -61.91,-204.01 -61.92,-203.48 -61.92,-202.94 -62.10,-202.44 -62.28,-201.94 -62.61,-201.51 -62.94,-201.09 -63.38,-200.80 -63.83,-200.51 -64.34,-200.37 -64.86,-200.23 -65.39,-200.27 -65.93,-200.31 -66.42,-200.51 -66.91,-200.71 -67.32,-201.07 -67.72,-201.42 -67.99,-201.88 -68.26,-202.34 -68.37,-202.86 -68.47,-203.39 -68.41,-203.92 -68.34,-204.45 -68.11,-204.93 -67.88,-205.41 -67.51,-205.79 -67.14,-206.17 -66.66,-206.42 -66.19,-206.66 -65.66,-206.74 -65.13,-206.82 -64.61,-206.73 -64.08,-206.63 -63.61,-206.38 -63.14,-206.12 -62.78,-205.73 -62.42,-205.34 -62.20,-204.85 -61.98,-204.36 -61.98,-204.36 -61.98,-204.36 -61.59,-202.96 -61.19,-201.55 -60.95,-200.16 -60.71,-198.77 -60.45,-197.64 -60.19,-196.50 -59.99,-195.20 -59.80,-193.90 -59.45,-192.70 -59.11,-191.51 -58.53,-189.71 -57.94,-187.92 -57.58,-186.85 -57.22,-185.78 -56.82,-184.03 -56.42,-182.28 -55.79,-180.20 -55.15,-178.12 -54.50,-176.72 -53.84,-175.31 -53.04,-173.93 -52.24,-172.55 -50.97,-170.12 -49.69,-167.68 -48.92,-166.23 -48.14,-164.78 -47.33,-163.18 -46.53,-161.58 -45.85,-160.13 -45.18,-158.69 -44.57,-156.80 -43.96,-154.90 -43.59,-153.90 -43.22,-152.89 -42.70,-151.03 -42.19,-149.16 -41.15,-147.03 -40.12,-144.90 -39.69,-143.87 -39.27,-142.83 -38.80,-141.87 -38.34,-140.92 -37.61,-139.62 -36.89,-138.33 -36.18,-136.82 -35.47,-135.30 -34.95,-133.95 -34.42,-132.60 -33.75,-131.09 -33.09,-129.59 -31.59,-126.98 -30.09,-124.36 -29.63,-123.16 -29.16,-121.95 -28.62,-120.64 -28.09,-119.34 -27.07,-117.09 -26.06,-114.85 -25.24,-113.14 -24.41,-111.42 -23.86,-110.16 -23.31,-108.90 -22.62,-107.58 -21.93,-106.26 -21.45,-105.04 -20.96,-103.83 -20.23,-101.56 -19.49,-99.30 -18.82,-97.35 -18.14,-95.40 -17.57,-93.63 -17.01,-91.85 -16.65,-90.47 -16.30,-89.09 -15.84,-87.68 -15.38,-86.27 -14.80,-84.81 -14.22,-83.35 -13.67,-81.97 -13.11,-80.59 -12.44,-79.06 -11.78,-77.53 -11.21,-76.36 -10.64,-75.18 -9.80,-73.65 -8.96,-72.12 -7.97,-69.87 -6.97,-67.63 -6.29,-66.10 -5.62,-64.58 -5.22,-63.27 -4.82,-61.95 -4.41,-60.83 -4.00,-59.71 -3.66,-58.39 -3.33,-57.07 -3.14,-55.88 -2.94,-54.70 -2.62,-53.42 -2.30,-52.14 -2.02,-50.82 -1.74,-49.49 -1.26,-48.12 -0.79,-46.74 -0.09,-44.84 0.60,-42.94 1.51,-40.54 2.43,-38.13 3.10,-36.17 3.77,-34.22 4.34,-32.93 4.90,-31.64 5.12,-30.19 5.33,-28.74 5.42,-27.15 5.50,-25.56 5.48,-24.24 5.45,-22.92 5.44,-21.29 5.42,-19.66 5.40,-18.03 5.38,-16.39 5.34,-14.74 5.30,-13.09 5.13,-11.70 4.97,-10.32 4.71,-9.03 4.44,-7.74 4.17,-6.33 3.90,-4.91 3.53,-3.04 3.17,-1.18 2.86,-0.22 2.55,0.73 2.43,1.03 2.30,1.32 2.11,1.58 1.92,1.84 1.67,2.04 1.42,2.24 1.13,2.38 0.84,2.52 0.53,2.58 0.21,2.65 -0.10,2.64 -0.42,2.62 -0.73,2.53 -1.04,2.44 -1.31,2.28 -1.59,2.12 -1.82,1.90 -2.06,1.68 -2.23,1.41 -2.40,1.14 -2.50,0.83 -2.60,0.53 -2.63,0.21 -2.65,-0.10 -2.60,-0.42 -2.55,-0.73 -2.55,-0.73 L -2.55,-0.73 Z"></path></g><g transform="translate(310.86447233799845 235.70703125) rotate(0 -36.04101562499994 -112.853515625)" stroke="none"><path fill="#343a40" d="M -2.59,-0.43 Q -2.59,-0.43 -2.41,-1.63 -2.22,-2.84 -2.04,-4.46 -1.87,-6.07 -1.57,-7.64 -1.26,-9.20 -0.90,-10.81 -0.54,-12.41 -0.14,-13.44 0.25,-14.47 0.59,-16.03 0.93,-17.59 1.34,-18.95 1.76,-20.31 2.18,-21.42 2.60,-22.53 3.47,-24.59 4.33,-26.66 4.98,-28.26 5.63,-29.85 6.33,-31.22 7.03,-32.59 7.90,-34.22 8.78,-35.86 9.45,-37.40 10.12,-38.93 10.86,-40.40 11.60,-41.87 12.72,-44.14 13.85,-46.42 14.37,-47.86 14.90,-49.30 15.57,-50.64 16.25,-51.97 17.15,-53.90 18.06,-55.82 18.90,-58.00 19.73,-60.17 20.21,-61.96 20.68,-63.74 21.12,-65.29 21.56,-66.83 21.80,-67.92 22.03,-69.02 22.47,-70.60 22.92,-72.18 23.17,-73.33 23.41,-74.48 23.75,-75.56 24.09,-76.64 24.70,-78.86 25.30,-81.09 25.74,-83.04 26.18,-84.98 26.43,-86.29 26.68,-87.60 27.14,-89.17 27.60,-90.75 27.90,-92.02 28.19,-93.29 28.48,-94.69 28.76,-96.10 29.48,-98.33 30.21,-100.57 30.81,-102.43 31.42,-104.29 31.92,-105.81 32.41,-107.33 32.82,-108.50 33.24,-109.67 33.82,-111.23 34.41,-112.80 35.15,-114.45 35.90,-116.10 36.56,-117.95 37.23,-119.81 37.77,-121.51 38.32,-123.22 38.95,-124.54 39.59,-125.87 40.11,-127.16 40.63,-128.46 41.55,-130.77 42.46,-133.09 42.94,-134.21 43.42,-135.33 43.93,-136.65 44.44,-137.97 44.89,-139.10 45.35,-140.23 46.42,-142.50 47.50,-144.78 48.31,-146.45 49.12,-148.11 49.80,-149.83 50.48,-151.54 51.15,-152.77 51.82,-154.00 52.75,-155.61 53.69,-157.22 54.56,-159.12 55.43,-161.02 56.10,-162.26 56.77,-163.49 58.24,-165.43 59.71,-167.36 60.56,-168.51 61.42,-169.67 62.06,-170.54 62.71,-171.40 63.53,-172.71 64.35,-174.02 65.37,-175.37 66.39,-176.71 67.00,-177.58 67.61,-178.46 68.35,-179.43 69.10,-180.40 69.91,-182.47 70.72,-184.53 71.30,-186.00 71.87,-187.47 72.31,-188.80 72.76,-190.12 72.82,-191.35 72.88,-192.59 73.20,-194.13 73.53,-195.67 74.04,-196.93 74.56,-198.20 75.28,-199.07 75.99,-199.94 77.13,-201.32 78.26,-202.70 79.82,-204.69 81.38,-206.68 82.43,-207.85 83.47,-209.01 84.50,-210.66 85.53,-212.31 86.01,-213.33 86.50,-214.35 86.96,-215.32 87.42,-216.30 87.95,-217.26 88.48,-218.22 89.52,-216.33 90.56,-214.44 88.71,-214.33 86.85,-214.21 85.43,-214.28 84.00,-214.36 81.59,-214.57 79.18,-214.79 77.58,-214.94 75.98,-215.09 74.09,-215.49 72.20,-215.89 70.36,-216.07 68.52,-216.25 67.08,-216.34 65.63,-216.43 64.37,-216.50 63.11,-216.57 61.78,-216.50 60.44,-216.43 59.30,-216.50 58.17,-216.58 56.73,-216.69 55.30,-216.80 54.09,-216.80 52.88,-216.81 51.55,-216.97 50.23,-217.13 48.56,-217.17 46.89,-217.21 45.81,-217.23 44.73,-217.26 43.17,-217.26 41.60,-217.26 40.11,-217.37 38.62,-217.48 37.35,-217.47 36.08,-217.45 34.90,-217.44 33.73,-217.43 32.24,-217.41 30.74,-217.38 29.33,-217.37 27.92,-217.35 25.37,-217.44 22.82,-217.54 21.69,-217.56 20.55,-217.59 18.73,-217.59 16.91,-217.60 15.24,-217.59 13.58,-217.59 10.73,-217.74 7.89,-217.89 6.43,-217.93 4.98,-217.98 3.42,-218.03 1.87,-218.09 0.74,-218.07 -0.38,-218.06 -2.20,-218.01 -4.02,-217.96 -5.16,-217.90 -6.29,-217.85 -7.61,-217.77 -8.93,-217.69 -10.49,-217.63 -12.06,-217.57 -13.55,-217.56 -15.03,-217.55 -16.87,-217.62 -18.70,-217.68 -20.07,-217.83 -21.44,-217.99 -22.99,-218.01 -24.55,-218.03 -25.64,-218.06 -26.73,-218.09 -27.88,-218.12 -29.03,-218.15 -30.19,-218.29 -31.34,-218.43 -33.01,-218.50 -34.69,-218.57 -35.88,-218.88 -37.07,-219.19 -38.87,-219.47 -40.67,-219.75 -41.74,-219.84 -42.81,-219.94 -44.50,-219.97 -46.20,-220.01 -48.49,-220.14 -50.79,-220.27 -52.35,-220.52 -53.92,-220.76 -55.15,-220.85 -56.38,-220.94 -57.83,-221.02 -59.28,-221.10 -60.99,-221.07 -62.71,-221.03 -64.18,-220.99 -65.65,-220.94 -66.77,-221.01 -67.88,-221.08 -69.11,-221.03 -70.33,-220.98 -71.57,-220.93 -72.80,-220.88 -74.18,-221.03 -75.55,-221.18 -77.02,-221.35 -78.49,-221.52 -80.11,-221.54 -81.73,-221.56 -82.95,-221.67 -84.17,-221.79 -85.37,-221.80 -86.57,-221.82 -88.02,-221.96 -89.47,-222.10 -90.90,-222.13 -92.33,-222.17 -93.63,-222.15 -94.93,-222.14 -96.11,-222.14 -97.29,-222.14 -98.67,-222.13 -100.04,-222.12 -101.28,-222.12 -102.52,-222.13 -103.93,-222.15 -105.34,-222.16 -106.76,-222.17 -108.18,-222.18 -109.26,-222.18 -110.34,-222.17 -111.70,-222.16 -113.05,-222.14 -114.58,-222.14 -116.12,-222.13 -117.58,-222.12 -119.04,-222.11 -120.18,-222.11 -121.32,-222.11 -122.47,-221.90 -123.63,-221.69 -125.10,-221.48 -126.57,-221.27 -127.71,-221.04 -128.85,-220.82 -130.19,-220.57 -131.53,-220.32 -132.64,-220.13 -133.76,-219.93 -135.13,-219.68 -136.51,-219.42 -137.71,-219.25 -138.92,-219.07 -140.25,-218.79 -141.57,-218.51 -142.91,-218.15 -144.24,-217.79 -145.52,-217.48 -146.80,-217.17 -148.04,-216.88 -149.28,-216.59 -150.52,-216.22 -151.76,-215.84 -152.82,-215.39 -153.88,-214.93 -154.96,-214.86 -156.04,-214.79 -157.13,-214.67 -158.22,-214.55 -159.39,-214.42 -160.55,-214.30 -161.62,-214.29 -162.69,-214.28 -161.40,-215.15 -160.11,-216.03 -159.87,-214.89 -159.62,-213.75 -159.06,-212.38 -158.50,-211.00 -157.85,-210.10 -157.19,-209.21 -156.87,-206.57 -156.55,-203.94 -156.66,-203.32 -156.76,-202.70 -157.05,-202.15 -157.34,-201.60 -157.80,-201.17 -158.25,-200.74 -158.82,-200.47 -159.39,-200.21 -160.01,-200.14 -160.63,-200.07 -161.24,-200.21 -161.85,-200.34 -162.39,-200.67 -162.92,-200.99 -163.33,-201.47 -163.73,-201.94 -163.97,-202.52 -164.20,-203.10 -164.23,-203.73 -164.26,-204.35 -164.10,-204.96 -163.93,-205.56 -163.58,-206.08 -163.23,-206.60 -162.73,-206.97 -162.23,-207.35 -161.64,-207.55 -161.05,-207.75 -160.42,-207.75 -159.79,-207.75 -159.20,-207.55 -158.61,-207.35 -158.11,-206.97 -157.61,-206.59 -157.26,-206.08 -156.91,-205.56 -156.74,-204.96 -156.58,-204.35 -156.61,-203.73 -156.64,-203.10 -156.88,-202.52 -157.11,-201.94 -157.51,-201.47 -157.92,-200.99 -158.45,-200.67 -158.99,-200.34 -159.60,-200.21 -160.21,-200.07 -160.83,-200.14 -161.46,-200.21 -162.02,-200.47 -162.59,-200.74 -163.05,-201.17 -163.50,-201.60 -163.79,-202.15 -164.09,-202.70 -164.19,-203.32 -164.29,-203.94 -164.29,-203.94 -164.29,-203.94 -164.03,-204.68 -163.77,-205.43 -164.46,-206.53 -165.14,-207.63 -165.60,-208.76 -166.05,-209.89 -166.63,-211.30 -167.21,-212.71 -167.33,-214.36 -167.45,-216.01 -167.40,-217.18 -167.34,-218.36 -166.44,-219.74 -165.53,-221.12 -164.24,-221.54 -162.95,-221.97 -161.76,-221.96 -160.57,-221.95 -159.43,-221.86 -158.29,-221.77 -156.89,-221.88 -155.48,-221.98 -153.93,-222.55 -152.38,-223.12 -151.30,-223.53 -150.22,-223.94 -149.12,-224.23 -148.01,-224.52 -146.57,-224.86 -145.13,-225.19 -143.78,-225.52 -142.42,-225.84 -140.90,-226.15 -139.38,-226.46 -138.22,-226.59 -137.06,-226.72 -135.97,-226.78 -134.89,-226.85 -133.37,-227.20 -131.85,-227.55 -130.50,-227.86 -129.15,-228.17 -127.96,-228.34 -126.77,-228.52 -125.60,-228.70 -124.43,-228.88 -122.87,-229.08 -121.32,-229.29 -120.18,-229.29 -119.04,-229.29 -117.58,-229.28 -116.12,-229.27 -114.58,-229.27 -113.05,-229.26 -111.70,-229.25 -110.34,-229.23 -109.26,-229.23 -108.18,-229.22 -106.76,-229.23 -105.34,-229.24 -103.38,-229.26 -101.43,-229.28 -100.29,-229.28 -99.16,-229.28 -97.69,-229.27 -96.23,-229.26 -94.70,-229.25 -93.16,-229.24 -91.78,-229.21 -90.39,-229.17 -88.93,-228.97 -87.48,-228.77 -86.41,-228.74 -85.34,-228.72 -83.51,-228.58 -81.67,-228.43 -80.15,-228.37 -78.62,-228.31 -77.53,-228.14 -76.45,-227.97 -74.91,-227.79 -73.37,-227.60 -72.19,-227.56 -71.02,-227.51 -69.63,-227.43 -68.25,-227.35 -66.94,-227.14 -65.64,-226.93 -64.15,-226.88 -62.67,-226.82 -60.91,-226.75 -59.16,-226.68 -57.61,-226.70 -56.06,-226.71 -54.65,-226.65 -53.24,-226.60 -51.81,-226.49 -50.38,-226.39 -48.25,-226.33 -46.11,-226.28 -44.25,-226.22 -42.39,-226.15 -41.04,-226.08 -39.68,-226.01 -38.48,-225.86 -37.28,-225.71 -36.21,-225.54 -35.14,-225.37 -34.06,-225.17 -32.98,-224.96 -31.00,-224.82 -29.02,-224.68 -27.87,-224.71 -26.72,-224.74 -24.64,-224.78 -22.55,-224.81 -21.28,-224.76 -20.01,-224.71 -18.95,-224.51 -17.89,-224.32 -16.46,-224.21 -15.03,-224.11 -13.55,-224.10 -12.06,-224.10 -10.49,-224.03 -8.93,-223.97 -7.61,-223.89 -6.29,-223.82 -5.16,-223.76 -4.02,-223.70 -2.20,-223.65 -0.38,-223.60 0.74,-223.59 1.87,-223.57 3.42,-223.63 4.98,-223.68 6.43,-223.73 7.89,-223.77 10.73,-223.92 13.58,-224.08 15.24,-224.07 16.91,-224.06 18.73,-224.07 20.55,-224.07 21.69,-224.10 22.82,-224.13 25.37,-224.22 27.92,-224.32 29.33,-224.30 30.75,-224.28 32.24,-224.26 33.73,-224.23 34.93,-224.22 36.12,-224.20 37.53,-224.14 38.93,-224.08 40.27,-223.94 41.61,-223.81 43.18,-223.81 44.75,-223.80 46.75,-223.82 48.74,-223.83 50.48,-223.73 52.22,-223.63 53.63,-223.47 55.05,-223.31 56.12,-223.14 57.19,-222.98 58.29,-222.91 59.40,-222.84 60.57,-222.71 61.75,-222.58 63.10,-222.46 64.44,-222.35 65.98,-221.98 67.52,-221.61 69.21,-221.32 70.90,-221.02 71.96,-220.84 73.02,-220.66 74.71,-220.45 76.40,-220.24 77.79,-220.14 79.19,-220.05 81.62,-220.26 84.05,-220.47 85.52,-220.52 86.99,-220.57 88.35,-220.58 89.72,-220.60 90.88,-220.29 92.05,-219.98 92.93,-217.36 93.81,-214.74 93.19,-213.75 92.57,-212.77 91.89,-211.39 91.21,-210.01 89.77,-207.22 88.32,-204.43 87.39,-203.42 86.46,-202.40 85.43,-200.97 84.39,-199.55 82.98,-197.81 81.57,-196.08 80.61,-194.86 79.65,-193.63 79.23,-192.31 78.81,-190.99 78.55,-189.47 78.29,-187.96 77.80,-186.80 77.31,-185.64 76.86,-184.08 76.42,-182.51 75.96,-181.06 75.51,-179.61 74.92,-178.16 74.32,-176.71 73.25,-175.18 72.18,-173.65 71.31,-172.62 70.43,-171.59 69.51,-170.28 68.60,-168.97 67.80,-167.86 67.01,-166.75 66.11,-165.72 65.22,-164.69 64.10,-163.43 62.98,-162.16 62.21,-160.89 61.44,-159.63 60.56,-158.25 59.68,-156.88 58.64,-154.66 57.60,-152.44 56.72,-151.04 55.84,-149.64 54.94,-147.60 54.05,-145.56 53.15,-144.01 52.26,-142.46 51.22,-140.31 50.18,-138.16 49.73,-137.17 49.28,-136.17 48.75,-134.70 48.23,-133.22 47.69,-132.01 47.15,-130.79 46.64,-129.82 46.14,-128.85 45.74,-127.73 45.34,-126.62 44.77,-125.11 44.19,-123.60 43.66,-122.56 43.13,-121.53 42.36,-119.67 41.59,-117.81 40.71,-116.09 39.83,-114.37 39.19,-112.84 38.54,-111.32 37.97,-109.65 37.39,-107.97 36.91,-106.96 36.44,-105.95 35.93,-104.54 35.42,-103.12 34.96,-101.31 34.49,-99.49 34.11,-97.32 33.72,-95.14 33.44,-93.63 33.16,-92.11 32.84,-90.75 32.51,-89.39 32.15,-88.01 31.79,-86.63 31.53,-85.20 31.27,-83.78 30.62,-81.63 29.97,-79.48 29.57,-78.42 29.17,-77.37 28.41,-75.35 27.65,-73.32 27.27,-72.18 26.90,-71.04 26.44,-69.46 25.97,-67.87 25.57,-66.77 25.16,-65.67 24.65,-64.26 24.15,-62.86 23.67,-60.92 23.19,-58.99 22.49,-56.65 21.79,-54.31 21.00,-52.06 20.22,-49.81 19.61,-48.79 18.99,-47.77 18.42,-46.24 17.85,-44.72 16.94,-42.20 16.03,-39.69 15.42,-38.41 14.81,-37.13 14.22,-35.40 13.63,-33.68 12.97,-31.89 12.31,-30.10 11.76,-28.83 11.22,-27.56 10.81,-26.54 10.39,-25.52 9.60,-23.91 8.81,-22.30 8.14,-20.47 7.48,-18.63 7.01,-16.73 6.53,-14.83 5.82,-12.60 5.10,-10.36 4.76,-9.18 4.41,-8.00 4.02,-6.51 3.63,-5.02 3.32,-3.49 3.02,-1.96 2.81,-0.76 2.59,0.43 2.50,0.73 2.42,1.04 2.25,1.31 2.09,1.59 1.87,1.82 1.65,2.04 1.38,2.21 1.11,2.38 0.81,2.48 0.51,2.58 0.19,2.60 -0.11,2.63 -0.43,2.58 -0.74,2.52 -1.03,2.40 -1.32,2.27 -1.58,2.08 -1.83,1.89 -2.03,1.64 -2.23,1.39 -2.36,1.11 -2.50,0.82 -2.56,0.51 -2.62,0.19 -2.61,-0.11 -2.59,-0.43 -2.59,-0.43 L -2.59,-0.43 Z"></path></g><g transform="translate(57.89181608799845 225.5000000000001) rotate(0 213.50976562500006 8.876953125)" stroke="none"><path fill="#495057" d="M 0.59,-5.29 Q 0.59,-5.29 3.11,-5.02 5.64,-4.74 9.69,-4.12 13.75,-3.49 16.92,-3.23 20.10,-2.98 23.19,-2.57 26.28,-2.17 29.07,-1.76 31.86,-1.34 35.25,-0.97 38.64,-0.60 40.87,-0.22 43.09,0.14 46.27,0.57 49.45,1.01 52.38,1.68 55.30,2.36 58.53,2.85 61.76,3.34 65.70,4.02 69.63,4.69 72.41,5.00 75.18,5.30 77.32,5.48 79.47,5.66 81.93,5.90 84.40,6.15 86.88,6.18 89.35,6.20 92.12,6.41 94.88,6.61 97.99,6.61 101.11,6.60 103.88,6.56 106.66,6.53 110.31,6.53 113.95,6.53 116.45,6.52 118.95,6.51 122.10,6.48 125.24,6.46 127.89,6.46 130.55,6.46 134.04,6.45 137.54,6.44 140.46,6.46 143.39,6.48 146.05,6.48 148.71,6.48 152.20,6.53 155.69,6.59 158.67,6.59 161.65,6.60 166.06,6.73 170.47,6.85 172.62,6.89 174.77,6.94 177.02,6.98 179.28,7.03 182.61,7.02 185.94,7.00 188.80,7.13 191.67,7.26 195.59,7.26 199.50,7.25 203.62,7.27 207.74,7.28 211.89,7.30 216.04,7.31 219.86,7.30 223.67,7.28 226.93,7.23 230.18,7.19 233.43,7.15 236.68,7.12 239.21,7.06 241.75,7.00 243.94,6.95 246.13,6.89 248.63,6.85 251.14,6.82 253.35,6.75 255.57,6.68 258.17,6.61 260.77,6.54 262.98,6.68 265.18,6.82 267.37,7.02 269.55,7.21 272.02,7.25 274.49,7.29 277.41,7.31 280.34,7.34 283.88,7.62 287.43,7.90 291.33,8.02 295.24,8.14 297.41,8.20 299.58,8.26 302.52,8.42 305.46,8.57 308.49,8.72 311.52,8.86 314.60,9.00 317.69,9.13 320.34,9.17 322.99,9.21 326.14,9.33 329.29,9.44 332.21,9.50 335.14,9.55 338.57,9.42 342.00,9.29 344.88,9.17 347.75,9.05 349.91,8.95 352.07,8.84 355.29,8.71 358.50,8.59 361.13,8.53 363.76,8.47 366.70,8.43 369.65,8.40 372.22,8.36 374.80,8.31 378.20,8.32 381.61,8.34 385.58,8.53 389.55,8.73 393.01,8.96 396.46,9.19 399.81,9.31 403.16,9.42 406.43,9.42 409.70,9.42 412.11,9.37 414.52,9.33 417.33,9.65 420.13,9.98 422.35,10.35 424.57,10.72 425.87,10.81 427.17,10.89 428.26,11.11 429.35,11.33 430.31,11.89 431.27,12.44 432.00,13.28 432.73,14.11 433.16,15.13 433.59,16.15 433.67,17.26 433.75,18.37 433.47,19.44 433.19,20.51 432.59,21.44 431.98,22.37 431.11,23.06 430.24,23.75 429.19,24.12 428.15,24.49 427.04,24.51 425.93,24.53 424.87,24.19 423.82,23.86 422.92,23.20 422.03,22.55 421.39,21.64 420.75,20.73 420.43,19.67 420.12,18.61 420.16,17.50 420.20,16.39 420.59,15.35 420.99,14.31 421.69,13.46 422.39,12.60 423.33,12.01 424.27,11.42 425.35,11.16 426.43,10.91 427.54,11.01 428.64,11.11 429.66,11.56 430.67,12.00 431.49,12.75 432.31,13.50 432.84,14.47 433.38,15.44 433.58,16.54 433.78,17.63 433.62,18.72 433.46,19.82 432.95,20.81 432.45,21.80 431.66,22.58 430.87,23.35 429.87,23.84 428.87,24.32 427.77,24.46 426.67,24.60 426.67,24.60 426.67,24.60 422.74,23.95 418.81,23.29 416.66,22.87 414.51,22.46 412.08,22.40 409.66,22.35 406.33,22.31 403.00,22.28 399.01,22.20 395.03,22.12 391.86,21.89 388.68,21.67 385.14,21.57 381.61,21.47 378.20,21.48 374.80,21.49 372.22,21.45 369.65,21.40 366.70,21.37 363.76,21.33 361.13,21.27 358.50,21.22 355.29,21.09 352.07,20.96 349.91,20.86 347.75,20.75 344.88,20.63 342.00,20.51 338.57,20.38 335.14,20.25 332.21,20.30 329.29,20.36 326.14,20.47 322.99,20.59 320.34,20.63 317.69,20.67 314.60,20.80 311.51,20.94 308.48,21.08 305.45,21.22 302.50,21.38 299.55,21.53 295.34,21.60 291.13,21.67 287.17,21.63 283.22,21.58 280.25,21.47 277.28,21.37 274.52,21.36 271.76,21.35 268.85,21.23 265.93,21.10 263.34,20.75 260.75,20.40 258.16,20.33 255.57,20.25 253.35,20.19 251.14,20.12 248.63,20.08 246.13,20.04 243.94,19.99 241.75,19.93 239.21,19.88 236.68,19.82 233.43,19.78 230.18,19.75 226.93,19.70 223.67,19.65 219.86,19.64 216.04,19.62 211.89,19.64 207.74,19.65 203.62,19.67 199.50,19.68 195.59,19.68 191.67,19.68 188.80,19.81 185.94,19.93 182.61,19.92 179.28,19.90 177.02,19.95 174.77,20.00 172.62,20.04 170.47,20.08 166.06,20.21 161.65,20.33 158.67,20.34 155.69,20.35 152.20,20.40 148.71,20.45 146.05,20.45 143.39,20.45 140.46,20.47 137.54,20.50 134.04,20.48 130.55,20.47 127.89,20.48 125.24,20.48 122.10,20.45 118.95,20.42 116.45,20.41 113.95,20.41 111.31,20.42 108.67,20.43 106.39,20.41 104.12,20.40 101.40,20.34 98.69,20.28 96.43,20.21 94.17,20.13 91.66,19.89 89.15,19.65 86.36,19.56 83.57,19.48 80.50,19.12 77.43,18.76 75.29,18.48 73.14,18.20 70.31,17.81 67.49,17.43 63.87,16.88 60.24,16.33 56.41,15.79 52.58,15.24 49.99,14.56 47.39,13.88 43.98,13.39 40.56,12.90 37.68,12.27 34.80,11.63 32.12,11.18 29.44,10.72 26.89,10.17 24.34,9.63 21.48,9.06 18.62,8.49 14.89,7.93 11.16,7.37 7.80,6.62 4.44,5.88 1.92,5.59 -0.59,5.29 -1.22,5.15 -1.84,5.00 -2.41,4.70 -2.99,4.41 -3.47,3.99 -3.96,3.57 -4.33,3.04 -4.70,2.51 -4.93,1.91 -5.16,1.32 -5.24,0.68 -5.33,0.04 -5.26,-0.59 -5.18,-1.23 -4.96,-1.83 -4.74,-2.43 -4.38,-2.96 -4.02,-3.50 -3.54,-3.93 -3.06,-4.36 -2.50,-4.66 -1.93,-4.96 -1.31,-5.12 -0.68,-5.28 -0.04,-5.29 0.59,-5.29 0.59,-5.29 L 0.59,-5.29 Z"></path></g><g stroke-linecap="round"><g transform="translate(150.75509733799845 125.78198242187511) rotate(0 -69.37133703939617 -0.12281203019711029)"><path d="M0.95 0.12 C-41.66 0.46, -83.37 -2.64, -139.69 0.26 M-0.86 0.75 C-50.24 -0.92, -101.02 -0.91, -139.49 -0.41" stroke="#495057" stroke-width="2" fill="none"></path></g></g><mask></mask><g stroke-linecap="round"><g transform="translate(130.75509733799845 25.781982421875114) rotate(0 -60.820770614780486 -0.3430562485009432)"><path d="M-1.39 -1.72 C-36.05 0.33, -74.98 0.4, -119.87 1.03 M-0.89 0.47 C-30.8 -0.08, -62.41 0.37, -120.76 0.7" stroke="#495057" stroke-width="2" fill="none"></path></g></g><mask></mask><g stroke-linecap="round"><g transform="translate(72.48928173910826 25.39879740122717) rotate(0 -0.2722270039926684 49.846524972934276)"><path d="M-1.73 1.18 C-1.26 31.61, 0.98 59.77, -0.68 99.31 M-0.5 0.38 C1.42 23.01, 1.44 44.61, 0.85 99.31" stroke="#495057" stroke-width="2" fill="none"></path></g><g transform="translate(72.48928173910826 25.39879740122717) rotate(0 -0.2722270039926684 49.846524972934276)"><path d="M-2.83 3.04 L3.75 13.19 L-6.7 16.87 L-1.11 -0.23" stroke="none" stroke-width="0" fill="#495057" fill-rule="evenodd"></path><path d="M-3.03 2.07 C-0.95 6.03, 2.78 8.27, 4.43 14.1 M-2.11 1.47 C0.4 4.63, 1.91 7.01, 5.59 14.1 M5.93 15.03 C2.44 13.5, -1.35 13.58, -7.16 15.95 M4.79 14.75 C1.12 14.52, -1.65 14.75, -7.62 14.86 M-6.71 15.94 C-4.79 12.67, -6.17 9.45, -1.43 0.02 M-7.68 15.09 C-6.03 11.34, -5.15 9.82, -1.23 1.31 M-1.73 1.18 C-1.73 1.18, -1.73 1.18, -1.73 1.18 M-1.73 1.18 C-1.73 1.18, -1.73 1.18, -1.73 1.18" stroke="#495057" stroke-width="2" fill="none"></path></g><g transform="translate(72.48928173910826 25.39879740122717) rotate(0 -0.2722270039926684 49.846524972934276)"><path d="M-0.24 101.16 L-6.57 84.24 L8.33 87.69 L1.47 97.89" stroke="none" stroke-width="0" fill="#495057" fill-rule="evenodd"></path><path d="M-0.45 100.2 C-2.46 95.8, -2.69 89.72, -5.89 85.14 M0.48 99.59 C-0.1 96.65, -1.48 92.95, -4.74 85.14 M-4.4 86.08 C-1.53 84.61, 1.05 84.64, 7.86 86.78 M-5.54 85.79 C-2.64 85.65, 1.17 85.83, 7.41 85.69 M8.31 86.76 C7.25 89.96, 2.97 93.1, 1.16 98.14 M7.35 85.91 C6.61 88.03, 4.88 92.24, 1.36 99.43 M0.85 99.31 C0.85 99.31, 0.85 99.31, 0.85 99.31 M0.85 99.31 C0.85 99.31, 0.85 99.31, 0.85 99.31" stroke="#495057" stroke-width="2" fill="none"></path></g></g><mask></mask><g transform="translate(34.650313255215224 69.2123184071894) rotate(272.28178675685245 21.969985961914062 12)"><text x="0" y="0" font-family="Virgil, Segoe UI Emoji" font-size="20px" fill="#495057" text-anchor="start" style="white-space: pre;" direction="ltr" dominant-baseline="text-before-edge">x cm</text></g></svg>