<svg version="1.1" xmlns="http://www.w3.org/2000/svg" viewBox="0 0 643.1083505599865 481.74710983764066" width="1286.216701119973" height="963.4942196752813">
  <!-- svg-source:excalidraw -->
  
  <defs>
    <style class="style-fonts">
      @font-face {
        font-family: "Virgil";
        src: url("https://excalidraw.com/Virgil.woff2");
      }
      @font-face {
        font-family: "Cascadia";
        src: url("https://excalidraw.com/Cascadia.woff2");
      }
    </style>
  </defs>
  <g stroke-linecap="round" transform="translate(231.55417527999498 -0.3080573050121984) rotate(333.434948822922 10 140)"><path d="M1.33 1.16 C1.33 1.16, 1.33 1.16, 1.33 1.16 M1.33 1.16 C1.33 1.16, 1.33 1.16, 1.33 1.16 M1.73 6.8 C3.11 4.83, 4.62 3.52, 6.32 1.52 M1.73 6.8 C2.55 5.5, 3.62 4.4, 6.32 1.52 M2.12 12.44 C4.66 8.16, 8.56 4.7, 11.96 1.12 M2.12 12.44 C5.34 7.98, 8.94 3.5, 11.96 1.12 M1.86 18.84 C9.02 14.45, 13.21 6.95, 17.6 0.73 M1.86 18.84 C7.81 12.47, 13.01 5.35, 17.6 0.73 M1.6 25.24 C6.35 16.64, 15.89 10.59, 19.97 4.11 M1.6 25.24 C5.2 20.2, 9.95 14.46, 19.97 4.11 M1.99 30.88 C10.06 22.52, 18.35 12.37, 22.33 7.49 M1.99 30.88 C8.45 24.32, 12.57 16.77, 22.33 7.49 M1.73 37.28 C11.18 28.41, 19.19 17.28, 22.72 13.13 M1.73 37.28 C5.91 32.05, 11.32 26.14, 22.72 13.13 M2.12 42.92 C8.82 33.11, 16.45 24.49, 22.46 19.53 M2.12 42.92 C7.35 38.12, 11.12 32.42, 22.46 19.53 M1.86 49.32 C7.77 42.62, 14.95 34.29, 22.86 25.17 M1.86 49.32 C7.05 45.02, 10.31 39.31, 22.86 25.17 M1.6 55.72 C7.43 50.3, 11.63 43.52, 22.6 31.57 M1.6 55.72 C9.12 48.12, 15.59 38.73, 22.6 31.57 M2 61.36 C9.61 54.06, 18.74 43.16, 22.33 37.97 M2 61.36 C9.84 53.02, 16.25 46.35, 22.33 37.97 M1.74 67.76 C10.69 56.99, 18.2 51.11, 22.73 43.61 M1.74 67.76 C7.84 61.31, 12.51 56.53, 22.73 43.61 M2.13 73.4 C11.28 66.91, 14.8 56.97, 22.47 50.01 M2.13 73.4 C8.89 64.58, 17.08 56.34, 22.47 50.01 M1.87 79.8 C10.84 71.43, 16.92 60.23, 22.86 55.65 M1.87 79.8 C5.49 74.01, 10.12 68.21, 22.86 55.65 M1.61 86.2 C8.96 78.45, 10.93 74.9, 22.6 62.05 M1.61 86.2 C8.42 78.62, 14.11 72.24, 22.6 62.05 M2 91.84 C4.19 87.53, 9.98 80.6, 22.34 68.44 M2 91.84 C10.33 83.59, 17.24 73.23, 22.34 68.44 M1.74 98.24 C7.65 90.05, 15.67 84.12, 22.73 74.09 M1.74 98.24 C7.09 93.3, 12.43 86.51, 22.73 74.09 M2.13 103.88 C10.39 96.21, 14.83 89.68, 22.47 80.49 M2.13 103.88 C9.68 94.23, 16.72 86.59, 22.47 80.49 M1.87 110.28 C8.32 103.55, 16.2 94.3, 22.87 86.13 M1.87 110.28 C6.6 103.07, 12.59 97.75, 22.87 86.13 M1.61 116.68 C5.92 108.82, 14.19 103.76, 22.61 92.53 M1.61 116.68 C7.28 111.17, 10.57 106.14, 22.61 92.53 M2.01 122.32 C7.93 114.45, 15.49 108.79, 22.34 98.92 M2.01 122.32 C9.56 113.47, 15.3 106.61, 22.34 98.92 M1.74 128.72 C7.72 124.72, 14.22 118.25, 22.74 104.57 M1.74 128.72 C6.47 122.27, 12.95 117.14, 22.74 104.57 M2.14 134.36 C9.6 126.94, 17.62 116.15, 22.48 110.97 M2.14 134.36 C9.16 126.49, 16.2 118.17, 22.48 110.97 M1.88 140.76 C9.21 133.45, 11.52 129.06, 22.87 116.61 M1.88 140.76 C8.46 133.42, 14.91 125.29, 22.87 116.61 M1.62 147.16 C10.01 137.36, 15.95 130.45, 22.61 123.01 M1.62 147.16 C7.28 141.57, 11.07 137.03, 22.61 123.01 M2.01 152.8 C7 148.14, 12.5 141.67, 22.35 129.4 M2.01 152.8 C9.7 143.94, 17.22 134.65, 22.35 129.4 M1.75 159.2 C10.39 149.49, 14.21 142.31, 22.74 135.05 M1.75 159.2 C8.19 150.7, 15.73 143.97, 22.74 135.05 M2.14 164.84 C8.77 157.47, 12.53 150.16, 22.48 141.44 M2.14 164.84 C6.83 157.94, 12.21 151.46, 22.48 141.44 M1.88 171.24 C8.4 162.39, 17.48 153.07, 22.88 147.09 M1.88 171.24 C6.91 166.03, 12.52 160, 22.88 147.09 M1.62 177.64 C7.63 170.82, 15.2 163.8, 22.62 153.49 M1.62 177.64 C7.43 170.76, 13.7 162.87, 22.62 153.49 M2.02 183.28 C9.75 174.34, 16.54 165.82, 22.35 159.88 M2.02 183.28 C7.3 176.15, 14.69 168.56, 22.35 159.88 M1.75 189.68 C9.19 181.22, 17.52 173.68, 22.75 165.53 M1.75 189.68 C8.71 181.72, 17.4 173.23, 22.75 165.53 M2.15 195.32 C5.63 187.29, 12.61 182.69, 22.49 171.92 M2.15 195.32 C11.13 185.21, 19.26 176, 22.49 171.92 M1.89 201.72 C11.67 193.07, 16.77 183.11, 22.88 177.57 M1.89 201.72 C8.71 193.15, 15.09 186.6, 22.88 177.57 M1.63 208.12 C9.7 198.69, 15.26 189.77, 22.62 183.96 M1.63 208.12 C5.73 202.38, 10.27 196.72, 22.62 183.96 M2.02 213.76 C7.85 209.67, 9.58 205.81, 22.36 190.36 M2.02 213.76 C7.03 208.99, 10.7 203.7, 22.36 190.36 M1.76 220.16 C7.09 210.88, 13.07 204.84, 22.75 196.01 M1.76 220.16 C9.03 212.21, 14.19 206.38, 22.75 196.01 M2.15 225.8 C5.63 220.81, 11.92 211.84, 22.49 202.4 M2.15 225.8 C7.74 220.03, 12.02 214.01, 22.49 202.4 M1.89 232.2 C8.65 221.58, 15.25 216.33, 22.23 208.8 M1.89 232.2 C9.93 223.82, 18.06 213.81, 22.23 208.8 M1.63 238.6 C7.69 229.69, 14.95 222.4, 22.62 214.44 M1.63 238.6 C8.87 230.54, 15.11 221.11, 22.62 214.44 M2.03 244.24 C8.31 233.46, 18.55 226.18, 22.36 220.84 M2.03 244.24 C6.75 238.93, 10.73 234.13, 22.36 220.84 M1.76 250.64 C11.03 240.1, 19.06 231.82, 22.76 226.49 M1.76 250.64 C6.76 245.09, 12.5 237.34, 22.76 226.49 M2.16 256.28 C5.4 252.4, 10.7 246.15, 22.5 232.88 M2.16 256.28 C9.5 247.02, 18.15 238.2, 22.5 232.88 M1.9 262.68 C6.32 254.82, 11.85 252.1, 22.24 239.28 M1.9 262.68 C6.69 257.32, 11.31 250.81, 22.24 239.28 M1.64 269.07 C6.38 260.5, 15.47 253.26, 22.63 244.92 M1.64 269.07 C10.37 258.85, 18.35 249.4, 22.63 244.92 M0.72 276.23 C6.81 269.59, 11.8 262.45, 22.37 251.32 M0.72 276.23 C8.72 266.03, 18.82 255.88, 22.37 251.32 M3.08 279.61 C10.12 269.38, 17.8 259.96, 22.76 256.96 M3.08 279.61 C10.16 272.76, 14.65 264.75, 22.76 256.96 M8.07 279.97 C11.87 275.13, 12.99 273.65, 22.5 263.36 M8.07 279.97 C11.42 275.08, 15.2 269.7, 22.5 263.36 M13.06 280.33 C16.27 277.78, 18.67 274.29, 22.24 269.76 M13.06 280.33 C15.78 276.73, 18.96 273.85, 22.24 269.76 M3.1 279.94 C3.1 279.94, 3.1 279.94, 3.1 279.94 M3.1 279.94 C3.1 279.94, 3.1 279.94, 3.1 279.94 M8.75 279.55 C7.71 278.71, 5.99 277.26, 1.2 272.99 M8.75 279.55 C6.57 278.07, 4.44 276.23, 1.2 272.99 M15.14 279.81 C10.41 274.78, 7.46 274.86, 1.56 268 M15.14 279.81 C8.94 274.99, 4.46 270.76, 1.56 268 M19.28 278.1 C12.12 272.51, 6.07 264.44, 1.17 262.36 M19.28 278.1 C12.91 271.88, 6.47 267.06, 1.17 262.36 M21.15 274.43 C17.72 268.39, 12.2 264.62, 1.53 257.37 M21.15 274.43 C15.01 270.55, 10.99 265.09, 1.53 257.37 M20.75 268.78 C15.56 265.09, 9.61 257.49, 1.89 252.38 M20.75 268.78 C16.56 264.39, 11.42 259.76, 1.89 252.38 M21.11 263.8 C15.39 260.64, 12.11 254.61, 1.49 246.74 M21.11 263.8 C13.95 257.58, 6.82 252.08, 1.49 246.74 M20.72 258.15 C15.74 254.29, 10.56 250.96, 1.85 241.75 M20.72 258.15 C17.74 255.44, 12.26 251.69, 1.85 241.75 M21.08 253.17 C14.63 246.84, 8.26 243.38, 1.46 236.11 M21.08 253.17 C13.81 246.93, 6.32 241.64, 1.46 236.11 M20.68 247.52 C17.3 242.37, 10.97 238.63, 1.82 231.12 M20.68 247.52 C15.83 242.59, 8.3 237.48, 1.82 231.12 M21.04 242.54 C15.62 236.58, 8.91 234.79, 1.42 225.48 M21.04 242.54 C16.33 239.51, 12.15 235.91, 1.42 225.48 M20.65 236.89 C15.08 232.25, 12.97 230.45, 1.78 220.49 M20.65 236.89 C17.22 232.33, 10.84 229.57, 1.78 220.49 M21.01 231.91 C17.81 226.39, 12.54 221.64, 1.39 214.85 M21.01 231.91 C14.03 226.25, 8.13 221.44, 1.39 214.85 M20.62 226.26 C16.9 220.73, 11.42 215.92, 1.75 209.86 M20.62 226.26 C14.61 221.55, 7.45 215.4, 1.75 209.86 M20.98 221.28 C13.24 214.85, 6.96 209.3, 1.35 204.22 M20.98 221.28 C14.02 214.45, 6.62 208.38, 1.35 204.22 M20.58 215.63 C13.85 211.03, 10.3 206.93, 1.71 199.23 M20.58 215.63 C16.01 210.8, 9.54 206.03, 1.71 199.23 M20.94 210.65 C13.61 204.35, 10.28 198.54, 1.32 193.59 M20.94 210.65 C14.09 206.01, 8.96 199.34, 1.32 193.59 M20.55 205 C17.04 199.89, 9.34 194.54, 1.68 188.6 M20.55 205 C16.56 201.94, 13.35 197.67, 1.68 188.6 M20.91 200.02 C15.06 194.25, 10.04 191.46, 1.28 182.96 M20.91 200.02 C14 194.57, 6.8 188.78, 1.28 182.96 M20.51 194.37 C14.15 190.83, 10.71 184.61, 1.64 177.97 M20.51 194.37 C14.72 188.63, 9.67 184.47, 1.64 177.97 M20.87 189.39 C13.16 184.33, 7.89 178.74, 1.25 172.33 M20.87 189.39 C14.98 184.2, 9.35 179.7, 1.25 172.33 M20.48 183.74 C16.87 180.52, 12.32 173.75, 1.61 167.34 M20.48 183.74 C14.14 178.99, 9.28 174.01, 1.61 167.34 M20.84 178.76 C16.71 172.39, 7.47 167.65, 1.21 161.7 M20.84 178.76 C13.54 173.09, 7.4 165.35, 1.21 161.7 M20.44 173.11 C16.53 168.04, 9.52 165.03, 1.57 156.71 M20.44 173.11 C13.94 167.11, 6.08 161.41, 1.57 156.71 M20.8 168.12 C16.97 166.41, 13.68 160.41, 1.18 151.07 M20.8 168.12 C15.33 162.68, 8.99 158.31, 1.18 151.07 M20.41 162.48 C12.74 158.37, 9.77 153.01, 1.54 146.08 M20.41 162.48 C14.76 156.79, 6.3 150.46, 1.54 146.08 M20.77 157.49 C14.61 152.8, 9.7 145.38, 1.15 140.44 M20.77 157.49 C14.36 151.11, 6.9 144.61, 1.15 140.44 M21.13 152.51 C14.05 147.01, 10.8 141.92, 1.51 135.45 M21.13 152.51 C14.51 145.47, 6.82 139.9, 1.51 135.45 M20.73 146.86 C13.75 143.32, 8.94 139.51, 1.87 130.46 M20.73 146.86 C15.95 142.97, 9.47 136.4, 1.87 130.46 M21.09 141.88 C15.1 134.99, 5.23 129.04, 1.47 124.82 M21.09 141.88 C13.58 136.98, 8.73 130.66, 1.47 124.82 M20.7 136.23 C15 132.2, 13.63 129.93, 1.83 119.83 M20.7 136.23 C15.74 130.6, 9.08 125.74, 1.83 119.83 M21.06 131.25 C16.02 124.05, 7.95 117.91, 1.44 114.19 M21.06 131.25 C16.99 127.74, 12.25 124.3, 1.44 114.19 M20.66 125.6 C14.26 119.78, 8.91 115.43, 1.8 109.2 M20.66 125.6 C12.69 118.37, 6.33 114.02, 1.8 109.2 M21.02 120.62 C12.67 112.34, 5.85 108.13, 1.4 103.56 M21.02 120.62 C15.91 115.32, 11.38 110.71, 1.4 103.56 M20.63 114.97 C16.35 110.39, 12.58 106.86, 1.76 98.57 M20.63 114.97 C13.97 110.6, 9.68 104.54, 1.76 98.57 M20.99 109.99 C17.62 106.25, 12.06 101.72, 1.37 92.93 M20.99 109.99 C14.45 104.78, 6.04 98.27, 1.37 92.93 M20.6 104.34 C17.06 98.5, 9.33 97.63, 1.73 87.94 M20.6 104.34 C16.22 101.52, 13.67 97.24, 1.73 87.94 M20.96 99.36 C14.04 92.04, 6.43 88.6, 1.33 82.3 M20.96 99.36 C14.26 92.15, 7.01 86.7, 1.33 82.3 M20.56 93.71 C14.29 88.88, 6 83.75, 1.69 77.31 M20.56 93.71 C13.31 88.51, 6.51 80.81, 1.69 77.31 M20.92 88.73 C14.66 83.44, 11.77 79.17, 1.3 71.67 M20.92 88.73 C13.13 83.15, 6.43 76.11, 1.3 71.67 M20.53 83.08 C14.81 76.84, 9.04 72.61, 1.66 66.68 M20.53 83.08 C15.9 78.52, 10.46 73.92, 1.66 66.68 M20.89 78.1 C15.53 74.41, 6.27 68.09, 1.26 61.04 M20.89 78.1 C14.35 73.47, 9.15 66.42, 1.26 61.04 M20.49 72.45 C13.22 66.22, 6.13 60.72, 1.62 56.05 M20.49 72.45 C13.81 67.78, 8.24 61.01, 1.62 56.05 M20.85 67.47 C16.69 63.17, 9.7 60.47, 1.23 50.41 M20.85 67.47 C16.34 63.27, 10.4 58.7, 1.23 50.41 M20.46 61.82 C16.36 58.97, 11.04 52.67, 1.59 45.42 M20.46 61.82 C14.18 57.22, 7.4 50.34, 1.59 45.42 M20.82 56.84 C14.44 51.6, 6.09 44.52, 1.2 39.78 M20.82 56.84 C12.77 49.7, 5.93 43.44, 1.2 39.78 M20.42 51.19 C15.03 47.04, 7.37 41.09, 1.56 34.79 M20.42 51.19 C12.3 44.85, 6.27 37.6, 1.56 34.79 M20.78 46.21 C16.99 41.64, 12.89 38.09, 1.16 29.15 M20.78 46.21 C12.54 39.81, 5.75 33.94, 1.16 29.15 M21.14 41.22 C16.88 37.74, 13.21 31.76, 1.52 24.16 M21.14 41.22 C15.23 36.17, 10.45 31.63, 1.52 24.16 M20.75 35.58 C17.09 31.64, 12.3 27.66, 1.88 19.18 M20.75 35.58 C16.38 30.77, 11.22 28.77, 1.88 19.18 M21.11 30.59 C15.01 24.29, 10.05 21.46, 1.49 13.53 M21.11 30.59 C16.48 25.94, 11.53 22.13, 1.49 13.53 M20.71 24.95 C15.08 19.97, 7.33 14.07, 1.85 8.55 M20.71 24.95 C13.76 19.99, 7.31 13.68, 1.85 8.55 M21.07 19.96 C14.11 15.96, 8.95 10.62, 1.45 2.9 M21.07 19.96 C13.81 13.49, 6.5 7.28, 1.45 2.9 M20.68 14.32 C15.74 7.82, 9.93 2.79, 3.32 -0.77 M20.68 14.32 C16.09 10.1, 12.54 6.19, 3.32 -0.77 M21.04 9.33 C18.11 3.99, 11.42 1.92, 7.46 -2.48 M21.04 9.33 C16.72 4.96, 10.93 0.67, 7.46 -2.48 M20.65 3.69 C18.21 2.71, 16.81 0.19, 13.85 -2.22 M20.65 3.69 C19.18 2.74, 18.02 1.6, 13.85 -2.22" stroke="#333333" stroke-width="0.5" fill="none"></path><path d="M5 0 M5 0 C7.78 0.01, 9.45 0.56, 15 0 M5 0 C8.68 -0.24, 11.34 0.18, 15 0 M15 0 C16.49 -0.85, 20.52 1.95, 20 5 M15 0 C18.39 -0.05, 21.92 3.89, 20 5 M20 5 C22.32 72.54, 19.76 140.73, 20 275 M20 5 C18.29 93.25, 17.96 183, 20 275 M20 275 C18.59 276.66, 16.57 281.66, 15 280 M20 275 C18.91 276.48, 18.65 280.71, 15 280 M15 280 C11.62 279.88, 9.33 280.88, 5 280 M15 280 C12.54 279.82, 8.7 280.2, 5 280 M5 280 C0.1 281.72, -0.17 277.63, 0 275 M5 280 C0.97 278.07, 2.07 279.65, 0 275 M0 275 C2 183.42, 0.22 91.42, 0 5 M0 275 C1.74 215.07, 0.72 156.42, 0 5 M0 5 C0.56 0.6, 3.56 0.44, 5 0 M0 5 C-0.98 1.62, 1.02 -2.28, 5 0" stroke="#343a40" stroke-width="1" fill="none"></path></g><g stroke-linecap="round" transform="translate(551.5541752799934 -0.3080573050121984) rotate(26.56505117707799 10 140)"><path d="M1.33 1.16 C1.33 1.16, 1.33 1.16, 1.33 1.16 M1.33 1.16 C1.33 1.16, 1.33 1.16, 1.33 1.16 M1.73 6.8 C3.88 4.28, 5.69 2.32, 6.32 1.52 M1.73 6.8 C3.14 5.22, 5.04 3.3, 6.32 1.52 M2.12 12.44 C4.74 11.29, 6.56 6.02, 11.96 1.12 M2.12 12.44 C5.4 7.95, 8.6 3.74, 11.96 1.12 M1.86 18.84 C9.43 11.3, 14.82 4.04, 17.6 0.73 M1.86 18.84 C6.27 13.63, 12.98 6.2, 17.6 0.73 M1.6 25.24 C8.09 18.16, 10.25 14.25, 19.97 4.11 M1.6 25.24 C5.83 20.04, 10.05 14.96, 19.97 4.11 M1.99 30.88 C6.4 26.24, 12.35 17.57, 22.33 7.49 M1.99 30.88 C6.18 26.02, 11.73 21.04, 22.33 7.49 M1.73 37.28 C10.37 29.34, 17.42 16.69, 22.72 13.13 M1.73 37.28 C7.93 30.63, 14.69 23.43, 22.72 13.13 M2.12 42.92 C6.82 36.51, 12.76 33.75, 22.46 19.53 M2.12 42.92 C6.32 38.89, 10.28 33.43, 22.46 19.53 M1.86 49.32 C7.13 40.42, 16.9 33.68, 22.86 25.17 M1.86 49.32 C9 40.84, 17.84 31.02, 22.86 25.17 M1.6 55.72 C7.64 45.11, 16.48 37.7, 22.6 31.57 M1.6 55.72 C6.25 51.19, 11.68 45.51, 22.6 31.57 M2 61.36 C6.93 54.12, 12.31 50.63, 22.33 37.97 M2 61.36 C9.41 52.89, 17.05 44.03, 22.33 37.97 M1.74 67.76 C7.15 59.01, 12.93 52.89, 22.73 43.61 M1.74 67.76 C9.39 57.75, 18.76 49.34, 22.73 43.61 M2.13 73.4 C8.39 65.63, 16.5 57.94, 22.47 50.01 M2.13 73.4 C8.33 66.42, 15.79 58.32, 22.47 50.01 M1.87 79.8 C7.77 73.56, 13.12 67.2, 22.86 55.65 M1.87 79.8 C11.09 71.16, 17.94 60.21, 22.86 55.65 M1.61 86.2 C10.77 77.06, 15.61 70.1, 22.6 62.05 M1.61 86.2 C10.58 77.55, 17.22 68.27, 22.6 62.05 M2 91.84 C9.88 83.99, 19.59 72.02, 22.34 68.44 M2 91.84 C7.1 86.72, 11.83 79.46, 22.34 68.44 M1.74 98.24 C7.34 88.08, 16.84 82.67, 22.73 74.09 M1.74 98.24 C5.3 92.99, 10.91 87.98, 22.73 74.09 M2.13 103.88 C11.76 94.58, 17.59 87.52, 22.47 80.49 M2.13 103.88 C9.89 93.92, 18.24 86.7, 22.47 80.49 M1.87 110.28 C4.73 107.36, 10.38 99.6, 22.87 86.13 M1.87 110.28 C8.38 102.31, 15.28 93.79, 22.87 86.13 M1.61 116.68 C7.44 108.24, 14.09 101.81, 22.61 92.53 M1.61 116.68 C8.17 109, 16.12 100.27, 22.61 92.53 M2.01 122.32 C11.18 114.73, 15.58 106.32, 22.34 98.92 M2.01 122.32 C8.07 115.71, 14.44 108.35, 22.34 98.92 M1.74 128.72 C6.83 120.52, 15.96 115.21, 22.74 104.57 M1.74 128.72 C7.23 123.22, 12.45 118.23, 22.74 104.57 M2.14 134.36 C8.1 127.6, 9.89 124.49, 22.48 110.97 M2.14 134.36 C10.27 125.04, 18.2 115.45, 22.48 110.97 M1.88 140.76 C8.43 134.49, 13.32 125.79, 22.87 116.61 M1.88 140.76 C9.64 132.16, 16.16 123.85, 22.87 116.61 M1.62 147.16 C9.83 138.02, 15.39 130.76, 22.61 123.01 M1.62 147.16 C7.4 142.22, 10.7 135.44, 22.61 123.01 M2.01 152.8 C7.01 146.87, 12.6 140.82, 22.35 129.4 M2.01 152.8 C7.98 144.45, 14.85 136.67, 22.35 129.4 M1.75 159.2 C10.77 150.21, 18.63 140.59, 22.74 135.05 M1.75 159.2 C7.84 151.64, 14.98 143.38, 22.74 135.05 M2.14 164.84 C9.41 155.1, 15.09 149.18, 22.48 141.44 M2.14 164.84 C10.64 155.07, 16.8 146.04, 22.48 141.44 M1.88 171.24 C7.31 165.18, 16.06 157.26, 22.88 147.09 M1.88 171.24 C8.01 165.01, 12.71 157.82, 22.88 147.09 M1.62 177.64 C8.89 169.14, 16.43 161.16, 22.62 153.49 M1.62 177.64 C7.63 170.84, 12.93 163.42, 22.62 153.49 M2.02 183.28 C7.73 175.27, 17.18 169.63, 22.35 159.88 M2.02 183.28 C6.43 178.42, 12.51 173.12, 22.35 159.88 M1.75 189.68 C6.56 182.3, 13.79 176.6, 22.75 165.53 M1.75 189.68 C8.52 182.12, 15.29 174.69, 22.75 165.53 M2.15 195.32 C8.98 188.63, 11.81 183.52, 22.49 171.92 M2.15 195.32 C6.57 190.96, 11.08 183.98, 22.49 171.92 M1.89 201.72 C8.57 195.27, 14.74 188.06, 22.88 177.57 M1.89 201.72 C6.02 197.46, 11.01 191.71, 22.88 177.57 M1.63 208.12 C9.44 202.02, 12.16 195.8, 22.62 183.96 M1.63 208.12 C7.14 201.98, 10.61 197.15, 22.62 183.96 M2.02 213.76 C5.9 210.86, 9.08 202.63, 22.36 190.36 M2.02 213.76 C8.92 205.8, 17.24 196.67, 22.36 190.36 M1.76 220.16 C9.89 211.65, 15.79 200.15, 22.75 196.01 M1.76 220.16 C8.2 214.04, 13.2 206, 22.75 196.01 M2.15 225.8 C7.31 216.67, 17.56 209.14, 22.49 202.4 M2.15 225.8 C6.86 219.26, 11.48 214.38, 22.49 202.4 M1.89 232.2 C11.21 222.08, 17.71 213.77, 22.23 208.8 M1.89 232.2 C9.36 223.61, 17.37 214.93, 22.23 208.8 M1.63 238.6 C6.78 233.12, 11.74 226, 22.62 214.44 M1.63 238.6 C10.69 229.36, 18.53 219.65, 22.62 214.44 M2.03 244.24 C4.88 238.6, 11.62 234.12, 22.36 220.84 M2.03 244.24 C9.34 236.13, 17.9 226.59, 22.36 220.84 M1.76 250.64 C9.11 246.29, 14.29 238.67, 22.76 226.49 M1.76 250.64 C8.3 243.48, 14.89 235.52, 22.76 226.49 M2.16 256.28 C7.7 251.7, 13.11 246.03, 22.5 232.88 M2.16 256.28 C7.72 250.1, 14.63 242.03, 22.5 232.88 M1.9 262.68 C6.8 256.01, 9.93 253.63, 22.24 239.28 M1.9 262.68 C8.62 256.04, 14.77 247.22, 22.24 239.28 M1.64 269.07 C8.91 259.54, 17.84 251.89, 22.63 244.92 M1.64 269.07 C6.32 261.92, 12.75 256.91, 22.63 244.92 M0.72 276.23 C5.92 271.4, 10.08 264.26, 22.37 251.32 M0.72 276.23 C5.94 268.78, 11.9 262.16, 22.37 251.32 M3.08 279.61 C9.78 273.33, 13.6 267.7, 22.76 256.96 M3.08 279.61 C8.24 273.94, 14.54 267.22, 22.76 256.96 M8.07 279.97 C11.08 278.5, 15.83 271.25, 22.5 263.36 M8.07 279.97 C12.7 273.63, 17.82 268, 22.5 263.36 M13.06 280.33 C15.82 278.69, 18.69 275.58, 22.24 269.76 M13.06 280.33 C15.09 278.35, 18.16 275.69, 22.24 269.76 M3.1 279.94 C3.1 279.94, 3.1 279.94, 3.1 279.94 M3.1 279.94 C3.1 279.94, 3.1 279.94, 3.1 279.94 M8.75 279.55 C6.92 277.19, 4.9 274.98, 1.2 272.99 M8.75 279.55 C6.43 278.03, 5.38 276.22, 1.2 272.99 M15.14 279.81 C11.96 276.64, 6.81 272.17, 1.56 268 M15.14 279.81 C12.47 276.95, 7.66 273.74, 1.56 268 M19.28 278.1 C12.52 274.16, 9.21 270.95, 1.17 262.36 M19.28 278.1 C16.56 273.85, 12.51 270.63, 1.17 262.36 M21.15 274.43 C15.09 267.86, 6.82 261.85, 1.53 257.37 M21.15 274.43 C16.15 269.37, 10.93 264.24, 1.53 257.37 M20.75 268.78 C18.01 266.39, 13.11 261.95, 1.89 252.38 M20.75 268.78 C16.92 266.19, 13.36 261.7, 1.89 252.38 M21.11 263.8 C13.77 260.02, 8.75 254.76, 1.49 246.74 M21.11 263.8 C15.45 258.03, 9.11 252.63, 1.49 246.74 M20.72 258.15 C12.53 251.52, 8.76 245.41, 1.85 241.75 M20.72 258.15 C16.36 255.19, 12.72 250.59, 1.85 241.75 M21.08 253.17 C13.83 246.26, 6.72 240.98, 1.46 236.11 M21.08 253.17 C13.44 246.48, 7.01 241.01, 1.46 236.11 M20.68 247.52 C14.84 244.87, 12.72 240.39, 1.82 231.12 M20.68 247.52 C15.55 241.95, 9.02 237.34, 1.82 231.12 M21.04 242.54 C16.35 235.74, 11.68 232.51, 1.42 225.48 M21.04 242.54 C13.41 235.92, 4.58 228.53, 1.42 225.48 M20.65 236.89 C16.62 233.32, 10.16 228.91, 1.78 220.49 M20.65 236.89 C16 231.36, 9.59 228, 1.78 220.49 M21.01 231.91 C12.8 226.31, 6.87 219.4, 1.39 214.85 M21.01 231.91 C13.61 224.95, 6.06 218.04, 1.39 214.85 M20.62 226.26 C16.82 219.55, 9.59 217.45, 1.75 209.86 M20.62 226.26 C16.35 221.42, 11.58 218.28, 1.75 209.86 M20.98 221.28 C17.43 215.87, 9.83 211.91, 1.35 204.22 M20.98 221.28 C13.84 213.94, 4.48 206.77, 1.35 204.22 M20.58 215.63 C12.17 209.9, 4.35 201.96, 1.71 199.23 M20.58 215.63 C16.99 211.46, 12.01 208.03, 1.71 199.23 M20.94 210.65 C12.23 205.01, 7.77 196.38, 1.32 193.59 M20.94 210.65 C14.44 205.73, 8.7 200.14, 1.32 193.59 M20.55 205 C15.86 202.11, 8.56 195.12, 1.68 188.6 M20.55 205 C14.21 199.2, 6.27 193.32, 1.68 188.6 M20.91 200.02 C17.23 195.39, 13.4 191.73, 1.28 182.96 M20.91 200.02 C13.06 193.84, 6.26 187.48, 1.28 182.96 M20.51 194.37 C14.76 191, 13.28 185.32, 1.64 177.97 M20.51 194.37 C15.26 190.25, 10.39 185.46, 1.64 177.97 M20.87 189.39 C12.35 180.91, 5.37 175.73, 1.25 172.33 M20.87 189.39 C14.47 184.1, 8.93 179.5, 1.25 172.33 M20.48 183.74 C16.11 179.93, 10.49 175.46, 1.61 167.34 M20.48 183.74 C15.33 178.74, 9.45 174.33, 1.61 167.34 M20.84 178.76 C15.38 174.58, 11.53 171.59, 1.21 161.7 M20.84 178.76 C15.09 173.87, 9.57 169.69, 1.21 161.7 M20.44 173.11 C15.93 169.72, 11.31 165.62, 1.57 156.71 M20.44 173.11 C15.55 167.85, 8.16 164.17, 1.57 156.71 M20.8 168.12 C12.09 162.26, 5.83 154.53, 1.18 151.07 M20.8 168.12 C16.54 164.13, 11.41 160.87, 1.18 151.07 M20.41 162.48 C12.17 157.32, 6.22 148.96, 1.54 146.08 M20.41 162.48 C13.97 157.61, 8.63 153.93, 1.54 146.08 M20.77 157.49 C14.54 153.08, 7.91 146.01, 1.15 140.44 M20.77 157.49 C14.06 150.21, 4.74 145.41, 1.15 140.44 M21.13 152.51 C14.37 147.07, 6.78 143.34, 1.51 135.45 M21.13 152.51 C15.13 147.33, 9.54 141.15, 1.51 135.45 M20.73 146.86 C17.61 144.39, 10.21 140.65, 1.87 130.46 M20.73 146.86 C12.94 140.58, 7.21 133.61, 1.87 130.46 M21.09 141.88 C13.74 138.08, 8.53 131.64, 1.47 124.82 M21.09 141.88 C13.29 135.32, 6.22 128.07, 1.47 124.82 M20.7 136.23 C15.77 134.37, 12.13 127.95, 1.83 119.83 M20.7 136.23 C13.95 129.43, 6.6 122.54, 1.83 119.83 M21.06 131.25 C18.27 127.59, 13.38 125.32, 1.44 114.19 M21.06 131.25 C12.53 125.58, 5.36 118.93, 1.44 114.19 M20.66 125.6 C13.87 120.02, 5.65 111.8, 1.8 109.2 M20.66 125.6 C17.05 121.5, 13.67 119.54, 1.8 109.2 M21.02 120.62 C17.25 116.79, 13.67 111.95, 1.4 103.56 M21.02 120.62 C13.19 114.68, 6.48 108.47, 1.4 103.56 M20.63 114.97 C11.77 106.92, 4.85 100.93, 1.76 98.57 M20.63 114.97 C15.52 110.81, 10.32 105.83, 1.76 98.57 M20.99 109.99 C16.28 106.19, 8.67 98.31, 1.37 92.93 M20.99 109.99 C17.75 107, 13.51 102.15, 1.37 92.93 M20.6 104.34 C16.24 99.43, 12.87 95.89, 1.73 87.94 M20.6 104.34 C13.74 98.28, 7.93 92.96, 1.73 87.94 M20.96 99.36 C14.49 94.45, 11.83 91.52, 1.33 82.3 M20.96 99.36 C15.93 95.02, 11.97 91.83, 1.33 82.3 M20.56 93.71 C13.37 89.27, 8.16 83.25, 1.69 77.31 M20.56 93.71 C14.26 87.5, 7.68 82.57, 1.69 77.31 M20.92 88.73 C15.58 80.29, 8.09 76.95, 1.3 71.67 M20.92 88.73 C15.22 84.82, 11.35 79.27, 1.3 71.67 M20.53 83.08 C16.01 79.68, 8.93 74.56, 1.66 66.68 M20.53 83.08 C13.94 77.77, 6.35 72.3, 1.66 66.68 M20.89 78.1 C16 74.21, 7.6 68.78, 1.26 61.04 M20.89 78.1 C14.8 73.36, 11.08 68.3, 1.26 61.04 M20.49 72.45 C15.56 70, 12.19 64.82, 1.62 56.05 M20.49 72.45 C15.38 67.61, 9.66 63, 1.62 56.05 M20.85 67.47 C14.12 62.38, 9.4 59.07, 1.23 50.41 M20.85 67.47 C13.87 61.8, 7.01 54.95, 1.23 50.41 M20.46 61.82 C14.87 56.15, 8.09 49.23, 1.59 45.42 M20.46 61.82 C14.38 58.42, 10.01 53.43, 1.59 45.42 M20.82 56.84 C15.82 52.32, 8.65 47.43, 1.2 39.78 M20.82 56.84 C15.18 52.22, 10.62 48.21, 1.2 39.78 M20.42 51.19 C15.74 44.73, 9.05 42.16, 1.56 34.79 M20.42 51.19 C13.45 44.74, 7.74 39.45, 1.56 34.79 M20.78 46.21 C13.04 41.06, 9.27 35.41, 1.16 29.15 M20.78 46.21 C13.99 41.65, 8.45 35.22, 1.16 29.15 M21.14 41.22 C14.73 36.82, 8.15 29.27, 1.52 24.16 M21.14 41.22 C16.27 37.61, 13.01 34.15, 1.52 24.16 M20.75 35.58 C14.58 32.2, 8.98 26.11, 1.88 19.18 M20.75 35.58 C15.53 31.2, 11.24 26.75, 1.88 19.18 M21.11 30.59 C14.73 26.07, 9.08 18.69, 1.49 13.53 M21.11 30.59 C17.3 26.5, 13.35 24.34, 1.49 13.53 M20.71 24.95 C13.27 19.53, 7.64 13.28, 1.85 8.55 M20.71 24.95 C15.92 19.94, 10.56 15.74, 1.85 8.55 M21.07 19.96 C14.3 12.81, 8.18 8.16, 1.45 2.9 M21.07 19.96 C15.97 13.98, 9.48 8.28, 1.45 2.9 M20.68 14.32 C16.16 9.61, 12.9 6.46, 3.32 -0.77 M20.68 14.32 C15 9.7, 8.89 3.36, 3.32 -0.77 M21.04 9.33 C16.94 5.72, 12.81 -0.03, 7.46 -2.48 M21.04 9.33 C17.4 6.46, 14.71 3.08, 7.46 -2.48 M20.65 3.69 C19.47 2.68, 16.1 0.61, 13.85 -2.22 M20.65 3.69 C18.7 2.28, 17.33 0.53, 13.85 -2.22" stroke="#333333" stroke-width="0.5" fill="none"></path><path d="M5 0 M5 0 C7.97 -0.44, 11.8 -0.22, 15 0 M5 0 C7.84 0.1, 10.38 -0.29, 15 0 M15 0 C20.06 -1.43, 19.41 2.38, 20 5 M15 0 C20.29 -0.68, 17.85 3.91, 20 5 M20 5 C19.69 94.46, 21.55 183.9, 20 275 M20 5 C17.61 96.44, 18.3 188.76, 20 275 M20 275 C21.16 278.78, 19.77 278.83, 15 280 M20 275 C19.34 277.14, 19.18 279.9, 15 280 M15 280 C13.08 279.68, 10.57 279.47, 5 280 M15 280 C12.18 280.04, 9.85 279.92, 5 280 M5 280 C1.62 281.67, 1.94 277.39, 0 275 M5 280 C3.04 277.97, 1.55 277.3, 0 275 M0 275 C-0.25 219.24, 1.08 163.42, 0 5 M0 275 C-0.56 203.98, 0.74 133.97, 0 5 M0 5 C-1.61 1.94, 2.28 -0.87, 5 0 M0 5 C1.64 2.07, -0.2 -0.31, 5 0" stroke="#343a40" stroke-width="1" fill="none"></path></g><g stroke-linecap="round"><g transform="translate(411.41948314775414 471.3306618165225) rotate(0 99.96148067303261 -120.45710689770215)" fill-rule="evenodd"><path d="M1.73 -0.99 L198.38 -141.71 L201.42 -239.84 L-0.16 -100.92 L0.64 1.51" stroke="none" stroke-width="0" fill="#868e96" fill-rule="evenodd"></path><path d="M-1.42 -1.22 C50.89 -34.95, 98.86 -71.54, 198.4 -140.13 M0.26 0.42 C54.49 -37.29, 109.73 -76.49, 198.43 -140.72 M198.45 -138.65 C197.26 -173.38, 200.8 -207.41, 201.04 -241.33 M199.49 -140.5 C198.46 -168.31, 199.11 -196.16, 199.93 -239.51 M201.34 -239.81 C136.81 -194.41, 69.77 -147.61, 0.39 -100.37 M200.65 -239.92 C142.22 -201.01, 85.99 -161.72, 0.78 -100.02 M-1.07 -100.42 C-0.1 -75.25, -1.63 -51.43, 1.43 -0.07 M0.44 -99.3 C-1.37 -76.81, -0.66 -53.82, -0.52 0.28 M0 0 C0 0, 0 0, 0 0 M0 0 C0 0, 0 0, 0 0" stroke="#343a40" stroke-width="1" fill="none"></path></g></g><mask></mask><g stroke-linecap="round"><g transform="translate(11.619283413386711 469.65059670743244) rotate(0 99.63664697639149 -119.60249367491747)" fill-rule="evenodd"><path d="M-0.31 -99.64 C-0.31 -99.64, -0.31 -99.64, -0.31 -99.64 M-0.31 -99.64 C-0.31 -99.64, -0.31 -99.64, -0.31 -99.64 M1.21 -94.76 C4.6 -98.68, 7.35 -102.19, 14.12 -109.57 M-0.47 -93.03 C3.33 -98.51, 6.88 -101.93, 14.47 -109.99 M-0.77 -87.06 C5.52 -95, 13.83 -103.06, 29.23 -121 M0.67 -88.57 C10.01 -99.22, 20.8 -111.99, 27.18 -119.79 M0.17 -82.38 C14.15 -95.38, 24.45 -110.98, 42.3 -130 M0.59 -81.24 C11.5 -94.39, 20.65 -105.43, 40.95 -129.38 M-0.13 -77.16 C13.47 -89.8, 27.65 -108.51, 53.37 -137.1 M0.04 -75.16 C21.65 -100.79, 44.1 -125.63, 54.22 -138.14 M0.45 -69.36 C16.38 -88.37, 30.48 -105.2, 68.08 -146.42 M-0.45 -68.28 C21.28 -94.41, 44.34 -118.67, 68.06 -148.34 M1.15 -64.05 C15.4 -80.87, 34.1 -101.19, 80.53 -155.48 M0.48 -63.64 C18.55 -84.19, 37.71 -105.83, 82.22 -157.73 M-0.86 -56.89 C34.46 -94.79, 65.83 -132.86, 94.01 -167 M-0.8 -57.78 C22.01 -83.4, 47.1 -110.59, 94.27 -167.11 M-1.03 -51.3 C25.46 -82.04, 52.33 -113.06, 107.89 -174.72 M0.77 -51.54 C22.87 -77.35, 46.63 -102.89, 107.69 -176.96 M-1.89 -46.16 C26.67 -75.07, 53.1 -104.61, 122.4 -187.22 M-0.25 -44.68 C23.64 -73.69, 50.05 -102.4, 122.93 -185.01 M0.29 -37.17 C37.32 -82.83, 74.36 -126.36, 137.2 -193.82 M-0.11 -38.72 C32.87 -76.21, 66.57 -114.74, 135.53 -194.84 M0.62 -31.63 C48.39 -90.5, 95.45 -144.72, 149.29 -203.89 M0.34 -33.26 C57.47 -100.03, 115.19 -166.7, 149.2 -203.6 M0.08 -26.71 C41.69 -76.37, 82.4 -126.87, 161.96 -213.56 M0.57 -27.32 C59.16 -94.22, 119.18 -163.16, 162.1 -213.94 M0.87 -21.08 C64.69 -92.7, 124.74 -167.46, 174.99 -224.47 M-0.2 -21.46 C59.66 -88.83, 119.27 -157.57, 175.41 -223.08 M-0.87 -15.04 C46.83 -70.56, 94.06 -122.98, 190.39 -231.87 M0.7 -14.8 C64.65 -92.53, 130.95 -168.52, 189.68 -233.37 M0.89 -7.57 C50.11 -65.55, 98.54 -120.99, 201.24 -240.11 M-0.15 -7.54 C47.33 -62.92, 95.76 -117.49, 200.29 -239.3 M-0.29 -2.91 C69.18 -83.25, 141.33 -166.08, 200.56 -233.53 M0.58 -2.8 C57.4 -68.7, 115.23 -136.04, 200.88 -234.17 M2.37 2.68 C69.34 -74.82, 138.85 -155.19, 201.34 -226.69 M2.4 1.62 C79.91 -89.48, 159.16 -180.58, 201.13 -227.23 M15.97 -7.68 C56.3 -52.02, 95.57 -96.72, 200.25 -220.05 M14.61 -7.95 C66.02 -63.47, 115.27 -120.4, 199.93 -220.5 M30.03 -19.31 C74.22 -70.14, 118.68 -120.2, 201.45 -215.67 M29.45 -17.98 C92.51 -92.33, 158.43 -166.82, 200.67 -213.94 M42.72 -27.2 C92.94 -83.83, 141.58 -141.9, 202 -207.37 M42.28 -28.16 C80.28 -69.02, 117.68 -112.18, 200.58 -208.96 M55.27 -38.65 C87.49 -73.56, 119.53 -110.09, 198.63 -203.38 M56.16 -36.36 C95.35 -83.85, 137.06 -130.52, 199.58 -201.65 M70.26 -47.01 C105.62 -88.95, 141.86 -130.92, 198.04 -196.37 M70.68 -47.03 C116.33 -98.36, 163.51 -151.36, 200.02 -196.32 M84.66 -58.19 C118.62 -96.32, 156.12 -138.69, 198.85 -190.08 M84.31 -55.75 C112.22 -88.62, 138.04 -119.46, 199.37 -189.99 M98.47 -66.59 C132.62 -103.8, 165.3 -146.42, 200.14 -181.95 M97.01 -66.12 C126.58 -97.48, 154.07 -127.8, 200.78 -183.14 M110.4 -76.17 C130.03 -97.71, 152.16 -119.89, 201.08 -178.83 M110.45 -75.51 C138.72 -107.29, 167.72 -140.04, 200.01 -176.86 M123.89 -85.44 C148.5 -111.01, 168.93 -137.39, 199.51 -171.46 M124.35 -85.56 C140.26 -103.31, 155.55 -119.03, 199.35 -171.84 M139.19 -94.82 C156.88 -115.94, 178.85 -140.73, 198.75 -164.04 M139.93 -94.24 C152.88 -112.24, 168.51 -128.96, 200.8 -165.72 M151.58 -103.43 C169.74 -127.04, 186.83 -148.05, 200.45 -157.78 M152.37 -104.48 C166.3 -118.82, 179.61 -135.67, 200.16 -159.42 M166.09 -115.4 C177.03 -128.69, 188.72 -141.31, 201.34 -151.23 M166.86 -113.23 C173.96 -123.96, 182.61 -133.29, 200.04 -153.24 M179.71 -124.71 C188.44 -131.62, 193.93 -138, 197.42 -147.07 M179.03 -124.1 C183.16 -128.08, 188.57 -133.38, 199.39 -146.47 M0 0 C0 0, 0 0, 0 0 M0 0 C0 0, 0 0, 0 0 M3.32 -2.06 C2.33 -3.23, 1.48 -4.09, 0.16 -5.11 M3.29 -2.28 C2.26 -3.47, 1 -4.35, 0.34 -5 M6.51 -4.35 C3.81 -7, 1.57 -9.39, 0.09 -10.77 M6.59 -4.55 C5.12 -6.59, 3.46 -8.03, -0.28 -10.97 M9.26 -7.77 C8.19 -10.05, 5.2 -9.99, -0.81 -15.82 M10.09 -7.64 C7.71 -8.43, 6.56 -10.61, 0.77 -15.68 M13.12 -7.89 C9.36 -12.72, 3.94 -14.78, 0.56 -22.13 M12.72 -10.06 C8.94 -13.94, 4.19 -18.08, -0.34 -21.19 M16.79 -12.1 C13.93 -17, 10.84 -17.77, -1.5 -26.63 M17.37 -12.26 C10.94 -16.03, 4.89 -22.88, -0.54 -26.57 M19.96 -16.08 C15 -19.34, 9.16 -24.02, 0.9 -30.15 M20.36 -14.23 C12.49 -21.12, 5.93 -26.64, -0.74 -31.17 M21.71 -15.52 C15.45 -23.45, 9.01 -31.17, 1.99 -38.55 M23.54 -16.07 C17.54 -21.72, 11.24 -27.88, 0.52 -36.14 M27.12 -17.15 C16.89 -30.01, 5.75 -37.81, 0.11 -43.42 M26.8 -18.51 C18.36 -25.23, 11.92 -33.96, 0.53 -43.32 M31.97 -22.45 C21.29 -26.27, 14.52 -32.2, -1.29 -46.75 M31.1 -20.64 C20.92 -30.43, 11.17 -38.5, 0.48 -46.58 M33.61 -25.38 C23.28 -33.64, 12.32 -42.88, 1.06 -53.98 M34.54 -24.43 C21.69 -35.16, 8.33 -45.95, 0.54 -52.7 M35.75 -24.24 C26.9 -34.34, 19.8 -42, -0.87 -58.57 M37.46 -26.37 C27.32 -34.19, 18.03 -41.72, -0.01 -58.65 M39.27 -27.48 C31.49 -35.12, 23.43 -43.24, 0.35 -63.07 M40.54 -28.06 C24.57 -42.04, 10.4 -54.87, 0.24 -64.5 M43.03 -29.5 C34.93 -41.63, 23.95 -50.49, 0.48 -67.67 M43.88 -29.76 C29.96 -42.1, 18.19 -52.69, 1.03 -68.71 M46.7 -32.47 C38.06 -42.16, 27.03 -53.91, -1.63 -75.24 M47.12 -33.06 C33.63 -45.08, 18.52 -59.22, -0.57 -75.02 M51.56 -34.14 C37.54 -48.39, 22.1 -60.67, 0.79 -79.95 M50.49 -36.41 C36.14 -48.3, 23.09 -59.5, -0.01 -79.74 M55.3 -37.65 C41.82 -49.59, 29.5 -59.66, 1.26 -84.28 M54.95 -37.74 C34.66 -55.79, 14.71 -72.74, -0.22 -84.65 M56.87 -39.34 C43.37 -51.56, 25.01 -68.25, 0.84 -91.61 M57.25 -40.04 C40.08 -56.14, 21.79 -70.18, 0.57 -90.32 M59.24 -42.58 C41.44 -58.01, 18.63 -78.15, -1.04 -95.27 M60.06 -41.99 C42.46 -58.87, 23.13 -75.22, -0.18 -94.93 M62.27 -45.56 C51.36 -57.67, 39.19 -70.28, -1.77 -99.13 M65.02 -45.48 C46.85 -60.22, 27.27 -75.37, 0.86 -101.64 M69.48 -47.12 C45.04 -65.88, 26.16 -86.97, 2.98 -103.32 M66.86 -46.31 C50.24 -63.06, 33.04 -77.92, 3.71 -102.18 M72.87 -50.54 C49.9 -69.1, 24.75 -87.58, 8.1 -107.36 M70.48 -49.67 C45.97 -71.62, 20.26 -93.83, 7.1 -104.61 M75.75 -53.4 C58.11 -65.38, 45.19 -78.01, 12.06 -106.73 M75.08 -52.82 C60.09 -63.77, 47.77 -76.21, 9.92 -107.8 M77.54 -55.32 C60.12 -70.78, 40.63 -88.57, 12.8 -109.27 M77.2 -54.64 C63.86 -65.74, 51.6 -77.06, 14.28 -110.54 M80.58 -55.84 C63.54 -72.19, 41.13 -91.11, 16.47 -111.05 M80.85 -56.24 C62.96 -72.86, 44.78 -89.73, 16.56 -113.25 M82.94 -58.2 C67.16 -73.43, 49.83 -88.29, 20.27 -114.15 M84.59 -58.56 C69.47 -71.77, 56.14 -84.61, 19.57 -114.46 M89.25 -63.15 C61.66 -84.67, 39.4 -103.87, 25.26 -118.49 M87.64 -60.92 C61.75 -82.39, 37.59 -105.46, 23.59 -116.49 M91.51 -64.76 C78.98 -76.72, 62.14 -86.99, 27.2 -119.62 M90.93 -64.68 C74.52 -78.43, 59.26 -91.95, 26.48 -119.99 M95.86 -64.28 C79.41 -78.39, 66.3 -91.68, 29.29 -120.56 M95.27 -65.79 C77.73 -79.91, 60.89 -95.39, 30.82 -121.57 M99.46 -69.89 C75.98 -90.47, 51.61 -107.27, 33.08 -125.57 M98.35 -68.39 C80.2 -84.89, 60.53 -100.52, 33.9 -124.38 M101.26 -70.52 C78.03 -89.77, 55.06 -113.67, 39.19 -128.03 M100.93 -71.41 C77.02 -92.43, 51.37 -112.71, 36.94 -125.68 M102.81 -71.72 C89.27 -83.28, 76.65 -96.43, 42.18 -128.16 M103.85 -74.17 C89.98 -86.58, 75.06 -97.87, 41.06 -129.47 M106.35 -78.05 C92.25 -86.75, 79.03 -101.19, 43.36 -132.95 M107.43 -75.6 C92 -91.6, 76.25 -105.98, 44.49 -132.08 M110.59 -78.34 C87.71 -98.81, 62.21 -121.37, 45.55 -133.84 M111.53 -79.26 C90.77 -94.98, 71.57 -112.05, 46.56 -134.73 M113.05 -79.39 C90.24 -100.12, 67.52 -121.88, 49.98 -134.66 M113.17 -81.82 C92.6 -99.64, 70.1 -119.63, 50.87 -135.17 M117.85 -83.17 C95.71 -101.38, 75.17 -118.12, 55.03 -137.34 M116.61 -84.05 C96.61 -102.18, 74.07 -121.84, 53.35 -138.23 M121.81 -85.29 C100.77 -104.09, 81.03 -119.63, 57.05 -141.79 M120.68 -86.1 C99.04 -104.98, 75.45 -124.05, 57.35 -141.45 M123.21 -86.84 C110.38 -99.6, 98.22 -112.62, 61.21 -143.66 M123.91 -89.02 C108.78 -102.15, 93.19 -114.98, 61.75 -143.64 M128.63 -92.15 C106.21 -108.82, 86.55 -128.79, 62.29 -146.22 M128.58 -91.43 C108.6 -107.84, 88.59 -124.87, 64.04 -146.52 M129.78 -92.64 C112.48 -110.12, 91.86 -129.58, 67.5 -146.11 M131.86 -93.08 C112.78 -107.48, 95.39 -121.84, 68.43 -147.25 M134.28 -96.62 C108.13 -118.86, 85.16 -139.84, 69.26 -149.16 M133.85 -95.42 C115.21 -111.82, 98.52 -125.73, 70.92 -150.1 M138.48 -97.12 C114.54 -118.27, 91.18 -138.22, 76.07 -152.24 M138.75 -97.26 C122.08 -110.57, 108.01 -122.97, 73.43 -152.97 M142.29 -101.66 C128.59 -110.73, 115.06 -122.4, 77.26 -155.05 M140.85 -99.28 C123.17 -114.12, 104.94 -131.03, 76.83 -155.02 M145.99 -104.11 C118.36 -123.5, 94.2 -143.45, 81.87 -157.93 M143.73 -101.7 C125.56 -117.63, 107.65 -134.69, 81.13 -157.28 M149.01 -106.49 C133.49 -119.75, 117.73 -129.68, 83.4 -161.65 M148.28 -104.83 C123.9 -124.38, 102.71 -144.24, 84.48 -160.22 M150.78 -106.75 C131.47 -123.99, 114.09 -138.85, 86.65 -161.29 M151.82 -106.66 C132.73 -123.18, 113.74 -138.98, 87.3 -162.33 M153.54 -108.63 C135.27 -123.12, 119.17 -137.99, 92.54 -165.98 M154.21 -109.48 C134.08 -127.58, 115 -144.32, 91.41 -163.74 M159.11 -113.43 C139.34 -126.77, 123.66 -144.38, 92.91 -168.75 M158.89 -111.48 C138.05 -128.88, 119.17 -145.88, 94.05 -166.81 M159.77 -113.86 C147.53 -127.8, 132.07 -141.05, 99.34 -170.35 M161.05 -113.29 C138.4 -135.36, 113.63 -155.57, 99.04 -169.73 M163.01 -117.83 C152.76 -129.3, 139.12 -141.32, 101.96 -173.01 M164.66 -115.64 C148.87 -130.12, 133.26 -143.54, 100.84 -171.08 M166.39 -118.26 C155.73 -131.99, 140.2 -141.14, 106.26 -172.34 M168.6 -117.9 C149.24 -134.76, 131.85 -150.77, 105.65 -173.47 M170.3 -120.91 C153.99 -136.45, 133.85 -151.92, 107.89 -175.04 M171.72 -121.71 C155.67 -136.48, 138.97 -149.22, 107.5 -176.08 M176.84 -122.18 C150.45 -145.09, 126.01 -167.43, 113.5 -178.82 M174.99 -123.56 C156.97 -139.45, 139.57 -156.07, 111.37 -178.31 M178.57 -124.93 C157.07 -144.77, 135.09 -165.03, 115.54 -182.11 M178.52 -126.38 C157.6 -144.01, 135.46 -163.05, 115.24 -180.35 M181.37 -128.27 C163.77 -142.42, 143.35 -160.21, 117.07 -183.95 M181.73 -128.14 C163.02 -144.49, 142.78 -163.09, 119.21 -182.76 M185.2 -131.4 C161.31 -151.39, 141.74 -168.57, 122.57 -185.76 M184.37 -131.45 C165.44 -145.66, 147.41 -162.92, 121.59 -185.07 M186.98 -131.42 C165.07 -155.62, 138.23 -175.87, 126.76 -187.16 M188.68 -132.12 C166.17 -152.06, 146.86 -169.24, 126 -187.4 M193.35 -135.13 C172.84 -152.43, 156.23 -166.43, 129.4 -191.8 M192.44 -134.81 C176.35 -146.66, 164.03 -159.44, 127.46 -191 M195.49 -136.85 C176.09 -156.72, 155.64 -173.37, 132.12 -191.16 M195.07 -137.58 C175.73 -154.53, 158.09 -169.25, 131.48 -191.92 M197.96 -138.22 C181.55 -156.61, 163.14 -173.61, 133.23 -194.35 M198.75 -139.5 C186.25 -150.38, 172.51 -163.25, 136.14 -195.53 M198.45 -144.66 C175.86 -166.12, 150.5 -187.77, 140.52 -195.94 M199.45 -145.84 C178.6 -161.83, 158.7 -180.23, 139.2 -198.15 M196.95 -149.93 C177.57 -168.13, 159.18 -188.37, 142.06 -201.78 M198.39 -150.52 C186.47 -161.06, 176.35 -171.04, 142.23 -199.65 M200.47 -155.25 C181.41 -171.02, 164.01 -183.63, 147.06 -200.79 M198.01 -155.86 C178.52 -174.3, 158.49 -192.02, 145.61 -203.01 M198.38 -162.36 C179.28 -179.46, 159.5 -196.91, 148.64 -202.77 M199.65 -161.56 C179.14 -178.41, 159.8 -194.4, 148.73 -204.95 M199.47 -165.4 C188.26 -178.65, 175.37 -187.83, 152.66 -206.25 M199.83 -167.27 C182.57 -181.27, 163.8 -196.63, 152.99 -207.52 M199.02 -172.75 C183.07 -183.55, 171.14 -197.94, 156.53 -208.27 M199.64 -172.27 C190.83 -179.1, 181.49 -187.8, 155.98 -208.65 M200.36 -177.43 C188.01 -185.4, 181.83 -194.43, 158.02 -212.18 M199.56 -176.6 C183.48 -188.97, 169.07 -202.72, 158.5 -211.82 M197.69 -183.66 C189.14 -192.03, 180.57 -198.22, 162.06 -213.49 M198.56 -181.44 C189.55 -192.15, 178.58 -200.25, 162.7 -214.57 M197.62 -185.28 C189.65 -194.21, 181.31 -202.3, 165.6 -215.68 M198.97 -186.31 C188.59 -197.24, 177.08 -206.71, 165.15 -216.16 M198.24 -191.58 C192.21 -199.13, 181.17 -208.94, 168.34 -219.96 M199.75 -192.65 C187.66 -201.74, 178.05 -211.29, 168.94 -218.13 M198.22 -199.15 C194.14 -201.69, 186.67 -208.02, 173.65 -221.15 M198.93 -198.47 C192.57 -204.17, 185.43 -210.2, 172.8 -221.9 M200.29 -204.28 C192.23 -207.24, 183.93 -216.27, 175.27 -225.46 M199.38 -202.55 C191.83 -210.17, 181.85 -217.38, 175.14 -223.38 M200.17 -207.55 C196.28 -213.54, 189.18 -217.31, 178.21 -226.29 M198.95 -207.76 C192.99 -212.97, 187 -218.46, 179.18 -226.51 M198.01 -214.18 C195.85 -219.22, 189.38 -224.96, 181.51 -230.07 M200.26 -213.27 C196.02 -217.26, 191.75 -220.48, 183.06 -227.95 M199.53 -218.02 C196.63 -220.18, 191.72 -225.56, 186.97 -231.91 M199.14 -219.12 C196.38 -221.83, 192.67 -224.67, 184.99 -230.57 M199.31 -223.18 C197.88 -226.27, 195.06 -229.62, 190.15 -233.79 M199.78 -223.95 C197.74 -226.34, 194.58 -229.29, 188.99 -232.37 M201.05 -229.07 C197.56 -229.27, 197.11 -231.4, 193.27 -236.01 M200.4 -229.16 C197.83 -230.98, 196.01 -232.2, 192.51 -235.05 M199.66 -234.68 C198.75 -235.52, 197.16 -236.3, 196.16 -237.35 M199.71 -234.35 C198.54 -235.42, 197.84 -236.15, 196.04 -237.7 M200.22 -239.49 C199.93 -239.71, 199.48 -239.96, 199.44 -240.14 M200.14 -239.41 C199.94 -239.62, 199.74 -239.7, 199.38 -240.1" stroke="#efefef" stroke-width="0.5" fill="none"></path><path d="M-1.22 1.59 C68.63 -46.88, 135.32 -94.95, 198.5 -140.36 M0.42 0 C73.21 -51.27, 144.97 -102.27, 197.91 -139.72 M199.98 -141.46 C198.67 -172, 198.43 -206.19, 198.67 -240.38 M198.14 -140.67 C198.56 -169.31, 199.22 -197.87, 200.49 -239.76 M200.19 -238.8 C132.88 -192.85, 67.39 -144.55, -0.37 -100.24 M200.08 -240.8 C137.72 -195.56, 75.51 -151.72, -0.02 -100.5 M-0.42 -99.74 C0.18 -74.82, 0.09 -45.66, -0.07 -1.32 M0.7 -100.75 C0.54 -76.16, 0.11 -52.74, 0.28 -0.77 M0 0 C0 0, 0 0, 0 0 M0 0 C0 0, 0 0, 0 0" stroke="#343a40" stroke-width="1" fill="none"></path></g></g><mask></mask><g stroke-linecap="round" transform="translate(10.000000000002274 370) rotate(0 200 50)"><path d="M-0.44 1.99 L401.28 -1.84 L401.91 99.44 L-1.57 100.09" stroke="none" stroke-width="0" fill="#f6f7f7"></path><path d="M1.09 0.78 C143.88 1.42, 287.91 1.58, 399.75 0.71 M0 0.05 C82.28 -1.28, 164.39 -1.64, 400.19 0.21 M398.54 -0.05 C401.52 32.94, 400.95 66.06, 399.62 99.78 M399.33 -0.19 C400.46 32.88, 400.79 66.09, 400.24 100.35 M400.82 99.22 C246 100.47, 93.72 100, -0.17 100.09 M399.45 99.89 C299.36 99.66, 199.19 100.2, -0.34 99.8 M0.26 100.83 C-0.74 77.25, 1.97 52.94, -1.32 -1.22 M-0.75 99.76 C-0.49 61.62, -0.96 24.84, -0.77 0.75" stroke="#343a40" stroke-width="1" fill="none"></path></g><g stroke-linecap="round"><g transform="translate(410.4412633822676 370.5639182793982) rotate(0 -99.95957203474086 -69.55556681698295)" fill-rule="evenodd"><path d="M0.16 -0.16 L199.08 -139.36 L-198.49 -138.62 L-398.51 1.02 L-1.82 -0.65" stroke="none" stroke-width="0" fill="#efefef" fill-rule="evenodd"></path><path d="M-0.36 -0.23 C78.32 -55.61, 158.74 -112.28, 200.52 -139.17 M-0.2 -0.2 C59.22 -41.8, 120.29 -83.8, 199.92 -139.44 M199.57 -139.41 C108.51 -138.38, 18.41 -137.85, -199.03 -140.56 M200.04 -140.04 C107.2 -140.77, 14.04 -140.44, -199.54 -139.94 M-199.69 -139.61 C-275.66 -89.15, -349.65 -37.57, -398.69 0.16 M-200.81 -139.22 C-240.9 -111.96, -281.83 -83.53, -400.44 -0.17 M-399.58 0.81 C-274.91 0.7, -150.44 2.32, 0.5 0.79 M-400.38 -0.29 C-310.02 -0.33, -219.93 -0.02, 0.56 0.36 M0 0 C0 0, 0 0, 0 0 M0 0 C0 0, 0 0, 0 0" stroke="#343a40" stroke-width="1" fill="none"></path></g></g><mask></mask><g stroke-linecap="round" transform="translate(70.00000000000227 410) rotate(0 10 10)"><path d="M3.82 2 C3.82 2, 3.82 2, 3.82 2 M3.82 2 C3.82 2, 3.82 2, 3.82 2 M2.01 8.45 C5.23 7.3, 7.55 6.03, 11.21 1.16 M2.43 9.15 C5.42 5.98, 7.68 3.83, 10.38 1.09 M2.57 14.79 C6.3 13.95, 6.17 10.46, 12.26 3 M3 15.51 C7.42 10.19, 10.38 6.73, 14.26 3.47 M7.02 17.63 C9.9 15.49, 13.2 11.45, 15.85 3.33 M5.99 18 C8.71 15.52, 12.41 11.78, 17.03 4.29 M8.07 22.38 C12.26 19.25, 13.73 14.99, 20.57 7.85 M8.21 21.36 C10.53 17.37, 14.23 14.52, 20.93 7.09 M7.29 20.58 C7.29 20.58, 7.29 20.58, 7.29 20.58 M7.29 20.58 C7.29 20.58, 7.29 20.58, 7.29 20.58 M14.1 19.81 C10.17 18.62, 7.43 13.99, 2.26 12.15 M12.62 20.06 C10.84 18.89, 8.37 16.6, 3.76 11.97 M17.02 15.82 C12.01 15.41, 9.88 10.16, 1.83 5.39 M15.28 16.52 C11.92 13.88, 7.09 9.36, 2.02 6.12 M16.72 12.41 C12.6 10.07, 7.66 6.87, 3.37 0.69 M18.95 14.88 C12.56 10.19, 7.84 4.4, 4.98 3.07 M20.28 13.68 C18.61 8.11, 16.05 8.25, 4.83 -1.79 M21.49 11.06 C18.25 7.69, 12.41 4.21, 6.2 -1.06" stroke="#4c6ef5" stroke-width="0.5" fill="none"></path><path d="M9.54 0.39 C11.48 0.48, 13.73 1.92, 15.59 3.05 C17.46 4.17, 20.09 5.31, 20.73 7.14 C21.37 8.96, 20.73 11.88, 19.44 14 C18.15 16.13, 15.06 18.87, 12.97 19.91 C10.88 20.95, 8.94 21.2, 6.92 20.25 C4.9 19.31, 1.91 16.34, 0.86 14.24 C-0.18 12.14, 0.13 9.76, 0.66 7.68 C1.19 5.59, 2.31 2.98, 4.05 1.73 C5.8 0.49, 9.73 0.5, 11.12 0.2 C12.5 -0.09, 12.32 -0.27, 12.36 -0.03 M10.77 0.49 C13.21 0.62, 17.52 1.63, 18.85 3.31 C20.17 4.98, 18.89 8.62, 18.7 10.55 C18.51 12.48, 18.91 13.52, 17.72 14.88 C16.53 16.24, 13.81 18.3, 11.55 18.73 C9.28 19.15, 5.8 18.35, 4.15 17.41 C2.49 16.47, 2.1 14.62, 1.64 13.09 C1.18 11.55, 0.98 9.96, 1.38 8.22 C1.79 6.47, 2.59 3.88, 4.07 2.62 C5.54 1.35, 9.2 1.21, 10.23 0.62 C11.25 0.02, 10.29 -1.21, 10.22 -0.96" stroke="#343a40" stroke-width="1" fill="none"></path></g><g stroke-linecap="round" transform="translate(110.00000000000205 410) rotate(0 10 10)"><path d="M1.65 4.09 C1.65 4.09, 1.65 4.09, 1.65 4.09 M1.65 4.09 C1.65 4.09, 1.65 4.09, 1.65 4.09 M1.23 10.51 C1.91 9.34, 3.16 8.56, 6.98 2.48 M0.61 10.97 C2.89 8.4, 5.1 6.28, 7.66 3.05 M1.46 14.11 C4.78 10.3, 7.3 9.11, 15.23 2.77 M2.78 16.09 C6.95 8.93, 11.99 4.46, 14.22 1.02 M4.09 16.78 C11.38 12.94, 13.08 9.27, 19.52 1.83 M5.98 17.98 C9.83 13.34, 14.29 8.82, 17.01 3.45 M9.23 18.69 C11.2 16.6, 16.38 11.27, 22.29 6.51 M8.76 19.98 C13.08 15.09, 18.09 9.61, 21.72 6.94 M3.95 16.8 C3.95 16.8, 3.95 16.8, 3.95 16.8 M3.95 16.8 C3.95 16.8, 3.95 16.8, 3.95 16.8 M12.16 18.1 C9.96 16, 5.79 12.53, 3.21 9.79 M12.86 19.5 C9.16 15.89, 6.57 13.38, 3.25 10.41 M17.52 16.79 C12.03 13.93, 4.14 7.75, 3.59 5.92 M15.95 17.4 C13.79 13.44, 8.69 10.59, 2.42 3.86 M18.09 14.19 C16.01 11.55, 8.53 6.24, 6.24 3.22 M18.79 13.63 C16.12 10.52, 11.59 8.52, 5.23 1.56 M22.58 9.02 C17.75 6.7, 13.88 5.07, 8.06 -1.64 M21.93 10.47 C15.76 6.67, 11.45 0.76, 8.18 -1.32" stroke="#12b886" stroke-width="0.5" fill="none"></path><path d="M6.03 0.6 C7.84 -0.13, 11.7 -0.29, 13.87 0.42 C16.03 1.13, 18.02 3.03, 19.03 4.87 C20.04 6.71, 20.45 9.3, 19.92 11.46 C19.39 13.61, 17.33 16.22, 15.83 17.79 C14.34 19.36, 12.86 20.97, 10.94 20.86 C9.02 20.75, 6.1 18.46, 4.32 17.12 C2.53 15.78, 0.71 14.95, 0.23 12.81 C-0.24 10.67, 0.22 6.42, 1.48 4.28 C2.74 2.14, 6.45 0.74, 7.79 -0.01 C9.13 -0.77, 9.5 -0.42, 9.54 -0.23 M5.42 1.94 C7.56 0.77, 12.28 -1.1, 14.64 -0.81 C17 -0.53, 18.86 1.44, 19.57 3.65 C20.28 5.86, 19.36 9.94, 18.89 12.45 C18.42 14.96, 18.35 17.7, 16.75 18.71 C15.15 19.73, 11.33 18.93, 9.29 18.57 C7.26 18.21, 5.89 17.86, 4.53 16.56 C3.18 15.26, 1.62 12.64, 1.17 10.78 C0.71 8.92, 0.77 7.2, 1.82 5.42 C2.87 3.65, 6.51 0.72, 7.46 0.11 C8.41 -0.5, 7.55 1.72, 7.51 1.79" stroke="#343a40" stroke-width="1" fill="none"></path></g><g stroke-linecap="round" transform="translate(209.99999999999977 410) rotate(0 90 15)"><path d="M7.79 1.13 L174.24 1.79 L175.81 -1.1 L181.39 3.49 L181.75 24.15 L177.77 27.61 L172.89 30.73 L6.89 28.78 L-0.04 30.05 L1.59 23.29 L-1.33 5.97 L5.2 -1.12 L6.82 1" stroke="none" stroke-width="0" fill="#4c6ef5"></path><path d="M7.5 0 M7.5 0 C59.81 0.27, 113.15 -2.04, 172.5 0 M7.5 0 C44.04 1.35, 79.04 0.64, 172.5 0 M172.5 0 C175.61 -1.89, 178.3 0.78, 180 7.5 M172.5 0 C177.08 0.39, 177.96 3.03, 180 7.5 M180 7.5 C180.42 12.99, 181.54 19.62, 180 22.5 M180 7.5 C179.41 12.43, 179.98 19.46, 180 22.5 M180 22.5 C181.47 29.25, 176.68 29.12, 172.5 30 M180 22.5 C177.9 27.07, 177.88 29.22, 172.5 30 M172.5 30 C106.69 32.35, 42.26 28.67, 7.5 30 M172.5 30 C130.01 29.62, 87.97 29.66, 7.5 30 M7.5 30 C4.35 31.79, -1.85 28.12, 0 22.5 M7.5 30 C3.33 27.94, -1.98 25.7, 0 22.5 M0 22.5 C-0.55 18.11, 0.78 15.2, 0 7.5 M0 22.5 C-0.81 17.83, -0.34 12.85, 0 7.5 M0 7.5 C0.73 3.98, 0.91 -1.26, 7.5 0 M0 7.5 C2.15 0.28, 4.47 1.27, 7.5 0" stroke="#fff" stroke-width="1" fill="none"></path></g><g transform="translate(222.32804870605446 415) rotate(0 77.67195129394531 10)"><text x="77.67195129394531" y="0" font-family="Virgil, Segoe UI Emoji" font-size="16px" fill="#fff" text-anchor="middle" style="white-space: pre;" direction="ltr" dominant-baseline="text-before-edge">The Things Network</text></g><g stroke-linecap="round"><g transform="translate(238.63074282907883 250) rotate(0 65.68462858546047 0)"><path d="M0 0 C-3.33 0, -46.67 0, -20 0 C6.67 0, 130 0, 160 0 M0 0 C-3.33 0, -46.67 0, -20 0 C6.67 0, 130 0, 160 0" stroke="#495057" stroke-width="1" fill="none"></path></g></g><mask></mask><g stroke-linecap="round"><g transform="translate(226.63074282907883 260) rotate(0 65.68462858546047 0)"><path d="M0 0 C-3.33 0, -46.67 0, -20 0 C6.67 0, 130 0, 160 0 M0 0 C-3.33 0, -46.67 0, -20 0 C6.67 0, 130 0, 160 0" stroke="#495057" stroke-width="1" fill="none"></path></g></g><mask></mask><g stroke-linecap="round"><g transform="translate(212.63074282907883 270) rotate(0 65.68462858546047 0)"><path d="M0 0 C-3.33 0, -46.67 0, -20 0 C6.67 0, 130 0, 160 0 M0 0 C-3.33 0, -46.67 0, -20 0 C6.67 0, 130 0, 160 0" stroke="#495057" stroke-width="1" fill="none"></path></g></g><mask></mask><g stroke-linecap="round"><g transform="translate(197.63074282907883 280) rotate(0 65.68462858546047 0)"><path d="M0 0 C-3.33 0, -46.67 0, -20 0 C6.67 0, 130 0, 160 0 M0 0 C-3.33 0, -46.67 0, -20 0 C6.67 0, 130 0, 160 0" stroke="#495057" stroke-width="1" fill="none"></path></g></g><mask></mask><g stroke-linecap="round"><g transform="translate(181.63074282907883 290) rotate(0 65.68462858546047 0)"><path d="M0 0 C-3.33 0, -46.67 0, -20 0 C6.67 0, 130 0, 160 0 M0 0 C-3.33 0, -46.67 0, -20 0 C6.67 0, 130 0, 160 0" stroke="#495057" stroke-width="1" fill="none"></path></g></g><mask></mask><g stroke-linecap="round"><g transform="translate(163.63074282907883 300) rotate(0 65.68462858546047 0)"><path d="M0 0 C-3.33 0, -46.67 0, -20 0 C6.67 0, 130 0, 160 0 M0 0 C-3.33 0, -46.67 0, -20 0 C6.67 0, 130 0, 160 0" stroke="#495057" stroke-width="1" fill="none"></path></g></g><mask></mask></svg>