<svg version="1.1" xmlns="http://www.w3.org/2000/svg" viewBox="0 0 410.08892577309064 320" width="820.1778515461813" height="640">
  <!-- svg-source:excalidraw -->
  
  <defs>
    <style class="style-fonts">
      @font-face {
        font-family: "Virgil";
        src: url("https://excalidraw.com/Virgil.woff2");
      }
      @font-face {
        font-family: "Cascadia";
        src: url("https://excalidraw.com/Cascadia.woff2");
      }
    </style>
  </defs>
  <g stroke-linecap="round" transform="translate(223.3992095256973 30) rotate(0 20 20)"><path d="M20.86 0.94 C24.97 0.79, 31.38 2.66, 34.6 5.4 C37.83 8.14, 39.81 13.1, 40.18 17.39 C40.56 21.68, 39.22 27.51, 36.86 31.14 C34.51 34.78, 30.31 37.89, 26.05 39.21 C21.79 40.53, 15.37 41.01, 11.31 39.06 C7.26 37.11, 3.34 31.64, 1.73 27.5 C0.12 23.35, 0.54 18.07, 1.66 14.18 C2.77 10.3, 5.05 6.41, 8.4 4.19 C11.74 1.98, 19.15 1.5, 21.74 0.89 C24.32 0.27, 23.82 0.39, 23.9 0.52 M16.59 -0.28 C20.53 -0.86, 26.4 1.22, 30.18 3.32 C33.96 5.42, 37.87 8.22, 39.27 12.32 C40.67 16.42, 40.36 23.72, 38.56 27.91 C36.76 32.09, 32.2 35.48, 28.46 37.43 C24.72 39.37, 20.19 40.59, 16.11 39.57 C12.03 38.55, 6.66 34.82, 3.97 31.3 C1.28 27.78, -0.29 22.36, -0.05 18.47 C0.19 14.58, 2.36 11.03, 5.43 7.96 C8.49 4.88, 16.33 1.2, 18.34 0.01 C20.36 -1.17, 17.67 0.63, 17.52 0.86" stroke="none" stroke-width="0" fill="#ced4da"></path><path d="M27.7 2.07 C31.71 3.21, 35.88 6.55, 37.95 10.31 C40.02 14.07, 41.06 20.5, 40.1 24.62 C39.14 28.75, 35.46 32.32, 32.2 35.05 C28.94 37.77, 24.76 40.91, 20.54 40.99 C16.32 41.07, 10.4 38.51, 6.87 35.55 C3.34 32.59, 0.07 27.38, -0.64 23.21 C-1.36 19.03, 0.17 14.01, 2.59 10.49 C5 6.97, 9.14 3.19, 13.85 2.09 C18.56 0.99, 27.25 3.02, 30.83 3.89 C34.4 4.76, 35.39 7.14, 35.33 7.31 M25.78 2.6 C29.71 3.97, 35.57 6.91, 38.11 10.55 C40.64 14.19, 41.81 20.12, 40.99 24.43 C40.18 28.73, 36.85 33.92, 33.23 36.37 C29.61 38.83, 23.84 39.24, 19.26 39.16 C14.68 39.09, 8.75 38.65, 5.74 35.92 C2.74 33.19, 1.78 27.11, 1.25 22.78 C0.72 18.46, 0.47 13.63, 2.58 9.97 C4.69 6.31, 9.77 2.14, 13.9 0.82 C18.03 -0.5, 25.24 2.03, 27.37 2.04 C29.5 2.05, 26.72 0.57, 26.68 0.87" stroke="#343a40" stroke-width="4" fill="none"></path></g><g stroke-linecap="round"><g transform="translate(203.3992095256973 230) rotate(0 -96.7509789131023 -90.1912230183184)"><path d="M-0.1 1.04 C-30.03 -2.18, -153.68 7.44, -180.49 -19.58 C-207.31 -46.59, -187.8 -134.45, -161 -161.06 C-134.2 -187.67, -43.37 -176.23, -19.7 -179.25 M-1.62 0.54 C-31.67 -3.02, -155.53 5.33, -181.7 -21.48 C-207.87 -48.29, -185.7 -133.64, -158.63 -160.3 C-131.56 -186.96, -42.42 -178.41, -19.29 -181.42" stroke="#343a40" stroke-width="4" fill="none"></path></g></g><mask></mask><g stroke-linecap="round" transform="translate(200.08892577309064 130) rotate(0 100 90)"><path d="M30.12 -0.65 L169.77 0.14 L183.13 1.78 L192.58 9 L196.94 17.03 L199.04 33.08 L199.31 147.74 L197.28 162.41 L191.22 170.78 L183.65 178.24 L166.9 181.33 L30.71 181.16 L17.76 176.86 L9.25 173.01 L0.45 161.1 L0.28 148.92 L1.34 24.57 L3.01 17.3 L8 8.06 L18.89 3.84 L30.24 -0.34" stroke="none" stroke-width="0" fill="#333333"></path><path d="M32 0 M32 0 C69.73 0.24, 106.55 -1.49, 168 0 M32 0 C68.32 0.08, 106.14 0.12, 168 0 M168 0 C187.98 1.66, 201.32 12.45, 200 32 M168 0 C190.99 -0.14, 198.43 11.28, 200 32 M200 32 C199.8 60.69, 202.54 85.31, 200 148 M200 32 C201.6 76.58, 201.65 120.96, 200 148 M200 148 C198.55 167.4, 188.88 181.3, 168 180 M200 148 C200.92 167.49, 187.13 181.65, 168 180 M168 180 C121.44 179.03, 77.25 179.45, 32 180 M168 180 C129.43 179.01, 92.29 179.62, 32 180 M32 180 C9.98 179.03, -0.23 167.34, 0 148 M32 180 C8.66 181.13, -0.27 168.75, 0 148 M0 148 C0.98 112.34, -1.57 80.79, 0 32 M0 148 C1.14 104.85, 1.02 61.15, 0 32 M0 32 C-0.07 11.75, 8.72 -0.21, 32 0 M0 32 C0.74 10.87, 11.78 -0.93, 32 0" stroke="#343a40" stroke-width="0.5" fill="none"></path></g><g stroke-linecap="round" transform="translate(360.08892577309064 140) rotate(0 15 15)"><path d="M11.14 1.13 C14.08 0.23, 19.56 0.82, 22.66 2.28 C25.77 3.75, 28.52 6.87, 29.78 9.9 C31.03 12.94, 31.45 17.69, 30.19 20.49 C28.93 23.3, 25.15 25.08, 22.23 26.75 C19.32 28.42, 15.69 30.92, 12.7 30.51 C9.7 30.09, 6.53 26.62, 4.26 24.24 C1.99 21.87, -0.81 19.41, -0.95 16.25 C-1.08 13.1, 1.15 8.19, 3.46 5.33 C5.76 2.47, 10.85 0.06, 12.87 -0.89 C14.89 -1.85, 15.37 -0.78, 15.57 -0.41 M8 1.01 C10.97 -0.46, 16.06 -0.96, 19.06 -0.22 C22.06 0.52, 24.42 3.09, 25.99 5.47 C27.57 7.85, 28.34 10.85, 28.5 14.06 C28.67 17.27, 28.93 22.13, 26.99 24.75 C25.05 27.36, 20.23 29.44, 16.86 29.73 C13.5 30.03, 9.38 28.37, 6.79 26.51 C4.19 24.65, 2.48 21.3, 1.29 18.58 C0.09 15.86, -1.66 13.08, -0.37 10.19 C0.91 7.31, 7.5 2.46, 9 1.29 C10.5 0.11, 8.51 2.71, 8.62 3.17" stroke="none" stroke-width="0" fill="#f6f7f7"></path><path d="M18.66 0.75 C21.64 1.3, 24.96 3.26, 26.98 5.9 C29 8.54, 31.09 13.16, 30.75 16.57 C30.42 19.98, 27.5 24.04, 24.96 26.37 C22.42 28.7, 18.66 30.49, 15.52 30.54 C12.39 30.58, 8.57 28.52, 6.16 26.64 C3.76 24.76, 2.01 22.35, 1.1 19.25 C0.19 16.16, -0.61 10.99, 0.69 8.08 C2 5.18, 5.62 3, 8.93 1.81 C12.23 0.62, 18.42 1.02, 20.53 0.93 C22.63 0.84, 21.7 1.02, 21.55 1.25 M18.08 0.06 C20.8 0.91, 24.63 4.01, 26.58 6.74 C28.53 9.47, 30.06 13.48, 29.79 16.46 C29.51 19.44, 27.15 22.5, 24.92 24.63 C22.7 26.76, 19.65 28.9, 16.45 29.24 C13.26 29.57, 8.63 28.22, 5.77 26.64 C2.91 25.06, 0.29 22.82, -0.7 19.74 C-1.69 16.66, -1.83 11.01, -0.14 8.17 C1.54 5.32, 6.09 3.77, 9.39 2.65 C12.69 1.53, 18.2 1.96, 19.67 1.46 C21.13 0.95, 18.38 -0.26, 18.17 -0.36" stroke="#343a40" stroke-width="0.5" fill="none"></path></g><g stroke-linecap="round" transform="translate(360.08892577309064 270) rotate(0 15 15)"><path d="M20.62 1.43 C23.51 2.5, 26.74 5.3, 28.36 8.09 C29.98 10.89, 30.79 15.3, 30.36 18.21 C29.92 21.12, 28.42 23.63, 25.76 25.56 C23.09 27.48, 17.61 29.51, 14.36 29.77 C11.11 30.03, 8.74 29.23, 6.26 27.1 C3.78 24.96, 0.1 20.14, -0.52 16.96 C-1.13 13.79, 0.96 10.86, 2.57 8.06 C4.18 5.27, 6.21 1.33, 9.12 0.2 C12.04 -0.92, 18.04 0.97, 20.07 1.33 C22.09 1.69, 21.28 2.31, 21.3 2.36 M8.24 2.32 C11.13 0.78, 15.6 -0.59, 18.79 -0.1 C21.98 0.39, 25.73 2.34, 27.36 5.27 C29 8.2, 28.97 14.11, 28.59 17.48 C28.22 20.86, 27.25 23.52, 25.12 25.53 C22.98 27.55, 19.17 29.24, 15.77 29.58 C12.38 29.91, 7.51 29.62, 4.75 27.53 C1.98 25.44, -0.39 20.06, -0.8 17.05 C-1.22 14.03, 0.71 11.97, 2.26 9.44 C3.82 6.91, 7.19 3.02, 8.52 1.88 C9.85 0.75, 9.91 2.27, 10.25 2.63" stroke="none" stroke-width="0" fill="#efefef"></path><path d="M12.61 -0.16 C15.5 -0.68, 19.13 1.26, 21.9 2.84 C24.67 4.42, 27.91 6.56, 29.22 9.33 C30.53 12.11, 30.78 16.41, 29.76 19.5 C28.73 22.59, 26.06 26.06, 23.07 27.88 C20.08 29.69, 14.99 31.07, 11.81 30.4 C8.64 29.73, 6.05 26.4, 4.01 23.86 C1.96 21.31, -0.45 18.14, -0.45 15.13 C-0.46 12.11, 1.44 8.21, 3.98 5.77 C6.52 3.33, 12.67 1.39, 14.79 0.51 C16.92 -0.38, 16.72 0.21, 16.73 0.45 M21.35 1.19 C24.52 2.38, 28.08 5.96, 29.55 8.79 C31.01 11.62, 31.25 15.1, 30.12 18.15 C28.99 21.19, 25.65 25.29, 22.74 27.06 C19.84 28.84, 15.95 29.32, 12.69 28.81 C9.43 28.3, 5.24 26.34, 3.18 23.98 C1.12 21.62, 0.55 17.41, 0.34 14.64 C0.13 11.86, -0.12 9.5, 1.9 7.35 C3.92 5.21, 8.98 2.74, 12.45 1.76 C15.93 0.78, 21.4 1.39, 22.74 1.47 C24.08 1.55, 20.95 1.85, 20.5 2.23" stroke="#343a40" stroke-width="0.5" fill="none"></path></g><g stroke-linecap="round" transform="translate(360.08892577309064 190) rotate(0 20 30)"><path d="M0 0 C0 0, 0 0, 0 0 M0 0 C0 0, 0 0, 0 0 M0.48 3.17 C0.81 1.91, 1.63 1.12, 2.88 -0.38 M0.37 2.97 C0.85 1.79, 1.98 1.03, 2.89 -0.03 M-0.55 6.79 C1.23 4.51, 2.37 2.92, 5.1 1.11 M-0.04 6.3 C1.58 4.79, 2.3 3.03, 4.73 0.29 M0.58 10.35 C2.19 7.22, 3.37 6.12, 7.16 0.33 M0.39 9.08 C3.25 6.22, 5.52 2.84, 7.36 -0.3 M1.06 12.73 C4.42 7.51, 6.64 2.96, 9.59 -1.02 M0.1 11.83 C3.75 8.05, 6.79 4.74, 10.18 0.15 M-0.93 15.85 C2.34 11.81, 5.82 5.02, 12.77 -1.15 M0.46 15.62 C2.98 11.27, 6.44 7.95, 13.52 -0.91 M1.14 17.64 C4.53 12.37, 9.86 9.03, 15.42 1.4 M0.22 18.88 C4.8 12.58, 10.69 5.96, 15.05 -0.37 M0.22 19.78 C5.45 14.58, 9.54 12.02, 17.18 1.66 M-0.28 20.83 C4.62 15.05, 11.23 9.85, 18.81 -0.39 M1.73 23.48 C5.99 14.38, 15.37 9.14, 21.71 -1.11 M0.26 24.65 C9.22 15.45, 17.11 4.28, 20.97 0.62 M0.65 27.93 C8.74 18.97, 17.37 7.29, 23.25 0.15 M0.21 28.11 C5.51 20.91, 13.53 11.83, 24.7 -0.84 M0.36 30.11 C6.47 20.66, 15.26 11.5, 27.48 -1.37 M0.03 30.61 C9.71 20.01, 19.1 9.41, 26.29 1.21 M-1.12 34.11 C7.76 26.15, 11.35 18.78, 30.36 1.41 M-0.29 32.79 C12.08 20.88, 23.25 8.26, 28.21 -0.67 M-0.99 35.72 C8.6 27.91, 13.24 22.84, 32.35 -1.16 M-0.78 36.4 C8.49 25.78, 20.05 13.87, 32.5 0.27 M0.51 40.93 C12.82 26.93, 24.14 11.58, 33.24 0.3 M-0.23 39.08 C10.66 28.81, 19.31 18.1, 33.89 0.05 M0.36 41.3 C8.92 33.67, 14.55 26.78, 37.03 0.54 M0.41 43.03 C13.5 26.52, 26.83 10.3, 37.83 0.56 M0.86 44.5 C13.06 32.99, 24.24 19.42, 38.71 -0.53 M-0.72 45.79 C7.59 36.46, 16.79 25.91, 39.56 0.64 M-0.15 50.87 C12.85 30.77, 26.83 16.56, 41.24 1 M0.1 48.11 C8.63 39.04, 17.76 29.27, 40.23 1.19 M0.94 50.74 C8.52 42.2, 20.37 30.45, 40.98 5.85 M-0.46 51.56 C12.58 37.45, 25.47 22.74, 40.61 3.26 M0.28 56.23 C11.49 40.86, 27.15 25.15, 41.18 5.07 M0.31 53.61 C14.2 39.04, 27.24 24.13, 41.77 7.88 M-0.48 59.58 C13.95 44.53, 24.59 27.18, 40.94 10.66 M-0.75 58.2 C11.18 43.66, 22.31 31.04, 40.26 9.92 M1.18 60.2 C13.02 43.13, 30.5 26.56, 41.3 11.82 M0.98 60.11 C12.93 45.6, 25.75 32.67, 41.44 12.68 M2.34 62.73 C17.44 45.36, 28.83 31.76, 41.5 14.34 M2.76 61.3 C16.1 45.56, 31.3 29.17, 41.93 16.49 M4.06 62.38 C16.67 47.11, 31.04 31.66, 39.14 19.12 M6.18 61.51 C14.29 51.99, 21.7 41.3, 41.02 19.54 M10.27 60.95 C23.17 46.1, 33.78 31.89, 40.35 22.69 M9.23 60.61 C19.88 47.65, 29.49 36.82, 41 21.71 M12.61 60.92 C21.6 50.84, 28.89 40.33, 41.99 26.62 M11.36 59.91 C19.9 50.35, 29.68 40.35, 40.68 26.23 M15.27 59.78 C25.23 48.07, 33.83 36.27, 42.53 29.25 M13.58 60.77 C20.4 53.31, 26.59 45.05, 42.36 28.67 M17.86 61.77 C22.64 51.24, 28.15 47.21, 42.87 32.03 M15.47 59.71 C25.66 50.02, 33.41 40.67, 42 31.66 M17.61 59.28 C27.36 48.3, 36.7 40.53, 41.17 35.34 M18.7 59.98 C26.57 51.52, 35.29 40.6, 42.17 33.84 M20.2 60.62 C26.87 53.08, 31.8 48.46, 43.13 35.81 M21.99 60.68 C28.33 51.95, 35.12 44.16, 41.59 37.58 M24.64 60.32 C26.63 56.94, 31.72 50.54, 40.09 42.84 M23.25 61.32 C28.09 53.98, 33.97 48.48, 41.45 40.77 M26.1 58.96 C32.62 57.32, 35.8 50.64, 41.23 45.21 M26.63 60.94 C31.44 56.79, 34.47 51.56, 40.81 43.63 M30.06 60.48 C33.4 56.75, 38.77 49.71, 41.79 46.4 M29.91 59.77 C32.92 56.1, 36.9 51.09, 41.14 47.31 M31.79 60.08 C35.33 57.83, 37.18 54.21, 39.95 50.76 M31.98 60.03 C35.52 56.85, 38.49 54.33, 41.29 50.77 M34.74 61.46 C36.08 57.31, 38.64 56.77, 40.47 53.37 M34.94 60.81 C36.79 58.36, 38.02 56.11, 41.11 53.17 M37.66 60.61 C39.08 58.58, 39.93 57.1, 42.02 55.89 M37.56 60.22 C38.72 59.45, 39.18 58.58, 41.78 55.91 M-0.27 59.76 C-0.27 59.76, -0.27 59.76, -0.27 59.76 M-0.27 59.76 C-0.27 59.76, -0.27 59.76, -0.27 59.76 M3.67 60.31 C2.43 59.85, 2.06 58.8, 0.58 57.56 M3.36 60.04 C2.44 59.44, 1.37 58.78, 0.35 57.6 M6.14 59.76 C4.03 58.2, 1.89 56.07, -0.39 55.47 M5.97 60.35 C4.47 58.59, 2.3 56.58, -0.13 54.51 M10.08 59.16 C6.01 58.14, 5.2 56.17, -0.13 52.83 M9.19 59.63 C6.56 57.59, 3.52 54.37, 0.26 52.26 M11.84 60.65 C6.13 57.59, 4.18 50.96, -0.34 47.73 M13.36 59.74 C7.47 56.3, 4.17 52.57, 0.47 48.29 M17.18 59.82 C12.02 55.23, 5.46 50.81, 1.81 46.43 M16.26 59.39 C10.5 56.25, 3.95 50.2, 0.69 47.85 M18.04 59.67 C11.9 54.47, 9.76 52.14, -0.5 42.58 M18.69 59.63 C13.44 56.39, 8.32 51.68, 0.73 45.01 M20.8 61.33 C14.98 53.25, 10.96 50.35, -1.76 41.58 M20.2 59.49 C14.05 53.63, 7.78 47.87, -0.29 40.72 M23.33 61.35 C17.44 53.54, 7.64 47.94, 1.12 38.59 M25.5 60.73 C14.69 51.05, 4.61 43.5, -0.96 39.26 M28.03 60.02 C17.51 52.91, 7.61 45.2, 0.45 36.41 M27.96 59.24 C20.55 53.52, 13.65 47.06, -0.53 36.51 M28.53 58.05 C20.97 49.3, 7.65 40.8, -1.05 33.67 M29.54 60.07 C24.88 55.21, 18.41 50.07, 0.51 33.39 M35.64 61.47 C22.04 51.62, 8.44 39.28, 0.45 29.59 M32.96 59.51 C23.98 51.99, 13.6 42.3, 0.29 30.91 M37.27 60.45 C29.85 54.42, 22.86 47.66, -0.15 28.81 M36.81 60.27 C26.97 51.37, 16.26 42.22, -0.24 28.3 M39.14 60.04 C24.15 48.52, 10.6 35.98, -1.01 24.23 M38.5 59.48 C28.95 52.81, 20.87 44.12, -0.15 26.09 M43.17 57.74 C25.25 47.35, 10.98 31.54, -0.58 23.78 M41.92 58.52 C25.7 46.12, 11.05 31.13, 0.32 22.22 M40.47 54.91 C30.76 45.63, 20.21 36.63, 1.52 20.59 M40.53 55.76 C26.94 42.22, 11.45 30.53, 0.24 20.45 M42.03 53.58 C28.57 45.49, 20.24 33.21, 2.24 17.11 M41.38 53.58 C27.57 40.38, 12.25 28.23, -0.15 17.76 M40.85 49.97 C27.26 35.62, 12.16 23.39, -1.77 15.31 M41.4 51.25 C31.12 40.92, 20.45 30.98, 0.95 14.87 M41.19 49.95 C26.79 38.01, 15.35 23.69, -1.42 11.45 M41.89 48.58 C33.35 40.3, 24.52 33.21, -0.12 12.22 M39.71 45.21 C28.07 32.97, 12.98 22.05, -0.01 10.22 M41.86 45.5 C26.59 31.85, 10.93 18.86, -0.16 8.47 M40.17 42.03 C28.98 33.44, 20.12 24.15, 0.46 8.9 M42 42.96 C27.96 31.16, 17.58 22.46, 0.87 7.9 M42.65 41.46 C30.99 31.18, 22.13 26.44, -1.55 3.53 M40.03 40.5 C28.98 30.88, 19.78 19.82, 0.18 4.86 M43.21 37.42 C27.81 23.32, 12.94 11.15, 1.6 -0.32 M41.66 38.62 C29.89 27.84, 17.83 18.47, -0.87 1.83 M43.05 32.95 C31.17 24.59, 17.96 16.28, -1.34 -0.72 M41.94 34.23 C26.94 21.02, 12.39 9.85, 0.35 -1.47 M39.26 32.88 C32.13 23.77, 25.09 16.41, 4.46 0.08 M41.21 31.71 C26.9 19.63, 13.2 6.16, 2.91 -1.34 M41.97 28.08 C25.84 18.01, 16.27 8.2, 6.24 1.19 M40.48 28.39 C28.71 17.46, 14.03 6.36, 5.94 -0.26 M42.02 25.55 C35.81 23.13, 27.07 16.59, 10.95 0.53 M42.37 26.89 C31.44 18.16, 19.85 9, 10.07 -0.2 M40.18 24.64 C30.97 14.53, 20.54 9.11, 13.65 -2.4 M40.46 24.67 C31.8 15.78, 22.34 7.45, 13.09 -1.55 M41.85 21.76 C29.55 14.54, 19.58 2.43, 15.43 -1.68 M41.26 21 C35 15.87, 28.31 9.69, 16.09 -0.96 M42.21 18.59 C33.71 11.82, 26.57 4.69, 19.39 -2.13 M41.56 18.49 C34.54 13.23, 27.35 7.39, 18.62 -0.28 M41.9 16.22 C35.27 13.95, 32.74 9.91, 23.26 -0.54 M41.39 17.42 C34.61 10.67, 27 5.64, 21.61 -0.48 M40.27 15.3 C34.72 10.91, 33.2 6.33, 22.66 0.49 M41.37 13.27 C37.48 8.99, 32.23 5.9, 23.74 -1.19 M41.83 9.12 C37.98 7.52, 34.73 5.47, 28.66 0.55 M40.7 11.59 C35.98 7.28, 32.15 2.02, 27.52 -1.17 M42.59 7.45 C38.7 6.37, 34.92 4.67, 31.27 0.1 M41.23 8.75 C38.36 6.61, 35.72 3.09, 31.03 -0.53 M41.99 4.83 C37.6 2.33, 36.01 0.73, 32.85 -0.87 M40.84 5.9 C39.38 4.17, 38.35 2.75, 33.97 -1 M40.83 3.36 C39.96 1.75, 37.84 0.27, 37.76 -0.65 M41.06 2.81 C40.06 1.79, 38.68 1.11, 37.6 -0.12" stroke="#f6f7f7" stroke-width="0.25" fill="none"></path><path d="M0.87 1.89 C16.97 1.11, 32.99 -0.68, 38.32 0.72 M0.19 0.86 C15.18 1.05, 30.61 0.48, 40.52 -0.33 M39.63 1.85 C41.91 11.61, 39.27 25.7, 38.96 59.4 M40.72 -0.79 C40.43 14.27, 40.02 26.67, 40.5 60.48 M38.21 60.93 C27.59 60.31, 13.53 58.67, -1.33 58.54 M40.2 60.09 C31.21 60.58, 22.67 59.52, 0.3 60.55 M0.38 61.77 C0.58 44.32, 0.97 26.31, 0.92 -1.72 M-0.19 59.71 C-0.13 46.97, -0.56 33.29, -0.31 0.12" stroke="#343a40" stroke-width="0.5" fill="none"></path></g><g transform="translate(260.4308873983176 269.7531494924615) rotate(269.7110124019013 9.304847717285156 9.599999999999909)"><text x="0" y="0" font-family="Virgil, Segoe UI Emoji" font-size="16.317150229200426px" fill="#fff" text-anchor="start" style="white-space: pre;" direction="ltr" dominant-baseline="text-before-edge">5v</text></g><g transform="translate(240.08892577309064 150) rotate(0 34.31621551513672 9.600000000000023)"><text x="0" y="0" font-family="Virgil, Segoe UI Emoji" font-size="16.317150229200426px" fill="#e6cc44" text-anchor="start" style="white-space: pre;" direction="ltr" dominant-baseline="text-before-edge">CQRobot</text></g><g stroke-linecap="round" transform="translate(200.08892577309064 190) rotate(0 20 30)"><path d="M0 0 C0 0, 0 0, 0 0 M0 0 C0 0, 0 0, 0 0 M0.18 3.04 C0.78 1.62, 2.28 0.56, 3.01 -0.36 M0.32 2.7 C0.81 2.15, 1.38 1.59, 2.88 -0.06 M-1.06 6.26 C1.68 5.7, 2.46 2.86, 5.49 0.04 M-0.44 6.43 C1.39 4.36, 3.58 2.34, 4.93 0.16 M1.12 9.11 C2.02 6.03, 5.27 4.71, 8.22 0.85 M-0.17 9.62 C3.1 5.98, 5.44 2.19, 8.38 0.5 M1.08 12.96 C3.27 8.2, 4.27 6.02, 10.62 0.37 M0.42 11.87 C3.82 8.28, 7.03 4.86, 10.87 0.29 M-2.12 16.12 C4.39 12.18, 7.43 4.64, 12.21 -0.92 M0.55 14.96 C3.05 10.25, 7.82 6.2, 12.49 -0.62 M-1.17 19.3 C3.61 14.31, 10.03 7.02, 15.23 1.39 M-0.91 18.04 C4.2 13.51, 10.03 7.75, 14.73 1.32 M0.97 19.41 C3.63 15.36, 9.67 7.77, 16.87 -0.4 M-0.11 20.54 C3.23 16.44, 8.94 11.94, 19.14 0.81 M-0.52 26.06 C5.45 18.76, 13.04 11.18, 21.74 1.23 M-0.7 24.76 C6.94 17.6, 13.1 9.43, 21.84 0.11 M-1.18 26.22 C7.93 17.22, 14.97 9.29, 22.74 -1.09 M-0.58 27.38 C4.14 22.35, 9.46 16.4, 23.63 -0.78 M1.53 29.91 C9.78 21.94, 18.14 10.02, 27.9 -1.3 M0.08 29.55 C9.12 20.05, 19.57 7.24, 27.1 -0.5 M0.45 33.62 C9.18 22.6, 15.84 13.23, 29.19 1.88 M-0.69 33.54 C9.41 22.84, 17.18 14.6, 28.62 -0.3 M-1.06 38.81 C10.18 22.74, 20.64 11.83, 30.8 0.28 M-1.25 37.53 C9.94 25.44, 18.67 14.93, 32.87 0.63 M0.96 40.48 C9.82 27.08, 19.28 17.39, 33.93 -1.88 M-0.03 39.47 C8.49 29.95, 16.8 18.29, 34.79 -0.83 M1.39 44.51 C13.89 28.07, 25.89 13.21, 35.65 0.26 M0.01 42.68 C10.84 30.75, 20.14 19.04, 36.77 -0.03 M0.13 44.2 C15.25 27.69, 26.61 13.87, 37.75 2.05 M-0.31 45.71 C11.69 32.13, 24.16 20.03, 40.59 -0.56 M-1.7 50.81 C14.67 31.89, 25.96 16.52, 41.66 2.17 M-0.98 49.13 C12.06 34.43, 25.75 18.42, 40.64 1.9 M-1.54 52.93 C15.08 32.75, 33.12 13.42, 39.87 5.38 M-0.36 52.17 C8.93 40.6, 19.2 30.63, 40.55 4.66 M1.45 54.26 C12.36 37.87, 26.67 23.01, 43.5 6.12 M0.91 54.82 C11.47 39.9, 23.72 27.65, 40.92 6.87 M1.22 57.91 C14.37 41.42, 33.4 20.74, 41.15 9.07 M-1.08 57.39 C15.74 39.68, 31.85 22.19, 41.5 10.35 M2.35 59.46 C15.38 44.93, 29.54 25.7, 43.1 11.45 M1.26 59.84 C12.48 47.09, 25.13 32.45, 41.5 13.19 M3.62 59.07 C9.93 50.45, 19.58 41.41, 43.49 16.36 M2.76 61.19 C15.18 44.75, 28.52 29.76, 41.02 15.35 M5.5 60.76 C12.31 51.26, 18.78 43.31, 42.52 21.31 M6.27 61.08 C14.73 50.78, 23.93 40.32, 41.52 20.52 M7.02 58.45 C15.98 51.49, 27.95 37.89, 42.57 20.79 M7.69 61.09 C15.16 51.49, 23.39 44.34, 41.11 22.9 M12.58 60.09 C21.95 47.96, 33.61 35.15, 40.49 25.6 M12.03 61.12 C22.52 46.92, 34.84 34.02, 41.05 25.89 M14.85 59.88 C22.72 48.52, 37.41 33.69, 40.4 28.66 M12.51 60.95 C25.06 47.65, 34.61 35.38, 41.8 28.09 M15.6 60.15 C24.74 48.86, 34.03 37.18, 40.53 33.29 M16.61 60.36 C22.08 54.47, 27.24 47.62, 42.06 30.96 M17.88 58.66 C25.47 49.99, 32.72 44.16, 42.1 35.07 M18.51 59.71 C26.41 52.85, 32.68 44.41, 40.87 34.86 M22.92 58.41 C30.43 49.58, 35.6 41.71, 41.49 37.12 M21.13 60.06 C27.03 54.08, 33.64 47.27, 42.02 37.71 M24.95 59.93 C31.35 55.95, 37.3 47.19, 42.47 40.67 M23.23 60.71 C28.73 54.61, 34.34 48.6, 41.47 41.78 M28.02 59.12 C32.78 53.24, 38.5 48.59, 42.31 45.6 M27.44 61.34 C32.84 55.11, 37.2 47.79, 41.69 43.53 M30.21 58.73 C34.07 57.31, 37.7 52.45, 41.99 47.72 M28.84 60.56 C32.27 56.35, 35.32 52.77, 41.19 47.2 M32.64 60.89 C35.17 56.42, 39.96 51.58, 40.78 51.27 M32.48 60.15 C34.36 56.85, 37.41 54.27, 40.82 50.67 M34.41 59.95 C36.29 57.48, 39.09 55.1, 42.17 53.07 M35.04 60.54 C36.19 58.75, 38.18 56.41, 41.07 52.96 M37.03 59.97 C38.59 58.76, 39.68 58.13, 41.26 56.41 M37.61 60.45 C38.74 58.92, 39.8 58.05, 41.18 56.12 M-0.27 59.76 C-0.27 59.76, -0.27 59.76, -0.27 59.76 M-0.27 59.76 C-0.27 59.76, -0.27 59.76, -0.27 59.76 M3.6 60.25 C2.35 59.9, 1.86 59.4, 0.41 57.46 M3.49 60.36 C2.61 59.44, 1.85 58.78, 0.35 57.74 M6.36 60.71 C4.72 58.15, 3.65 56.9, -0.05 54.77 M6.22 59.69 C3.82 58.48, 2.08 56.29, -0.05 54.94 M8.57 60.09 C5.61 57.68, 2.96 56.07, -0.9 52.44 M9.36 59.41 C6.24 56.83, 2.74 54.69, -0.61 52.06 M12.3 59.25 C10.03 55.66, 6.2 54.85, -0.31 49.17 M13.33 60.28 C8.47 57.59, 3.58 52.81, -0.07 48.57 M14.67 59.02 C11.4 56.91, 6.67 50.46, 1.57 45.99 M16.02 60.84 C10.64 56.15, 6.86 53.06, 0.3 46.6 M17.83 61.54 C14.1 54.92, 9.31 52.57, 2.04 43.09 M19.07 59.61 C14.35 56.37, 9.54 51.16, 0.64 44.43 M21.41 58.74 C11.81 53.75, 5.27 44.75, -1.04 40.99 M20.4 60.49 C15.02 55.72, 9.86 51.52, -0.75 41.43 M24.11 61.55 C18.61 55.21, 13.98 49.6, 1.45 39.04 M23.76 59.84 C16.87 52.9, 7.26 44.01, 0.48 39.09 M26.85 61.95 C20.34 54.35, 13.56 47.83, -0.47 35.55 M27.19 59.02 C20.16 54.16, 13.37 47.68, 0.69 36.32 M29.49 59.66 C18.34 48.66, 4.59 37.14, -0.67 33.96 M30.02 60.36 C22.74 53.87, 16.4 47.61, 0.62 33.95 M34.76 61.02 C25.07 54.78, 17.13 45.99, -0.22 29.62 M33.95 60.29 C23.42 51.03, 14.68 43.34, 0.32 30.7 M38.14 59.81 C22.54 46.19, 9.36 34.59, 0.54 28.61 M37.24 59.51 C29.17 54.24, 21.67 46.54, 0.32 28.38 M38.62 58.05 C24.4 47.38, 9.74 36.45, -0.07 24.57 M38.62 59.98 C26.55 48.37, 15.89 38.37, -0.28 25.97 M43.11 57.47 C29.32 46.32, 16.9 35.64, 1.66 23.51 M41.92 59.74 C29.62 47.65, 17.83 37.84, 0.21 22.64 M41.37 57 C24.41 39.78, 9.12 29.06, -0.06 19.92 M42.26 56.68 C27.11 44.01, 12.39 30.89, -0.64 19.27 M42.72 51.55 C23.4 38.8, 7.99 25.81, -0.75 18.96 M40.94 52.54 C24.74 39.29, 9.64 25.19, -0.4 18.8 M40.21 51.53 C26.28 38.98, 14.14 26.01, -0.54 16.6 M40.86 50.78 C27.12 37.73, 14.04 27.42, -0.41 15.73 M41.79 48.3 C27.65 37.43, 13.16 25.77, -1.43 12.39 M41.9 49.29 C29.36 39.41, 19.37 29.14, 0.16 13.16 M41.53 44.38 C31.31 37.18, 18.68 28.3, -2.13 9.67 M41.32 44.84 C29.12 34.9, 15.37 24.4, -0.33 10.22 M40.31 44.16 C27.93 29.66, 12.55 16.91, 1.62 5.65 M40.71 43.15 C32.73 34.66, 23.93 26.41, 0.97 6.52 M40.96 40.15 C30.64 31.38, 22.35 23.38, -1.73 3.63 M40.37 39.33 C31.11 29.93, 18.95 22.01, 0.74 3.58 M42.01 37.01 C29.42 24.01, 15.35 15.75, -0.89 1.74 M41.22 37.3 C26.77 24.83, 11.43 11.71, -0.52 1.9 M40.82 33.84 C28.96 26.84, 18.46 16.56, 0.23 -2.22 M41.18 34.23 C27.06 21.35, 11.62 9.02, -0.41 -0.95 M42.33 30.85 C32.17 26.26, 23.64 16.45, 1.48 -1.3 M40.13 32.61 C27.4 20.86, 15.27 10.35, 3.58 -0.56 M42.18 27.61 C30.6 19.94, 20.22 10.19, 6.83 0.11 M40.28 28.72 C32.41 22.86, 24.7 14.29, 6.67 -0.87 M40.44 27.12 C30.16 19.76, 22.95 11.81, 9.62 -2.26 M42.08 27.98 C32.45 19.82, 23.16 11.96, 9.25 -0.46 M40.79 26.03 C28.83 15.02, 19.16 6.94, 11.02 0.22 M40.61 23.48 C31.24 16.01, 22.79 6.8, 13.51 -0.48 M39.21 21.39 C34.67 14.17, 23.29 7.68, 15.89 -0.1 M40.54 22 C36.27 16.59, 29.81 11, 16.61 0.49 M39.16 16.82 C32.3 11.85, 28.17 7.69, 18.79 -2.27 M40.48 18.45 C33.12 12.48, 24.98 5.73, 18.82 0.52 M41.25 14.65 C36.63 10.84, 29 3.69, 22.62 -0.04 M40.93 17.29 C37.51 12.86, 33.95 9.5, 21.43 -0.59 M42.48 14.1 C35.48 11.55, 32.28 4.4, 23.82 -1.6 M40.62 13.01 C34.22 7.52, 27.41 3.29, 24.18 0.13 M40.88 10.16 C37.88 9.31, 35.15 3.66, 28.11 0.34 M41.43 10.26 C37.97 8.33, 34.76 5.29, 28.13 -0.69 M42.86 8.07 C38.16 4.63, 35.36 1.6, 31.37 0.83 M41.76 8.52 C39.75 5.75, 36.55 3.9, 31.04 0.1 M40.72 4.97 C39.91 3.63, 37.44 2.3, 34.57 0.18 M40.89 5.38 C39.77 4.8, 37.65 2.99, 33.64 -0.78 M41.45 3.17 C39.91 1.63, 38.74 0.94, 36.97 -0.02 M40.96 2.99 C40.26 2.34, 38.89 1.11, 37.18 -0.31" stroke="#f6f7f7" stroke-width="0.25" fill="none"></path><path d="M-0.69 -0.26 C9.35 0.19, 19.36 -1.44, 41.65 0.24 M0.58 -0.12 C9.23 0.88, 20.11 -0.52, 39.55 0.14 M41.01 -0.7 C40.25 20.83, 41.15 43.39, 38.24 59.66 M39.87 0.48 C39.13 16.38, 39.57 33.09, 39.27 59.35 M38.64 61.66 C32.98 61.43, 24.75 59.53, -1.37 60.54 M39.58 60.66 C31.5 59.13, 21.91 60.49, 0.53 60.87 M-1.45 58.07 C-1 40.12, 0.25 16.02, -1.92 1.44 M-0.95 60.07 C-0.45 40.58, 0.03 19.6, -0.81 -0.99" stroke="#343a40" stroke-width="0.5" fill="none"></path></g><g stroke-linecap="round" transform="translate(280.08892577309064 270) rotate(0 20 10)"><path d="M0 0 C0 0, 0 0, 0 0 M0 0 C0 0, 0 0, 0 0 M0.54 2.46 C1.29 1.82, 2.01 0.48, 2.49 -0.46 M0.27 2.86 C0.84 2.03, 1.51 1.31, 2.7 -0.14 M-0.7 6.55 C2.33 4.49, 3.61 2.51, 4.29 0.73 M-0.28 6.32 C0.79 4.98, 2.14 3.52, 4.95 0.24 M0.43 9.48 C2.87 6.96, 4.22 4.12, 7.35 1.02 M0.33 9.1 C3.13 5.55, 6.34 1.47, 7.82 -0.33 M0.65 13.18 C4.99 8.13, 6.22 5.06, 9.53 0.21 M0.52 12.73 C3.38 8.2, 5.25 6.28, 11.3 0.24 M0.36 14.89 C6.03 10.28, 9.1 4.06, 11.71 0.06 M-0.08 16.18 C4.86 10.23, 10.89 2.04, 13.75 -0.88 M-0.92 19.51 C6.35 14.3, 8.73 8.38, 16.83 -0.76 M-0.36 19.19 C4.48 13.61, 9.99 7.05, 15.69 -0.42 M-0.09 21.67 C5.45 17.01, 7.81 10.92, 17.02 -1.17 M1.62 20.46 C4.7 16.37, 8.7 11.5, 18.2 -0.43 M2.71 19.7 C9.55 12.48, 15.68 5.46, 19.61 -0.76 M3.19 21.1 C8.17 15.08, 12.11 10.03, 21.21 0 M3.73 22.13 C9.24 16.4, 12.94 12.59, 24.24 -0.47 M4.96 21.22 C12.54 12.71, 19.07 5.51, 24.39 -0.83 M10.37 20.82 C11.31 17.35, 14.97 12.74, 26.38 -0.97 M8.84 20.32 C14.8 12.35, 21.77 6.07, 26.92 0.67 M12.01 21.94 C15.06 13.9, 18.72 11.02, 30.78 0.54 M11.18 20.46 C16.12 16.1, 20.78 10.67, 28.25 -0.2 M13.51 21.12 C20.84 12.59, 28.78 4.62, 32.33 -0.94 M13.52 20.68 C20.36 12.89, 26.33 7.73, 31.19 0.51 M14.68 21.19 C20.44 14.4, 24.22 10.24, 33.49 0.94 M16.34 20.85 C20.35 16.87, 24.26 12.52, 34.7 -0.25 M19.72 19.31 C27.12 14.3, 32.87 4.08, 35.81 1.55 M19.83 20.15 C24.96 13.88, 32.53 6.46, 37.63 -0.61 M22.1 19.7 C24.97 17.81, 28.98 11.08, 41.35 0.52 M22.98 19.91 C25.88 14.44, 31.17 11.23, 39.42 0.67 M25.98 20.81 C31.51 14.83, 36.74 8.05, 40.25 -0.1 M24.36 20.07 C29.64 14.72, 35.9 7.35, 42 0.55 M25.76 21.01 C30.75 16.61, 36.43 9.12, 42.81 4.34 M27.87 21.06 C31.89 15.19, 36.04 9.58, 41.1 5.15 M31.28 21.66 C32.25 16.77, 38.85 11.25, 43.4 6.12 M29.49 20.24 C32.83 16.18, 36.23 13.2, 40.77 6.89 M33.24 20.39 C36.9 16.36, 37.43 12.88, 41.08 10.61 M32.39 20.55 C34.57 17.41, 37.61 14.82, 41.53 9.96 M35.98 20.59 C36.69 17.71, 39.54 16.86, 41.7 13.22 M35.43 19.96 C37.61 17.56, 40.07 15.07, 41.37 13.05 M37.9 20.77 C38.91 19.38, 39.53 19.37, 41.48 16.11 M37.63 20.77 C38.11 20.05, 39.03 19.15, 41.39 16.28 M-0.09 19.92 C-0.09 19.92, -0.09 19.92, -0.09 19.92 M-0.09 19.92 C-0.09 19.92, -0.09 19.92, -0.09 19.92 M2.55 19.83 C2.01 18.74, 1.09 18.82, -0.59 17.09 M2.9 19.79 C2.05 19.08, 1.34 18.63, -0.13 17.12 M6.49 19.99 C5.71 19.64, 3.38 17.83, 0.61 14.92 M6.34 20.15 C5.25 19.04, 4.14 18.46, 0.48 15.09 M8.61 19.03 C7.24 16.88, 3.22 15.82, -0.99 10.95 M8.8 20.3 C7.35 18.24, 4.72 15.72, -0.4 12.08 M10.76 21.23 C9.02 18.18, 5.55 13.46, 0.69 8.55 M11.67 20.4 C8.47 17.14, 3.93 13.32, 0.1 9.07 M14.42 21.56 C13 19.14, 9.43 14.89, -0.36 6.99 M14.84 20.31 C9.58 15.22, 4.62 10.94, 0.63 5.67 M18.77 21.86 C10.47 15.97, 3.63 8.51, -0.91 5.16 M17.41 20.17 C12.18 15.16, 5.77 9.24, -0.44 4.99 M21.01 21.43 C15.3 13.97, 4.98 6.8, 1.51 3.13 M21.83 19.04 C13.73 14.85, 7.75 8.17, 0.49 2.27 M26.07 18.81 C16.74 13.65, 9.09 8.45, 0.87 -0.92 M23.82 19.9 C16.18 12.7, 9.15 5.98, 0.05 0.08 M28.83 18.38 C22.95 16.09, 15.72 11.76, 2.72 0.64 M27.16 20.17 C22.81 15.61, 16.61 11.07, 3 -0.9 M29.53 20.47 C22.93 12.07, 16.84 6.9, 5.94 -1.48 M30.27 19.08 C21.94 11.29, 11.28 4.24, 6.33 -0.12 M31.45 18.9 C25.44 16.21, 21.74 10.1, 8.6 -0.73 M32.3 19.44 C25.12 12.39, 17.08 3.81, 10.36 -1.15 M37.36 20.53 C30.3 14.32, 24.63 10.15, 11 -0.54 M36.77 20.37 C29.32 13.38, 23.27 7.64, 12.11 -1.27 M39.22 18.8 C30.98 12.52, 23.5 3.93, 16.25 -2.11 M39.57 19.09 C31.57 13.64, 23.7 7.1, 17.11 -0.04 M40.04 18.5 C34.3 10.21, 22.57 4.03, 20.81 -2.19 M40.17 18.92 C34.13 13.1, 26.23 5.71, 18.26 -0.9 M43.47 16.7 C35.78 11.01, 28.54 3.74, 21.81 1.06 M41.38 16.36 C35.06 12.34, 30.15 5.9, 22.42 0.24 M42.32 14.89 C36.9 8.48, 32.64 3.25, 22.88 -2.41 M41.22 12.55 C37.21 8.83, 32.27 5.64, 24.51 -1.29 M40.92 12.25 C37.19 5.77, 33.11 2.98, 26.73 0.78 M41.46 10.91 C36.59 7.52, 33.7 3.7, 28.97 -0.2 M40.49 7.87 C37.44 5.79, 35.34 3.61, 31.38 -1.46 M40.65 7.58 C37.63 4.69, 33.59 0.82, 30.67 -1.03 M41.07 6.62 C39.18 3.3, 37.91 2.6, 33.52 -0.9 M41.44 5.88 C38.45 3.53, 36.05 0.98, 33.57 -0.58 M41.25 2.65 C40 1.31, 39.04 1.05, 37.27 -0.44 M41.32 3.1 C40.25 1.88, 39.53 1.48, 37.43 -0.2" stroke="#f6f7f7" stroke-width="0.25" fill="none"></path><path d="M-1.03 -1.77 C7.29 2.2, 19.69 0.08, 40.19 -0.37 M0.72 0.75 C10.6 -0.33, 21.69 0.6, 40.52 -0.17 M40.89 1.42 C39.53 7.06, 39.3 12.85, 38.09 18.39 M40.65 -0.92 C39.38 6.72, 39.33 14.17, 40.73 19.01 M39.67 20.55 C32.05 20.44, 20.53 21.57, -0.08 19.32 M39.51 20.07 C27.17 19.91, 12.63 20.94, 0.95 19.88 M-0.84 20.87 C1.7 15.96, 0.75 10.97, -0.85 -1.68 M-0.64 20.19 C0.67 12.68, 0.61 5.61, 0.22 0.52" stroke="#343a40" stroke-width="0.5" fill="none"></path></g><g transform="translate(324.9145326692566 269.2393925997244) rotate(269.7110124019013 9.818611145019531 9.599999999999909)"><text x="0" y="0" font-family="Virgil, Segoe UI Emoji" font-size="16.317150229200426px" fill="#fff" text-anchor="start" style="white-space: pre;" direction="ltr" dominant-baseline="text-before-edge">3v</text></g><g stroke-linecap="round" transform="translate(280.08892577309064 210.00000000000318) rotate(0 4 4)"><path d="M0 0 L8 0 L8 8 L0 8" stroke="none" stroke-width="0" fill="#ced4da"></path><path d="M0 0 C2.88 0, 5.77 0, 8 0 M0 0 C2.46 0, 4.91 0, 8 0 M8 0 C8 1.83, 8 3.67, 8 8 M8 0 C8 2.21, 8 4.42, 8 8 M8 8 C6.26 8, 4.52 8, 0 8 M8 8 C5.64 8, 3.28 8, 0 8 M0 8 C0 5.54, 0 3.08, 0 0 M0 8 C0 5.36, 0 2.71, 0 0" stroke="#343a40" stroke-width="1" fill="none"></path></g><g stroke-linecap="round" transform="translate(296.08892577309064 210.00000000000045) rotate(0 4 4)"><path d="M0 0 L8 0 L8 8 L0 8" stroke="none" stroke-width="0" fill="#ced4da"></path><path d="M0 0 C2.11 0, 4.23 0, 8 0 M0 0 C2.01 0, 4.02 0, 8 0 M8 0 C8 2.65, 8 5.31, 8 8 M8 0 C8 1.95, 8 3.91, 8 8 M8 8 C6.14 8, 4.29 8, 0 8 M8 8 C5.22 8, 2.44 8, 0 8 M0 8 C0 6.36, 0 4.72, 0 0 M0 8 C0 5.71, 0 3.42, 0 0" stroke="#343a40" stroke-width="1" fill="none"></path></g><g stroke-linecap="round" transform="translate(280.08892577309064 226.00000000000227) rotate(0 4 4)"><path d="M0 0 L8 0 L8 8 L0 8" stroke="none" stroke-width="0" fill="#ced4da"></path><path d="M0 0 C2.08 0, 4.15 0, 8 0 M0 0 C3.11 0, 6.23 0, 8 0 M8 0 C8 2.06, 8 4.13, 8 8 M8 0 C8 2.11, 8 4.22, 8 8 M8 8 C6.39 8, 4.78 8, 0 8 M8 8 C6.2 8, 4.4 8, 0 8 M0 8 C0 4.87, 0 1.73, 0 0 M0 8 C0 5.35, 0 2.7, 0 0" stroke="#343a40" stroke-width="1" fill="none"></path></g><g stroke-linecap="round" transform="translate(296.0889257730902 226.00000000000182) rotate(0 4 4)"><path d="M0 0 L8 0 L8 8 L0 8" stroke="none" stroke-width="0" fill="#ced4da"></path><path d="M0 0 C1.91 0, 3.81 0, 8 0 M0 0 C2.59 0, 5.18 0, 8 0 M8 0 C8 2.03, 8 4.07, 8 8 M8 0 C8 1.86, 8 3.71, 8 8 M8 8 C5.17 8, 2.34 8, 0 8 M8 8 C6.16 8, 4.31 8, 0 8 M0 8 C0 4.99, 0 1.98, 0 0 M0 8 C0 6.01, 0 4.03, 0 0" stroke="#343a40" stroke-width="1" fill="none"></path></g><g stroke-linecap="round" transform="translate(312.0889257730902 210) rotate(0 4 4)"><path d="M0 0 L8 0 L8 8 L0 8" stroke="none" stroke-width="0" fill="#ced4da"></path><path d="M0 0 C3 0, 6 0, 8 0 M0 0 C2.87 0, 5.73 0, 8 0 M8 0 C8 2.37, 8 4.73, 8 8 M8 0 C8 2.16, 8 4.31, 8 8 M8 8 C4.97 8, 1.94 8, 0 8 M8 8 C5.09 8, 2.19 8, 0 8 M0 8 C0 5.32, 0 2.64, 0 0 M0 8 C0 5.54, 0 3.08, 0 0" stroke="#343a40" stroke-width="1" fill="none"></path></g><g stroke-linecap="round" transform="translate(312.0889257730902 225.9999999999991) rotate(0 4 4)"><path d="M0 0 L8 0 L8 8 L0 8" stroke="none" stroke-width="0" fill="#ced4da"></path><path d="M0 0 C2.33 0, 4.66 0, 8 0 M0 0 C2.42 0, 4.85 0, 8 0 M8 0 C8 1.68, 8 3.36, 8 8 M8 0 C8 2.68, 8 5.35, 8 8 M8 8 C4.83 8, 1.66 8, 0 8 M8 8 C5.21 8, 2.43 8, 0 8 M0 8 C0 4.99, 0 1.99, 0 0 M0 8 C0 5.23, 0 2.45, 0 0" stroke="#343a40" stroke-width="1" fill="none"></path></g><g stroke-linecap="round" transform="translate(180.08892577309064 10) rotate(0 20 40)"><path d="M0.45 0.55 L38.23 -0.77 L38.8 81.56 L1.64 81.19" stroke="none" stroke-width="0" fill="#f6f7f7"></path><path d="M1.12 1.26 C6.29 0.65, 14.13 1.51, 41.59 -1.07 M-0.83 -0.46 C10.12 0.24, 20.54 -1.23, 40.63 -0.74 M40.13 0.82 C42.03 27.13, 42.53 60, 39.72 81.06 M40.84 -0.97 C40.19 18.19, 39.75 34.76, 40.91 80.02 M38.43 80.41 C26.98 79.61, 14.39 82.06, -1.94 81.6 M39.1 79.91 C28.69 80.9, 15.62 81.08, -0.66 80.43 M-0.24 78.14 C-1.92 64.17, -0.86 45.82, 0.81 -0.5 M0.58 80.41 C0.44 58.8, -1.13 39.75, -0.35 -0.24" stroke="#343a40" stroke-width="4" fill="none"></path></g><g stroke-linecap="round" transform="translate(220.08892577309064 10) rotate(0 10 40)"><path d="M1.24 -1.98 L21.75 1.79 L19.72 81.06 L-1.68 81.23" stroke="none" stroke-width="0" fill="#ced4da"></path><path d="M-0.26 1.61 C5.25 0.97, 13.71 -1.67, 18.63 -0.8 M0.43 0.25 C4.74 -0.41, 8.6 -0.05, 19.93 -0.04 M18.45 -0.3 C21.12 25.85, 19.74 53.25, 20.24 80.79 M20.6 -0.02 C19.94 29.44, 19.73 59.65, 20.09 79.04 M19.11 79.34 C13.24 79.95, 9.74 79.82, 0.15 81.63 M20.94 80.26 C13.29 78.93, 8.99 80.61, 0.56 80.63 M1.79 81.59 C-1.44 62.25, -1.65 48.06, -1.66 -0.92 M-0.83 80.63 C-1.25 59.2, 0.48 36.19, 0.06 0.41" stroke="#343a40" stroke-width="4" fill="none"></path></g></svg>