<svg version="1.1" xmlns="http://www.w3.org/2000/svg" viewBox="0 0 220 200" width="440" height="400">
  <!-- svg-source:excalidraw -->
  
  <defs>
    <style class="style-fonts">
      @font-face {
        font-family: "Virgil";
        src: url("https://excalidraw.com/Virgil.woff2");
      }
      @font-face {
        font-family: "Cascadia";
        src: url("https://excalidraw.com/Cascadia.woff2");
      }
    </style>
  </defs>
  <g stroke-linecap="round" transform="translate(10 10) rotate(0 100 90)"><path d="M31.8 -1.02 L169.74 1.64 L183.42 0.92 L192.46 9.56 L197.34 19.03 L200.66 33.37 L198.29 149.02 L198.55 162.6 L191.42 172.73 L183.71 179.85 L166.27 178.05 L31.15 180.84 L16.8 179.01 L7.27 172.38 L1.37 163.69 L1.88 148.35 L-0.76 22.79 L0.22 17.75 L6.1 9.11 L18.9 0.67 L31.02 -1.49" stroke="none" stroke-width="0" fill="#868e96"></path><path d="M32 0 M32 0 C85.08 -2.18, 141.05 0.88, 168 0 M32 0 C79.72 -0.08, 128.82 0.89, 168 0 M168 0 C189.43 -1.05, 201.83 12.14, 200 32 M168 0 C187.87 0.36, 198.25 11.23, 200 32 M200 32 C197.39 71.28, 199.76 114.31, 200 148 M200 32 C198.9 64.43, 199.51 97.04, 200 148 M200 148 C199.93 171.03, 189.3 180, 168 180 M200 148 C202.22 168.93, 189.89 179.87, 168 180 M168 180 C128.97 182.31, 94.81 179.8, 32 180 M168 180 C121.95 178.68, 76.57 179.4, 32 180 M32 180 C11.88 180.71, 0.43 168.82, 0 148 M32 180 C12.29 179.93, -0.61 170.37, 0 148 M0 148 C-0.8 122.15, 1.53 98.64, 0 32 M0 148 C0.3 107.64, -0.23 68.27, 0 32 M0 32 C-1 10.01, 11.55 -1.88, 32 0 M0 32 C-2.29 9.15, 8.38 -1.43, 32 0" stroke="#343a40" stroke-width="0.5" fill="none"></path></g><g stroke-linecap="round" transform="translate(20 140) rotate(0 10 10)"><path d="M1.09 4.92 C1.09 4.92, 1.09 4.92, 1.09 4.92 M1.09 4.92 C1.09 4.92, 1.09 4.92, 1.09 4.92 M0.24 9.19 C1.77 6.46, 4.88 3.32, 8.01 1.7 M-0.34 9 C1.45 7.12, 3.64 5.51, 7.38 1.07 M-0.2 12.7 C1.34 8.18, 5.55 5.15, 8.24 2 M-0.36 12.04 C1.83 8.97, 4.23 6.3, 9.12 1.82 M-0.67 13.08 C5.05 12.72, 6.71 9.47, 13.04 2.74 M1.5 14.64 C4.83 9.85, 8.85 5.12, 11.52 1.65 M1.49 16.05 C6.76 14.27, 6.95 8.26, 15.41 1.68 M3.1 15.91 C5.41 12.38, 7.65 9.74, 14.98 1.65 M2.41 18.23 C5.59 14.69, 8.05 11.82, 15.48 3.03 M2.62 16.96 C7.96 12.03, 10.97 8.25, 16.32 3.32 M7.07 18.95 C10.24 14.93, 11.91 11.91, 17.22 3.56 M5.51 17.86 C7.99 14.89, 9.68 12.36, 17.47 4.68 M5.91 17.76 C8.89 14.02, 13.81 12.55, 18.53 6.13 M6.25 19.15 C9.67 15.95, 11.7 13.05, 18.05 6.22 M10.14 21.17 C10.91 15.68, 14.96 12.1, 19.61 8.57 M8.95 20.12 C11.09 18.26, 12.52 15.5, 19.75 8.65 M9.49 20.99 C13.94 16.28, 16.65 13.24, 20.84 10.61 M11.17 20.69 C14.11 17.34, 16.39 13.81, 19.33 10.22 M1.97 16.02 C1.97 16.02, 1.97 16.02, 1.97 16.02 M1.97 16.02 C1.97 16.02, 1.97 16.02, 1.97 16.02 M9.22 20.93 C7.44 17.35, 3.94 13.13, 0.47 12.54 M10.25 20.73 C8.39 18.87, 4.88 16.77, -0.63 10.79 M11.59 20.26 C7.74 17.01, 2.94 12.9, -0.17 9.89 M12.56 20.1 C8.75 16.24, 4.42 12.73, 0.12 9.45 M13.61 20.03 C11.73 15.04, 4.77 10.54, -0.87 8.57 M13.33 18.77 C10.35 15.06, 6.87 13.59, 0.02 7.1 M15.13 18.9 C12.74 14.45, 7.22 10.69, -0.79 6.24 M16.28 17.79 C12.13 15.2, 7 10.46, 0.61 5.06 M16.41 16.73 C14.35 14.26, 9.19 9.88, 2.27 5.66 M17.45 15.93 C13.44 11.43, 7.97 7.21, 3.8 3.71 M19.7 14.43 C17.13 11.81, 13.28 9.65, 3.46 2.86 M19.48 15.1 C13.8 9.48, 7.01 5.26, 4.45 2.38 M21.91 14 C16.47 8.66, 8.58 5.97, 7.43 1.13 M20.6 13.72 C16.66 10.34, 13 6.18, 7.29 2.03 M22.27 12.2 C16.3 8.04, 10.99 5.25, 7.92 0.62 M19.96 10.76 C16.35 7.24, 11.4 3.44, 7.4 0.45 M20.61 7.85 C18.34 5.92, 16.21 3.51, 10.78 -0.56 M19.96 7.2 C17.52 5.67, 15.54 3.96, 11.65 0.64" stroke="#ced4da" stroke-width="0.25" fill="none"></path><path d="M7.01 0.87 C8.96 0.19, 12.63 0.7, 14.49 1.59 C16.35 2.48, 17.27 4.35, 18.18 6.22 C19.09 8.09, 20.4 10.77, 19.95 12.82 C19.51 14.87, 17.15 17.17, 15.5 18.51 C13.85 19.86, 12.29 21.29, 10.06 20.89 C7.82 20.5, 3.85 17.74, 2.11 16.15 C0.37 14.56, -0.22 13.25, -0.38 11.37 C-0.54 9.48, -0.53 6.69, 1.17 4.83 C2.87 2.96, 7.91 0.75, 9.82 0.19 C11.73 -0.36, 12.42 1.33, 12.64 1.5 M6.73 -0.94 C8.97 -1.35, 12.73 0.49, 14.58 1.4 C16.43 2.32, 17.15 2.55, 17.83 4.57 C18.51 6.6, 18.91 11.14, 18.66 13.55 C18.42 15.95, 17.99 18.06, 16.36 18.99 C14.73 19.92, 10.96 19.14, 8.89 19.12 C6.82 19.09, 5.27 20.08, 3.94 18.84 C2.61 17.6, 1.35 14.14, 0.91 11.66 C0.48 9.18, 0.4 5.72, 1.33 3.96 C2.27 2.2, 5.41 1.63, 6.53 1.1 C7.65 0.56, 8.07 0.47, 8.05 0.75" stroke="#343a40" stroke-width="0.5" fill="none"></path></g><g stroke-linecap="round" transform="translate(50 140) rotate(0 10 10)"><path d="M4.79 1.52 C4.79 1.52, 4.79 1.52, 4.79 1.52 M4.79 1.52 C4.79 1.52, 4.79 1.52, 4.79 1.52 M2.32 7.12 C4.47 5.19, 6.28 2.63, 8.89 0.11 M2.16 7.11 C4.3 5.19, 6.66 2.99, 8.37 0.45 M2.54 9.66 C4.32 7.46, 7.59 2.01, 11.59 -0.22 M1.88 10.27 C4.66 6.77, 7.83 3.59, 11.4 -0.29 M0.39 16.11 C4.92 13.02, 6.54 10.35, 14.04 3.06 M1.95 13.96 C4.49 10.86, 7.09 8.18, 12.94 1.02 M3.56 17.46 C8.67 10.66, 9.54 8.08, 14.58 0.83 M3.41 16.03 C6 12.03, 9.47 9.28, 14.55 1.47 M5.18 16.79 C9.64 10.98, 14.77 5.52, 16.79 3.39 M3.91 17.53 C7.02 12.71, 11.31 10.09, 17.08 2.68 M6.95 19.96 C11.44 12.6, 17.06 7.53, 18.07 1.65 M5.74 18.46 C10.69 11.76, 16.13 7.06, 19.31 3.36 M6.42 17.33 C9.66 15.51, 15.28 12.31, 19.5 4.24 M7.89 18.95 C10.8 14.86, 14.04 11.77, 19.59 5.6 M10.15 19.35 C12.81 14.92, 17.51 10.72, 20.75 5.94 M9.04 20.68 C13.29 15.76, 16.55 12.89, 20.83 8.04 M11.55 20.65 C12.83 17.64, 15.77 16.98, 20.92 10.62 M11.25 21.22 C13.46 18.01, 15.49 15.27, 20.53 9.96 M0.02 13.7 C0.02 13.7, 0.02 13.7, 0.02 13.7 M0.02 13.7 C0.02 13.7, 0.02 13.7, 0.02 13.7 M7.73 18.17 C4.46 15.7, 0.82 13.12, 0.75 10.09 M7.59 17.92 C5.19 14.96, 2.69 13.09, -0.5 11.31 M13.94 20.21 C10.31 15.97, 5.59 11.46, 1.25 8.89 M13.77 20.24 C9.28 16.41, 5.24 13.43, 0.78 8.58 M15.83 19.77 C9.88 12.85, 4.39 9.26, 2.6 5.68 M14.57 17.94 C9.58 14.02, 6.79 10.16, 1.13 6.69 M17.57 18.75 C12.01 13.49, 7.24 6.62, 3.67 4.77 M16.52 17.63 C13.56 13.48, 8.74 10.22, 2.55 4.98 M18.28 16.99 C14.9 11.93, 9.56 6.88, 5.34 4.15 M17.48 16.63 C12.79 12, 8.22 8.7, 3.38 2.67 M18.81 15.72 C14.47 11.27, 10.71 6.11, 5.36 3.89 M19.47 15.13 C14 10.08, 10.07 6.33, 4.88 2.83 M20.44 13.93 C14.26 6.75, 10.77 3.91, 5.79 0.07 M20.16 12.46 C16.37 9.56, 11.96 6.96, 6.69 0.65 M22.11 10.37 C17.64 5.97, 14.62 4.41, 8.85 0.44 M20.67 10.92 C16.38 6.1, 11.62 1.75, 8.69 -1.09 M21.83 9.06 C17.56 5.34, 12.65 1.12, 10.6 -0.05 M21.06 8.68 C19.47 7.35, 17.79 5.16, 12.02 -0.15 M20.01 4.23 C18.5 2.91, 16.91 2.39, 16.5 1.09 M20.17 4.59 C19.17 3.95, 18.21 3.22, 16.36 1.36" stroke="#ced4da" stroke-width="0.25" fill="none"></path><path d="M11.65 0.4 C13.67 0.41, 16.47 0.72, 17.94 2.26 C19.42 3.81, 20.43 7.43, 20.49 9.67 C20.56 11.9, 19.64 13.84, 18.34 15.66 C17.04 17.48, 14.67 20.17, 12.69 20.58 C10.72 20.98, 8.6 19.25, 6.46 18.08 C4.32 16.91, 0.79 15.48, -0.15 13.56 C-1.08 11.64, -0.02 8.6, 0.84 6.56 C1.69 4.51, 3.07 2.4, 4.99 1.29 C6.9 0.18, 10.83 -0.14, 12.32 -0.09 C13.8 -0.03, 13.92 1.51, 13.88 1.62 M4.44 1.73 C6.57 0.63, 11.17 -0.88, 13.35 -0.63 C15.53 -0.38, 16.16 1.26, 17.51 3.23 C18.85 5.19, 21.32 8.98, 21.42 11.17 C21.52 13.36, 20.04 14.8, 18.12 16.37 C16.2 17.95, 11.99 20.18, 9.9 20.61 C7.81 21.04, 7.15 20.34, 5.6 18.95 C4.05 17.57, 1.48 14.58, 0.59 12.31 C-0.3 10.03, -0.74 7.03, 0.24 5.31 C1.22 3.59, 5.51 2.81, 6.47 1.98 C7.43 1.14, 5.82 0.14, 6.02 0.29" stroke="#343a40" stroke-width="0.5" fill="none"></path></g><g stroke-linecap="round" transform="translate(80 140) rotate(0 10 10)"><path d="M1.12 4.95 C1.12 4.95, 1.12 4.95, 1.12 4.95 M1.12 4.95 C1.12 4.95, 1.12 4.95, 1.12 4.95 M-0.28 8.97 C2.69 5.99, 4.88 5.36, 6.67 1.37 M-0.29 9.16 C1.7 7.88, 3.33 5.89, 7.08 1.37 M-1.07 11.11 C3.38 7.79, 4.58 6.29, 8.8 2.1 M-0.46 11.71 C2.13 8.91, 5.02 6.71, 8.73 0.84 M2.66 15.32 C4.77 11.77, 7.28 9.67, 13.6 -0.04 M0.52 14.85 C4.22 10.33, 8.36 5.22, 11.55 1.57 M4.21 17.24 C4.54 11.12, 9.09 9.08, 12.97 1.21 M2.78 15.33 C4.92 12.65, 8.34 9.21, 13.62 2.75 M3.08 17.83 C6.85 13.5, 10.95 8.35, 16.48 2.55 M3.82 16.88 C7.2 12.88, 12.78 7.68, 15.77 3.71 M6.95 18.98 C9.64 14.59, 14.4 6.69, 15.87 5.99 M5.6 17.86 C8.46 14.02, 13.12 9.8, 17.41 4.18 M5.52 17.84 C9.69 17.43, 12.54 13.3, 17.14 5.98 M7.04 19.03 C10.29 14.91, 14.46 10.59, 18.43 7.38 M7.7 19.56 C11.13 16.52, 14.79 14.03, 17.66 8.91 M8.95 20.72 C10.23 18.14, 13.45 15.98, 19.62 8.11 M10.55 20.13 C12.34 18.27, 16.47 15.85, 20.27 9.8 M11.12 20.77 C13.01 17.69, 15.38 14.84, 19.61 11.32 M2.71 16.69 C2.71 16.69, 2.71 16.69, 2.71 16.69 M2.71 16.69 C2.71 16.69, 2.71 16.69, 2.71 16.69 M11.91 21.06 C7.95 16.35, 3.67 15.37, -1.69 11.63 M11.54 21.55 C6.32 18.11, 2.8 13.84, 0.14 11.72 M12.46 21.16 C9.59 18.75, 6.39 15.64, 0.22 8.98 M12.48 19.47 C7.75 15.73, 3.93 12.91, -0.06 9.24 M15.62 18.43 C8.54 13.89, 4.69 13.49, -0.25 7.2 M13.78 18.06 C9.89 16.14, 5.81 12.06, 0.76 7.44 M17.58 18.53 C11.53 14.32, 3.61 10.1, 0.88 4.16 M16.4 18.86 C9.98 12.99, 4.51 8.46, 1.11 4.98 M18.63 18.05 C13.54 13.7, 8.3 11.02, 3.14 3.52 M18.25 15.64 C13.91 12.35, 10.93 9.81, 1.58 3.18 M20.13 14.38 C14.34 10.56, 7.96 6.8, 6.42 2.88 M19.53 14.38 C13.31 10.75, 8.55 6.07, 5.37 3.29 M21.06 12.56 C14.15 10.88, 11.83 5.12, 5.42 0.11 M19.59 12.86 C14.68 7.72, 10.19 4.67, 6 0.8 M20.3 11.54 C14.26 8.39, 11.45 3.91, 8.01 0.75 M20.87 11.22 C17.49 8.65, 14.37 6.42, 6.39 0.22 M20.19 7.48 C17.31 4.42, 14.09 2.37, 10.6 -1.19 M19.84 7.7 C16.88 5.08, 13.18 1.93, 10.51 0.22" stroke="#ced4da" stroke-width="0.25" fill="none"></path><path d="M14.13 1.44 C15.98 2.09, 17.02 4.04, 18 5.87 C18.99 7.7, 20.41 10.37, 20.04 12.44 C19.68 14.51, 17.42 16.87, 15.82 18.28 C14.22 19.69, 12.68 21.23, 10.44 20.92 C8.21 20.61, 4.19 17.94, 2.4 16.42 C0.6 14.89, -0.1 13.63, -0.34 11.75 C-0.58 9.88, -0.21 7, 0.95 5.15 C2.11 3.3, 4.32 1.16, 6.6 0.66 C8.88 0.16, 12.93 1.88, 14.64 2.16 C16.35 2.44, 16.99 2.5, 16.86 2.36 M6.52 1.65 C8.17 0.77, 9.75 -1.09, 11.5 -0.42 C13.25 0.25, 15.58 3.61, 17.02 5.66 C18.47 7.71, 20.29 10.15, 20.18 11.89 C20.07 13.64, 17.8 14.55, 16.37 16.13 C14.94 17.71, 13.47 20.97, 11.6 21.37 C9.73 21.76, 7.06 20.09, 5.15 18.52 C3.25 16.94, 0.95 13.95, 0.18 11.94 C-0.6 9.93, -0.58 8.28, 0.52 6.46 C1.62 4.65, 6.03 1.7, 6.77 1.05 C7.52 0.39, 4.92 2.55, 4.99 2.53" stroke="#343a40" stroke-width="0.5" fill="none"></path></g><g stroke-linecap="round" transform="translate(110 140) rotate(0 10 10)"><path d="M2.4 3.41 C2.4 3.41, 2.4 3.41, 2.4 3.41 M2.4 3.41 C2.4 3.41, 2.4 3.41, 2.4 3.41 M0.97 8.4 C2.67 5.89, 6.72 1.82, 8.89 -1.51 M1.15 7.84 C3.4 5.96, 4.94 3.61, 8.89 -0.58 M0.56 10.95 C2.71 6.92, 6.56 4.73, 10.52 0.36 M1.11 9.97 C3.07 8.23, 5.6 5.62, 9.36 0.32 M3.35 13.49 C4.85 11.03, 7.61 9.22, 10.96 2.2 M2.93 11.94 C6.51 8.09, 9.57 4.05, 12.37 0.76 M4.84 13.94 C4.68 12.49, 8.37 7.04, 13.69 0.51 M3.04 14.54 C7.37 10.62, 11.01 4.64, 15.14 1.98 M4.32 16.2 C7.58 12.85, 10.04 10.25, 15.84 3.41 M3.36 16.04 C7.16 14.03, 9.74 10.3, 17 3.22 M6.46 17.68 C12.12 12.32, 14.08 5.35, 19.56 3.99 M5.29 17.18 C9.43 13.95, 13.16 9.59, 17.65 3.03 M5.38 19.37 C10.78 16.67, 12.22 12, 18.22 6.38 M6.64 18.71 C9.21 16.44, 11.57 14.02, 19.7 5.57 M7.25 20.44 C12.24 15.97, 17.87 8.32, 20.66 5.33 M8.55 20.21 C12.49 16.69, 16.9 11.79, 19.76 6.7 M10.97 18.94 C13.54 18.54, 15.59 15.91, 19.72 9.76 M11.56 19.44 C14.62 15.59, 17.87 12.26, 21.12 10.15 M15.54 17.37 C18.21 16.95, 18.79 14.68, 20.5 12.26 M15.98 18.37 C17.72 16.46, 18.86 15.29, 21.04 12.98 M2.42 15.51 C2.42 15.51, 2.42 15.51, 2.42 15.51 M2.42 15.51 C2.42 15.51, 2.42 15.51, 2.42 15.51 M9.15 18.04 C7.29 16.25, 5.09 14.91, 1.41 12.39 M8.2 17.81 C5.63 15.92, 3.66 13.74, 1.56 12.01 M10.86 16.53 C7.37 14.46, 6.99 12.65, 1.47 9.09 M10.6 17.4 C9.69 15.53, 7.24 14.34, 1.65 9.58 M13.64 17.31 C11.13 13.09, 8.72 11.96, 1.38 8.1 M13.89 16.37 C9.75 13.51, 6.6 10.94, 2 6.86 M18.32 17.39 C14.17 13.47, 11.65 12.11, 2.65 3.74 M16.04 17.28 C11.94 14.44, 8.43 9.48, 2.33 5.27 M17.54 16.25 C12.89 10.29, 8.25 8.93, 3.46 3.79 M17.54 15.38 C12.84 11.09, 7.12 7.33, 3.9 2.77 M19.22 13.24 C15.49 10.38, 7.57 4.15, 4.2 3.06 M19.53 14.56 C13.6 10.78, 9.99 5.94, 4.93 2.22 M21.04 10.92 C16.21 7.92, 10.12 3.98, 7.77 -1.2 M20.71 12.38 C17.9 9.68, 15.33 6.89, 7.21 0.05 M20.9 10.63 C14.75 5.4, 10.07 2.19, 6.94 0.74 M21.22 11.32 C17.7 7.24, 13.22 3.05, 8.94 -0.22 M20.89 6.68 C17.38 6.18, 16.31 2.38, 8.45 -2.21 M21.18 8.35 C18 6, 16.2 3.63, 9.84 -2.57" stroke="#ced4da" stroke-width="0.25" fill="none"></path><path d="M9.04 -0.72 C11.03 -1.19, 13.81 0.48, 15.59 1.66 C17.37 2.84, 19.04 4.26, 19.73 6.37 C20.42 8.49, 20.37 12.45, 19.73 14.36 C19.08 16.27, 17.93 17, 15.85 17.84 C13.76 18.68, 9.39 19.75, 7.2 19.4 C5.01 19.06, 3.82 17.4, 2.7 15.76 C1.59 14.11, 0.52 11.64, 0.5 9.54 C0.48 7.45, 0.74 4.61, 2.59 3.19 C4.44 1.76, 9.84 1.49, 11.62 0.97 C13.39 0.45, 13.55 0.21, 13.26 0.07 M10.06 -0.98 C12.2 -1.56, 13.35 -0.63, 15.21 0.84 C17.06 2.32, 20.38 5.72, 21.19 7.87 C22 10.01, 21.41 11.7, 20.06 13.69 C18.72 15.68, 15.03 18.68, 13.12 19.8 C11.2 20.92, 10.44 21.15, 8.58 20.41 C6.71 19.66, 3.48 17.32, 1.94 15.34 C0.4 13.35, -0.97 10.41, -0.67 8.49 C-0.37 6.58, 2.03 5.37, 3.72 3.83 C5.41 2.29, 8.28 -0.35, 9.46 -0.77 C10.63 -1.19, 10.93 0.98, 10.77 1.32" stroke="#343a40" stroke-width="0.5" fill="none"></path></g><g stroke-linecap="round" transform="translate(140 140) rotate(0 10 10)"><path d="M0.66 5.88 C0.66 5.88, 0.66 5.88, 0.66 5.88 M0.66 5.88 C0.66 5.88, 0.66 5.88, 0.66 5.88 M0.74 8.67 C2.63 8.09, 3.24 5.79, 5.33 2.14 M0.29 9.73 C1.91 7.83, 3.13 6.32, 6.09 2.54 M0.19 11.82 C2.05 9.73, 6.01 5.88, 9.14 0.58 M-0.94 12.66 C2.52 10.07, 4.96 5.65, 9.09 0.96 M2.23 14.88 C4.65 12.65, 7.82 6.79, 13.42 2.46 M0.48 15.18 C4.7 9.98, 8.7 5.25, 11.79 1.02 M1.31 15.17 C6.99 11.58, 8.45 6.55, 12.49 3.95 M1.94 16.63 C6.86 11.45, 9.6 7.75, 14.04 2.36 M3.05 18.22 C7.48 12.72, 12.65 7.37, 17.07 1.85 M2.89 18.02 C7.04 14.49, 9.46 11.38, 16.88 4.18 M4.06 21.74 C8.77 13.43, 11.81 10.83, 17.87 4.61 M3.54 19.95 C8.22 15.87, 11.72 11.11, 16.85 4.02 M7.27 20.49 C10.33 16.3, 11.28 13.15, 20.37 3.44 M6.58 19.28 C10.52 15.36, 14.29 12.71, 19.51 6.18 M9.9 18.57 C13.94 15.69, 15.31 12.23, 18.47 8.79 M9.71 19.16 C12.95 16.84, 15.04 13.72, 19.61 7.4 M13.04 18.22 C15.85 16.53, 17.12 14.08, 19.37 12.21 M13.38 18.02 C14.47 16.69, 15.93 15.88, 19.65 11.78 M16.03 18.57 C17.82 16.87, 18.55 15.72, 18.75 15.11 M16.6 18.38 C16.88 17.71, 17.58 17.15, 19.16 15.1 M3.76 18.54 C3.76 18.54, 3.76 18.54, 3.76 18.54 M3.76 18.54 C3.76 18.54, 3.76 18.54, 3.76 18.54 M7.45 19.95 C4.58 17.33, 2.25 14.51, 0.18 12.95 M7.19 18.77 C4.57 16.82, 1.7 14.28, -0.23 12.27 M8.95 17.76 C5.35 16.8, 2.15 12.62, 0.22 9.01 M9.82 19.41 C6.76 16.26, 4.3 13.89, 0.71 9.9 M13.43 19.44 C7.08 16.15, 4.18 10.78, 2.03 8.11 M12.43 18.6 C8.97 15.91, 5.83 12.75, 0.71 7.61 M15.85 19.33 C9.87 16.21, 6.73 10.41, -0.49 4.99 M15.74 17.61 C12.43 14.75, 7.07 11.51, 1.12 5.71 M18.28 17.54 C12.42 14.37, 11.34 10.72, 3.85 5.65 M17.41 17.84 C12.72 13.19, 8.76 9.84, 2.83 5.38 M17.34 17.23 C14.32 10.75, 8.17 6.16, 5.29 3.74 M18.66 14.61 C14.18 11.66, 8.69 6.77, 4.45 3.76 M17.18 14.35 C14.09 9.63, 10.04 6.1, 3.93 -0.3 M18.57 13.34 C14.97 10.71, 11.33 8.12, 5.11 2.06 M19.52 9.57 C14.93 6.52, 12.19 3.56, 9.31 1.6 M20.13 11.55 C17.32 9.2, 14.44 7.38, 8.46 0.86 M18.5 7.67 C17.42 6.7, 13.84 2.76, 10.89 0.31 M19.73 8.05 C16.36 5.83, 13.03 2.63, 10.63 1.02 M18.7 4.89 C16.84 2.95, 13.69 0.72, 11.78 -0.78 M18.29 4.91 C16.55 2.93, 14.99 1.73, 12.11 -0.29" stroke="#ced4da" stroke-width="0.25" fill="none"></path><path d="M11.69 0.84 C13.68 1.17, 17.11 2.8, 18.44 4.52 C19.77 6.25, 19.75 8.95, 19.67 11.19 C19.59 13.43, 19.56 16.66, 17.96 17.96 C16.36 19.26, 12.4 18.87, 10.05 18.98 C7.71 19.1, 5.59 19.62, 3.88 18.64 C2.16 17.67, 0.31 15.24, -0.25 13.14 C-0.8 11.03, -0.39 7.9, 0.55 6.01 C1.49 4.12, 3.05 2.65, 5.41 1.8 C7.78 0.95, 13.26 1.12, 14.74 0.92 C16.21 0.73, 14.62 0.55, 14.26 0.65 M4.43 0.37 C5.86 -0.54, 8.81 0.93, 11.1 1.72 C13.39 2.5, 16.82 3.75, 18.17 5.07 C19.53 6.38, 19.26 7.42, 19.23 9.61 C19.19 11.8, 19.16 16.44, 17.97 18.21 C16.78 19.97, 14.33 20.28, 12.07 20.19 C9.81 20.1, 6.39 18.77, 4.39 17.67 C2.39 16.56, 0.49 15.48, 0.07 13.56 C-0.36 11.65, 1.1 8.04, 1.86 6.2 C2.62 4.35, 3.85 3.45, 4.64 2.48 C5.44 1.5, 6.38 0.6, 6.62 0.33" stroke="#343a40" stroke-width="0.5" fill="none"></path></g><g stroke-linecap="round" transform="translate(170 140) rotate(0 10 10)"><path d="M0.95 6.13 C0.95 6.13, 0.95 6.13, 0.95 6.13 M0.95 6.13 C0.95 6.13, 0.95 6.13, 0.95 6.13 M0.45 9.55 C3.16 6.86, 4.33 4.92, 5.94 2.55 M1.39 9.09 C2.54 7.35, 4.03 5.95, 6.29 3.09 M0.3 10.74 C3.66 9.15, 5.5 7.25, 8.9 1.9 M1.02 11.56 C3.44 9.23, 4.25 7.4, 9.23 1.56 M2.74 14.7 C7.95 10.1, 9.53 4.67, 14.31 2.02 M3.04 13.19 C5.07 10.25, 7.59 7.27, 12.86 1.29 M2.55 16.16 C7.77 8.85, 11.65 3.82, 15.93 3.18 M3.92 15.76 C7.14 10.3, 11.75 6.98, 14.43 2.64 M5.06 16.85 C7.91 13.8, 10.92 10.15, 15.5 1.77 M4.87 17.69 C9.08 12.29, 13.7 8.3, 17.83 3.34 M7.93 18.38 C9.71 11.56, 16.92 8.04, 18.46 3.73 M6.23 18.65 C10.07 14.34, 13.26 9.31, 17.9 3.28 M9.04 19.4 C10.24 15.32, 12.37 14.31, 17.77 5.79 M7.96 18.92 C11.23 15.58, 15.64 11.41, 20.23 6.51 M9.58 20.16 C12.83 15.55, 15.51 12.67, 20.96 7.24 M10.17 20.29 C13.81 16.3, 16.65 11.59, 19.58 8.18 M11.59 21.81 C14.35 18.51, 15.99 15.25, 21.26 10.1 M11.31 20.41 C14.53 17.25, 18.49 14.36, 20.63 11.76 M5.48 18.08 C5.48 18.08, 5.48 18.08, 5.48 18.08 M5.48 18.08 C5.48 18.08, 5.48 18.08, 5.48 18.08 M8.93 19.95 C7.74 15.7, 3.9 14.4, 1.79 12.48 M10.1 19.09 C6.12 16.75, 3.53 13.03, 1.32 12.22 M13.12 18.15 C9.31 15.76, 5.42 13.41, 2.74 10.68 M11.58 18.39 C8.82 15.29, 5.27 12.43, 1.85 10.29 M12.59 16.08 C10.67 12.33, 4.51 8.76, -0.54 6.44 M14.74 16.92 C10.95 14.74, 8.01 12.25, 0.63 6.78 M16.95 14.87 C12.35 12.1, 5.49 9.3, 2.43 4.71 M16 16.12 C11.93 12.79, 7.59 8.94, 1.87 5.01 M18.16 14.2 C14.12 11.56, 7.89 5.73, 3.47 2.53 M16.61 15.66 C12.25 9.97, 7.37 6.81, 4.12 3.13 M19.38 13.23 C14.92 11.77, 9.97 6.65, 6.9 2.96 M19.65 14.17 C14.46 10.64, 10.31 5.58, 6.66 2.8 M21.6 12.87 C14.58 7.27, 9.23 4.42, 7.85 1.7 M19.25 12.74 C16.35 8.75, 11.75 5.42, 7.87 1.48 M21.44 9.93 C17.91 7.83, 15.42 3.21, 7.76 -0.61 M20.6 9.47 C17.35 6.16, 14.12 3.5, 9.72 0.22 M18.56 5.8 C16.12 4.17, 13.7 2.84, 12.26 -0.97 M19.88 6.59 C17.4 4.33, 15.27 2.69, 11.77 -0.02" stroke="#ced4da" stroke-width="0.25" fill="none"></path><path d="M12.16 0.41 C14.12 0.71, 16.53 1.49, 17.9 3.21 C19.27 4.94, 20.24 8.72, 20.36 10.76 C20.49 12.81, 20.23 14.05, 18.64 15.49 C17.06 16.93, 13.04 18.97, 10.85 19.4 C8.66 19.84, 7.12 19.15, 5.5 18.1 C3.88 17.06, 1.93 15.1, 1.14 13.14 C0.35 11.18, -0.01 8.15, 0.76 6.35 C1.53 4.55, 3.65 3.4, 5.77 2.33 C7.88 1.26, 12.1 0.22, 13.44 -0.08 C14.79 -0.38, 13.95 0.4, 13.84 0.51 M12 -0.74 C14.12 -0.1, 18.23 2.76, 19.74 4.59 C21.25 6.43, 21.67 8.05, 21.06 10.26 C20.45 12.46, 17.57 16.05, 16.09 17.81 C14.6 19.57, 14.08 20.77, 12.14 20.79 C10.19 20.81, 6.51 19.37, 4.42 17.92 C2.32 16.46, 0.04 13.93, -0.43 12.06 C-0.9 10.2, 0.54 8.71, 1.61 6.72 C2.68 4.72, 3.9 0.96, 5.98 0.09 C8.06 -0.78, 13.15 1.36, 14.1 1.48 C15.06 1.6, 12.19 0.77, 11.72 0.81" stroke="#343a40" stroke-width="0.5" fill="none"></path></g><g stroke-linecap="round" transform="translate(170 20) rotate(0 15 15)"><path d="M1.83 8.21 C1.83 8.21, 1.83 8.21, 1.83 8.21 M1.83 8.21 C1.83 8.21, 1.83 8.21, 1.83 8.21 M1.83 13.58 C2.56 10.08, 4.7 5.61, 9.88 0.42 M0.98 12.71 C3.23 9.88, 6.12 6.01, 10.89 0.54 M-1.17 16.76 C2.16 13.82, 5.09 8.64, 11.98 0.83 M-0.04 16.52 C2.4 11.98, 5.52 8.69, 11.5 3.39 M1.47 20.63 C7.29 11.17, 12.16 7.81, 16.08 1.06 M-0.31 19.35 C5.3 12.77, 10.83 5.63, 15.22 3.25 M3.15 20.05 C6.74 12.4, 12.98 7.21, 18.72 2.62 M2.68 20.02 C5.61 16.03, 11.05 9.44, 18.08 1.96 M2.43 22.17 C9.08 15.17, 15.07 7.83, 19.36 2.79 M3.31 22.48 C6.91 18.13, 11.93 13.77, 21.01 2.7 M3.51 23.36 C8.41 18.48, 16.78 9.41, 21.56 3.28 M3.79 24.6 C8.88 18.22, 13.14 12.16, 21.08 2.33 M4.89 25.95 C7.15 21.12, 13.04 15.4, 23 4.44 M4.33 26.06 C9.72 21.89, 14.07 16.4, 23.84 4 M6.72 27.71 C8.56 23.22, 12.71 18.9, 23.62 6.75 M6.89 27.8 C12.48 20.61, 17.06 13.87, 24.86 5.72 M9.52 28.22 C12.76 22.47, 16.03 20.45, 24.96 8.18 M7.35 27.65 C11.94 24.58, 16.9 19.27, 27.52 7.87 M11.64 28.63 C14.15 24.3, 16.15 20.11, 26.25 9.22 M9.36 30.04 C14.38 25.14, 19.1 18.6, 28.44 9.24 M13.24 32.06 C15.22 24.98, 22.83 19.13, 29.83 12.5 M11.68 29.56 C19.04 23.64, 23.65 15.56, 29.36 10.78 M13.74 31.78 C20.51 23.25, 27.37 17.18, 31.11 13.52 M14.1 31.23 C18.44 25.84, 23.06 20.13, 30.51 13.43 M14.54 33.16 C19.29 27.24, 23.97 20.49, 30.1 14.53 M15.53 31.52 C19.57 28.18, 23.09 23.43, 30.5 16.12 M22.53 26.66 C25.84 22.7, 29.17 20.27, 30.76 17.67 M23.3 26.01 C26.52 22.64, 29.3 18.87, 30.94 17.82 M4.53 26.8 C4.53 26.8, 4.53 26.8, 4.53 26.8 M4.53 26.8 C4.53 26.8, 4.53 26.8, 4.53 26.8 M9.04 28.82 C8.51 27.02, 5.99 25.56, 2.34 22.68 M9.56 28.57 C8.19 27.42, 5.9 25.78, 2.26 22.45 M15.55 29.92 C10.11 26.02, 7.57 23.99, 1.19 18.17 M15.41 30.87 C10.24 26.16, 5.88 23.1, 0.94 17.63 M16.75 30.19 C12.53 26.5, 4.65 18.45, -0.79 15.31 M16.14 30 C10.9 26.05, 6.39 21.42, 0.32 15.37 M17.49 26.75 C13.49 22.32, 10.11 20.11, -1.04 12.99 M19.09 28.94 C12.88 24.68, 8.18 18.83, 0.88 12.33 M21.35 28.49 C14.22 20.58, 9.01 16.18, 3.21 11.36 M20.76 27.92 C14.51 21.98, 7.16 16.52, 2 10.38 M23.92 26.63 C15.47 20.64, 8.45 14.92, 1.83 7.99 M22.09 25.62 C16.37 21.04, 8.85 15.72, 1.23 8.78 M22.42 25.74 C18.44 19.47, 15.58 16.26, 3.85 6.83 M24.42 26.19 C18.14 20, 13.77 16.24, 3.73 6.27 M25.99 22.6 C20.15 18.59, 12.28 14.91, 5.29 7.18 M25.26 23.35 C17.9 17.05, 9.72 11.22, 4.54 6.05 M27.27 22.45 C18.79 14.78, 12.49 9.77, 8.24 3.25 M26.2 22.69 C20.24 16.03, 12.25 9.12, 7.03 4.48 M28.21 21.99 C22.53 16.67, 19.44 13.04, 7.17 3.82 M28.18 21.7 C20.05 15.09, 13.87 8.03, 7.62 2.84 M30.88 20.95 C25.28 15.56, 21.45 11.06, 10.2 1.76 M28.7 19.54 C24.32 15.17, 18.83 9.63, 10.5 1.92 M29.51 19.05 C22.42 11.45, 15.63 7.83, 11.21 -0.25 M31.27 16.98 C25.26 12.72, 19.16 8.11, 12.07 -0.17 M30.34 12.92 C27.56 12.01, 21.53 5.09, 12.66 1.09 M29.6 13.53 C23.81 10.59, 19.9 5.16, 13.25 -0.07 M30.13 11 C25.79 6.89, 20.88 5.04, 16.24 1.74 M29.73 11.27 C25.72 7.93, 21.44 4.98, 16.42 1.1" stroke="#f6f7f7" stroke-width="0.25" fill="none"></path><path d="M20.32 1.17 C23.35 2, 25.93 4.91, 27.65 7.79 C29.37 10.66, 31.28 15.5, 30.64 18.44 C30.01 21.39, 26.51 23.46, 23.84 25.46 C21.18 27.46, 17.83 30.16, 14.66 30.42 C11.49 30.69, 7.29 29.14, 4.82 27.05 C2.36 24.96, 0.41 20.99, -0.12 17.88 C-0.65 14.78, -0.16 11.22, 1.65 8.42 C3.46 5.63, 7.29 2.28, 10.73 1.11 C14.16 -0.06, 20 0.86, 22.25 1.38 C24.51 1.91, 24.46 3.81, 24.27 4.26 M17.23 1.84 C20.45 2.65, 25.17 4.89, 27.17 7.06 C29.17 9.23, 29.31 11.61, 29.22 14.87 C29.13 18.13, 28.55 24.07, 26.63 26.62 C24.7 29.17, 21 30.12, 17.68 30.16 C14.35 30.2, 9.57 28.55, 6.67 26.86 C3.77 25.17, 1.02 22.96, 0.28 20.02 C-0.45 17.09, 1.08 12.08, 2.26 9.24 C3.44 6.41, 4.51 4.66, 7.38 3.02 C10.24 1.38, 17.59 0, 19.45 -0.58 C21.3 -1.16, 18.69 -0.99, 18.51 -0.47" stroke="#343a40" stroke-width="0.5" fill="none"></path></g><g stroke-linecap="round" transform="translate(20 20) rotate(0 15 15)"><path d="M1.57 7.99 C1.57 7.99, 1.57 7.99, 1.57 7.99 M1.57 7.99 C1.57 7.99, 1.57 7.99, 1.57 7.99 M2.59 10.2 C5.11 6.46, 6.83 3.69, 9 1.48 M1.9 10.66 C4.64 7.89, 6.56 5.29, 9.1 1.33 M1.91 13.68 C5.77 9.74, 7.49 5.94, 10.85 0.59 M1.69 13.59 C2.85 11.19, 5.18 8.54, 13.26 2.13 M3.2 18.84 C4.53 12.94, 11.96 7.55, 13.35 3.7 M1.91 16.43 C4.36 13.44, 6.25 11.35, 15.54 3.09 M1.5 18.47 C5.09 13.72, 11.14 11.68, 17.92 1.58 M1.46 19.18 C7.04 14.96, 10.02 10.09, 17.27 2.07 M3.06 21.97 C7.08 17.11, 10.77 9.6, 21.11 0.3 M3.37 21.22 C7.5 17.71, 11.63 12.96, 21.03 2.2 M3.04 21.71 C10.45 18.01, 13.68 11.56, 21.8 2.49 M4.28 23.42 C7.31 18.44, 10.67 14.02, 20.85 2.1 M5.08 23.41 C10.25 19.01, 14.56 11.5, 23.82 2.66 M5.18 24.93 C10.71 19.74, 14.9 15.53, 23.38 2.86 M6.37 24.98 C12.29 18.49, 18.36 12.79, 26.32 4.88 M6.46 27.44 C10.5 20.78, 14.98 15.66, 25.3 4.07 M7.83 28.55 C11.38 22.3, 18.64 15.56, 28.61 3.96 M7.26 27.61 C13.97 22.88, 18.4 17.76, 28.3 4.55 M9.1 29.07 C13.03 22.58, 17.14 17.71, 29.84 5.65 M10.51 29.05 C18.22 20.74, 24.32 11.86, 29.86 6.76 M14.13 27.63 C19.4 22.6, 25.87 15.12, 31.26 10.83 M11.64 30.08 C16.68 24.08, 19.57 20.76, 29.53 10.58 M15.46 29.98 C18.85 25.18, 24.71 20.3, 30.4 12.14 M14.91 29.62 C18.81 25.02, 22.36 21.08, 30.31 12.25 M18.92 28.71 C20.09 26.7, 20.5 24.17, 28.23 14.67 M17.45 29.72 C20.58 26.8, 22.47 23.39, 29.66 16.29 M22.07 27.74 C23.03 26.33, 25.24 23.41, 27.41 21.97 M21.54 27.84 C22.86 26.23, 23.84 24.86, 27.53 21.46 M6.83 27.2 C6.83 27.2, 6.83 27.2, 6.83 27.2 M6.83 27.2 C6.83 27.2, 6.83 27.2, 6.83 27.2 M11.49 29.6 C8.35 26.23, 5.66 23.14, 2.23 19.14 M11.16 28.87 C9.26 26.17, 6.75 24.2, 1.93 19.74 M15.12 29.01 C11.55 27.86, 9.88 24.82, 2.93 18.6 M15.97 29.56 C11.34 26.23, 8 22.8, 2.44 18.45 M18.27 29.5 C15.99 24.32, 9.54 22.37, 2.72 15.55 M18.07 27.7 C14.65 24.83, 10.59 21.97, 2.78 15.27 M17.75 27.48 C13.1 24.76, 10.35 17.21, 3.12 13.29 M19.93 27.32 C13.89 22.62, 6.46 16.97, 2.47 13.2 M23.06 26.31 C15.89 23.05, 12.05 21.58, 3.46 10.9 M22.5 27.41 C14.96 20.17, 7.79 15.57, 2.48 10.47 M24.12 25.46 C15.98 18.32, 8.17 13.31, 1.31 7.28 M23.11 26.53 C17.91 20.13, 12.11 14.87, 2.1 6.42 M25.4 23.78 C17.23 20.48, 12.28 14.23, 3.73 5.23 M25.85 23.7 C18.36 19.7, 13.49 15.06, 3.16 5.96 M25.83 24.21 C19.79 16.17, 14.2 12.21, 6.9 5.67 M26.59 23.43 C20.27 16.65, 14.05 11.74, 5.76 5.21 M27.75 20.59 C21.35 16.91, 17.26 13.82, 5.13 4.2 M27.99 21.98 C21.74 16.18, 15.49 12.09, 6.36 2.48 M29.35 18.28 C23.64 16.24, 19.87 11.14, 8.52 2.57 M29.07 18.37 C20.98 12.74, 12.58 6.03, 7.54 1.11 M31.14 18.3 C25.97 15.99, 21.68 11.2, 9.39 0.06 M29.72 17.93 C22.63 11.08, 14.25 5.42, 9.55 1.28 M30.55 13.41 C24.5 9.73, 22.64 7.48, 11.71 0.21 M28.48 14.79 C25.78 11.41, 22.68 10.13, 11.79 0.17 M27.85 13.89 C25.28 7.73, 17.12 1.96, 16.01 0.87 M28.4 11.33 C26.37 9.34, 21.95 5.17, 14.97 0.38 M29.04 9.73 C25.74 6.45, 23.98 4.15, 20.91 1.26 M29.24 9.52 C25.82 6.24, 22.7 3.68, 20.43 1.86 M28.65 6.64 C28.09 5.94, 27.68 5.47, 26.71 4.5 M28.92 6.62 C27.96 5.9, 27.3 5.28, 26.37 4.61" stroke="#efefef" stroke-width="0.25" fill="none"></path><path d="M9.08 1.06 C11.75 -0.28, 16.17 0.64, 19.37 1.4 C22.57 2.16, 26.69 3.2, 28.29 5.64 C29.88 8.07, 29.35 12.77, 28.96 16.01 C28.57 19.25, 27.98 22.83, 25.94 25.1 C23.89 27.36, 19.92 29.29, 16.68 29.59 C13.44 29.89, 9.04 28.54, 6.48 26.9 C3.92 25.25, 2.13 22.86, 1.32 19.7 C0.51 16.54, -0.04 11.3, 1.64 7.92 C3.31 4.53, 9.02 0.79, 11.36 -0.63 C13.7 -2.05, 15.39 -1.1, 15.67 -0.63 M11.57 1.03 C14.7 -0.09, 18.86 -0.99, 21.47 0.23 C24.08 1.45, 25.62 5.27, 27.23 8.35 C28.84 11.42, 31.56 15.64, 31.14 18.66 C30.72 21.68, 27.58 24.63, 24.73 26.46 C21.87 28.28, 17.18 29.46, 14.02 29.62 C10.86 29.78, 8.07 29.58, 5.78 27.41 C3.49 25.24, 0.64 19.75, 0.26 16.58 C-0.12 13.41, 2.02 10.98, 3.5 8.39 C4.98 5.81, 8.22 2.21, 9.14 1.06 C10.07 -0.09, 8.7 1.46, 9.06 1.48" stroke="#343a40" stroke-width="0.5" fill="none"></path></g><g stroke-linecap="round" transform="translate(90 50) rotate(0 20 30)"><path d="M0 0 C0 0, 0 0, 0 0 M0 0 C0 0, 0 0, 0 0 M0 2.69 C0.93 1.85, 0.89 1.35, 2.42 -0.45 M0.26 2.92 C1.38 1.78, 2.08 0.55, 2.93 -0.08 M0.53 5.79 C1.25 4.4, 2.38 3.02, 4.53 0.63 M-0.54 6.64 C1.69 3.75, 3.63 1.38, 5.24 0.56 M0.23 10.08 C2.21 5.29, 6.18 3.54, 7.19 0.61 M0.09 9.1 C2.1 6.87, 4.16 4.44, 7.33 -0.19 M0.64 12.83 C4.06 7.8, 8.25 5.2, 11.98 0.74 M0.91 11.98 C3.61 6.85, 8.61 3.1, 10.6 -0.23 M0 15.87 C4.29 10.99, 7.25 4.72, 12.1 -2.14 M0.15 15.8 C2.43 11.68, 5.17 9.37, 12.5 -0.51 M-0.79 18.06 C3.78 13.65, 11.06 7.39, 17.58 0.92 M-0.68 18.78 C3.8 13.15, 7.82 8.66, 16.09 -0.4 M-0.55 22.97 C6.44 15.41, 11.31 5.95, 16.66 -0.26 M-0.18 21.92 C5.41 15.59, 10.03 9.23, 19.07 -0.68 M-1.58 22.39 C6.43 14.75, 16.8 7.98, 21.83 1.83 M1.09 25.05 C7.71 15.6, 15.55 5.79, 20.98 -0.98 M1.22 26.96 C8.93 18.84, 17.82 9.95, 22.87 0.47 M-1 28.34 C9.8 16.26, 18.17 7.11, 24.33 0.18 M1.04 30.09 C8.96 20.42, 21.9 5.31, 25.55 1.16 M0.96 30.33 C8.63 20.88, 16.46 11.5, 26.76 0.95 M-0.71 33.43 C11.12 21.66, 20.5 10.47, 28.4 1.56 M-0.6 32.47 C12.12 20.51, 22.29 8.32, 28.09 0.15 M1.61 35.53 C8.6 27.99, 17.49 19.42, 30.75 0.94 M0.27 35.89 C12.14 23.11, 22.85 10.43, 31.89 -0.17 M-0.08 38.55 C11.08 27.29, 21.76 14.42, 33.47 0.1 M0.4 39.18 C12.8 25.92, 24.25 10.89, 34.56 -0.74 M-1.45 43.69 C13.58 25.21, 27.34 12.29, 37.72 -0.17 M0.13 41.94 C13.91 28, 27.33 12.12, 37.48 0.53 M0.26 45.86 C14.64 31.06, 31.26 12.53, 41.59 0.81 M0.65 46.54 C15.09 28.14, 30.48 11.07, 40.13 0.5 M-1.75 50.4 C13.96 34.1, 25.72 19.54, 42.97 2.59 M0.5 48.91 C11.47 36.76, 23.22 22.44, 40.26 0.89 M0.33 50.47 C14.01 35.31, 27.79 21.55, 42.84 4.49 M-0.91 51.07 C12.94 35.84, 26.75 20.91, 41.66 3.31 M1.59 55.06 C13.49 38.92, 26.79 25.88, 40.65 7.32 M-0.24 55.16 C11.1 42.97, 19.7 31.48, 40.96 7.98 M-0.87 59.36 C15.04 43.14, 27.53 24.79, 41.15 12.03 M-0.02 58.99 C10.97 45.07, 21.6 32, 40.78 10.59 M1.43 59.95 C10.35 48.61, 23.24 33.66, 42.36 12.19 M1.09 59.27 C14.23 44.76, 26.42 30.79, 41.18 13.76 M3.79 61.04 C15.78 46.36, 23.75 35.48, 41.68 17.39 M3.15 60.96 C10.87 51.04, 20.04 40.17, 42.18 16.65 M3.75 59.89 C17.88 44.49, 32.14 27.42, 41.98 19.96 M4.75 60.75 C17.88 45.96, 29.76 32.14, 41.2 20.67 M9.76 58.94 C16.34 52.84, 22.79 42.68, 39.55 23.64 M9.12 60.36 C18.45 49.57, 26.99 39.86, 41.46 22.29 M11.94 60.09 C22.78 46.52, 31.78 36.83, 40.3 25.01 M11.26 60.84 C20.31 51.43, 27.8 42.71, 41.58 25.6 M12.78 59.07 C21.57 51.91, 29.68 42.53, 40.41 29.45 M14.09 60.06 C21.22 51.61, 27.72 43.23, 42.6 28.27 M15.88 61.38 C20.71 53.28, 28.08 45.08, 41.07 33.56 M15.55 60.75 C20.71 55.48, 27.15 48.73, 40.22 31.16 M18.06 59.76 C24.54 50.24, 35.09 44.53, 41.2 33.08 M18.13 61.08 C24.32 54.7, 28.97 47.97, 41.79 34.28 M22.03 62.11 C30.39 51.96, 36.95 41.1, 41.54 36.4 M21.97 60.61 C28.96 51.86, 36.68 42.48, 41.93 37.39 M23.14 61.95 C32.29 54.75, 35.26 46.13, 40.72 41.15 M25 59.91 C27.88 56.23, 31.85 52.55, 40.94 40.73 M26.09 62.29 C30.9 58.07, 33.16 54.09, 41.25 44.94 M26.05 60.52 C30.59 56.21, 33.01 52.46, 42.21 44.82 M29.11 61.07 C32.63 54.23, 37.56 52.01, 39.88 45.02 M30.32 59.58 C33.06 57.59, 34.67 53.45, 40.87 46.05 M32.39 59.69 C37.1 55.8, 39.63 53.85, 40.79 51.36 M32.68 59.71 C35.43 56.93, 37.65 54.15, 40.91 50.19 M33.91 60.09 C37.7 58.21, 39.24 55.82, 41.02 52.65 M35.17 60.45 C37.4 57.78, 39.18 55.35, 41.6 53.35 M37.74 60.57 C38.52 58.98, 39.46 58.22, 41.33 55.87 M37.74 60.5 C38.2 59.59, 39.32 58.09, 41.27 55.81 M-0.27 59.76 C-0.27 59.76, -0.27 59.76, -0.27 59.76 M-0.27 59.76 C-0.27 59.76, -0.27 59.76, -0.27 59.76 M3.04 60.03 C2.33 59.58, 1.08 58.19, 0.16 57.22 M3.45 60.15 C2.57 59.46, 1.42 58.89, 0.35 57.49 M5.33 59.42 C4.65 57.9, 2.43 57.37, 0.82 55.13 M5.76 59.8 C4.02 58.79, 2.8 56.67, -0.06 55.06 M8 60.01 C6.25 56.78, 1.76 53.37, -0.32 52.54 M9.22 60.02 C6.1 57.92, 4.29 55.96, 0.32 52.17 M12.86 61.42 C8.78 57.01, 8.15 55.58, -0.06 50.65 M13.22 60.24 C8.1 55.23, 3.33 51.98, 0.54 48.82 M13.81 61.63 C11.25 54.74, 8.69 51.7, -0.05 47.17 M16.03 60.66 C11.11 56.37, 6.76 53.56, 1.05 46.49 M19.37 60.89 C12.39 56.17, 9.35 52.96, 0.5 45.86 M18.85 60.88 C10.54 53.2, 3.77 48.52, -0.22 44.08 M22.28 58.5 C12.72 52.99, 6.07 46.32, -0.34 42.58 M20.99 59.37 C12.04 52.84, 4.9 45.97, 0.02 40.98 M24.16 58.21 C17.02 52.91, 10.61 48.03, -0.56 36.68 M24.39 60.87 C14.97 52.64, 7.49 44.92, -0.64 37.94 M26.63 60.7 C21.64 53.85, 17.24 47.64, -0.6 37.53 M27.23 60.86 C16.58 51.4, 5.33 41.86, 0.89 36.3 M31.86 60.47 C19.16 49.48, 9.76 42.25, -0.29 32.8 M29.9 59.5 C21.6 52.41, 13.23 46.39, 0.59 34.45 M34.4 58.8 C22.11 50.41, 12.16 38.85, 1.75 29.37 M33.22 60.69 C25.05 52.21, 13.7 43.95, -0.66 29.76 M34.96 58.74 C24.35 49.14, 8.97 34.44, -0.12 30.26 M35.63 60.16 C24.29 48.74, 11.71 37.99, 1.15 27.68 M39.02 59.97 C27.21 49.83, 11.34 37.74, -0.75 25.65 M40.2 60.38 C26.01 47.69, 12.03 35.69, 0.35 25.76 M41.09 60.44 C33.35 50.38, 22.99 45.72, -1.6 23.7 M42.34 59.4 C26.21 45.53, 12.66 33.2, 0.56 22.66 M39.55 56 C26.31 45.28, 11.29 31.36, -1.71 20.9 M40.98 56.43 C30.31 45.4, 19.44 36.83, -0.82 19.52 M41.26 53.25 C29.61 44.39, 16.51 34.26, 1.9 18.31 M40.6 53.91 C29.79 42.8, 16.28 32.51, -0.65 18.34 M41.51 51.22 C28.1 38.53, 11.88 29.24, -0.78 15.87 M41.66 51.22 C33.36 42.71, 25.42 36.18, 0.41 15.34 M43.2 48.97 C26.06 37.05, 11.74 23.68, 1.9 11.27 M41.08 47.37 C27.71 36.21, 14.28 23.76, 0.87 12 M39.82 45.85 C25.95 30.88, 9.88 19.05, 0.25 10.27 M41.68 45.4 C27.05 34.78, 15.02 22.62, -1.11 10.36 M40.03 42.44 C27.78 30.95, 14.15 15.93, -1.15 6.95 M40.19 42.35 C30 33.38, 18.36 24.06, 0.26 7.49 M42.76 40.79 C31.5 33.2, 24.95 26.83, 1.54 6.03 M40.71 39.65 C28.95 30.34, 18.29 19.93, 0.8 4.79 M42.75 38.72 C30.86 28.74, 22.02 21.51, -1.93 1.72 M41.67 38.49 C31.23 29.47, 21.2 19.55, -0.56 1.01 M41.58 34.13 C31.97 25.99, 19.74 17.31, 1.87 0.72 M41.28 34.22 C28.13 22.12, 13.41 8.9, 1.34 0.31 M40.28 33.84 C32.62 25.75, 21.11 16.45, 4.85 -2.22 M41.53 32.28 C31.91 23.63, 20.8 13.61, 3.18 -0.06 M42.38 29.95 C32.1 23.03, 23.76 11.82, 5.72 1.38 M41.66 28.68 C31.96 22.16, 22.76 13.47, 6.81 -1.01 M39.46 26.05 C30.69 15.1, 16.57 7.14, 11.07 -0.69 M41.1 27.26 C32.55 20.28, 25.65 12.39, 8.75 0.03 M42.2 25.54 C28.58 15.59, 20.74 4.21, 13.67 -2.48 M40.95 24.18 C34.17 18.57, 28.24 14.59, 11.95 -0.84 M40.99 20.55 C33.23 16.51, 24.34 7.08, 16.29 1.14 M41.98 21.82 C34.6 16.37, 29.37 12.02, 15.96 -0.98 M40.96 20.17 C35.95 14.92, 28.53 8.3, 17.48 1.44 M40.04 19.21 C31.72 11.31, 24.13 4.63, 18.14 -1.14 M39.54 16.78 C34.38 8.17, 26.88 5.72, 22.2 -1.33 M41.09 17.41 C37.11 11.46, 30.32 7.86, 22.68 -0.45 M41.51 14.31 C35.11 8.23, 30.73 5.83, 22.81 0.42 M40.62 13.84 C37.19 10.37, 32.08 6.46, 25.01 -1.07 M39.83 9.39 C37.03 7.26, 29.85 1.79, 26.91 -1.89 M41.54 10.39 C35.7 6.41, 32.21 1.81, 27.87 0.12 M42.1 7.54 C39.79 6.7, 37.03 4.02, 29.76 -0.19 M41.1 8.26 C37.59 5.94, 33.62 2.57, 31.34 -0.65 M40.52 6.04 C40.24 5.21, 37.75 2.57, 33.16 -0.09 M41.73 5.87 C39.27 4.2, 37.13 2.55, 33.45 -0.43 M41.31 3.28 C40.73 1.84, 39.7 1.27, 37.77 0.08 M41.08 2.99 C40.33 2.61, 39.48 1.83, 37.42 -0.37" stroke="#333333" stroke-width="0.25" fill="none"></path><path d="M-1.71 1.02 C14.6 0.32, 27.53 0.45, 41.71 1.85 M0.42 -0.6 C9.04 -0.2, 17.26 -0.15, 40.84 0.94 M38.22 -0.25 C37.72 20.16, 40.52 36.78, 39.02 58.51 M39.49 -0.59 C40.51 24.81, 40.63 47.92, 39.87 59.51 M40.1 58.95 C30.84 61.76, 16.75 60.6, -1.52 60.49 M39.12 59.56 C26.46 61.23, 12.08 59.31, -0.13 59.99 M-0.07 61.69 C-0.39 40.9, 1.57 21.44, 0.48 -0.11 M-0.87 60.75 C0.86 43.04, 0.52 26.24, -0.57 -0.45" stroke="#343a40" stroke-width="0.5" fill="none"></path></g><g transform="translate(20 160) rotate(0 13.912422180175781 9.600000000000023)"><text x="0" y="0" font-family="Virgil, Segoe UI Emoji" font-size="16.317150229200426px" fill="#fff" text-anchor="start" style="white-space: pre;" direction="ltr" dominant-baseline="text-before-edge">VIN</text></g><g transform="translate(70 160) rotate(0 18.0469970703125 9.600000000000023)"><text x="0" y="0" font-family="Virgil, Segoe UI Emoji" font-size="16.317150229200426px" fill="#fff" text-anchor="start" style="white-space: pre;" direction="ltr" dominant-baseline="text-before-edge">GND</text></g><g transform="translate(120 160) rotate(0 16.570945739746094 9.600000000000023)"><text x="0" y="0" font-family="Virgil, Segoe UI Emoji" font-size="16.317150229200426px" fill="#fff" text-anchor="start" style="white-space: pre;" direction="ltr" dominant-baseline="text-before-edge">SDN</text></g><g transform="translate(160 160) rotate(0 16.668807983398438 9.600000000000023)"><text x="0" y="0" font-family="Virgil, Segoe UI Emoji" font-size="16.317150229200426px" fill="#fff" text-anchor="start" style="white-space: pre;" direction="ltr" dominant-baseline="text-before-edge">SDA</text></g><g stroke-linecap="round" transform="translate(137 90) rotate(0 15 5)"><path d="M0 0 C0 0, 0 0, 0 0 M0 0 C0 0, 0 0, 0 0 M-0.07 2.42 C0.88 2.19, 2.3 1, 2.95 0.01 M0.32 2.93 C1.3 1.55, 2.35 0.34, 3.02 -0.35 M-0.84 5.94 C1.84 5.06, 4.14 1.92, 4.44 0.84 M-0.58 6.65 C1.51 4.76, 2.76 2.85, 5.08 0.65 M0.1 8.6 C2.63 6.43, 4.54 3.79, 8.12 -0.07 M0.25 8.74 C1.86 6.85, 4.08 3.49, 8 0.46 M2.05 12.55 C4.63 8.8, 7.73 3.79, 12.09 -0.15 M0.89 11.26 C3.15 8.4, 5.57 4.88, 10.75 0.06 M2.5 10.07 C5.34 6.1, 8.54 3.84, 14.16 0.05 M3.85 10.37 C6.18 7.97, 8.75 4.34, 13.2 -0.38 M6.07 12.27 C9.21 7.26, 10.16 5.11, 14.85 0.81 M5.74 11.22 C8.75 8.04, 11.97 4.23, 15.4 0.92 M8.62 9.45 C11.7 7.33, 13.6 3.49, 18.09 1.05 M9.16 11.13 C11.37 7.99, 14.12 4.2, 17.79 -0.46 M11.92 11.68 C15.19 9.56, 14.68 4.47, 22.49 1.38 M10.89 11.04 C13.17 8.73, 15.89 6.34, 21.79 -0.33 M15.19 10.14 C18.1 8.22, 20.88 4.45, 22.87 0.76 M14.59 11.24 C18.54 7.3, 22.53 1.58, 24.47 -0.41 M16.07 10.37 C19.75 8.59, 22.7 5.96, 27.58 0.08 M17.34 11.22 C20.74 7.46, 23.4 3.24, 25.93 0.34 M19.83 10.19 C24.11 8.08, 26.05 2, 27.95 -1.07 M19.82 9.98 C23.58 6.17, 26.63 1.99, 29.72 -0.38 M22.84 10.42 C25.71 8.69, 28.4 4.77, 31.97 -0.73 M22.54 11.22 C25.46 7.37, 29.65 2.83, 31.23 0.25 M24.65 10.46 C27.02 9.22, 29.56 6.51, 31.19 3.76 M24.6 10.95 C26.98 8.64, 29.17 5.64, 30.42 4.49 M27.9 11.03 C28.54 10.09, 29.45 8.8, 30.97 6.76 M27.83 10.97 C28.79 9.76, 29.67 8.24, 31.04 7.02 M0.33 10.29 C0.33 10.29, 0.33 10.29, 0.33 10.29 M0.33 10.29 C0.33 10.29, 0.33 10.29, 0.33 10.29 M3.31 10.44 C2.32 9.05, 1.08 7.82, 0.38 7.46 M2.99 9.9 C2.03 9.26, 1.13 8.26, 0.16 7.34 M5.72 10.47 C4.02 8.36, 1.63 6.25, -0.85 4.11 M6.27 10 C4.38 8.78, 3.49 8, 0.2 4.75 M9.19 9.13 C6.02 6.49, 2.74 3.63, -0.88 2.54 M8.72 9.31 C6.06 6.91, 2.28 4.24, -0.46 2.19 M11.18 10.16 C8.88 5.64, 3.14 2.81, 0.57 1.02 M11.8 9.86 C8.56 6.57, 4.83 3.26, 0.6 -0.44 M14.23 10.77 C11.32 7.89, 8.55 4.95, 3.8 -2.03 M15.81 9.83 C11.69 6.46, 7.23 3.01, 3.5 -0.43 M18.3 9.87 C14.69 4.79, 9.27 2.59, 7.18 0.22 M17.5 10.24 C15.64 8.06, 13.07 5.23, 5.98 -0.33 M20.03 10.94 C18.78 8.44, 16.63 4.36, 8.08 0.02 M21.63 10.31 C18.67 6.4, 14.76 3.53, 10.03 -0.85 M23.96 8.64 C21.2 6.22, 15.38 1.67, 13.38 -0.48 M24.68 10.17 C19.91 6.54, 16.28 3.11, 12.59 -0.5 M27.18 8.95 C22.68 5.61, 17.94 0.94, 15.86 0.99 M27.82 9.9 C23.03 5.91, 18.37 2.96, 15.66 -0.64 M29.81 8.68 C27.35 5.97, 23.68 2.8, 19.68 -1.21 M29.51 10.33 C26.07 5.67, 21.88 1.78, 18.59 0.1 M29.02 6.73 C29.06 4.19, 25.94 4.62, 20.75 -0.16 M29.86 6.26 C27.53 5.36, 26.18 3.39, 21.27 -0.57 M30.71 4.56 C28.54 3.02, 27.9 2.48, 23.6 -0.01 M30.23 4.79 C28.4 3.34, 26.64 1.59, 24.4 -0.21 M29.98 1.81 C29.27 1.4, 28.84 0.35, 27.97 -0.01 M30.18 1.87 C29.61 1.4, 29.01 0.83, 27.88 -0.06" stroke="#333333" stroke-width="0.25" fill="none"></path><path d="M0.73 1.71 C11.67 -1.65, 17.7 -0.77, 30.84 -1.2 M-0.32 0.84 C11.45 0.12, 20.39 -0.91, 29.11 -0.12 M29.33 -0.49 C29.31 3.03, 30.19 4.84, 29.49 9.41 M30.09 -0.06 C29.85 3.3, 30.3 7.21, 30.02 9.74 M30.31 8.48 C18.75 10.73, 5.04 11.05, -1.76 9.12 M29.06 9.87 C20.06 10.12, 10.74 10.48, -0.04 10.85 M-0.18 10.24 C-0.06 6.76, -0.28 4.64, -0.87 0.75 M-0.43 9.71 C-0.18 6.04, -0.06 2.71, 0.3 0.18" stroke="#343a40" stroke-width="0.5" fill="none"></path></g><g stroke-linecap="round" transform="translate(170 90) rotate(0 15 5)"><path d="M0 0 C0 0, 0 0, 0 0 M0 0 C0 0, 0 0, 0 0 M-0.2 2.57 C1.14 2.49, 1.54 1.72, 3.03 0.14 M0.31 2.94 C1.09 1.81, 2.04 0.7, 2.67 -0.12 M-0.72 6.66 C1.62 5.88, 1.7 3.2, 5.46 0.28 M-0.01 6.6 C1.02 5.03, 2.02 3.86, 5.27 0.26 M-0.68 9.67 C1.33 7.44, 2.88 5.62, 7.57 0.07 M-0.55 8.87 C2.83 5.75, 4.73 3.37, 8.1 0.25 M2.05 12.01 C4.7 8.67, 6.09 6.15, 10.51 -0.81 M0.76 11.11 C2.82 8.63, 4.23 6.52, 10.72 0.13 M2.6 9.66 C5.22 6.36, 9.56 5.06, 13.73 -0.61 M2.9 10.88 C5.91 8.05, 7.71 5.5, 13.31 -0.53 M7.81 11.31 C8.49 6.5, 12.02 3.37, 16.1 0.28 M6.77 10.39 C8.64 8.76, 9.89 6.34, 16.22 0.35 M8.01 10.43 C12.46 5.72, 15.17 2.67, 19.36 0.05 M9.69 10.13 C12.63 6.78, 14.91 3.25, 17.85 -0.34 M11.85 12.68 C14.81 7.01, 14.82 6.78, 22.71 -0.82 M11.21 10.57 C14.89 7.27, 18.48 4.59, 21 0.24 M13.33 11.61 C18.58 7.13, 22.02 2.11, 25.11 1.13 M14.43 11.39 C17.11 8.97, 18.01 6.4, 23.94 -0.74 M16.58 11.46 C20.83 8.23, 24.25 4.1, 26.04 1.01 M17.42 11.32 C20.23 7.44, 22.57 3.94, 26.29 0.62 M19.41 11.68 C23.58 7.42, 23.79 3.52, 27.91 1.39 M19.2 10.7 C21.86 7.49, 24.13 6, 28.6 0.24 M21.25 11.94 C25.82 8.29, 28.2 5.21, 29.85 1.7 M22.05 11.17 C24.8 8.82, 26.85 5.11, 30.83 0.88 M24.31 11.2 C27.06 9.8, 28.35 7.46, 30.31 5.07 M24.8 10.82 C27.13 8.47, 28.76 6.18, 31.04 4.14 M27.9 10.72 C28.71 9.89, 29.18 9.22, 30.68 7.18 M27.84 10.89 C29.16 9.18, 30.18 7.87, 30.94 7.05 M0.33 10.29 C0.33 10.29, 0.33 10.29, 0.33 10.29 M0.33 10.29 C0.33 10.29, 0.33 10.29, 0.33 10.29 M3.51 10.33 C2.1 9.36, 0.85 8.7, 0.13 7.61 M2.96 10 C2.11 9.17, 0.95 8.27, 0.01 7.57 M6.55 10.01 C4.9 8.61, 3.35 6.85, -0.6 3.89 M6.08 9.54 C4.3 8.43, 2.86 7.18, 0.04 4.77 M8.23 9.88 C5.73 7.58, 3.12 5.02, 0.46 2.64 M8.41 10.28 C6.59 7.67, 4.35 5.19, 0.11 2.31 M12.38 11.31 C7.53 6.36, 4.43 2.91, 1.66 -0.05 M12.08 10.15 C8.87 7.32, 5.62 4.65, 0.2 -0.86 M16.01 8.98 C11.29 5.28, 6.57 3.19, 1.63 -0.28 M15.07 10.24 C12 6.92, 8.69 4.9, 3.23 0.08 M18.12 10.63 C14.46 7.35, 13.49 5.95, 6.99 -1.06 M18.5 10.07 C14.93 6.85, 10.7 2.52, 6.44 -0.49 M22.31 10.34 C19.08 8.12, 14.22 2.84, 9.81 -0.24 M21.69 10.91 C18 7.98, 15.21 5.39, 8.95 -0.04 M23.03 10.83 C19.91 5.3, 14.61 3.71, 12.33 0.41 M24.56 9.75 C21.69 7.85, 18.99 5.12, 12.31 0.18 M26.36 9.49 C24.39 7.05, 21.17 5.74, 16.92 1.16 M27.31 9.93 C23.33 6.46, 20.44 3.27, 15.29 0.1 M29.11 10.51 C25.9 7.33, 22.31 4.42, 17.74 0.67 M30.76 9.62 C27.19 7.24, 24.33 5.05, 19.05 -0.88 M29.78 7.74 C26.49 4.29, 26.12 1.9, 21.8 -1.22 M29.31 6.42 C26.66 4.11, 23.04 0.81, 21.4 -0.88 M30.33 4 C28.58 3.6, 27.91 1.71, 24.97 -0.56 M30.57 4.48 C28.77 2.8, 26.62 1.15, 24.77 -0.43 M30.21 1.65 C29.73 1.34, 28.62 0.52, 28.1 -0.27 M30.27 1.8 C29.56 1.11, 28.72 0.41, 28.05 -0.01" stroke="#333333" stroke-width="0.25" fill="none"></path><path d="M1.71 1.85 C8.16 -2.06, 18.94 0.74, 28.8 1.01 M0.84 0.94 C8.07 -0.53, 14.94 -0.8, 29.88 -0.95 M29.51 -0.74 C31.02 3.69, 30.79 6.6, 29.41 10.42 M29.94 -0.25 C29.93 4.14, 30.41 7.91, 29.74 10.46 M28.48 10.49 C19.72 8.57, 8.83 8.29, -0.88 10.62 M29.87 9.99 C18.22 10.32, 6.62 9.68, 0.85 9.98 M0.24 9.94 C-0.36 6.72, 0.5 3.13, 0.75 0.69 M-0.29 9.77 C-0.3 7.39, 0.05 5.32, 0.18 0.11" stroke="#343a40" stroke-width="0.5" fill="none"></path></g><g transform="translate(80 20) rotate(0 33.25605773925781 9.600000000000023)"><text x="0" y="0" font-family="Virgil, Segoe UI Emoji" font-size="16.317150229200426px" fill="#ffff" text-anchor="start" style="white-space: pre;" direction="ltr" dominant-baseline="text-before-edge">VL6180X</text></g><g stroke-linecap="round" transform="translate(30 90) rotate(0 15 17)"><path d="M0 0 C0 0, 0 0, 0 0 M0 0 C0 0, 0 0, 0 0 M0.57 3.09 C1.07 2.26, 1.66 1.76, 3.15 -0.52 M0.07 2.98 C0.94 1.92, 1.91 0.72, 2.67 -0.14 M0.47 7.18 C0.61 4.46, 2.63 3.55, 4.36 0.05 M-0.17 6.33 C0.79 5.14, 2.3 3.61, 4.65 0.74 M-0.28 9.4 C2.1 6.66, 4.69 3.41, 8.18 -0.25 M0.19 8.79 C2.32 6.27, 5.84 2.98, 7.74 0.48 M1.35 12.81 C3.73 8.91, 7.97 1.89, 9.27 1.27 M0.14 11.82 C2.68 8.41, 6.82 4.66, 10.64 -0.34 M-2.18 13.76 C2.88 13.11, 6.38 8.08, 12.14 -0.95 M-0.39 15.15 C3.65 10.06, 8.78 4.73, 13.66 0.69 M-1.26 16.97 C3.72 12.33, 9.01 8.4, 13.81 0.64 M0.3 18.42 C2.41 14.6, 6.97 11.31, 16.27 -0.36 M-0.25 19.6 C3.7 15.42, 10.93 10.43, 18.88 -1.19 M0.56 20.51 C4.73 14.43, 9.61 8.63, 17.94 0.97 M1.63 22.25 C5.29 17.47, 16.14 6.76, 21.67 -0.85 M0.62 23.52 C6.08 19.45, 9.6 13.63, 21.65 0.71 M1.27 27.63 C10.38 15.81, 18.99 9.13, 22.5 0.24 M0.77 28.28 C7.43 18.38, 16.38 7.55, 24.94 0.37 M0.41 32.46 C6.36 25.36, 11.84 17.55, 26.46 0.17 M0.44 30.34 C8.47 19.6, 17.73 10.28, 26.1 0.49 M1.78 32.97 C7 21.66, 15.75 15.27, 28.11 0.41 M-0.26 32.57 C8.39 24.57, 16.63 14.2, 29.23 0.68 M2.37 36.03 C12.58 23.88, 20.8 11.96, 30.95 0.06 M1.19 36.35 C11.54 22.52, 22.84 9.99, 31.17 0.88 M4.93 36.86 C11.54 27.51, 17.88 19.91, 31.43 4.5 M4.55 34.45 C10.32 27.07, 17.43 20.24, 29.88 4.17 M8 34.48 C15.27 25.49, 21.98 16.49, 32.94 7.57 M7.38 34.48 C14.67 25.31, 23.6 15.14, 31.83 8 M11.32 34.64 C14.76 29.02, 23.41 19.03, 30.68 9.02 M9.68 34.97 C17.52 24.82, 25.88 17.15, 31.32 9.78 M11.17 35.73 C15.93 29.07, 24.34 21.12, 31.64 14.98 M11.81 35.38 C15.59 30.77, 19.57 26.38, 29.84 14.39 M15.15 34.76 C18.75 28.08, 21.82 23.12, 30.66 14.57 M14.56 35.13 C21.37 28.9, 26.95 21.51, 30.51 16.92 M16.22 34.77 C20.46 28.61, 27.77 25.73, 30.55 17.42 M17.65 35.15 C22.08 29.92, 25.94 26.52, 31.64 19.28 M19.57 34.75 C23.32 32.06, 26.62 29.19, 30.83 21.63 M19.91 34.86 C22.54 32.14, 25.17 28.34, 31.74 22.13 M22.61 34.56 C24.22 33.55, 25.14 30.86, 30.37 24.47 M22.25 35 C25.38 31.88, 28.86 28.36, 30.32 24.94 M24.44 34.94 C27.23 33.19, 29.08 30.14, 31.29 28.22 M25.51 35.34 C26.52 33.08, 27.68 31.68, 30.94 28.22 M28.21 35.19 C28.39 33.69, 29.36 33.38, 31.01 30.86 M27.78 35.04 C28.87 33.89, 29.78 32.65, 31.36 31.07 M-0.23 33.8 C-0.23 33.8, -0.23 33.8, -0.23 33.8 M-0.23 33.8 C-0.23 33.8, -0.23 33.8, -0.23 33.8 M3.21 34.06 C2.09 33.46, 1.84 33.01, 0.42 31.72 M3.29 34.19 C2.35 33.2, 0.9 32.31, 0.35 31.71 M5.85 34.48 C4.14 33.11, 2.24 31.59, -0.5 28.6 M5.96 33.99 C4.35 32.79, 3.54 31.32, 0.05 28.7 M7.82 33.39 C7.93 31.29, 5.21 29.54, 1.08 26.79 M9.13 34.03 C6.13 31.12, 3.44 28.55, -0.63 26.47 M11.4 34.37 C8.34 28.8, 5.2 26.8, 0.27 22.39 M13.27 34.17 C9.66 31.49, 6.87 29.01, -0.02 23.13 M17.1 35.4 C11.34 31.25, 9.73 27.45, 1.07 20.42 M16.04 33.92 C11.41 30.03, 7.69 27.87, 0.93 20.33 M16.34 34.64 C12.99 31.16, 6.12 25.43, -0.72 19.74 M17.44 34.08 C12.08 28.8, 8.42 24.95, 0.68 18.1 M19.84 32.94 C13.39 25.79, 6.5 21.45, -0.74 13.55 M21.63 34.22 C15.34 28.2, 8.94 22.46, -0.71 15.02 M23.48 35.81 C16.84 26.85, 3.88 18.39, 1.27 10.95 M25.45 34.2 C16.87 27.69, 10.22 22.61, -0.76 12.94 M27.12 33.66 C17.02 25.31, 4.88 16.92, -0.87 11.06 M27.92 34.63 C21.24 27.32, 13.53 23.04, 0.48 10.36 M31.19 34.75 C21.64 26.35, 8.57 17.22, -0.75 7.31 M30.34 34.79 C20.33 26.44, 12.25 17.94, -0.13 6.76 M28.71 30.84 C19.82 22.04, 6.89 8.8, 1.27 4.31 M30.6 30.43 C22.94 24.92, 17.58 19.09, -0.83 4.66 M31.16 26.65 C22.49 20.1, 15.01 15.65, 1.03 2.19 M30.57 28.33 C21.9 20.58, 13.84 14.95, 0.51 1.97 M30.28 27.62 C22.53 19.78, 12.76 12.67, 0.21 -1.16 M30.2 26.1 C18.86 14.35, 5.46 5.13, -0.65 -0.66 M30.08 24.79 C22.56 13.68, 11 6.28, 4.35 0.83 M30.99 22.24 C24.77 17.34, 18.42 13.44, 2.94 -0.81 M29.45 21.73 C25.85 16.23, 18.83 9.07, 7.15 1.09 M29.02 21.08 C20.93 13.39, 13.89 5.31, 6.06 0.5 M31.98 17.47 C22.41 14.65, 18.15 8.35, 7.57 0.46 M30.15 18.85 C24.04 11.65, 18.09 6.67, 8.44 0.41 M29.72 15.49 C24.59 13.32, 23.68 8.17, 12.12 -1.41 M30.19 14.75 C24.15 10.16, 17.6 3.45, 12.58 0.25 M31.73 12.59 C23.34 9.07, 20.78 1.52, 14.76 -1.01 M30.9 12.91 C25.71 8.45, 18.87 3.04, 15.85 0.57 M31.11 10.83 C27.75 6.71, 22.42 2.31, 18.44 -0.28 M29.7 9.06 C27.33 6.69, 22.73 3.57, 18 -0.53 M31.22 6.39 C28.23 5.28, 26.85 2.4, 21.75 0.26 M30.1 7.01 C27.93 4.73, 24.94 2.47, 21.21 0.25 M31.03 5.38 C29.67 3.53, 28.53 2.43, 24.58 -1.25 M30.6 5.09 C28.83 3.52, 26.92 1.69, 24.11 -0.18 M30.06 1.77 C29.27 1.08, 28.41 0.3, 27.84 -0.26 M30.19 1.93 C29.14 1.19, 28.23 0.33, 27.89 0" stroke="#333333" stroke-width="0.25" fill="none"></path><path d="M-1.73 -1.95 C9.23 0.57, 18.98 0.73, 29.27 0.38 M0.18 -0.63 C7.2 -1.17, 15.98 -1.23, 30.55 0.45 M31.96 0.28 C31.31 6.92, 28.66 16.72, 31.88 35.09 M29.75 0.41 C30.68 10.87, 29.43 22.55, 30.74 33.36 M30.93 32.52 C21.77 32.32, 10.17 34.69, 1.97 33.56 M30.18 34.6 C24.35 33.96, 18.46 33.98, 0 34.97 M-0.52 33.44 C1.12 22.66, 1.41 16.18, -1.02 0.71 M-0.54 33.77 C0.38 27.35, 0.55 19.69, -0.26 0.71" stroke="#343a40" stroke-width="0.5" fill="none"></path></g></svg>