<svg version="1.1" xmlns="http://www.w3.org/2000/svg" viewBox="0 0 410.062363456555 361.6450978001458" width="820.12472691311" height="723.2901956002916">
  <!-- svg-source:excalidraw -->
  
  <defs>
    <style class="style-fonts">
      @font-face {
        font-family: "Virgil";
        src: url("https://excalidraw.com/Virgil.woff2");
      }
      @font-face {
        font-family: "Cascadia";
        src: url("https://excalidraw.com/Cascadia.woff2");
      }
    </style>
  </defs>
  <g stroke-linecap="round"><g transform="translate(203.37264720916164 250) rotate(0 -96.01285724254979 -89.67982037002218)"><path d="M-0.56 -0.7 C-30.79 -3.92, -154.33 6.61, -180.94 -19.91 C-207.56 -46.42, -187.09 -133.29, -160.25 -159.8 C-133.4 -186.3, -43.09 -175.7, -19.86 -178.92 M1.35 1.55 C-28.55 -1.41, -151.64 8.33, -178.72 -18.32 C-205.81 -44.97, -187.67 -131.27, -161.14 -158.37 C-134.61 -185.47, -43.2 -177.59, -19.54 -180.91" stroke="#343a40" stroke-width="4" fill="none"></path></g></g><mask></mask><g stroke-linecap="round" transform="translate(200.06236345655498 190) rotate(0 100 70)"><path d="M1.85 -1.14 L201.6 1.65 L199.4 138.95 L-0.03 138.4" stroke="none" stroke-width="0" fill="#4c6ef5"></path><path d="M-1.41 0.14 C50.18 1.35, 101.31 2.67, 198.64 1.32 M-0.75 0.86 C44.67 2.54, 90.92 2.34, 199.39 0.11 M201.55 -1.34 C198.16 50.57, 200.54 98.67, 198.92 141.27 M200.35 0.81 C198.63 30.11, 197.96 59.49, 200.72 139.88 M200.89 141.24 C154.39 143.55, 107.79 141.41, 1.77 138.41 M199.13 140.86 C139.08 140.5, 77.78 141.56, -0.7 139.15 M-0.41 139.04 C-0.37 94.44, -2.06 49, 0.11 0.71 M-0.15 141 C0.44 102.98, 1.57 68.28, 0.15 0.27" stroke="#343a40" stroke-width="0.5" fill="none"></path></g><g stroke-linecap="round" transform="translate(386 317) rotate(0 5 5)"><path d="M3.9 0.15 C4.79 0.05, 6.53 0.51, 7.61 0.93 C8.69 1.34, 10.04 1.82, 10.38 2.65 C10.72 3.49, 10.18 4.68, 9.63 5.92 C9.08 7.16, 8.09 9.45, 7.07 10.1 C6.05 10.75, 4.33 10.12, 3.53 9.79 C2.72 9.47, 3.01 9, 2.26 8.17 C1.51 7.34, -0.79 5.83, -0.96 4.83 C-1.14 3.84, 0.16 2.94, 1.22 2.2 C2.28 1.46, 4.5 0.83, 5.4 0.4 C6.3 -0.04, 6.8 -0.53, 6.6 -0.43 M6.5 0.97 C7.3 1.56, 8.38 2.69, 8.72 3.72 C9.06 4.76, 8.7 6.27, 8.54 7.19 C8.38 8.11, 8.26 8.81, 7.75 9.23 C7.25 9.65, 6.47 9.69, 5.53 9.72 C4.6 9.75, 2.93 9.89, 2.15 9.39 C1.37 8.9, 1.35 7.99, 0.86 6.76 C0.38 5.53, -1.18 3.3, -0.75 2.02 C-0.32 0.74, 2.44 -0.58, 3.46 -0.9 C4.47 -1.23, 4.76 0.04, 5.36 0.07 C5.97 0.1, 7.03 -1.02, 7.09 -0.73" stroke="none" stroke-width="0" fill="#efefef"></path><path d="M3.58 -0.07 C4.38 -0.35, 6.32 0.01, 7.44 0.51 C8.56 1.01, 10.06 1.69, 10.3 2.94 C10.54 4.18, 9.53 6.94, 8.85 8 C8.17 9.05, 6.91 9, 6.22 9.25 C5.54 9.5, 5.59 9.7, 4.76 9.49 C3.94 9.28, 1.89 8.86, 1.26 8.01 C0.63 7.16, 1.05 5.59, 1 4.38 C0.94 3.18, 0.31 1.35, 0.91 0.78 C1.51 0.2, 3.79 1.13, 4.61 0.93 C5.42 0.72, 5.65 -0.31, 5.8 -0.45 M5.75 -0.07 C6.29 0.44, 7.1 1.9, 7.71 2.81 C8.33 3.72, 9.45 4.21, 9.45 5.39 C9.44 6.57, 8.36 9.35, 7.68 9.89 C6.99 10.42, 6.06 8.61, 5.33 8.61 C4.6 8.61, 4.29 10.49, 3.3 9.88 C2.3 9.27, -0.18 6.27, -0.66 4.96 C-1.14 3.66, -0.34 2.66, 0.42 2.06 C1.18 1.45, 2.7 1.45, 3.9 1.35 C5.1 1.24, 7.06 1.73, 7.64 1.43 C8.21 1.13, 7.68 -0.29, 7.35 -0.46" stroke="#343a40" stroke-width="0.5" fill="none"></path></g><g stroke-linecap="round" transform="translate(330 270) rotate(0 10 20)"><path d="M0 0 C0 0, 0 0, 0 0 M0 0 C0 0, 0 0, 0 0 M-0.03 3.12 C0.82 1.59, 1.81 1.06, 3.07 0.14 M0.36 2.96 C1.03 2.07, 1.97 1.05, 2.96 -0.05 M0.3 6.51 C1 3.46, 3.82 2.3, 4.68 0.49 M-0.05 6.6 C1.6 4.09, 3.57 1.71, 5.09 0.42 M-0.66 8.28 C1.78 7.91, 4.4 3.57, 6.9 1.32 M-0.18 9.23 C3.24 5.82, 5.74 2.54, 7.34 -0.03 M-0.45 11.48 C4.71 8.12, 9.08 2.22, 10.64 0.48 M0.35 12.09 C3.74 7.9, 7.31 4.22, 10.19 0.76 M-1.86 16.51 C2.9 11, 8.7 7.29, 14.63 0.37 M-0.33 16.04 C3.23 9.88, 7.51 6.33, 13.39 0.43 M1.66 17.26 C5.72 15.19, 5.96 11.11, 17.57 1.18 M-0.22 18.54 C4.19 14.74, 8.1 10.43, 15.81 -0.43 M1.63 20.29 C4.05 17.79, 6.91 11.73, 19.57 -1.75 M-0.68 21.56 C3.6 17.06, 8.97 11.41, 19.08 -0.5 M1.65 24.74 C5.2 16.95, 11.57 11.79, 19.07 0.26 M0.19 24.66 C7.12 15.98, 13.8 7.33, 20.67 1.54 M-1.84 28.47 C7.88 18.41, 13.59 8.36, 19.69 5.23 M-0.3 27.57 C7.28 19.53, 14.75 9.71, 20.8 4.3 M-0.76 31.9 C8.7 21.15, 14.6 11.64, 19.69 5.5 M-0.34 31.28 C5.54 22.67, 12.16 16.66, 21.08 6.96 M-1.17 31.31 C7.17 26.88, 12.61 21.01, 22.25 9.35 M-0.21 33.67 C5.96 27.38, 11.45 19.97, 21.1 10.2 M-1.06 35.39 C6.06 31.29, 11.71 23.7, 22.24 12.53 M0.12 37.32 C6.48 29.02, 13.91 20.56, 20.36 11.97 M1.79 39.83 C8.19 31.61, 15.77 22.17, 22.5 13.61 M0.36 40.36 C6.85 31.78, 12.02 24.95, 20.74 16.14 M3.35 41.11 C6.78 32.97, 16.45 23.49, 21.96 20.53 M1.67 41.56 C7.29 34.83, 13.04 29.11, 19.92 19.33 M3.52 41.33 C6.34 37.27, 11.18 32.75, 21.83 23.11 M4.1 41.44 C9.87 35.24, 13.77 28.8, 19.73 22.72 M5.07 40.52 C9.4 35.32, 15.36 32.59, 19.81 26.47 M5.66 41.87 C10.43 36.17, 16.97 29.32, 21.61 25.68 M9.04 39.69 C13.19 35.15, 18.21 33.15, 20.31 27.6 M9 41.14 C11.28 38.62, 15.39 35.84, 20.9 27.73 M13.03 40.57 C15.09 36.69, 18.23 34.29, 21.83 29.99 M12.27 40.37 C14.41 38.51, 18.14 35.09, 20.64 30.92 M14.9 40.87 C15.27 39.26, 17.23 37.46, 20.75 33.57 M14.56 40.43 C16.17 39.01, 17.74 36.83, 21.01 34.39 M17.4 41.73 C18.65 39.68, 19.92 37.74, 21.02 36.26 M17.15 41.14 C18.29 39.44, 20.01 37.89, 21.1 36.93 M-0.18 39.84 C-0.18 39.84, -0.18 39.84, -0.18 39.84 M-0.18 39.84 C-0.18 39.84, -0.18 39.84, -0.18 39.84 M3.61 40.35 C2.9 39.77, 1.87 39.12, 0.16 37.81 M3.56 40.26 C2.48 39.43, 1.67 38.98, 0.35 37.73 M6.56 39.79 C3.93 37.47, 1.85 36.24, 0.9 35.42 M5.94 40.12 C4.3 38.69, 3.03 37.16, -0.09 35.06 M8.76 40.09 C5.38 38.66, 3.23 33.93, 0.97 31.19 M8.79 39.47 C5.83 36.97, 2.76 33.67, -0.33 32.02 M11.38 38.86 C7.32 35.82, 6.41 34.61, -0.55 29.22 M12.09 39.73 C7.78 36.1, 2.19 31.21, -1.01 29.91 M14.86 40.46 C11.79 37.18, 5.43 33.12, -0.53 27.58 M14.47 40.12 C9.06 34.45, 4.22 30.42, -0.44 26.31 M19.7 40.17 C13.96 33.61, 8.1 31.84, -1.51 25.21 M18.09 40.73 C14.06 37.06, 8.95 31.84, 0.62 23.39 M18.67 39 C17.05 33.15, 10.8 31.64, -0.05 22.3 M19.84 39.51 C14.27 33.87, 7.79 29.8, -0.44 21.06 M21.12 35.75 C18.44 31.25, 10.87 28.13, -0.44 19.96 M20.02 37.05 C16.58 32.7, 12.76 29.33, 0.07 19.55 M19.35 35.61 C14.84 26.26, 6.69 21.74, 0.88 18.3 M21.02 34.63 C14.56 27.7, 6.39 22.19, 0.88 15.97 M21.24 29.6 C15.69 25.65, 8.97 23.78, 0.53 12.63 M21.28 32.06 C15.05 26.2, 10.71 22.77, -0.89 13.82 M21.73 28.79 C14.26 24.12, 7.27 18.04, -1.17 10.22 M20.91 29.03 C15.61 24.09, 10.05 20.43, 0.28 9.99 M22.5 26.35 C17.14 22.83, 8.35 16.73, 1.05 6.5 M20.62 25.61 C16.59 23.01, 11.26 18.13, -0.4 8.22 M21.12 21.83 C15.46 18.78, 11.33 16.21, 1.07 7.15 M21.09 23.65 C14.85 18.18, 7.17 13.41, 0.96 5.55 M21.79 21.82 C17.67 14.94, 11.73 14.27, -1.48 4.3 M20.91 19.84 C12.97 14.22, 4.99 8.33, 0.29 3.73 M20.51 16.2 C12.97 13.62, 6.2 3.74, 1.57 1.29 M19.97 17.16 C13.45 10.73, 4.9 4.38, -0.51 0.31 M20.74 16.23 C17.54 9.44, 11.15 5.65, 1.53 -1.82 M20.4 15.33 C14.03 8.53, 5.66 2.73, 1.33 -0.62 M18.62 14.75 C17.82 10.22, 13.11 7.57, 4.83 -1.43 M19.91 12.22 C16.1 9.11, 11.7 3.99, 4.6 -1.28 M21.48 10.81 C15.14 6.88, 10.67 4.22, 6.18 -2.67 M19.85 10.8 C16.19 6.23, 11.56 1.99, 7.32 -1.43 M21.32 6.76 C15.89 3.13, 13.46 1.35, 9.83 -0.4 M20.14 7.23 C18.01 5.39, 14.42 1.7, 10.07 -1.44 M20.2 4.41 C17.99 4.13, 15.55 0.36, 13.47 -1.05 M20.89 5.52 C17.8 2.79, 15.42 0.21, 13.12 -1.44 M20.57 2.15 C19.24 0.85, 17.97 -0.03, 17.11 -1.08 M20.35 2.32 C19.74 1.55, 18.78 0.98, 16.69 -1.23" stroke="#f6f7f7" stroke-width="0.25" fill="none"></path><path d="M-0.02 -0.48 C6.5 0.64, 14.1 -1.05, 19.24 -0.47 M0.38 0.51 C5.33 0.65, 11.59 0.79, 19.74 0.48 M19.82 0.17 C20.16 12.83, 19.54 26.41, 19.47 40.4 M20.76 0.95 C20.92 9.11, 19.38 17.65, 19.57 39.34 M21.4 38.26 C14.61 38.77, 11.8 40.69, 1.97 39.91 M19.33 39.78 C13.93 39.86, 5.11 38.87, -0.97 39.19 M1.45 39.6 C-1.61 31.49, 0.32 24.91, 0.38 0.12 M0.51 40.9 C0.35 25.38, 0.4 12.84, 0.49 0.62" stroke="#343a40" stroke-width="0.5" fill="none"></path></g><g stroke-linecap="round" transform="translate(365.9999999999991 210) rotate(89.99999999999994 4 4)"><path d="M0 0 L8 0 L8 8 L0 8" stroke="none" stroke-width="0" fill="#ced4da"></path><path d="M0 0 C1.8 0, 3.59 0, 8 0 M0 0 C1.86 0, 3.71 0, 8 0 M8 0 C8 1.97, 8 3.93, 8 8 M8 0 C8 2.98, 8 5.96, 8 8 M8 8 C4.81 8, 1.62 8, 0 8 M8 8 C6.22 8, 4.44 8, 0 8 M0 8 C0 5.56, 0 3.12, 0 0 M0 8 C0 5.48, 0 2.97, 0 0" stroke="#343a40" stroke-width="1" fill="none"></path></g><g stroke-linecap="round" transform="translate(366.0000000000016 226.00000000000045) rotate(89.99999999999994 4 4)"><path d="M0 0 L8 0 L8 8 L0 8" stroke="none" stroke-width="0" fill="#ced4da"></path><path d="M0 0 C2.99 0, 5.97 0, 8 0 M0 0 C2.5 0, 5 0, 8 0 M8 0 C8 2.91, 8 5.81, 8 8 M8 0 C8 2.3, 8 4.6, 8 8 M8 8 C6.31 8, 4.61 8, 0 8 M8 8 C6.35 8, 4.71 8, 0 8 M0 8 C0 5.31, 0 2.63, 0 0 M0 8 C0 5.38, 0 2.77, 0 0" stroke="#343a40" stroke-width="1" fill="none"></path></g><g stroke-linecap="round" transform="translate(350 210.00000000000068) rotate(89.99999999999994 4 4)"><path d="M0 0 L8 0 L8 8 L0 8" stroke="none" stroke-width="0" fill="#ced4da"></path><path d="M0 0 C1.81 0, 3.61 0, 8 0 M0 0 C2.84 0, 5.68 0, 8 0 M8 0 C8 1.71, 8 3.41, 8 8 M8 0 C8 1.86, 8 3.72, 8 8 M8 8 C5.55 8, 3.09 8, 0 8 M8 8 C5.38 8, 2.76 8, 0 8 M0 8 C0 5.94, 0 3.88, 0 0 M0 8 C0 4.86, 0 1.72, 0 0" stroke="#343a40" stroke-width="1" fill="none"></path></g><g stroke-linecap="round" transform="translate(350.00000000000114 226) rotate(89.99999999999994 4 4)"><path d="M0 0 L8 0 L8 8 L0 8" stroke="none" stroke-width="0" fill="#ced4da"></path><path d="M0 0 C1.69 0, 3.37 0, 8 0 M0 0 C2.27 0, 4.54 0, 8 0 M8 0 C8 1.71, 8 3.42, 8 8 M8 0 C8 2.54, 8 5.07, 8 8 M8 8 C4.99 8, 1.97 8, 0 8 M8 8 C5.56 8, 3.12 8, 0 8 M0 8 C0 6.34, 0 4.67, 0 0 M0 8 C0 6.06, 0 4.11, 0 0" stroke="#343a40" stroke-width="1" fill="none"></path></g><g stroke-linecap="round" transform="translate(366.00000000000273 241.99999999999977) rotate(89.99999999999994 4 4)"><path d="M0 0 L8 0 L8 8 L0 8" stroke="none" stroke-width="0" fill="#ced4da"></path><path d="M0 0 C1.62 0, 3.23 0, 8 0 M0 0 C2.2 0, 4.4 0, 8 0 M8 0 C8 2.8, 8 5.59, 8 8 M8 0 C8 3.2, 8 6.4, 8 8 M8 8 C5.19 8, 2.37 8, 0 8 M8 8 C5.42 8, 2.84 8, 0 8 M0 8 C0 5.02, 0 2.04, 0 0 M0 8 C0 4.96, 0 1.92, 0 0" stroke="#343a40" stroke-width="1" fill="none"></path></g><g stroke-linecap="round" transform="translate(350.00000000000364 242.00000000000045) rotate(89.99999999999994 4 4)"><path d="M0 0 L8 0 L8 8 L0 8" stroke="none" stroke-width="0" fill="#ced4da"></path><path d="M0 0 C1.73 0, 3.46 0, 8 0 M0 0 C3.02 0, 6.04 0, 8 0 M8 0 C8 2.68, 8 5.36, 8 8 M8 0 C8 2.79, 8 5.59, 8 8 M8 8 C6.38 8, 4.75 8, 0 8 M8 8 C5.76 8, 3.53 8, 0 8 M0 8 C0 5.72, 0 3.43, 0 0 M0 8 C0 4.94, 0 1.88, 0 0" stroke="#343a40" stroke-width="1" fill="none"></path></g><g stroke-linecap="round" transform="translate(150 30) rotate(0 35.03118172827749 40)"><path d="M-0.07 1.41 L69.92 0.98 L71.88 78.16 L0.71 80.56" stroke="none" stroke-width="0" fill="#333333"></path><path d="M1.31 1.28 C26.38 -0.35, 56.58 -0.93, 69.57 1.55 M0.38 -0.4 C15.77 0.34, 31.76 -1.15, 70.56 0.35 M68.4 -0.36 C71.38 30.23, 68.58 61.3, 72.06 80.98 M70.48 -0.22 C71.44 28.63, 70.51 59.8, 70.58 79.03 M70.97 81.4 C40.84 77.78, 15.26 79.77, 0.45 79.59 M69.07 80.35 C52.46 80.46, 34.34 79.18, 0.72 79.85 M0.56 80.76 C0.97 48.56, 2.53 14.89, 1.6 1.65 M-0.8 80.18 C0.86 58.09, -0.57 37.35, -0.12 0.11" stroke="#343a40" stroke-width="4" fill="none"></path></g><g stroke-linecap="round" transform="translate(220.06236345655498 10) rotate(0 4.968818271722512 60)"><path d="M1.41 -0.14 L10.92 1.82 L8.09 120.71 L0.56 121.55" stroke="none" stroke-width="0" fill="#222"></path><path d="M0.64 -0.68 C2.56 0.48, 4.71 -0.31, 10.71 -0.67 M-0.2 -0.27 C2.49 -0.47, 3.93 0.21, 10.11 0.4 M9.58 1.45 C10.02 32.63, 10.61 69.96, 10.92 121.38 M9.72 0.99 C10.23 41.87, 11.87 84.12, 8.97 120.95 M10.63 119.23 C5.59 120.32, 3.16 120.27, -0.2 119.52 M10.11 120.03 C7.28 119.69, 3.81 120.26, -0.07 120.5 M0.76 120.29 C1.7 96.07, 0.02 70.05, 1.65 -0.6 M0.18 120.44 C-0.28 89.33, 0.58 60.52, 0.11 -0.03" stroke="#343a40" stroke-width="4" fill="none"></path></g><g stroke-linecap="round" transform="translate(210 290) rotate(0 15 15)"><path d="M9.18 0.28 C11.8 -1.1, 16.42 -0.82, 19.49 0.54 C22.55 1.89, 25.79 5.51, 27.58 8.4 C29.37 11.29, 30.77 15.02, 30.21 17.9 C29.64 20.78, 26.62 23.52, 24.17 25.69 C21.73 27.86, 18.52 30.88, 15.54 30.94 C12.55 31, 8.71 28.36, 6.27 26.05 C3.83 23.74, 1.57 20.13, 0.9 17.09 C0.22 14.05, 0.6 10.51, 2.22 7.81 C3.85 5.11, 8.85 2.1, 10.66 0.87 C12.47 -0.36, 12.83 0.22, 13.06 0.44 M14.77 -0.9 C17.62 -1.01, 21.77 0.35, 24.23 2.76 C26.68 5.18, 28.71 10.31, 29.5 13.6 C30.29 16.89, 30.69 19.68, 28.96 22.5 C27.23 25.31, 22.23 29.55, 19.12 30.5 C16.02 31.45, 13.41 29.3, 10.33 28.18 C7.25 27.07, 2.08 26.59, 0.64 23.8 C-0.81 21.01, 0.69 15.03, 1.63 11.45 C2.58 7.87, 4.29 4.29, 6.3 2.32 C8.3 0.36, 12.4 0.17, 13.66 -0.32 C14.91 -0.8, 13.49 -0.86, 13.83 -0.59" stroke="none" stroke-width="0" fill="#12b886"></path><path d="M9 0.68 C11.85 -0.56, 16.94 0.32, 20.08 1.28 C23.21 2.24, 26.22 3.83, 27.81 6.44 C29.4 9.06, 30.09 13.71, 29.64 16.97 C29.2 20.23, 27.53 23.69, 25.13 26.02 C22.72 28.34, 18.23 30.93, 15.2 30.94 C12.18 30.95, 9.44 28.02, 6.98 26.08 C4.52 24.15, 1.26 22.31, 0.46 19.34 C-0.35 16.36, 0.44 11.28, 2.14 8.24 C3.85 5.21, 8.96 2.34, 10.7 1.11 C12.45 -0.11, 12.53 0.66, 12.61 0.89 M16.42 0.71 C19.51 0.92, 23.2 1.01, 25.52 3.55 C27.84 6.08, 30.37 12.62, 30.34 15.92 C30.3 19.22, 27.39 20.8, 25.31 23.33 C23.24 25.86, 20.8 30.21, 17.89 31.11 C14.98 32.01, 10.84 30.48, 7.88 28.74 C4.92 27, 1.38 23.93, 0.13 20.68 C-1.11 17.43, -0.81 12.43, 0.4 9.24 C1.61 6.06, 4.66 3.18, 7.41 1.57 C10.16 -0.05, 15.38 -0.05, 16.88 -0.44 C18.37 -0.83, 16.2 -1.07, 16.39 -0.77" stroke="#343a40" stroke-width="0.5" fill="none"></path></g><g stroke-linecap="round" transform="translate(250 290) rotate(0 10 10)"><path d="M11.31 0.53 C13.21 1.03, 16.62 2.62, 18.04 4.2 C19.45 5.79, 19.93 7.91, 19.78 10.04 C19.64 12.17, 18.76 15.26, 17.17 16.97 C15.57 18.67, 12.32 19.98, 10.23 20.28 C8.13 20.57, 6.31 20.12, 4.61 18.74 C2.91 17.37, 0.53 14.14, 0.01 12 C-0.5 9.87, 0.44 7.91, 1.52 5.95 C2.59 3.99, 4.67 1.09, 6.46 0.24 C8.25 -0.62, 10.92 0.65, 12.26 0.81 C13.59 0.98, 14.31 0.97, 14.46 1.24 M6.74 -0.39 C8.45 -1.49, 11.91 -1.46, 13.99 -0.36 C16.07 0.74, 18.35 4.35, 19.23 6.22 C20.11 8.1, 19.68 8.93, 19.27 10.87 C18.86 12.81, 18.4 16.36, 16.78 17.87 C15.15 19.38, 11.63 20.05, 9.52 19.93 C7.42 19.81, 5.61 18.37, 4.15 17.13 C2.7 15.88, 1.44 14.49, 0.8 12.47 C0.15 10.45, -0.84 6.81, 0.29 4.99 C1.43 3.18, 6.49 2.42, 7.6 1.57 C8.72 0.72, 6.98 0.02, 6.97 -0.11" stroke="none" stroke-width="0" fill="#333333"></path><path d="M10.09 0.77 C11.99 0.51, 14.83 0.77, 16.31 2.02 C17.79 3.27, 18.5 6.07, 18.98 8.27 C19.45 10.46, 20.08 13.16, 19.16 15.16 C18.25 17.17, 15.59 19.77, 13.47 20.31 C11.35 20.85, 8.5 19.31, 6.44 18.39 C4.37 17.48, 2.12 16.67, 1.07 14.8 C0.03 12.93, -0.48 9.46, 0.17 7.19 C0.83 4.91, 3.18 2.24, 5.02 1.15 C6.86 0.06, 9.82 0.77, 11.24 0.63 C12.66 0.49, 13.53 0.13, 13.54 0.32 M6.32 2.14 C8.29 1.12, 10.58 0.45, 12.35 0.76 C14.13 1.07, 15.51 2.35, 16.96 4.01 C18.41 5.67, 21.2 8.49, 21.05 10.71 C20.89 12.93, 17.49 15.68, 16.04 17.34 C14.59 19.01, 14.14 20.44, 12.35 20.7 C10.56 20.96, 7.04 20.16, 5.28 18.91 C3.52 17.65, 2.58 15.14, 1.8 13.2 C1.02 11.25, 0.18 9.26, 0.62 7.23 C1.07 5.21, 3.4 1.92, 4.47 1.03 C5.54 0.14, 6.98 1.51, 7.02 1.88" stroke="#343a40" stroke-width="0.5" fill="none"></path></g><g stroke-linecap="round" transform="translate(386 197) rotate(0 5 5)"><path d="M7.02 0.72 C8.16 1.2, 9.43 2.65, 9.84 3.53 C10.24 4.42, 9.84 5.22, 9.44 6.03 C9.03 6.84, 8.05 7.87, 7.4 8.4 C6.76 8.92, 6.59 8.96, 5.59 9.16 C4.58 9.36, 2.36 10.33, 1.4 9.57 C0.44 8.81, -0.02 5.79, -0.18 4.6 C-0.34 3.41, -0.23 3.1, 0.44 2.43 C1.1 1.76, 2.57 0.78, 3.81 0.56 C5.05 0.34, 7.31 1.17, 7.88 1.11 C8.44 1.05, 7.23 0.08, 7.21 0.2 M6.49 -0.53 C7.81 -0.63, 9.23 -0.47, 10.04 0.36 C10.85 1.19, 11.47 3.08, 11.35 4.47 C11.22 5.85, 10.23 7.72, 9.28 8.68 C8.33 9.65, 6.67 10.02, 5.64 10.26 C4.61 10.51, 3.84 10.96, 3.1 10.14 C2.35 9.32, 1.74 6.46, 1.19 5.35 C0.64 4.25, -0.23 4.53, -0.22 3.53 C-0.21 2.53, 0.27 -0.13, 1.24 -0.63 C2.21 -1.13, 5.02 0.5, 5.59 0.5 C6.16 0.5, 4.48 -0.57, 4.68 -0.61" stroke="none" stroke-width="0" fill="#efefef"></path><path d="M7.07 0.14 C7.9 0.75, 8.87 2.52, 9.21 3.43 C9.56 4.35, 9.2 4.84, 9.13 5.63 C9.06 6.42, 9.59 7.27, 8.78 8.16 C7.97 9.05, 5.55 10.84, 4.26 10.95 C2.97 11.05, 1.76 9.56, 1.06 8.8 C0.37 8.03, 0.15 7.56, 0.08 6.36 C0.02 5.16, 0.18 2.68, 0.67 1.59 C1.16 0.51, 1.69 -0.09, 3.01 -0.15 C4.33 -0.21, 7.84 0.9, 8.58 1.22 C9.33 1.54, 7.76 1.67, 7.49 1.75 M6.91 -0.93 C8.15 -0.53, 9.71 1.34, 10.18 2.41 C10.64 3.49, 9.88 4.43, 9.71 5.54 C9.53 6.65, 10.22 8.15, 9.12 9.09 C8.03 10.03, 4.28 11.43, 3.13 11.19 C1.99 10.96, 2.98 8.66, 2.25 7.68 C1.52 6.69, -0.91 6.08, -1.25 5.3 C-1.6 4.53, -0.82 3.68, 0.17 3.03 C1.16 2.39, 3.3 1.69, 4.67 1.43 C6.04 1.18, 8.12 1.74, 8.41 1.51 C8.69 1.28, 6.67 0.03, 6.38 0.04" stroke="#343a40" stroke-width="0.5" fill="none"></path></g><g stroke-linecap="round" transform="translate(204 315) rotate(0 5 5)"><path d="M3.84 0.34 C4.86 -0.17, 5.78 0.52, 6.54 0.81 C7.3 1.09, 7.92 1.45, 8.4 2.07 C8.88 2.69, 9.39 3.35, 9.43 4.51 C9.46 5.68, 9.22 8.2, 8.61 9.09 C8.01 9.97, 6.89 9.79, 5.81 9.83 C4.74 9.87, 2.95 9.84, 2.17 9.33 C1.38 8.83, 1.41 7.92, 1.11 6.81 C0.82 5.7, -0.06 3.88, 0.4 2.67 C0.86 1.46, 3.37 -0.22, 3.87 -0.48 C4.36 -0.73, 3.29 1.02, 3.4 1.15 M6.44 1.68 C7.61 2.07, 9.1 2.8, 9.63 3.34 C10.15 3.87, 9.74 3.98, 9.59 4.91 C9.44 5.83, 9.48 7.92, 8.72 8.88 C7.96 9.83, 6.17 10.84, 5.03 10.64 C3.89 10.44, 2.56 8.3, 1.9 7.69 C1.25 7.08, 1.39 7.73, 1.1 6.99 C0.82 6.25, -0.26 4.36, 0.22 3.27 C0.69 2.18, 2.75 0.75, 3.97 0.45 C5.18 0.15, 7.16 1.42, 7.51 1.49 C7.86 1.55, 6.21 0.83, 6.08 0.85" stroke="none" stroke-width="0" fill="#efefef"></path><path d="M4.93 -0.04 C5.9 -0.03, 6.83 0.36, 7.71 0.99 C8.6 1.63, 10.07 2.6, 10.24 3.77 C10.41 4.95, 9.37 7.24, 8.73 8.04 C8.09 8.84, 7.32 8.3, 6.38 8.58 C5.44 8.86, 3.88 9.71, 3.06 9.74 C2.25 9.77, 1.97 9.79, 1.49 8.75 C1.01 7.72, 0.17 4.82, 0.19 3.56 C0.21 2.29, 0.84 1.63, 1.61 1.16 C2.37 0.7, 3.79 0.76, 4.8 0.75 C5.8 0.75, 7.44 1.3, 7.61 1.13 M2.83 1.49 C3.92 1.63, 5.46 1.2, 6.82 1.75 C8.19 2.3, 10.46 3.83, 11.01 4.8 C11.56 5.76, 10.85 7, 10.11 7.56 C9.37 8.11, 7.8 7.86, 6.58 8.1 C5.37 8.34, 3.86 9.19, 2.8 9 C1.74 8.8, 0.72 7.69, 0.22 6.93 C-0.28 6.16, -0.33 5.31, -0.18 4.39 C-0.03 3.48, 0.57 2.09, 1.12 1.43 C1.68 0.77, 2.67 0.67, 3.14 0.43 C3.61 0.2, 3.67 0.06, 3.95 0.03" stroke="#343a40" stroke-width="0.5" fill="none"></path></g><g stroke-linecap="round" transform="translate(204 195) rotate(0 5 5)"><path d="M5.64 -0.63 C6.79 -0.6, 8.34 0.47, 9.04 1.34 C9.73 2.22, 9.93 3.6, 9.81 4.61 C9.7 5.62, 8.88 6.55, 8.34 7.4 C7.81 8.25, 7.72 9.32, 6.6 9.71 C5.48 10.1, 2.8 10.18, 1.63 9.76 C0.46 9.34, -0.27 8.36, -0.41 7.18 C-0.55 5.99, 0.41 3.82, 0.79 2.64 C1.17 1.45, 0.92 0.52, 1.86 0.07 C2.8 -0.38, 5.32 -0.25, 6.43 -0.06 C7.54 0.14, 8.42 1.19, 8.51 1.25 M4.43 -0.35 C5.39 -1.17, 6.67 -1.12, 7.53 -0.61 C8.39 -0.09, 9.42 1.58, 9.6 2.75 C9.78 3.91, 8.9 5.39, 8.62 6.39 C8.34 7.4, 8.45 8.11, 7.91 8.79 C7.37 9.47, 6.38 10.3, 5.38 10.48 C4.37 10.65, 3 10.6, 1.9 9.84 C0.8 9.08, -0.85 7.17, -1.22 5.92 C-1.59 4.67, -0.93 3.29, -0.32 2.33 C0.29 1.36, 1.65 0.27, 2.45 0.11 C3.25 -0.05, 4.32 1.44, 4.48 1.37" stroke="none" stroke-width="0" fill="#efefef"></path><path d="M5.25 -0.56 C6.25 -0.47, 7.4 1.68, 8.28 2.6 C9.15 3.53, 10.57 3.94, 10.49 4.97 C10.42 6, 8.63 7.91, 7.83 8.76 C7.04 9.62, 6.6 9.98, 5.71 10.09 C4.81 10.2, 3.51 9.98, 2.47 9.42 C1.43 8.86, -0.12 7.78, -0.51 6.75 C-0.91 5.72, -0.29 4.13, 0.12 3.25 C0.53 2.37, 0.65 1.86, 1.95 1.46 C3.25 1.06, 6.91 0.87, 7.94 0.83 C8.96 0.8, 8.22 1.24, 8.11 1.23 M6.67 -1.43 C7.88 -1.46, 7.81 1.69, 8.5 2.65 C9.19 3.62, 10.79 3.36, 10.8 4.36 C10.81 5.36, 9.45 7.62, 8.55 8.65 C7.64 9.67, 6.37 10.24, 5.36 10.52 C4.36 10.81, 3.24 11.04, 2.51 10.34 C1.78 9.64, 1.58 7.53, 0.97 6.33 C0.36 5.12, -1.41 4.12, -1.14 3.12 C-0.88 2.12, 1.73 0.78, 2.56 0.32 C3.39 -0.14, 3.14 0.63, 3.82 0.35 C4.5 0.07, 6.58 -1.36, 6.66 -1.36" stroke="#343a40" stroke-width="0.5" fill="none"></path></g><g stroke-linecap="round" transform="translate(210 230) rotate(0 21.538461538461547 20)"><path d="M-1.6 0.36 L43.96 -0.59 L41.09 41.13 L-0.25 40.22" stroke="none" stroke-width="0" fill="#f6f7f7"></path><path d="M1.46 -1.48 C11.63 -1.64, 25.16 2.24, 41.98 1.72 M0.13 0.55 C15.59 0.04, 32.27 -0.38, 42.27 0.42 M44.34 -1.74 C41.2 14.53, 43.62 28.69, 42.74 40.55 M42.95 -0.68 C43.18 9.68, 43.5 18.06, 43.56 40.98 M41.31 40.13 C29.88 41.46, 11.68 42.33, 0.87 39.04 M42.14 40.28 C28.25 39.89, 13.12 39.19, -0.15 40.15 M0.71 39.15 C-1.98 33.42, -0.43 25.95, -1.7 -1.93 M0.27 40.92 C-0.72 27.68, 0.67 13.45, -0.53 -0.02" stroke="#343a40" stroke-width="0.5" fill="none"></path></g><g stroke-linecap="round" transform="translate(213.07692307692287 233.07692307692287) rotate(0 18.461538461538453 16.15384615384619)"><path d="M13.31 -0.48 C16.88 -1.57, 23.2 0.07, 26.91 1.72 C30.63 3.38, 34.12 6.32, 35.59 9.45 C37.05 12.59, 36.82 17.34, 35.7 20.53 C34.58 23.73, 32.01 26.64, 28.86 28.6 C25.7 30.55, 20.69 32.55, 16.79 32.26 C12.89 31.98, 8.42 29.28, 5.47 26.89 C2.53 24.5, -0.54 21.14, -0.88 17.92 C-1.22 14.71, 0.3 10.74, 3.43 7.59 C6.57 4.44, 14.56 0.09, 17.92 -0.96 C21.29 -2.01, 23.47 0.81, 23.63 1.29 M27.92 1.24 C31.4 2.32, 33.42 6.38, 34.59 9.67 C35.77 12.97, 35.85 17.75, 34.97 21 C34.09 24.25, 32.67 27.16, 29.33 29.17 C25.98 31.18, 18.97 33.34, 14.9 33.06 C10.83 32.77, 7.38 29.92, 4.9 27.45 C2.41 24.97, 0.22 21.57, -0.01 18.21 C-0.25 14.85, 0.92 10.48, 3.5 7.29 C6.09 4.1, 11.55 -0.07, 15.5 -0.93 C19.45 -1.8, 25.19 1.67, 27.22 2.11 C29.25 2.55, 28.02 1.52, 27.68 1.7" stroke="none" stroke-width="0" fill="#868e96"></path><path d="M17.47 -0.67 C21.28 -1.36, 26.57 0.13, 29.55 2.04 C32.52 3.94, 34.5 7.14, 35.32 10.75 C36.15 14.36, 36.03 20.25, 34.47 23.71 C32.91 27.18, 29.28 30.09, 25.97 31.55 C22.66 33.01, 18.47 33.43, 14.62 32.46 C10.76 31.49, 5.16 28.69, 2.82 25.75 C0.49 22.81, 0.24 18.18, 0.6 14.83 C0.96 11.49, 2.09 8.29, 4.96 5.69 C7.83 3.08, 15.17 0.01, 17.8 -0.81 C20.44 -1.62, 20.71 0.48, 20.76 0.79 M24.96 1.33 C29.02 2.33, 33.33 4.73, 35.36 7.38 C37.39 10.02, 37.96 13.55, 37.15 17.2 C36.34 20.85, 33.55 26.93, 30.51 29.27 C27.46 31.62, 22.74 31.11, 18.87 31.29 C15.01 31.47, 10.27 32.15, 7.31 30.35 C4.36 28.56, 1.87 23.9, 1.13 20.5 C0.4 17.11, 1.06 13.27, 2.91 9.99 C4.76 6.72, 8.42 2.59, 12.22 0.84 C16.02 -0.92, 23.7 -0.76, 25.69 -0.52 C27.69 -0.28, 24.41 2.03, 24.2 2.26" stroke="#343a40" stroke-width="0.5" fill="none"></path></g><g stroke-linecap="round" transform="translate(290 210) rotate(0 10 20)"><path d="M0 0 C0 0, 0 0, 0 0 M0 0 C0 0, 0 0, 0 0 M0.08 3.15 C1.48 1.65, 2.58 0.73, 3.04 0.08 M0.33 2.96 C1.19 1.55, 1.96 0.66, 2.87 -0.27 M0.07 6.83 C1.75 4.31, 2.98 2.4, 4.72 0.57 M-0.56 6.2 C1.1 4.39, 3.42 2.65, 4.73 0.06 M-1.06 9 C3.01 6.14, 6.22 1.39, 8.44 -0.77 M0.09 9 C1.77 7.04, 4.28 4.82, 7.45 0.17 M1.42 12.48 C3.68 8.38, 6.94 4.57, 11.13 -0.91 M-0.15 11.43 C4.69 6.87, 8.52 2.75, 11.02 0.44 M-0.5 15.6 C5.04 8.83, 7.38 3.35, 15.13 -0.35 M-0.36 16.51 C4.21 10.77, 10.49 3.12, 14.32 0.74 M-0.19 18.26 C5.58 13.46, 12.02 7.57, 16.86 0.71 M-0.43 19.22 C3.1 14.49, 7.49 10, 15.08 0.89 M-1.11 19.77 C4.59 15.12, 9.1 12.87, 18.4 1.41 M-0.22 21.95 C4.9 16.42, 8.02 12.26, 17.65 -0.64 M1.69 23.92 C7 17.49, 11.35 10.64, 18.86 0.82 M0.93 23.26 C8.34 15.11, 15.74 5.01, 20.06 0.13 M0.83 27.44 C7.6 18.58, 16.99 9.3, 19.37 3.5 M-0.83 27.27 C8.32 19.04, 15.28 8.96, 20.21 2.85 M1.37 29.79 C7.03 22.92, 9.94 17.39, 22.46 6.5 M0.23 29.79 C6.67 22.25, 15.42 13.31, 21.51 7.18 M1.06 32.48 C6.51 27.17, 12.82 20.33, 20.43 11.03 M-0.15 32.9 C6.23 25.95, 14.07 18.26, 20.38 10.66 M-1.48 37.63 C6.64 29.38, 11.99 23.23, 20.09 11.96 M-0.82 37.8 C4.3 31.5, 9.52 25.81, 21.29 13.51 M-0.61 40.53 C5.51 35.5, 7.33 28.05, 21 15.16 M-0.86 40.65 C7.37 30.24, 14.81 22.88, 20.19 16.29 M-0.14 41.45 C9.61 33.4, 15.52 25.83, 21.64 18.02 M1.2 40.64 C7.95 33.05, 14.24 26.51, 20.9 19.7 M2.91 40.47 C11.39 35.26, 16.22 26.23, 19.57 20.07 M3.79 40.13 C10.12 33.3, 15.8 27.32, 20.48 21.42 M7.15 39.81 C12.93 33.07, 18.6 29.83, 19.7 26.25 M6.42 41.25 C11.1 34.72, 16.87 28.75, 21.71 24.71 M8.41 40.65 C12.13 36.65, 16.06 36.17, 22.08 29.31 M9.29 41.79 C11.48 38.31, 13.69 35.53, 20.44 29.14 M12 41.36 C12.63 38.1, 16.91 38.09, 21.27 31.22 M11.68 40.97 C14.47 37.78, 16.53 35.74, 20.23 31.13 M15.73 40.09 C15.73 38.46, 18.05 36.78, 20.14 34.4 M14.46 41.03 C17.44 38.16, 19.51 35.3, 20.75 34 M17.6 41.5 C17.46 39.97, 18.24 39.62, 20.73 37 M17.24 41.09 C18.23 39.87, 19.58 37.95, 20.9 36.81 M-0.18 39.84 C-0.18 39.84, -0.18 39.84, -0.18 39.84 M-0.18 39.84 C-0.18 39.84, -0.18 39.84, -0.18 39.84 M3 40.63 C2.31 39.25, 1.1 38.37, 0.61 37.63 M3.5 40.39 C2.32 39.39, 1.23 38.57, 0.36 37.86 M6.05 39.56 C4.03 37.69, 1.83 36.54, 0.1 34.31 M6.26 40.01 C4.16 37.96, 2.37 36.34, -0.2 35.18 M9.03 39.42 C6.03 38.39, 4.62 36.96, -1.17 31.41 M8.85 39.73 C6.03 37.17, 3.32 35.75, 0.3 31.91 M10.82 40.17 C8.18 37.98, 5.71 33.17, -0.49 27.62 M12.05 39.48 C7.31 36.01, 2.79 31.12, -0.06 28.86 M16.13 38.23 C10.28 35.23, 4.36 33.29, 1.68 25.49 M16.26 40.89 C12.11 37.72, 7.72 34.56, 0.99 26.22 M18.86 39.63 C13.54 35.28, 7.57 28.56, -0.58 25.19 M19.22 39.14 C14.35 37.23, 9.61 33.24, 0.74 24.22 M21.24 38.16 C14.12 32.76, 5.61 25.2, 1.14 20.64 M20.43 39.24 C14.47 35.39, 8.67 29.05, -0.72 21.31 M21.06 35.22 C13.43 30.75, 4.8 25.42, 0.28 19.23 M20.9 36.28 C13.14 30.48, 3.24 22.75, -0.15 18.87 M19.83 34.8 C13.58 28.83, 4.03 19.52, 0.95 17.56 M20.82 34.51 C14.73 29.64, 9.69 24.23, 0.84 16.63 M21.51 32.89 C16.93 26.75, 9.02 24.15, 1.11 11.6 M20.53 32.03 C14.07 25.67, 7.77 19.47, 0.12 13.05 M21.89 29.73 C15.91 24.44, 9.06 18.71, 1.28 11.51 M21.14 29.31 C15.84 25.31, 11.98 19.86, 0.02 11.44 M22.31 25.87 C14.75 22.88, 12.76 17.63, -0.3 7.72 M20.42 26.56 C13.28 19.93, 6.68 13.92, -0.3 8.35 M20.84 24.38 C13.43 17.91, 5.94 8.68, 2.04 7.17 M21.25 24.17 C15.72 19.45, 8.62 13.93, 1.06 5.01 M20.98 21.59 C11.19 14.27, 5.03 6.36, 0.58 3.4 M20.49 20.8 C11.87 13.8, 5.97 7.27, -0.85 3.81 M18.82 17.3 C11.47 12.4, 4.44 3.71, -1.12 -0.64 M19.41 17.82 C14.16 12.91, 6.46 6.48, -0.93 0.31 M20.78 14.87 C14.52 11.75, 8.09 4.77, 0.49 -1.09 M21.56 14.7 C14.5 9.94, 6.53 3.17, 1.92 -0.96 M18.72 11.46 C14.26 8.86, 11.43 5.04, 2.9 -0.38 M21.24 13.49 C15.57 7.71, 9.93 2.84, 4.86 -2.39 M18.95 8.91 C19.18 9.02, 15.88 7, 8.3 -1.64 M20.34 10.76 C16.72 6.31, 12.82 3.91, 7.4 -1.48 M20.14 7.08 C16.61 5.03, 14.18 0.3, 9.12 -1.98 M20.57 6.85 C17.06 4.6, 15.38 2.1, 9.86 -1.14 M21.09 5.28 C19.05 2.45, 15.64 0.83, 12.87 -1.72 M20.58 5.05 C18.33 2.89, 15.68 0.72, 12.96 -1.2 M20.25 1.79 C19.67 1.2, 18.53 -0.01, 17.22 -1.28 M20.78 1.99 C19.52 1.46, 19.09 0.7, 16.91 -0.85" stroke="#222" stroke-width="0.25" fill="none"></path><path d="M-0.1 0.76 C6.54 -0.83, 12.33 0.3, 21.56 -0.51 M0.13 -0.09 C7.05 0.41, 13.67 0.1, 19.86 -0.26 M18.9 1.51 C21.58 14.47, 20.29 24.19, 20.07 39.15 M19.4 0.7 C18.88 9.04, 19.19 19.38, 20.4 40.98 M18.27 38.66 C13.65 41.8, 8.26 38.17, -1.92 38.06 M20.3 40.72 C15.41 39.59, 10.98 40.55, 0.47 40.19 M0.78 41.02 C1.63 27.77, -1.93 15.63, 0.62 0.97 M0.1 39.22 C0.24 24.79, -0.58 11.47, 0.18 -0.06" stroke="#343a40" stroke-width="0.5" fill="none"></path></g><g stroke-linecap="round" transform="translate(302 273) rotate(0 10 20)"><path d="M0 0 C0 0, 0 0, 0 0 M0 0 C0 0, 0 0, 0 0 M0.29 2.68 C0.9 2.37, 1.09 1.54, 3.05 -0.32 M0.15 2.81 C0.75 2.22, 1.65 1.14, 2.86 -0.03 M-0.39 5.88 C1.85 4.17, 2.77 2.52, 4.65 -0.4 M-0.47 6.47 C0.61 5.38, 2 3.8, 5.18 0.58 M0.45 9 C2.31 5.4, 5.87 3.51, 6.64 -0.87 M-0.24 9.21 C2.31 6.14, 4.81 4.1, 7.76 0.05 M0.1 12.89 C1.96 7.3, 5.5 4.08, 11.04 0.36 M-0.29 11.69 C2.89 8.68, 5.09 5.16, 9.98 0.3 M0.67 17.1 C5.53 11.77, 8.37 5.83, 14.31 -0.15 M0.41 15.47 C5.51 9.44, 10.14 3.09, 13.95 0.4 M-0.04 20.09 C4.65 13.61, 9.69 8.55, 14.87 0.33 M0.5 18.99 C3.7 14.29, 6.75 10.68, 16.55 0.68 M-0.16 22.73 C3 16.04, 10.71 10.39, 20.39 1.79 M1.04 20.48 C6.33 14.25, 14.56 6.07, 19.35 -0.67 M1.34 22.82 C7.92 16.8, 15.21 5.55, 19.98 2.35 M0.89 23.47 C6.19 15.89, 13.28 9.35, 20.14 0.27 M1.61 25.67 C4.14 22.09, 11.23 16.61, 19.23 2.21 M0.73 27.29 C4.66 23.4, 9.91 17.23, 19.85 4.32 M0.65 31.86 C5.61 21.48, 15.81 11.8, 21.58 4.62 M0.07 30.15 C4.47 23.67, 10.63 18.62, 21.2 6.52 M-0.38 34.6 C6 26.65, 10.87 20.54, 18.66 9.56 M0.7 32.78 C4.45 27.43, 10.73 21.91, 21.24 9.01 M-1.03 36.28 C7.65 30.71, 11.16 23.6, 21.04 13.2 M-0.86 36.24 C5.86 30.24, 11.35 23.42, 21.29 12.85 M-1.39 39 C3.97 34.78, 10.61 28.79, 22.49 15.3 M-0.08 38.74 C4.7 33.64, 11.15 27, 21.47 14.63 M3.45 42.43 C5.77 37.39, 11.48 30.47, 20.15 17.72 M1.44 40.78 C7 34.15, 12.29 28.87, 20.04 19.32 M5.6 40.59 C9.78 31.96, 15.3 25.09, 20.66 20.98 M3.32 40.23 C8.54 35.54, 13.53 29.41, 19.79 22.06 M7.27 42.19 C13.04 36.12, 19.22 28.39, 22.44 25.58 M5.54 41.93 C9.46 38.32, 14.05 33.25, 21.5 23.83 M8.32 41.38 C11.75 38.44, 15.69 34.94, 21.6 28.58 M9.07 40.83 C11.42 38.01, 13.57 36.08, 20.33 29.11 M12.29 42.13 C15.37 38.13, 17.86 32.61, 20.98 30.56 M12.64 41.49 C13.56 39.11, 16.07 37.39, 20.95 31.33 M14.25 39.89 C17.95 37.51, 20.05 35.52, 21.02 33.57 M14.74 40.51 C16.47 38.61, 18.92 36.93, 20.91 34.23 M17.01 41.71 C17.45 40.3, 19.52 39.63, 21.3 36.53 M16.86 41.28 C18.68 39.59, 20.03 38, 21.12 36.56 M-0.18 39.84 C-0.18 39.84, -0.18 39.84, -0.18 39.84 M-0.18 39.84 C-0.18 39.84, -0.18 39.84, -0.18 39.84 M3.25 40.1 C2.37 39.45, 1.57 38.64, 0.14 37.35 M3.27 40.39 C2.15 39.29, 1.35 38.28, 0.54 37.68 M6.07 40.79 C4.23 39.43, 3.9 37.71, 0.17 34.66 M6.02 39.95 C4.63 38.73, 3.42 37.48, 0.33 35.06 M9.97 39.6 C7.19 38.26, 3.22 35.94, -0.13 32.14 M8.95 39.75 C6.24 36.86, 3.3 34.46, 0.43 32.6 M11.91 39.03 C6.14 34.59, 2.43 30.62, 0.9 27.82 M12.18 40.49 C8.65 37.38, 5.17 33.48, -0.75 29.03 M13.51 38.23 C7.87 32.88, 5.5 30.3, 1.79 26.64 M15.91 40.36 C11.91 37.52, 7.37 34.33, 0.85 27.95 M18.88 40.94 C14.19 35.75, 9.2 30.73, -1.41 24.9 M18.43 39.9 C13.8 36.2, 9.45 32.85, 0.26 24.04 M19.35 37.9 C16.04 34.96, 10.6 30.56, -1.17 22.88 M21.13 39.75 C16.41 34.97, 10.03 30.36, 0.77 22.1 M21.99 38.35 C16.02 32.74, 7.48 27.63, 1.15 18.85 M21.12 36.56 C16.51 33.7, 12.04 29.28, 0.28 19.08 M20.02 34.65 C15.29 28.58, 10.02 22.71, -0.68 14.86 M20.04 33.37 C15.82 30.13, 9.5 23.48, 0.12 16.44 M21.53 29.75 C12.79 26.42, 8.35 19.52, -0.62 12.89 M19.89 31.31 C13.56 25.54, 6.58 19.79, 0.38 13.65 M20.91 27.4 C15.65 22.69, 7.76 16.34, -1.63 11.67 M20.77 29.07 C15.27 24.15, 10.44 19.24, -0.1 11.2 M22.52 26.2 C17.49 20.97, 10.77 17.7, 1.5 6.77 M21.71 27.3 C12.87 18.3, 4.67 11.68, -0.37 8.05 M21.89 23.88 C11.58 15.22, 6.53 10.1, 1.83 4.81 M20.11 24.06 C13.15 17.16, 6.76 11.57, -0.47 6.09 M20.41 21.96 C14.94 15.7, 10.8 12.94, 1.46 3.62 M19.66 19.91 C14.18 15.82, 7.81 10.76, -0.01 3.54 M18.51 17.99 C16.01 14.1, 9.79 8.76, -1.77 0.96 M19.71 17.3 C14.61 12.56, 7.97 6.87, -0.23 0.05 M19.37 15.68 C16.02 11.64, 6.85 3.54, 0.42 0.06 M20.22 15.04 C13.76 9.76, 8.01 4.66, 0.85 -0.57 M22.07 13.04 C17.96 9.03, 14.09 6.36, 2.63 -3.56 M21.12 13.72 C14.2 7.45, 9.08 2.75, 3.6 -1.2 M20.33 11.01 C16.74 5.93, 12.04 2.33, 6.91 -2.37 M20.28 10.69 C16 6.66, 11.97 2.12, 7.91 -0.73 M19.8 6.73 C16.5 6.02, 14.96 1.78, 11.61 -1.22 M20.58 7.74 C16.53 4.63, 13.67 1.79, 10.68 -0.87 M20.81 4.86 C18.93 3.53, 15.13 -0.12, 14.18 -1.45 M20.4 5.43 C19.57 3.67, 17.22 1.98, 13.34 -1.23 M20.87 1.96 C19.49 0.9, 18.34 0.05, 16.62 -0.91 M20.68 2.38 C19.91 1.55, 19.05 0.67, 16.76 -0.88" stroke="#222" stroke-width="0.25" fill="none"></path><path d="M0.67 -1.91 C8.61 -0.65, 15.8 -0.07, 21.26 1.99 M-0.03 0.76 C5.63 -0.39, 12.17 0.84, 20.25 0.87 M19.89 1.6 C18.97 11.63, 18.88 22.07, 19.17 40.59 M20.63 -0.16 C19.63 11.54, 19.98 23.01, 19.66 39.45 M18.24 41.54 C15.26 38.21, 11.18 39.67, -0.78 39.43 M20.7 40.13 C14.12 40.5, 9.67 38.89, -0.14 40.35 M0.62 39.65 C-0.5 28.46, -0.09 17.25, 0.51 -0.74 M0.18 40.87 C0.8 23.88, 1.25 9.4, 0.17 0.11" stroke="#343a40" stroke-width="0.5" fill="none"></path></g><g stroke-linecap="round" transform="translate(290 310) rotate(0 20 10)"><path d="M0.8 0.84 L41.07 0.99 L39.59 19.92 L-0.4 19.34" stroke="none" stroke-width="0" fill="#222"></path><path d="M-0.45 1.87 C10.63 -1.49, 19.2 -1.67, 38.39 -1.99 M-0.2 -0.61 C15.66 0.07, 32.29 -0.1, 40.06 0.43 M41.8 0 C38.32 4.34, 40.7 9.47, 41.23 20.5 M40.34 -0.75 C39.54 8.07, 40.2 15.28, 39.54 19.7 M39.63 19.48 C30.38 18.71, 20.93 18.83, 1.25 20.84 M40.74 19.37 C24.76 19.37, 11.22 20.41, 0.83 20.13 M1.4 19.86 C1.93 16.48, 1.17 12.31, 1.5 1.06 M0.14 19.23 C-1.1 15.3, 0.11 9.32, 0.16 0.75" stroke="#343a40" stroke-width="0.5" fill="none"></path></g><g stroke-linecap="round"><g transform="translate(323.05644315774157 330.2969637447968) rotate(0 -0.04321123845875263 10.512506788869814)"><path d="M-1.76 0.09 C0.81 8.24, 1.42 15.05, 1.67 20.93 M-0.48 0.4 C0.25 4.54, -0.39 8.92, -0.74 20.61" stroke="#495057" stroke-width="4" fill="none"></path></g></g><mask></mask><g stroke-linecap="round"><g transform="translate(312.69424472642345 330.2969637447968) rotate(0 -0.1079791121544531 10.070808123139159)"><path d="M1.23 0.5 C1.74 6.52, -1.49 13.31, -1.5 19.76 M-0.46 -0.3 C-0.7 6.93, 0.15 13.9, -0.26 20.44" stroke="#495057" stroke-width="4" fill="none"></path></g></g><mask></mask><g stroke-linecap="round"><g transform="translate(301.55421100743115 330.2969637447968) rotate(0 -0.6940678132402809 10.581462155369536)"><path d="M-1.55 0.68 C-1.33 5.78, 0.97 13.83, -0.13 19.81 M0.12 -0.19 C-0.41 5.32, -0.82 10.72, -0.61 21.35" stroke="#495057" stroke-width="4" fill="none"></path></g></g><mask></mask><g stroke-linecap="round"><g transform="translate(241 238) rotate(0 -10.073003240860999 10.060560398735106)"><path d="M-0.73 1.43 C-4.67 5.69, -9.11 8.82, -20.47 18.26 M0.73 0.66 C-6.79 6.69, -11.91 12.39, -20.88 19.46" stroke="#343a40" stroke-width="4" fill="none"></path></g></g><mask></mask><g stroke-linecap="round" transform="translate(382 243) rotate(89.99999999999994 4 4)"><path d="M0 0 L8 0 L8 8 L0 8" stroke="none" stroke-width="0" fill="#ced4da"></path><path d="M0 0 C1.99 0, 3.98 0, 8 0 M0 0 C2.2 0, 4.4 0, 8 0 M8 0 C8 2.82, 8 5.64, 8 8 M8 0 C8 2.36, 8 4.73, 8 8 M8 8 C5.32 8, 2.63 8, 0 8 M8 8 C5.44 8, 2.88 8, 0 8 M0 8 C0 5.77, 0 3.55, 0 0 M0 8 C0 6.4, 0 4.8, 0 0" stroke="#e6cc44" stroke-width="1" fill="none"></path></g><g stroke-linecap="round" transform="translate(382.00000000000273 259.00000000000045) rotate(89.99999999999994 4 4)"><path d="M0 0 L8 0 L8 8 L0 8" stroke="none" stroke-width="0" fill="#ced4da"></path><path d="M0 0 C1.93 0, 3.86 0, 8 0 M0 0 C2.98 0, 5.97 0, 8 0 M8 0 C8 2.81, 8 5.61, 8 8 M8 0 C8 2.36, 8 4.72, 8 8 M8 8 C5.73 8, 3.46 8, 0 8 M8 8 C5.86 8, 3.72 8, 0 8 M0 8 C0 5.16, 0 2.32, 0 0 M0 8 C0 5.58, 0 3.15, 0 0" stroke="#e6cc44" stroke-width="1" fill="none"></path></g><g stroke-linecap="round" transform="translate(382.00000000000364 275) rotate(89.99999999999994 4 4)"><path d="M0 0 L8 0 L8 8 L0 8" stroke="none" stroke-width="0" fill="#ced4da"></path><path d="M0 0 C1.88 0, 3.75 0, 8 0 M0 0 C2.47 0, 4.93 0, 8 0 M8 0 C8 3.08, 8 6.17, 8 8 M8 0 C8 2.85, 8 5.7, 8 8 M8 8 C5 8, 2 8, 0 8 M8 8 C5.9 8, 3.81 8, 0 8 M0 8 C0 4.97, 0 1.95, 0 0 M0 8 C0 5.76, 0 3.51, 0 0" stroke="#e6cc44" stroke-width="1" fill="none"></path></g></svg>